<?xml version="1.0" ?><!DOCTYPE svg  PUBLIC '-//W3C//DTD SVG 1.1//EN'  'http://www.w3.org/Graphics/SVG/1.1/DTD/svg11.dtd'><svg height="512px" style="enable-background:new 0 0 512 512;" version="1.1" viewBox="0 0 512 512" width="512px" xml:space="preserve" xmlns="http://www.w3.org/2000/svg" xmlns:xlink="http://www.w3.org/1999/xlink"><g id="_x32_75-reddit"><g><path d="M434.705,205.146c-14.544,0-27.342,6.012-36.744,15.416    c-34.612-23.946-81.248-39.363-132.924-41.011l26.856-120.998l85.513,19.197c0,20.942,17.063,38.005,38.006,38.005    c21.329,0,38.489-17.549,38.489-38.49c0-20.942-17.063-38.49-38.489-38.49c-14.933,0-27.826,9.017-34.226,21.329l-94.432-20.942    c-4.751-1.26-9.405,2.133-10.665,6.884l-29.475,133.407c-51.288,2.133-97.438,17.549-132.146,41.496    c-9.406-9.792-22.687-15.804-37.231-15.804c-53.906,0-71.552,72.326-22.203,97.051c-1.744,7.66-2.52,15.805-2.52,23.945    c0,81.248,91.524,147.08,203.892,147.08c112.854,0,204.378-65.832,204.378-147.08c0-8.141-0.872-16.674-3.005-24.332    C506.158,276.99,488.32,205.146,434.705,205.146L434.705,205.146z" style="fill:#F54B00;"/><path d="M133.277,307.334c0-21.328,17.063-38.49,38.49-38.49c20.942,0,38.005,17.064,38.005,38.49    c0,20.941-17.063,38.008-38.005,38.008C150.438,345.439,133.277,328.275,133.277,307.334z" style="fill:#FFFFFF;"/><path d="M341.048,397.986c-35.291,35.289-134.862,35.289-170.153,0c-3.877-3.393-3.877-9.404,0-13.283    c3.395-3.391,9.405-3.391,12.799,0c26.953,27.633,116.344,28.119,144.461,0c3.393-3.391,9.402-3.391,12.797,0    C344.927,388.582,344.927,394.594,341.048,397.986L341.048,397.986z" style="fill:#FFFFFF;"/><path d="M340.273,345.439c-20.943,0-38.006-17.066-38.006-38.008c0-21.328,17.063-38.49,38.006-38.49    c21.328,0,38.488,17.064,38.488,38.49C378.667,328.275,361.602,345.439,340.273,345.439z" style="fill:#FFFFFF;"/></g></g><g id="Layer_1"/></svg>