<svg id="Layer_1" data-name="Layer 1" xmlns="http://www.w3.org/2000/svg" viewBox="0 0 1089.14 806.34"><defs><style>.cls-1{fill:#13131f;}.cls-2{fill:#5fd62f;}.cls-3{fill:#fff;}.cls-4{fill:#9fe682;}.cls-5{fill:#7fde59;}.cls-6{fill:#429520;}.cls-7{fill:#327018;}.cls-8{fill:#265412;}.cls-9{fill:#1c400e;}.cls-10{fill:none;stroke:#fff;stroke-miterlimit:10;opacity:0.3;}</style></defs><rect class="cls-1" width="1089.14" height="806.34"/><path class="cls-2" d="M227,87.88H241.7v6.6H220.05v-35h21.4v6.6H227v7.45H240.2V80H227Z"/><path class="cls-2" d="M255.2,94.48l-11.75-35H251l8.55,26.91L268,59.48h7.55l-11.8,35Z"/><path class="cls-2" d="M285.79,87.88h14.75v6.6H278.9v-35h21.39v6.6h-14.5v7.45H299V80H285.79Z"/><path class="cls-3" d="M341,59.48v6.6H331.6v28.4h-6.9V66.08h-9.41v-6.6Z"/><path class="cls-3" d="M361.35,91.36a13.27,13.27,0,0,1-18.78-18.75,13.27,13.27,0,0,1,18.78,18.75Zm-14.23-4.43A6.5,6.5,0,0,0,352,88.88a6.61,6.61,0,0,0,4.85-1.95,7.29,7.29,0,0,0,0-9.9,6.61,6.61,0,0,0-4.85-2,6.5,6.5,0,0,0-4.83,2,7.34,7.34,0,0,0,0,9.9Z"/><path class="cls-3" d="M392.79,94.48h-7.5L376.2,83.13V94.48h-6.46v-35h6.46V80.53l8.59-11h7.7l-10,12.35Z"/><path class="cls-3" d="M399.65,84.63c.86,3.14,3.21,4.7,7.05,4.7a6.57,6.57,0,0,0,5.59-2.5l5.2,3q-3.69,5.36-10.89,5.35a13.44,13.44,0,0,1-10-3.75,13.81,13.81,0,0,1,0-18.87,12.7,12.7,0,0,1,9.5-3.78,11.93,11.93,0,0,1,9.07,3.8,13.22,13.22,0,0,1,3.57,9.4,14.7,14.7,0,0,1-.25,2.65Zm-.11-5h12.75a6,6,0,0,0-2.27-3.8,6.54,6.54,0,0,0-3.92-1.25,6.84,6.84,0,0,0-4.31,1.33A6.34,6.34,0,0,0,399.54,79.63Z"/><path class="cls-3" d="M437.15,68.78a9.05,9.05,0,0,1,6.77,2.75,10.47,10.47,0,0,1,2.67,7.6V94.48h-6.44V79.93a5.08,5.08,0,0,0-1.36-3.82,4.89,4.89,0,0,0-3.59-1.33,5.32,5.32,0,0,0-4,1.55A6.47,6.47,0,0,0,429.7,81v13.5h-6.46v-25h6.46v2.8Q432,68.79,437.15,68.78Z"/><path class="cls-3" d="M484.09,94.48,477,82.33h-5.23V94.48h-6.9v-35h14a11.61,11.61,0,0,1,11.65,11.6,10.61,10.61,0,0,1-1.85,6,11.52,11.52,0,0,1-4.89,4.17l7.74,13.2Zm-12.3-28.55V76.28h7.1a4.37,4.37,0,0,0,3.35-1.52,5.22,5.22,0,0,0,1.4-3.68,5.13,5.13,0,0,0-1.4-3.65,4.42,4.42,0,0,0-3.35-1.5Z"/><path class="cls-3" d="M499.49,84.63c.87,3.14,3.22,4.7,7.05,4.7a6.58,6.58,0,0,0,5.6-2.5l5.2,3c-2.46,3.57-6.1,5.35-10.89,5.35a13.46,13.46,0,0,1-10-3.75,13.8,13.8,0,0,1,0-18.87,12.7,12.7,0,0,1,9.5-3.78,11.93,11.93,0,0,1,9.07,3.8,13.22,13.22,0,0,1,3.57,9.4,14.7,14.7,0,0,1-.25,2.65Zm-.1-5h12.75a6,6,0,0,0-2.27-3.8A6.54,6.54,0,0,0,506,74.58a6.84,6.84,0,0,0-4.31,1.33A6.34,6.34,0,0,0,499.39,79.63Z"/><path class="cls-3" d="M523.09,94.48V58h6.45v36.5Z"/><path class="cls-3" d="M540.89,84.63c.87,3.14,3.22,4.7,7.06,4.7a6.57,6.57,0,0,0,5.59-2.5l5.2,3q-3.69,5.36-10.9,5.35a13.45,13.45,0,0,1-10-3.75A12.81,12.81,0,0,1,534.14,82a13,13,0,0,1,3.7-9.42,12.73,12.73,0,0,1,9.5-3.78,11.93,11.93,0,0,1,9.08,3.8A13.22,13.22,0,0,1,560,82a14.7,14.7,0,0,1-.25,2.65Zm-.1-5h12.75a6,6,0,0,0-2.27-3.8,6.55,6.55,0,0,0-3.93-1.25,6.83,6.83,0,0,0-4.3,1.33A6.34,6.34,0,0,0,540.79,79.63Z"/><path class="cls-3" d="M583.29,69.48h6.45v25h-6.45v-3a9.79,9.79,0,0,1-8.15,3.65,11.31,11.31,0,0,1-8.57-3.82,14.07,14.07,0,0,1,0-18.75,11.32,11.32,0,0,1,8.57-3.83,9.82,9.82,0,0,1,8.15,3.65Zm-11.9,17.58a6.65,6.65,0,0,0,5,2,6.74,6.74,0,0,0,5-2,7.52,7.52,0,0,0,0-10.15,6.75,6.75,0,0,0-5-2,6.65,6.65,0,0,0-5,2,7.58,7.58,0,0,0,0,10.15Z"/><path class="cls-3" d="M601.34,76.58c0,.67.45,1.21,1.33,1.63a17.7,17.7,0,0,0,3.22,1.1,34,34,0,0,1,3.8,1.2,7.34,7.34,0,0,1,3.23,2.42,6.73,6.73,0,0,1,1.32,4.25,6.86,6.86,0,0,1-2.87,5.93,12,12,0,0,1-7.18,2.07q-7.7,0-10.5-6l5.6-3.15q1.11,3.26,4.9,3.25c2.3,0,3.45-.71,3.45-2.15q0-1-1.32-1.62a19,19,0,0,0-3.23-1.13,33.71,33.71,0,0,1-3.8-1.25,7.83,7.83,0,0,1-3.22-2.37,6.25,6.25,0,0,1-1.33-4.08,7,7,0,0,1,2.73-5.82,10.66,10.66,0,0,1,6.77-2.13,11.25,11.25,0,0,1,5.55,1.38,10,10,0,0,1,4,3.92l-5.5,3a4.11,4.11,0,0,0-4-2.55,3.71,3.71,0,0,0-2.07.55A1.73,1.73,0,0,0,601.34,76.58Z"/><path class="cls-3" d="M623.49,84.63c.87,3.14,3.22,4.7,7,4.7a6.58,6.58,0,0,0,5.6-2.5l5.2,3q-3.69,5.36-10.9,5.35a13.45,13.45,0,0,1-10-3.75A12.81,12.81,0,0,1,616.74,82a13,13,0,0,1,3.7-9.42,12.73,12.73,0,0,1,9.5-3.78,11.93,11.93,0,0,1,9.08,3.8,13.22,13.22,0,0,1,3.57,9.4,14.7,14.7,0,0,1-.25,2.65Zm-.1-5h12.75a6,6,0,0,0-2.27-3.8,6.55,6.55,0,0,0-3.93-1.25,6.83,6.83,0,0,0-4.3,1.33A6.34,6.34,0,0,0,623.39,79.63Z"/><path class="cls-3" d="M671.84,95.18a15.66,15.66,0,0,1-8.75-2.32,12.49,12.49,0,0,1-5-6.33l5.9-3.45q2.06,5.36,8,5.35a6.91,6.91,0,0,0,4.25-1.05,3.3,3.3,0,0,0-.3-5.52,25.43,25.43,0,0,0-5.9-2.23,34.75,34.75,0,0,1-4-1.4,16.93,16.93,0,0,1-3.25-1.87,7.71,7.71,0,0,1-2.48-3,9.84,9.84,0,0,1-.85-4.2,9.37,9.37,0,0,1,3.38-7.57A12.26,12.26,0,0,1,671,58.78a13.54,13.54,0,0,1,7.48,2.08,13.94,13.94,0,0,1,5,5.77L677.74,70q-2.1-4.5-6.7-4.5a5.28,5.28,0,0,0-3.37,1A3.07,3.07,0,0,0,666.44,69a3.19,3.19,0,0,0,1.38,2.68,19.36,19.36,0,0,0,5.27,2.22l2.43.78c.55.18,1.3.47,2.25.85a13.75,13.75,0,0,1,2.2,1.07,18.24,18.24,0,0,1,1.77,1.35,6.93,6.93,0,0,1,1.53,1.75,9.87,9.87,0,0,1,.9,2.18,9.77,9.77,0,0,1,.37,2.77,9.37,9.37,0,0,1-3.52,7.7A14.15,14.15,0,0,1,671.84,95.18Z"/><path class="cls-3" d="M701.34,95.18a13.31,13.31,0,0,1-9.42-22.6,12.75,12.75,0,0,1,9.42-3.8A13,13,0,0,1,708,70.53a11.68,11.68,0,0,1,4.55,4.7L707,78.48A5.71,5.71,0,0,0,704.72,76a6.63,6.63,0,0,0-3.43-.9,6.49,6.49,0,0,0-4.8,1.93,7.27,7.27,0,0,0,0,9.8,6.48,6.48,0,0,0,4.8,1.92,6.92,6.92,0,0,0,3.48-.87A5.5,5.5,0,0,0,707,85.48l5.6,3.2A12.49,12.49,0,0,1,708,93.41,12.83,12.83,0,0,1,701.34,95.18Z"/><path class="cls-3" d="M729.94,68.78a9.07,9.07,0,0,1,6.78,2.75,10.47,10.47,0,0,1,2.67,7.6V94.48h-6.45V79.93a5.11,5.11,0,0,0-1.35-3.82,4.93,4.93,0,0,0-3.6-1.33,5.33,5.33,0,0,0-4,1.55,6.47,6.47,0,0,0-1.5,4.65v13.5H716v-35h6.45v12.8Q724.84,68.79,729.94,68.78Z"/><path class="cls-3" d="M750.34,84.63c.87,3.14,3.22,4.7,7,4.7a6.58,6.58,0,0,0,5.6-2.5l5.2,3q-3.69,5.36-10.9,5.35a13.45,13.45,0,0,1-9.95-3.75A12.81,12.81,0,0,1,743.59,82a13,13,0,0,1,3.7-9.42,12.73,12.73,0,0,1,9.5-3.78,12,12,0,0,1,9.08,3.8,13.22,13.22,0,0,1,3.57,9.4,14.7,14.7,0,0,1-.25,2.65Zm-.1-5H763a6,6,0,0,0-2.27-3.8,6.55,6.55,0,0,0-3.93-1.25,6.83,6.83,0,0,0-4.3,1.33A6.34,6.34,0,0,0,750.24,79.63Z"/><path class="cls-3" d="M792.69,59.48h6.45v35h-6.45v-3a9.66,9.66,0,0,1-8.1,3.65A11.37,11.37,0,0,1,776,91.36a14.07,14.07,0,0,1,0-18.75,11.38,11.38,0,0,1,8.62-3.83,9.68,9.68,0,0,1,8.1,3.65ZM780.82,87.06a7.23,7.23,0,0,0,9.92,0,7.58,7.58,0,0,0,0-10.15,7.2,7.2,0,0,0-9.92,0,7.49,7.49,0,0,0,0,10.15Z"/><path class="cls-3" d="M821.54,69.48H828v25h-6.45v-2.8c-1.57,2.34-4,3.5-7.45,3.5a9,9,0,0,1-6.77-2.75,10.4,10.4,0,0,1-2.68-7.6V69.48h6.45V84a5.12,5.12,0,0,0,1.35,3.83,4.93,4.93,0,0,0,3.6,1.32,5.28,5.28,0,0,0,4-1.55,6.44,6.44,0,0,0,1.5-4.65Z"/><path class="cls-3" d="M833.89,94.48V58h6.45v36.5Z"/><path class="cls-3" d="M851.69,84.63c.87,3.14,3.22,4.7,7,4.7a6.58,6.58,0,0,0,5.6-2.5l5.2,3q-3.69,5.36-10.9,5.35a13.45,13.45,0,0,1-9.95-3.75,13.81,13.81,0,0,1-.05-18.87,12.72,12.72,0,0,1,9.5-3.78,12,12,0,0,1,9.08,3.8,13.22,13.22,0,0,1,3.57,9.4,14.7,14.7,0,0,1-.25,2.65Zm-.1-5h12.75a6.07,6.07,0,0,0-2.27-3.8,6.55,6.55,0,0,0-3.93-1.25,6.81,6.81,0,0,0-4.3,1.33A6.34,6.34,0,0,0,851.59,79.63Z"/><path class="cls-3" d="M42.73,233.89c0-4.11,2.33-7,6.34-7a6.13,6.13,0,0,1,4,1.4l-1.3,2.22a3.61,3.61,0,0,0-2.71-1.06c-2,0-3.4,1.69-3.4,3.85a1.37,1.37,0,0,0,0,.29,4.39,4.39,0,0,1,3.48-1.75,4.31,4.31,0,0,1,4.63,4.42c0,2.65-2.1,4.66-5.2,4.66C44.47,240.9,42.73,237.72,42.73,233.89Zm8.13,2.45c0-1.43-1.22-2-2.52-2a3.39,3.39,0,0,0-2.65,1.29,2.72,2.72,0,0,0,2.75,2.75A2.19,2.19,0,0,0,50.86,236.34Z"/><path class="cls-3" d="M55.1,233.87c0-3.5,1.73-7,5.62-7s5.62,3.5,5.62,7-1.75,7-5.62,7S55.1,237.38,55.1,233.87Zm8.29,0c0-2.5-.73-4.44-2.67-4.44S58,231.37,58,233.87s.74,4.47,2.69,4.47S63.39,236.38,63.39,233.87Z"/><path class="cls-3" d="M68.87,243.45l-1.12-.92a3.44,3.44,0,0,0,1.57-1.91,1.6,1.6,0,0,1-.39.06,1.38,1.38,0,0,1-1.38-1.47,1.62,1.62,0,0,1,1.58-1.63A1.9,1.9,0,0,1,71,239.66,4.76,4.76,0,0,1,68.87,243.45Z"/><path class="cls-3" d="M72.05,233.87c0-3.5,1.73-7,5.62-7s5.62,3.5,5.62,7-1.75,7-5.62,7S72.05,237.38,72.05,233.87Zm8.29,0c0-2.5-.73-4.44-2.67-4.44S75,231.37,75,233.87s.73,4.47,2.69,4.47S80.34,236.38,80.34,233.87Z"/><path class="cls-3" d="M84.66,233.87c0-3.5,1.73-7,5.62-7s5.62,3.5,5.62,7-1.75,7-5.62,7S84.66,237.38,84.66,233.87Zm8.29,0c0-2.5-.73-4.44-2.67-4.44s-2.69,1.94-2.69,4.44.74,4.47,2.69,4.47S93,236.38,93,233.87Z"/><path class="cls-3" d="M97.27,233.87c0-3.5,1.73-7,5.62-7s5.62,3.5,5.62,7-1.75,7-5.62,7S97.27,237.38,97.27,233.87Zm8.29,0c0-2.5-.73-4.44-2.67-4.44s-2.69,1.94-2.69,4.44.73,4.47,2.69,4.47S105.56,236.38,105.56,233.87Z"/><path class="cls-3" d="M111,243.45l-1.12-.92a3.48,3.48,0,0,0,1.57-1.91,1.6,1.6,0,0,1-.39.06,1.39,1.39,0,0,1-1.39-1.47,1.63,1.63,0,0,1,1.59-1.63,1.9,1.9,0,0,1,1.84,2.08A4.76,4.76,0,0,1,111,243.45Z"/><path class="cls-3" d="M114.22,233.87c0-3.5,1.73-7,5.62-7s5.62,3.5,5.62,7-1.75,7-5.62,7S114.22,237.38,114.22,233.87Zm8.29,0c0-2.5-.74-4.44-2.67-4.44s-2.69,1.94-2.69,4.44.73,4.47,2.69,4.47S122.51,236.38,122.51,233.87Z"/><path class="cls-3" d="M126.83,233.87c0-3.5,1.73-7,5.62-7s5.62,3.5,5.62,7-1.75,7-5.62,7S126.83,237.38,126.83,233.87Zm8.29,0c0-2.5-.74-4.44-2.67-4.44s-2.69,1.94-2.69,4.44.73,4.47,2.69,4.47S135.12,236.38,135.12,233.87Z"/><path class="cls-3" d="M139.44,233.87c0-3.5,1.73-7,5.62-7s5.62,3.5,5.62,7-1.75,7-5.62,7S139.44,237.38,139.44,233.87Zm8.29,0c0-2.5-.74-4.44-2.67-4.44s-2.69,1.94-2.69,4.44.73,4.47,2.69,4.47S147.73,236.38,147.73,233.87Z"/><path class="cls-3" d="M49.27,383.6v-2.81H42.78v-2.28l5.39-8.5h4v8.23h1.75v2.55H52.17v2.81Zm0-11-3.66,5.66h3.66Z"/><path class="cls-3" d="M55.1,376.82c0-3.51,1.73-7,5.62-7s5.62,3.5,5.62,7-1.75,7-5.62,7S55.1,380.32,55.1,376.82Zm8.29,0c0-2.51-.73-4.44-2.67-4.44S58,374.31,58,376.82s.74,4.46,2.69,4.46S63.39,379.32,63.39,376.82Z"/><path class="cls-3" d="M68.87,386.39l-1.12-.91a3.49,3.49,0,0,0,1.57-1.92,1.52,1.52,0,0,1-.39.06,1.38,1.38,0,0,1-1.38-1.47,1.63,1.63,0,0,1,1.59-1.63A1.9,1.9,0,0,1,71,382.6,4.75,4.75,0,0,1,68.87,386.39Z"/><path class="cls-3" d="M72.05,376.82c0-3.51,1.73-7,5.62-7s5.62,3.5,5.62,7-1.75,7-5.62,7S72.05,380.32,72.05,376.82Zm8.29,0c0-2.51-.73-4.44-2.67-4.44S75,374.31,75,376.82s.74,4.46,2.69,4.46S80.34,379.32,80.34,376.82Z"/><path class="cls-3" d="M84.66,376.82c0-3.51,1.73-7,5.62-7s5.62,3.5,5.62,7-1.75,7-5.62,7S84.66,380.32,84.66,376.82Zm8.29,0c0-2.51-.73-4.44-2.67-4.44s-2.69,1.93-2.69,4.44.74,4.46,2.69,4.46S93,379.32,93,376.82Z"/><path class="cls-3" d="M97.27,376.82c0-3.51,1.73-7,5.62-7s5.62,3.5,5.62,7-1.75,7-5.62,7S97.27,380.32,97.27,376.82Zm8.29,0c0-2.51-.73-4.44-2.67-4.44s-2.69,1.93-2.69,4.44.73,4.46,2.69,4.46S105.56,379.32,105.56,376.82Z"/><path class="cls-3" d="M111,386.39l-1.12-.91a3.53,3.53,0,0,0,1.57-1.92,1.6,1.6,0,0,1-.39.06,1.39,1.39,0,0,1-1.39-1.47,1.64,1.64,0,0,1,1.59-1.63,1.9,1.9,0,0,1,1.84,2.08A4.75,4.75,0,0,1,111,386.39Z"/><path class="cls-3" d="M114.22,376.82c0-3.51,1.73-7,5.62-7s5.62,3.5,5.62,7-1.75,7-5.62,7S114.22,380.32,114.22,376.82Zm8.29,0c0-2.51-.74-4.44-2.67-4.44s-2.69,1.93-2.69,4.44.73,4.46,2.69,4.46S122.51,379.32,122.51,376.82Z"/><path class="cls-3" d="M126.83,376.82c0-3.51,1.73-7,5.62-7s5.62,3.5,5.62,7-1.75,7-5.62,7S126.83,380.32,126.83,376.82Zm8.29,0c0-2.51-.74-4.44-2.67-4.44s-2.69,1.93-2.69,4.44.73,4.46,2.69,4.46S135.12,379.32,135.12,376.82Z"/><path class="cls-3" d="M139.44,376.82c0-3.51,1.73-7,5.62-7s5.62,3.5,5.62,7-1.75,7-5.62,7S139.44,380.32,139.44,376.82Zm8.29,0c0-2.51-.74-4.44-2.67-4.44s-2.69,1.93-2.69,4.44.73,4.46,2.69,4.46S147.73,379.32,147.73,376.82Z"/><path class="cls-3" d="M43.16,526.54v-2.26c5.56-4.11,7.19-5.52,7.19-7.19,0-1.18-1.08-1.77-2.2-1.77a4.84,4.84,0,0,0-3.64,1.57L42.86,515a6.94,6.94,0,0,1,5.23-2.22c2.89,0,5.2,1.63,5.2,4.34,0,2.32-1.92,4.34-5.44,6.91h5.54v2.54Z"/><path class="cls-3" d="M55.1,519.76c0-3.5,1.73-7,5.62-7s5.62,3.51,5.62,7-1.75,7-5.62,7S55.1,523.27,55.1,519.76Zm8.29,0c0-2.5-.73-4.44-2.67-4.44S58,517.26,58,519.76s.74,4.46,2.69,4.46S63.39,522.27,63.39,519.76Z"/><path class="cls-3" d="M68.87,529.34l-1.12-.92a3.46,3.46,0,0,0,1.57-1.92,1.6,1.6,0,0,1-.39.06,1.38,1.38,0,0,1-1.38-1.46,1.62,1.62,0,0,1,1.58-1.63A1.9,1.9,0,0,1,71,525.55,4.78,4.78,0,0,1,68.87,529.34Z"/><path class="cls-3" d="M72.05,519.76c0-3.5,1.73-7,5.62-7s5.62,3.51,5.62,7-1.75,7-5.62,7S72.05,523.27,72.05,519.76Zm8.29,0c0-2.5-.73-4.44-2.67-4.44S75,517.26,75,519.76s.73,4.46,2.69,4.46S80.34,522.27,80.34,519.76Z"/><path class="cls-3" d="M84.66,519.76c0-3.5,1.73-7,5.62-7s5.62,3.51,5.62,7-1.75,7-5.62,7S84.66,523.27,84.66,519.76Zm8.29,0c0-2.5-.73-4.44-2.67-4.44s-2.69,1.94-2.69,4.44.74,4.46,2.69,4.46S93,522.27,93,519.76Z"/><path class="cls-3" d="M97.27,519.76c0-3.5,1.73-7,5.62-7s5.62,3.51,5.62,7-1.75,7-5.62,7S97.27,523.27,97.27,519.76Zm8.29,0c0-2.5-.73-4.44-2.67-4.44s-2.69,1.94-2.69,4.44.73,4.46,2.69,4.46S105.56,522.27,105.56,519.76Z"/><path class="cls-3" d="M111,529.34l-1.12-.92a3.5,3.5,0,0,0,1.57-1.92,1.6,1.6,0,0,1-.39.06,1.39,1.39,0,0,1-1.39-1.46,1.63,1.63,0,0,1,1.59-1.63,1.9,1.9,0,0,1,1.84,2.08A4.78,4.78,0,0,1,111,529.34Z"/><path class="cls-3" d="M114.22,519.76c0-3.5,1.73-7,5.62-7s5.62,3.51,5.62,7-1.75,7-5.62,7S114.22,523.27,114.22,519.76Zm8.29,0c0-2.5-.74-4.44-2.67-4.44s-2.69,1.94-2.69,4.44.73,4.46,2.69,4.46S122.51,522.27,122.51,519.76Z"/><path class="cls-3" d="M126.83,519.76c0-3.5,1.73-7,5.62-7s5.62,3.51,5.62,7-1.75,7-5.62,7S126.83,523.27,126.83,519.76Zm8.29,0c0-2.5-.74-4.44-2.67-4.44s-2.69,1.94-2.69,4.44.73,4.46,2.69,4.46S135.12,522.27,135.12,519.76Z"/><path class="cls-3" d="M139.44,519.76c0-3.5,1.73-7,5.62-7s5.62,3.51,5.62,7-1.75,7-5.62,7S139.44,523.27,139.44,519.76Zm8.29,0c0-2.5-.74-4.44-2.67-4.44s-2.69,1.94-2.69,4.44.73,4.46,2.69,4.46S147.73,522.27,147.73,519.76Z"/><path class="cls-3" d="M139.44,663.44c0-3.5,1.73-7,5.62-7s5.62,3.51,5.62,7-1.75,7-5.62,7S139.44,667,139.44,663.44Zm8.29,0c0-2.5-.74-4.44-2.67-4.44s-2.69,1.94-2.69,4.44.73,4.46,2.69,4.46S147.73,666,147.73,663.44Z"/><path class="cls-3" d="M218,733.3l.56-.73a3.25,3.25,0,0,0,2.43,1.1c1.37,0,1.81-.74,1.81-1.33,0-2-4.56-.89-4.56-3.63,0-1.27,1.13-2.14,2.64-2.14a3.64,3.64,0,0,1,2.74,1.08l-.58.7a3,3,0,0,0-2.23-.92c-.92,0-1.58.49-1.58,1.22,0,1.73,4.56.74,4.56,3.61,0,1.12-.76,2.26-2.84,2.26A3.78,3.78,0,0,1,218,733.3Z"/><path class="cls-3" d="M224.86,731.59a2.8,2.8,0,0,1,2.75-2.92,2.71,2.71,0,0,1,2.67,3v.22h-4.51a2,2,0,0,0,2,1.93,2.45,2.45,0,0,0,1.72-.71l.41.57a3,3,0,0,1-2.21.85A2.77,2.77,0,0,1,224.86,731.59Zm2.74-2.2a1.87,1.87,0,0,0-1.83,1.86h3.66A1.8,1.8,0,0,0,227.6,729.39Z"/><path class="cls-3" d="M231.36,731.59a2.79,2.79,0,0,1,2.74-2.92,2.71,2.71,0,0,1,2.68,3v.22h-4.51a2,2,0,0,0,2,1.93,2.41,2.41,0,0,0,1.71-.71l.42.57a3,3,0,0,1-2.21.85A2.77,2.77,0,0,1,231.36,731.59Zm2.73-2.2a1.86,1.86,0,0,0-1.82,1.86h3.66A1.82,1.82,0,0,0,234.09,729.39Z"/><path class="cls-3" d="M242.21,734.38v-.83a2.32,2.32,0,0,1-1.88,1c-1.45,0-2.48-1.1-2.48-2.92s1-2.93,2.48-2.93a2.33,2.33,0,0,1,1.88,1v-3h.87v7.69Zm0-1.51v-2.52a2.07,2.07,0,0,0-1.67-.9c-1.12,0-1.79.92-1.79,2.15s.67,2.15,1.79,2.15A2.06,2.06,0,0,0,242.21,732.87Z"/><rect class="cls-4" x="177.21" y="720.15" width="33.59" height="19.43" rx="2.78"/><path class="cls-3" d="M304.93,734.38v-7.69H308a2.32,2.32,0,1,1,0,4.64h-2.13v3Zm4.51-5.37a1.43,1.43,0,0,0-1.53-1.47h-2v2.93h2A1.43,1.43,0,0,0,309.44,729Z"/><path class="cls-3" d="M311.67,734.38v-5.57h.86v.9a2.37,2.37,0,0,1,1.86-1v.89a1.2,1.2,0,0,0-.35,0,2,2,0,0,0-1.51.89v3.94Z"/><path class="cls-3" d="M315.32,727.44a.59.59,0,1,1,1.17,0,.59.59,0,0,1-1.17,0Zm.15,6.94v-5.57h.87v5.57Z"/><path class="cls-3" d="M319.56,734.38l-2.32-5.57h.93l1.86,4.57,1.85-4.57h.94l-2.32,5.57Z"/><path class="cls-3" d="M327.21,734.38v-.63a2.41,2.41,0,0,1-1.85.77,1.86,1.86,0,0,1-1.95-1.84,1.83,1.83,0,0,1,1.95-1.84,2.37,2.37,0,0,1,1.85.76v-1c0-.75-.6-1.18-1.41-1.18a2.23,2.23,0,0,0-1.71.78l-.4-.6a2.89,2.89,0,0,1,2.22-.93c1.18,0,2.16.53,2.16,1.88v3.83Zm0-1.17v-1.05a1.89,1.89,0,0,0-1.54-.69,1.22,1.22,0,1,0,0,2.43A1.89,1.89,0,0,0,327.21,733.21Z"/><path class="cls-3" d="M330,733.22v-3.65h-.93v-.76H330v-1.52h.86v1.52H332v.76h-1.13V733c0,.42.19.72.57.72a.8.8,0,0,0,.58-.23l.26.65a1.45,1.45,0,0,1-1,.35A1.13,1.13,0,0,1,330,733.22Z"/><path class="cls-3" d="M332.87,731.59a2.8,2.8,0,0,1,2.75-2.92,2.71,2.71,0,0,1,2.67,3v.22h-4.51a2,2,0,0,0,2,1.93,2.45,2.45,0,0,0,1.72-.71l.41.57a3,3,0,0,1-2.21.85A2.77,2.77,0,0,1,332.87,731.59Zm2.74-2.2a1.87,1.87,0,0,0-1.83,1.86h3.66A1.81,1.81,0,0,0,335.61,729.39Z"/><path class="cls-3" d="M342.24,733.3l.57-.73a3.21,3.21,0,0,0,2.42,1.1c1.37,0,1.81-.74,1.81-1.33,0-2-4.56-.89-4.56-3.63,0-1.27,1.13-2.14,2.64-2.14a3.64,3.64,0,0,1,2.74,1.08l-.58.7a3,3,0,0,0-2.23-.92c-.92,0-1.58.49-1.58,1.22,0,1.73,4.56.74,4.56,3.61,0,1.12-.76,2.26-2.84,2.26A3.79,3.79,0,0,1,342.24,733.3Z"/><path class="cls-3" d="M352.91,734.38v-.63a2.38,2.38,0,0,1-1.84.77,1.85,1.85,0,0,1-1.95-1.84,1.83,1.83,0,0,1,1.95-1.84,2.35,2.35,0,0,1,1.84.76v-1c0-.75-.6-1.18-1.41-1.18a2.2,2.2,0,0,0-1.7.78l-.41-.6a2.91,2.91,0,0,1,2.23-.93c1.18,0,2.16.53,2.16,1.88v3.83Zm0-1.17v-1.05a1.86,1.86,0,0,0-1.53-.69,1.22,1.22,0,1,0,0,2.43A1.86,1.86,0,0,0,352.91,733.21Z"/><path class="cls-3" d="M355.51,734.38v-7.69h.86v7.69Z"/><path class="cls-3" d="M357.78,731.59a2.79,2.79,0,0,1,2.75-2.92,2.71,2.71,0,0,1,2.67,3v.22h-4.51a2,2,0,0,0,2,1.93,2.45,2.45,0,0,0,1.72-.71l.41.57a3,3,0,0,1-2.21.85A2.77,2.77,0,0,1,357.78,731.59Zm2.73-2.2a1.86,1.86,0,0,0-1.82,1.86h3.66A1.81,1.81,0,0,0,360.51,729.39Z"/><rect class="cls-5" x="263.68" y="720.15" width="33.59" height="19.43" rx="2.78"/><path class="cls-3" d="M420.22,734.38v-7.69h3.1a2.32,2.32,0,1,1,0,4.64h-2.14v3Zm4.52-5.37a1.44,1.44,0,0,0-1.54-1.47h-2v2.93h2A1.43,1.43,0,0,0,424.74,729Z"/><path class="cls-3" d="M430.72,734.38v-.78a2.72,2.72,0,0,1-2,.92,1.56,1.56,0,0,1-1.78-1.77v-3.94h.87v3.67c0,1,.49,1.27,1.24,1.27a2.13,2.13,0,0,0,1.65-.84v-4.1h.87v5.57Z"/><path class="cls-3" d="M433.32,734.38v-7.69h.86v3a2.32,2.32,0,0,1,1.88-1c1.46,0,2.48,1.16,2.48,2.93s-1,2.92-2.48,2.92a2.35,2.35,0,0,1-1.88-1v.83Zm2.53-.63c1.13,0,1.8-.91,1.8-2.15s-.67-2.15-1.8-2.15a2.06,2.06,0,0,0-1.67.9v2.52A2,2,0,0,0,435.85,733.75Z"/><path class="cls-3" d="M440,734.38v-7.69h.87v7.69Z"/><path class="cls-3" d="M442.4,727.44a.58.58,0,1,1,1.16,0,.58.58,0,0,1-1.16,0Zm.15,6.94v-5.57h.86v5.57Z"/><path class="cls-3" d="M444.82,731.59a2.75,2.75,0,0,1,2.78-2.92,2.38,2.38,0,0,1,2,1l-.57.53a1.68,1.68,0,0,0-1.42-.72,2.16,2.16,0,0,0,0,4.3,1.68,1.68,0,0,0,1.42-.73l.57.53a2.35,2.35,0,0,1-2,1A2.76,2.76,0,0,1,444.82,731.59Z"/><path class="cls-3" d="M453.41,733.3l.56-.73a3.24,3.24,0,0,0,2.42,1.1c1.38,0,1.81-.74,1.81-1.33,0-2-4.55-.89-4.55-3.63,0-1.27,1.13-2.14,2.64-2.14a3.6,3.6,0,0,1,2.73,1.08l-.57.7a3,3,0,0,0-2.23-.92c-.92,0-1.58.49-1.58,1.22,0,1.73,4.56.74,4.56,3.61,0,1.12-.77,2.26-2.84,2.26A3.78,3.78,0,0,1,453.41,733.3Z"/><path class="cls-3" d="M464.08,734.38v-.63a2.41,2.41,0,0,1-1.85.77,1.86,1.86,0,0,1-2-1.84,1.83,1.83,0,0,1,2-1.84,2.37,2.37,0,0,1,1.85.76v-1c0-.75-.6-1.18-1.41-1.18a2.23,2.23,0,0,0-1.71.78l-.4-.6a2.89,2.89,0,0,1,2.22-.93c1.18,0,2.16.53,2.16,1.88v3.83Zm0-1.17v-1.05a1.89,1.89,0,0,0-1.54-.69,1.22,1.22,0,1,0,0,2.43A1.89,1.89,0,0,0,464.08,733.21Z"/><path class="cls-3" d="M466.67,734.38v-7.69h.87v7.69Z"/><path class="cls-3" d="M469,731.59a2.79,2.79,0,0,1,2.74-2.92,2.71,2.71,0,0,1,2.68,3v.22h-4.51a2,2,0,0,0,2,1.93,2.44,2.44,0,0,0,1.72-.71l.42.57a3.06,3.06,0,0,1-2.22.85A2.76,2.76,0,0,1,469,731.59Zm2.73-2.2a1.85,1.85,0,0,0-1.82,1.86h3.65A1.8,1.8,0,0,0,471.68,729.39Z"/><rect class="cls-2" x="378.97" y="720.15" width="33.59" height="19.43" rx="2.78"/><path class="cls-3" d="M533,734.38v-6.84h-2.44v-.85h5.84v.85H534v6.84Z"/><path class="cls-3" d="M536,731.59a2.8,2.8,0,0,1,2.75-2.92,2.71,2.71,0,0,1,2.68,3v.22h-4.52a2,2,0,0,0,2,1.93,2.44,2.44,0,0,0,1.72-.71l.42.57a3.06,3.06,0,0,1-2.22.85A2.77,2.77,0,0,1,536,731.59Zm2.74-2.2a1.87,1.87,0,0,0-1.83,1.86h3.66A1.8,1.8,0,0,0,538.74,729.39Z"/><path class="cls-3" d="M546.31,734.38v-.63a2.42,2.42,0,0,1-1.85.77,1.85,1.85,0,0,1-2-1.84,1.83,1.83,0,0,1,2-1.84,2.37,2.37,0,0,1,1.85.76v-1c0-.75-.6-1.18-1.41-1.18a2.23,2.23,0,0,0-1.71.78l-.4-.6a2.89,2.89,0,0,1,2.22-.93c1.18,0,2.16.53,2.16,1.88v3.83Zm0-1.17v-1.05a1.89,1.89,0,0,0-1.54-.69,1.22,1.22,0,1,0,0,2.43A1.89,1.89,0,0,0,546.31,733.21Z"/><path class="cls-3" d="M555.63,734.38V730.6c0-.7-.31-1.15-1-1.15a1.94,1.94,0,0,0-1.48.85v4.08h-.86V730.6c0-.7-.3-1.15-1-1.15a1.94,1.94,0,0,0-1.46.86v4.07h-.87v-5.57h.87v.81a2.4,2.4,0,0,1,1.8-1,1.44,1.44,0,0,1,1.5,1,2.34,2.34,0,0,1,1.87-1c1,0,1.55.57,1.55,1.69v4Z"/><path class="cls-3" d="M558.44,735.85l-.42-.36a1.72,1.72,0,0,0,.75-1.07l-.16,0a.55.55,0,0,1-.56-.59.62.62,0,0,1,.61-.62.79.79,0,0,1,.73.88A2.23,2.23,0,0,1,558.44,735.85Z"/><path class="cls-3" d="M563.89,734.38v-7.69h5v.85h-4.08V730h4v.86h-4v3.5Z"/><path class="cls-3" d="M569.88,731.59a2.76,2.76,0,1,1,2.75,2.93A2.74,2.74,0,0,1,569.88,731.59Zm4.6,0a1.87,1.87,0,1,0-1.85,2.16A1.93,1.93,0,0,0,574.48,731.59Z"/><path class="cls-3" d="M580.56,734.38v-.78a2.74,2.74,0,0,1-2,.92,1.56,1.56,0,0,1-1.78-1.77v-3.94h.86v3.67c0,1,.5,1.27,1.25,1.27a2.13,2.13,0,0,0,1.65-.84v-4.1h.86v5.57Z"/><path class="cls-3" d="M586.92,734.38v-3.64c0-1-.5-1.29-1.25-1.29a2.14,2.14,0,0,0-1.65.86v4.07h-.86v-5.57H584v.81a2.76,2.76,0,0,1,2-1,1.58,1.58,0,0,1,1.78,1.8v3.91Z"/><path class="cls-3" d="M593.55,734.38v-.83a2.35,2.35,0,0,1-1.88,1c-1.45,0-2.48-1.1-2.48-2.92s1-2.93,2.48-2.93a2.33,2.33,0,0,1,1.88,1v-3h.86v7.69Zm0-1.51v-2.52a2.07,2.07,0,0,0-1.67-.9c-1.12,0-1.79.92-1.79,2.15s.67,2.15,1.79,2.15A2.06,2.06,0,0,0,593.55,732.87Z"/><path class="cls-3" d="M595.82,731.59a2.8,2.8,0,0,1,2.75-2.92,2.71,2.71,0,0,1,2.67,3v.22h-4.51a2,2,0,0,0,2,1.93,2.44,2.44,0,0,0,1.72-.71l.42.57a3.06,3.06,0,0,1-2.22.85A2.77,2.77,0,0,1,595.82,731.59Zm2.74-2.2a1.87,1.87,0,0,0-1.83,1.86h3.66A1.8,1.8,0,0,0,598.56,729.39Z"/><path class="cls-3" d="M602.64,734.38v-5.57h.87v.9a2.35,2.35,0,0,1,1.85-1v.89a1.13,1.13,0,0,0-.34,0,2,2,0,0,0-1.51.89v3.94Z"/><rect class="cls-6" x="489.86" y="720.15" width="33.59" height="19.43" rx="2.78"/><path class="cls-3" d="M673,734.38v-6.33l-2.62,6.33H670l-2.61-6.33v6.33h-1v-7.69h1.37l2.39,5.79,2.4-5.79h1.37v7.69Z"/><path class="cls-3" d="M679.18,734.38v-.63a2.41,2.41,0,0,1-1.85.77,1.86,1.86,0,0,1-2-1.84,1.83,1.83,0,0,1,2-1.84,2.37,2.37,0,0,1,1.85.76v-1c0-.75-.6-1.18-1.41-1.18a2.23,2.23,0,0,0-1.71.78l-.4-.6a2.91,2.91,0,0,1,2.23-.93c1.17,0,2.15.53,2.15,1.88v3.83Zm0-1.17v-1.05a1.88,1.88,0,0,0-1.54-.69,1.22,1.22,0,1,0,0,2.43A1.88,1.88,0,0,0,679.18,733.21Z"/><path class="cls-3" d="M681.78,734.38v-5.57h.86v.9a2.37,2.37,0,0,1,1.86-1v.89a1.25,1.25,0,0,0-.35,0,2,2,0,0,0-1.51.89v3.94Z"/><path class="cls-3" d="M689.38,734.38l-2-2.5-.92.91v1.59h-.87v-7.69h.87v5.09l2.93-3h1.09L688,731.34l2.48,3Z"/><path class="cls-3" d="M691.15,731.59a2.8,2.8,0,0,1,2.75-2.92,2.71,2.71,0,0,1,2.68,3v.22h-4.51a2,2,0,0,0,2,1.93,2.44,2.44,0,0,0,1.72-.71l.42.57a3.06,3.06,0,0,1-2.22.85A2.77,2.77,0,0,1,691.15,731.59Zm2.74-2.2a1.85,1.85,0,0,0-1.82,1.86h3.65A1.8,1.8,0,0,0,693.89,729.39Z"/><path class="cls-3" d="M698.15,733.22v-3.65h-.93v-.76h.93v-1.52H699v1.52h1.13v.76H699V733c0,.42.19.72.57.72a.8.8,0,0,0,.58-.23l.26.65a1.45,1.45,0,0,1-1,.35A1.13,1.13,0,0,1,698.15,733.22Z"/><path class="cls-3" d="M701.21,727.44a.59.59,0,1,1,1.17,0,.59.59,0,0,1-1.17,0Zm.16,6.94v-5.57h.86v5.57Z"/><path class="cls-3" d="M707.72,734.38v-3.64c0-1-.49-1.29-1.24-1.29a2.13,2.13,0,0,0-1.65.86v4.07H704v-5.57h.87v.81a2.76,2.76,0,0,1,2-1,1.58,1.58,0,0,1,1.78,1.8v3.91Z"/><path class="cls-3" d="M710.31,735.81l.43-.64a2.16,2.16,0,0,0,1.82.76,1.59,1.59,0,0,0,1.78-1.67v-.8a2.3,2.3,0,0,1-1.87,1c-1.45,0-2.48-1.08-2.48-2.88s1-2.9,2.48-2.9a2.31,2.31,0,0,1,1.87,1v-.84h.87v5.41c0,1.85-1.29,2.42-2.65,2.42A2.82,2.82,0,0,1,710.31,735.81Zm4-3v-2.43a2,2,0,0,0-1.66-.9c-1.12,0-1.79.89-1.79,2.12s.67,2.12,1.79,2.12A2,2,0,0,0,714.34,732.78Z"/><path class="cls-3" d="M717.16,735.85l-.43-.36a1.69,1.69,0,0,0,.75-1.07l-.16,0a.55.55,0,0,1-.55-.59.61.61,0,0,1,.61-.62.78.78,0,0,1,.72.88A2.22,2.22,0,0,1,717.16,735.85Z"/><path class="cls-3" d="M722.14,733.3l.57-.73a3.23,3.23,0,0,0,2.42,1.1c1.37,0,1.81-.74,1.81-1.33,0-2-4.56-.89-4.56-3.63,0-1.27,1.14-2.14,2.65-2.14a3.63,3.63,0,0,1,2.73,1.08l-.58.7a2.94,2.94,0,0,0-2.22-.92c-.93,0-1.58.49-1.58,1.22,0,1.73,4.55.74,4.55,3.61,0,1.12-.76,2.26-2.83,2.26A3.81,3.81,0,0,1,722.14,733.3Z"/><path class="cls-3" d="M729.31,733.22v-3.65h-.93v-.76h.93v-1.52h.86v1.52h1.13v.76h-1.13V733c0,.42.19.72.57.72a.84.84,0,0,0,.59-.23l.25.65a1.45,1.45,0,0,1-1,.35A1.13,1.13,0,0,1,729.31,733.22Z"/><path class="cls-3" d="M736,734.38v-.63a2.41,2.41,0,0,1-1.85.77,1.86,1.86,0,0,1-1.95-1.84,1.83,1.83,0,0,1,1.95-1.84,2.36,2.36,0,0,1,1.85.76v-1c0-.75-.6-1.18-1.41-1.18a2.2,2.2,0,0,0-1.7.78l-.41-.6a2.91,2.91,0,0,1,2.23-.93c1.17,0,2.15.53,2.15,1.88v3.83Zm0-1.17v-1.05a1.86,1.86,0,0,0-1.53-.69,1.22,1.22,0,1,0,0,2.43A1.86,1.86,0,0,0,736,733.21Z"/><path class="cls-3" d="M742.4,734.38l-2-2.5-.92.91v1.59h-.86v-7.69h.86v5.09l2.93-3h1.1L741,731.34l2.48,3Z"/><path class="cls-3" d="M744.39,727.44a.58.58,0,1,1,.57.58A.58.58,0,0,1,744.39,727.44Zm.15,6.94v-5.57h.86v5.57Z"/><path class="cls-3" d="M750.89,734.38v-3.64c0-1-.49-1.29-1.24-1.29a2.14,2.14,0,0,0-1.65.86v4.07h-.87v-5.57H748v.81a2.76,2.76,0,0,1,2-1,1.58,1.58,0,0,1,1.78,1.8v3.91Z"/><path class="cls-3" d="M753.48,735.81l.43-.64a2.16,2.16,0,0,0,1.82.76,1.59,1.59,0,0,0,1.78-1.67v-.8a2.3,2.3,0,0,1-1.86,1c-1.46,0-2.49-1.08-2.49-2.88s1-2.9,2.49-2.9a2.3,2.3,0,0,1,1.86,1v-.84h.87v5.41c0,1.85-1.29,2.42-2.65,2.42A2.82,2.82,0,0,1,753.48,735.81Zm4-3v-2.43a2,2,0,0,0-1.66-.9c-1.12,0-1.78.89-1.78,2.12s.66,2.12,1.78,2.12A2,2,0,0,0,757.51,732.78Z"/><path class="cls-3" d="M767.57,734.38l-2-3h-1.53v3h-1v-7.69h3.09a2.24,2.24,0,0,1,2.41,2.32,2.13,2.13,0,0,1-2,2.24l2.07,3.13Zm.06-5.37a1.43,1.43,0,0,0-1.53-1.47h-2v2.94h2A1.43,1.43,0,0,0,767.63,729Z"/><path class="cls-3" d="M769.43,731.59a2.79,2.79,0,0,1,2.75-2.92,2.71,2.71,0,0,1,2.67,3v.22h-4.51a2,2,0,0,0,2,1.93,2.45,2.45,0,0,0,1.72-.71l.41.57a3,3,0,0,1-2.21.85A2.77,2.77,0,0,1,769.43,731.59Zm2.74-2.2a1.87,1.87,0,0,0-1.83,1.86H774A1.81,1.81,0,0,0,772.17,729.39Z"/><path class="cls-3" d="M781.07,734.38l-1.45-4.47-1.46,4.47h-.86l-1.78-5.57h.9l1.36,4.44,1.47-4.44H780l1.46,4.44,1.36-4.44h.9l-1.77,5.57Z"/><path class="cls-3" d="M788.2,734.38v-.63a2.38,2.38,0,0,1-1.84.77,1.85,1.85,0,0,1-2-1.84,1.83,1.83,0,0,1,2-1.84,2.35,2.35,0,0,1,1.84.76v-1c0-.75-.6-1.18-1.41-1.18a2.21,2.21,0,0,0-1.7.78l-.41-.6a2.91,2.91,0,0,1,2.23-.93c1.18,0,2.16.53,2.16,1.88v3.83Zm0-1.17v-1.05a1.86,1.86,0,0,0-1.53-.69,1.22,1.22,0,1,0,0,2.43A1.86,1.86,0,0,0,788.2,733.21Z"/><path class="cls-3" d="M790.8,734.38v-5.57h.86v.9a2.37,2.37,0,0,1,1.86-1v.89a1.2,1.2,0,0,0-.35,0,2,2,0,0,0-1.51.89v3.94Z"/><path class="cls-3" d="M798.64,734.38v-.83a2.32,2.32,0,0,1-1.88,1c-1.45,0-2.48-1.1-2.48-2.92s1-2.93,2.48-2.93a2.33,2.33,0,0,1,1.88,1v-3h.87v7.69Zm0-1.51v-2.52a2.07,2.07,0,0,0-1.67-.9c-1.12,0-1.79.92-1.79,2.15s.67,2.15,1.79,2.15A2.06,2.06,0,0,0,798.64,732.87Z"/><path class="cls-3" d="M800.75,733.65l.45-.63a2.53,2.53,0,0,0,1.84.8c.85,0,1.31-.4,1.31-1,0-1.35-3.45-.52-3.45-2.58,0-.87.75-1.61,2.08-1.61a2.83,2.83,0,0,1,2.07.81l-.41.6a2.16,2.16,0,0,0-1.66-.7c-.76,0-1.23.38-1.23.87,0,1.23,3.45.42,3.45,2.59,0,.93-.75,1.68-2.2,1.68A3,3,0,0,1,800.75,733.65Z"/><rect class="cls-7" x="625.14" y="720.15" width="33.59" height="19.43" rx="2.78"/><path class="cls-3" d="M864.21,734.38v-7.69h1v6.84h3.58v.85Z"/><path class="cls-3" d="M869.91,727.44a.59.59,0,1,1,1.17,0,.59.59,0,0,1-1.17,0Zm.15,6.94v-5.57h.87v5.57Z"/><path class="cls-3" d="M872.3,731.59c0-1.81,1-2.92,2.48-2.92a2.3,2.3,0,0,1,1.87,1v-.83h.86v7.7h-.86v-3a2.26,2.26,0,0,1-1.87,1C873.32,734.52,872.3,733.39,872.3,731.59Zm4.35,1.26v-2.51a2,2,0,0,0-1.66-.89c-1.12,0-1.78.91-1.78,2.14s.66,2.16,1.78,2.16A2.05,2.05,0,0,0,876.65,732.85Z"/><path class="cls-3" d="M883,734.38v-.78a2.76,2.76,0,0,1-2,.92,1.56,1.56,0,0,1-1.77-1.77v-3.94h.86v3.67c0,1,.5,1.27,1.25,1.27a2.14,2.14,0,0,0,1.65-.84v-4.1h.86v5.57Z"/><path class="cls-3" d="M885.46,727.44a.59.59,0,1,1,1.17,0,.59.59,0,0,1-1.17,0Zm.15,6.94v-5.57h.87v5.57Z"/><path class="cls-3" d="M892.25,734.38v-.83a2.35,2.35,0,0,1-1.88,1c-1.46,0-2.48-1.1-2.48-2.92s1-2.93,2.48-2.93a2.33,2.33,0,0,1,1.88,1v-3h.86v7.69Zm0-1.51v-2.52a2.07,2.07,0,0,0-1.67-.9c-1.12,0-1.79.92-1.79,2.15s.67,2.15,1.79,2.15A2.06,2.06,0,0,0,892.25,732.87Z"/><path class="cls-3" d="M894.69,727.44a.59.59,0,1,1,1.17,0,.59.59,0,0,1-1.17,0Zm.15,6.94v-5.57h.87v5.57Z"/><path class="cls-3" d="M897.61,733.22v-3.65h-.92v-.76h.92v-1.52h.87v1.52h1.13v.76h-1.13V733c0,.42.18.72.56.72a.8.8,0,0,0,.59-.23l.25.65a1.42,1.42,0,0,1-1,.35A1.14,1.14,0,0,1,897.61,733.22Z"/><path class="cls-3" d="M900.66,735.78a1.27,1.27,0,0,0,.47.09.79.79,0,0,0,.83-.59l.37-.84L900,728.81h.93l1.86,4.57,1.85-4.57h.94l-2.79,6.71a1.65,1.65,0,0,1-1.64,1.12,2.59,2.59,0,0,1-.63-.08Z"/><rect class="cls-8" x="822.96" y="720.15" width="33.59" height="19.43" rx="2.78"/><path class="cls-3" d="M958.3,730.54a3.85,3.85,0,0,1,4-4,3.44,3.44,0,0,1,2.92,1.53l-.81.45a2.58,2.58,0,0,0-2.11-1.12,3.13,3.13,0,0,0,0,6.25,2.56,2.56,0,0,0,2.11-1.12l.82.45a3.48,3.48,0,0,1-2.93,1.52A3.85,3.85,0,0,1,958.3,730.54Z"/><path class="cls-3" d="M966.23,727.44a.58.58,0,1,1,.57.58A.58.58,0,0,1,966.23,727.44Zm.15,6.94v-5.57h.86v5.57Z"/><path class="cls-3" d="M969,734.38v-5.57h.87v.9a2.35,2.35,0,0,1,1.86-1v.89a1.25,1.25,0,0,0-.35,0,2,2,0,0,0-1.51.89v3.94Z"/><path class="cls-3" d="M972.46,731.59a2.75,2.75,0,0,1,2.78-2.92,2.4,2.4,0,0,1,2,1l-.58.53a1.66,1.66,0,0,0-1.42-.72,2.16,2.16,0,0,0,0,4.3,1.67,1.67,0,0,0,1.42-.73l.58.53a2.38,2.38,0,0,1-2,1A2.76,2.76,0,0,1,972.46,731.59Z"/><path class="cls-3" d="M982.25,734.38v-.78a2.72,2.72,0,0,1-2,.92,1.56,1.56,0,0,1-1.78-1.77v-3.94h.87v3.67c0,1,.49,1.27,1.24,1.27a2.13,2.13,0,0,0,1.65-.84v-4.1h.87v5.57Z"/><path class="cls-3" d="M984.85,734.38v-7.69h.86v7.69Z"/><path class="cls-3" d="M990.93,734.38v-.63a2.41,2.41,0,0,1-1.85.77,1.86,1.86,0,0,1-2-1.84,1.83,1.83,0,0,1,2-1.84,2.37,2.37,0,0,1,1.85.76v-1c0-.75-.6-1.18-1.41-1.18a2.23,2.23,0,0,0-1.71.78l-.4-.6a2.89,2.89,0,0,1,2.23-.93c1.17,0,2.15.53,2.15,1.88v3.83Zm0-1.17v-1.05a1.89,1.89,0,0,0-1.54-.69,1.22,1.22,0,1,0,0,2.43A1.89,1.89,0,0,0,990.93,733.21Z"/><path class="cls-3" d="M993.7,733.22v-3.65h-.93v-.76h.93v-1.52h.86v1.52h1.13v.76h-1.13V733c0,.42.19.72.57.72a.84.84,0,0,0,.59-.23l.25.65a1.45,1.45,0,0,1-1,.35A1.13,1.13,0,0,1,993.7,733.22Z"/><path class="cls-3" d="M996.77,727.44a.58.58,0,1,1,.57.58A.58.58,0,0,1,996.77,727.44Zm.15,6.94v-5.57h.86v5.57Z"/><path class="cls-3" d="M999.19,731.59a2.76,2.76,0,1,1,2.76,2.93A2.74,2.74,0,0,1,999.19,731.59Zm4.6,0a1.87,1.87,0,1,0-3.7,0,1.87,1.87,0,1,0,3.7,0Z"/><path class="cls-3" d="M1009.87,734.38v-3.64c0-1-.5-1.29-1.25-1.29a2.12,2.12,0,0,0-1.64.86v4.07h-.87v-5.57h.87v.81a2.76,2.76,0,0,1,2-1,1.59,1.59,0,0,1,1.78,1.8v3.91Z"/><path class="cls-3" d="M1011.6,734.61l2.74-8.15h.68l-2.74,8.15Z"/><path class="cls-3" d="M1022.61,734.38V730.6c0-.7-.31-1.15-1-1.15a1.94,1.94,0,0,0-1.48.85v4.08h-.86V730.6c0-.7-.3-1.15-1-1.15a1.94,1.94,0,0,0-1.46.86v4.07h-.87v-5.57h.87v.81a2.4,2.4,0,0,1,1.8-1,1.45,1.45,0,0,1,1.5,1,2.33,2.33,0,0,1,1.86-1c1,0,1.56.57,1.56,1.69v4Z"/><path class="cls-3" d="M1024.88,731.59a2.76,2.76,0,1,1,2.76,2.93A2.74,2.74,0,0,1,1024.88,731.59Zm4.6,0a1.87,1.87,0,1,0-3.7,0,1.87,1.87,0,1,0,3.7,0Z"/><path class="cls-3" d="M1035.56,734.38v-3.64c0-1-.49-1.29-1.24-1.29a2.14,2.14,0,0,0-1.65.86v4.07h-.87v-5.57h.87v.81a2.76,2.76,0,0,1,2-1,1.58,1.58,0,0,1,1.78,1.8v3.91Z"/><path class="cls-3" d="M1038.33,733.22v-3.65h-.92v-.76h.92v-1.52h.87v1.52h1.13v.76h-1.13V733c0,.42.18.72.56.72a.8.8,0,0,0,.59-.23l.26.65a1.45,1.45,0,0,1-1,.35A1.14,1.14,0,0,1,1038.33,733.22Z"/><path class="cls-3" d="M1045.32,734.38v-3.66c0-1-.5-1.27-1.25-1.27a2.18,2.18,0,0,0-1.65.86v4.07h-.87v-7.69h.87v2.93a2.76,2.76,0,0,1,2-1,1.57,1.57,0,0,1,1.78,1.78v3.93Z"/><rect class="cls-9" x="917.36" y="720.15" width="33.59" height="19.43" rx="2.78"/><path class="cls-3" d="M183.78,688.1v-9.77l-4.05,9.77h-.6l-4-9.77v9.77h-1.48V676.23h2.12l3.69,8.93,3.7-8.93h2.12V688.1Z"/><path class="cls-3" d="M187.48,683.79a4.26,4.26,0,1,1,4.25,4.53A4.22,4.22,0,0,1,187.48,683.79Zm7.1,0c0-1.74-1-3.31-2.85-3.31s-2.86,1.57-2.86,3.31,1,3.33,2.86,3.33S194.58,685.56,194.58,683.79Z"/><path class="cls-3" d="M204,688.1v-5.62c0-1.52-.77-2-1.93-2a3.3,3.3,0,0,0-2.54,1.34v6.28h-1.34v-8.6h1.34v1.25a4.26,4.26,0,0,1,3.06-1.46,2.44,2.44,0,0,1,2.74,2.78v6Z"/><path class="cls-3" d="M208.24,686.3v-5.62h-1.42V679.5h1.42v-2.35h1.34v2.35h1.74v1.18h-1.74V686c0,.64.28,1.1.87,1.1a1.33,1.33,0,0,0,.91-.35l.39,1a2.19,2.19,0,0,1-1.6.55A1.76,1.76,0,0,1,208.24,686.3Z"/><path class="cls-3" d="M219,688.1v-5.66c0-1.51-.78-2-1.94-2a3.39,3.39,0,0,0-2.55,1.34v6.28h-1.33V676.23h1.33v4.52a4.29,4.29,0,0,1,3.08-1.46,2.42,2.42,0,0,1,2.75,2.74v6.07Z"/><path class="cls-3" d="M227.26,688.1v-1.17c4.27-3.37,6.58-5.34,6.58-7.39a2.21,2.21,0,0,0-2.47-2.17,4,4,0,0,0-3.22,1.49l-.91-.94a5.13,5.13,0,0,1,4.13-1.87c2,0,4,1.12,4,3.49s-2.46,4.63-5.77,7.25h5.82v1.31Z"/><path class="cls-3" d="M376.48,688.1v-9.77l-4,9.77h-.61l-4-9.77v9.77h-1.48V676.23h2.12l3.69,8.93,3.7-8.93H378V688.1Z"/><path class="cls-3" d="M380.18,683.79a4.27,4.27,0,1,1,4.26,4.53A4.22,4.22,0,0,1,380.18,683.79Zm7.11,0c0-1.74-1-3.31-2.85-3.31s-2.87,1.57-2.87,3.31,1,3.33,2.87,3.33S387.29,685.56,387.29,683.79Z"/><path class="cls-3" d="M396.67,688.1v-5.62c0-1.52-.76-2-1.92-2a3.32,3.32,0,0,0-2.55,1.34v6.28h-1.33v-8.6h1.33v1.25a4.29,4.29,0,0,1,3.07-1.46,2.45,2.45,0,0,1,2.74,2.78v6Z"/><path class="cls-3" d="M401,686.3v-5.62h-1.43V679.5H401v-2.35h1.33v2.35H404v1.18h-1.75V686c0,.64.29,1.1.87,1.1a1.31,1.31,0,0,0,.91-.35l.39,1a2.17,2.17,0,0,1-1.6.55A1.76,1.76,0,0,1,401,686.3Z"/><path class="cls-3" d="M411.74,688.1v-5.66c0-1.51-.79-2-1.94-2a3.37,3.37,0,0,0-2.55,1.34v6.28h-1.34V676.23h1.34v4.52a4.27,4.27,0,0,1,3.08-1.46,2.42,2.42,0,0,1,2.74,2.74v6.07Z"/><path class="cls-3" d="M422.17,688.1v-9.92l-1.9,2-.9-.91,3-3.06h1.3V688.1Z"/><path class="cls-3" d="M426,682.17c0-2.9,1.28-6.12,4.54-6.12s4.54,3.22,4.54,6.12-1.3,6.15-4.54,6.15S426,685.06,426,682.17Zm7.56,0c0-2.36-.76-4.8-3-4.8s-3,2.44-3,4.8.76,4.83,3,4.83S433.51,684.54,433.51,682.17Z"/><path class="cls-3" d="M474.24,688.1v-9.77l-4,9.77h-.61l-4-9.77v9.77h-1.48V676.23h2.12l3.69,8.93,3.7-8.93h2.12V688.1Z"/><path class="cls-3" d="M477.94,683.79a4.27,4.27,0,1,1,4.26,4.53A4.22,4.22,0,0,1,477.94,683.79Zm7.11,0c0-1.74-1-3.31-2.85-3.31s-2.87,1.57-2.87,3.31,1,3.33,2.87,3.33S485.05,685.56,485.05,683.79Z"/><path class="cls-3" d="M494.43,688.1v-5.62c0-1.52-.76-2-1.92-2a3.32,3.32,0,0,0-2.55,1.34v6.28h-1.33v-8.6H490v1.25a4.29,4.29,0,0,1,3.07-1.46,2.45,2.45,0,0,1,2.74,2.78v6Z"/><path class="cls-3" d="M498.71,686.3v-5.62h-1.43V679.5h1.43v-2.35H500v2.35h1.75v1.18H500V686c0,.64.29,1.1.87,1.1a1.31,1.31,0,0,0,.91-.35l.39,1a2.17,2.17,0,0,1-1.6.55A1.76,1.76,0,0,1,498.71,686.3Z"/><path class="cls-3" d="M509.5,688.1v-5.66c0-1.51-.79-2-1.94-2a3.37,3.37,0,0,0-2.55,1.34v6.28h-1.34V676.23H505v4.52a4.27,4.27,0,0,1,3.08-1.46,2.42,2.42,0,0,1,2.74,2.74v6.07Z"/><path class="cls-3" d="M519.93,688.1v-9.92l-1.9,2-.9-.91,3-3.06h1.3V688.1Z"/><path class="cls-3" d="M529,688.1v-3h-5.64v-1.23l5.09-7.63h2v7.56h1.67v1.3h-1.67v3Zm0-10.5-4.17,6.19H529Z"/><path class="cls-3" d="M572,688.1v-9.77l-4,9.77h-.61l-4-9.77v9.77h-1.48V676.23H564l3.69,8.93,3.7-8.93h2.12V688.1Z"/><path class="cls-3" d="M575.7,683.79a4.27,4.27,0,1,1,4.26,4.53A4.22,4.22,0,0,1,575.7,683.79Zm7.11,0c0-1.74-1-3.31-2.85-3.31s-2.87,1.57-2.87,3.31,1,3.33,2.87,3.33S582.81,685.56,582.81,683.79Z"/><path class="cls-3" d="M592.19,688.1v-5.62c0-1.52-.76-2-1.92-2a3.32,3.32,0,0,0-2.55,1.34v6.28h-1.33v-8.6h1.33v1.25a4.29,4.29,0,0,1,3.07-1.46,2.45,2.45,0,0,1,2.74,2.78v6Z"/><path class="cls-3" d="M596.47,686.3v-5.62H595V679.5h1.43v-2.35h1.33v2.35h1.75v1.18H597.8V686c0,.64.29,1.1.87,1.1a1.31,1.31,0,0,0,.91-.35l.39,1a2.17,2.17,0,0,1-1.6.55A1.76,1.76,0,0,1,596.47,686.3Z"/><path class="cls-3" d="M607.26,688.1v-5.66c0-1.51-.79-2-1.94-2a3.37,3.37,0,0,0-2.55,1.34v6.28h-1.34V676.23h1.34v4.52a4.27,4.27,0,0,1,3.08-1.46,2.42,2.42,0,0,1,2.74,2.74v6.07Z"/><path class="cls-3" d="M617.69,688.1v-9.92l-1.9,2-.9-.91,3-3.06h1.3V688.1Z"/><path class="cls-3" d="M621.48,685.09c0-1.58,1.36-2.67,2.83-3.11-1.37-.39-2.63-1.29-2.63-2.85,0-2.14,2.08-3.08,4.06-3.08s4.08.94,4.08,3.08c0,1.56-1.29,2.46-2.66,2.85a3.51,3.51,0,0,1,2.83,3.11c0,2-1.92,3.23-4.25,3.23S621.48,687.12,621.48,685.09Zm7-.16c0-1.55-2-2.2-2.76-2.29-.73.09-2.78.74-2.78,2.29,0,1.29,1.3,2.07,2.78,2.07S628.5,686.22,628.5,684.93Zm-.18-5.61c0-1.22-1.16-2-2.58-2s-2.58.73-2.58,2c0,1.45,1.87,1.93,2.58,2C626.47,681.25,628.32,680.77,628.32,679.32Z"/><path class="cls-3" d="M669.76,688.1v-9.77l-4,9.77h-.61l-4-9.77v9.77h-1.48V676.23h2.12l3.69,8.93,3.7-8.93h2.12V688.1Z"/><path class="cls-3" d="M673.46,683.79a4.27,4.27,0,1,1,4.26,4.53A4.22,4.22,0,0,1,673.46,683.79Zm7.11,0c0-1.74-1-3.31-2.85-3.31s-2.87,1.57-2.87,3.31,1,3.33,2.87,3.33S680.57,685.56,680.57,683.79Z"/><path class="cls-3" d="M690,688.1v-5.62c0-1.52-.76-2-1.92-2a3.32,3.32,0,0,0-2.55,1.34v6.28h-1.33v-8.6h1.33v1.25a4.28,4.28,0,0,1,3.06-1.46,2.45,2.45,0,0,1,2.75,2.78v6Z"/><path class="cls-3" d="M694.23,686.3v-5.62H692.8V679.5h1.43v-2.35h1.33v2.35h1.75v1.18h-1.75V686c0,.64.29,1.1.87,1.1a1.31,1.31,0,0,0,.91-.35l.39,1a2.17,2.17,0,0,1-1.6.55A1.76,1.76,0,0,1,694.23,686.3Z"/><path class="cls-3" d="M705,688.1v-5.66c0-1.51-.79-2-1.94-2a3.35,3.35,0,0,0-2.55,1.34v6.28h-1.34V676.23h1.34v4.52a4.27,4.27,0,0,1,3.08-1.46,2.42,2.42,0,0,1,2.74,2.74v6.07Z"/><path class="cls-3" d="M713.24,688.1v-1.17c4.28-3.37,6.59-5.34,6.59-7.39a2.22,2.22,0,0,0-2.47-2.17,4,4,0,0,0-3.23,1.49l-.91-.94a5.14,5.14,0,0,1,4.14-1.87c2,0,4,1.12,4,3.49s-2.45,4.63-5.77,7.25h5.83v1.31Z"/><path class="cls-3" d="M723.71,688.1v-1.17c4.28-3.37,6.59-5.34,6.59-7.39a2.22,2.22,0,0,0-2.47-2.17,4,4,0,0,0-3.23,1.49l-.91-.94a5.14,5.14,0,0,1,4.14-1.87c2,0,4,1.12,4,3.49s-2.45,4.63-5.77,7.25h5.83v1.31Z"/><path class="cls-3" d="M767.52,688.1v-9.77l-4,9.77h-.61l-4-9.77v9.77h-1.48V676.23h2.12l3.68,8.93,3.71-8.93H769V688.1Z"/><path class="cls-3" d="M771.22,683.79a4.26,4.26,0,1,1,4.26,4.53A4.22,4.22,0,0,1,771.22,683.79Zm7.11,0c0-1.74-1-3.31-2.85-3.31s-2.87,1.57-2.87,3.31,1,3.33,2.87,3.33S778.33,685.56,778.33,683.79Z"/><path class="cls-3" d="M787.71,688.1v-5.62c0-1.52-.76-2-1.92-2a3.32,3.32,0,0,0-2.55,1.34v6.28h-1.33v-8.6h1.33v1.25a4.28,4.28,0,0,1,3.06-1.46,2.45,2.45,0,0,1,2.75,2.78v6Z"/><path class="cls-3" d="M792,686.3v-5.62h-1.42V679.5H792v-2.35h1.34v2.35h1.75v1.18h-1.75V686c0,.64.28,1.1.87,1.1a1.31,1.31,0,0,0,.91-.35l.39,1a2.19,2.19,0,0,1-1.6.55A1.77,1.77,0,0,1,792,686.3Z"/><path class="cls-3" d="M802.77,688.1v-5.66c0-1.51-.78-2-1.94-2a3.35,3.35,0,0,0-2.54,1.34v6.28H797V676.23h1.34v4.52a4.27,4.27,0,0,1,3.08-1.46,2.42,2.42,0,0,1,2.74,2.74v6.07Z"/><path class="cls-3" d="M811,688.1v-1.17c4.27-3.37,6.59-5.34,6.59-7.39a2.22,2.22,0,0,0-2.48-2.17,4,4,0,0,0-3.22,1.49l-.91-.94a5.13,5.13,0,0,1,4.13-1.87c2,0,4,1.12,4,3.49s-2.45,4.63-5.77,7.25h5.83v1.31Z"/><path class="cls-3" d="M821.42,682.19c0-3.22,1.49-6.14,4.82-6.14a4.16,4.16,0,0,1,3.3,1.42l-.75,1.11a3,3,0,0,0-2.55-1.21c-2.29,0-3.35,2.33-3.35,4.66a3.54,3.54,0,0,0,0,.46,4.28,4.28,0,0,1,3.37-1.85,3.59,3.59,0,0,1,3.88,3.79,3.9,3.9,0,0,1-4.17,3.89C822.68,688.32,821.42,685.41,821.42,682.19Zm7.24,2.3a2.46,2.46,0,0,0-2.74-2.57,3.65,3.65,0,0,0-3,1.78c.14,1.48.92,3.3,3,3.3A2.57,2.57,0,0,0,828.66,684.49Z"/><path class="cls-3" d="M865.28,688.1v-9.77l-4,9.77h-.61l-4-9.77v9.77h-1.48V676.23h2.12l3.68,8.93,3.71-8.93h2.12V688.1Z"/><path class="cls-3" d="M869,683.79a4.26,4.26,0,1,1,4.26,4.53A4.22,4.22,0,0,1,869,683.79Zm7.11,0c0-1.74-1-3.31-2.85-3.31s-2.87,1.57-2.87,3.31,1,3.33,2.87,3.33S876.09,685.56,876.09,683.79Z"/><path class="cls-3" d="M885.47,688.1v-5.62c0-1.52-.77-2-1.92-2a3.32,3.32,0,0,0-2.55,1.34v6.28h-1.33v-8.6H881v1.25a4.28,4.28,0,0,1,3.06-1.46,2.45,2.45,0,0,1,2.75,2.78v6Z"/><path class="cls-3" d="M889.74,686.3v-5.62h-1.42V679.5h1.42v-2.35h1.34v2.35h1.75v1.18h-1.75V686c0,.64.28,1.1.87,1.1a1.31,1.31,0,0,0,.91-.35l.39,1a2.19,2.19,0,0,1-1.6.55A1.77,1.77,0,0,1,889.74,686.3Z"/><path class="cls-3" d="M900.53,688.1v-5.66c0-1.51-.78-2-1.94-2a3.35,3.35,0,0,0-2.54,1.34v6.28h-1.34V676.23h1.34v4.52a4.27,4.27,0,0,1,3.08-1.46,2.42,2.42,0,0,1,2.74,2.74v6.07Z"/><path class="cls-3" d="M908.32,686.36l.87-.93A4.1,4.1,0,0,0,912.5,687c1.73,0,2.78-.86,2.78-2.23s-1.21-2.1-3-2.1c-.5,0-1.05,0-1.23,0v-1.35h1.23c1.5,0,2.76-.58,2.76-2s-1.21-2-2.65-2a4,4,0,0,0-3.14,1.44l-.81-.93a5.14,5.14,0,0,1,4.06-1.83c2.27,0,4,1.16,4,3.17A2.89,2.89,0,0,1,914,682a3,3,0,0,1,2.74,2.92c0,2-1.59,3.42-4.2,3.42A5,5,0,0,1,908.32,686.36Z"/><path class="cls-3" d="M918.62,682.17c0-2.9,1.29-6.12,4.55-6.12s4.54,3.22,4.54,6.12-1.3,6.15-4.54,6.15S918.62,685.06,918.62,682.17Zm7.57,0c0-2.36-.76-4.8-3-4.8s-3,2.44-3,4.8.76,4.83,3,4.83S926.19,684.54,926.19,682.17Z"/><path class="cls-3" d="M963,688.1v-9.77l-4,9.77h-.61l-4-9.77v9.77h-1.48V676.23H955l3.68,8.93,3.71-8.93h2.12V688.1Z"/><path class="cls-3" d="M966.74,683.79a4.26,4.26,0,1,1,4.26,4.53A4.22,4.22,0,0,1,966.74,683.79Zm7.11,0c0-1.74-1-3.31-2.85-3.31s-2.87,1.57-2.87,3.31,1,3.33,2.87,3.33S973.85,685.56,973.85,683.79Z"/><path class="cls-3" d="M983.23,688.1v-5.62c0-1.52-.77-2-1.92-2a3.32,3.32,0,0,0-2.55,1.34v6.28h-1.33v-8.6h1.33v1.25a4.28,4.28,0,0,1,3.06-1.46,2.45,2.45,0,0,1,2.75,2.78v6Z"/><path class="cls-3" d="M987.5,686.3v-5.62h-1.42V679.5h1.42v-2.35h1.34v2.35h1.74v1.18h-1.74V686c0,.64.28,1.1.87,1.1a1.31,1.31,0,0,0,.91-.35l.39,1a2.19,2.19,0,0,1-1.6.55A1.77,1.77,0,0,1,987.5,686.3Z"/><path class="cls-3" d="M998.29,688.1v-5.66c0-1.51-.78-2-1.94-2a3.35,3.35,0,0,0-2.54,1.34v6.28h-1.34V676.23h1.34v4.52a4.27,4.27,0,0,1,3.08-1.46,2.42,2.42,0,0,1,2.74,2.74v6.07Z"/><path class="cls-3" d="M1006.08,686.36l.87-.93a4.1,4.1,0,0,0,3.31,1.57c1.73,0,2.78-.86,2.78-2.23s-1.21-2.1-3-2.1c-.5,0-1.05,0-1.23,0v-1.35h1.23c1.5,0,2.76-.58,2.76-2s-1.21-2-2.65-2a4,4,0,0,0-3.14,1.44l-.81-.93a5.13,5.13,0,0,1,4-1.83c2.28,0,4,1.16,4,3.17a2.89,2.89,0,0,1-2.56,2.76,3,3,0,0,1,2.74,2.92c0,2-1.59,3.42-4.21,3.42A5,5,0,0,1,1006.08,686.36Z"/><path class="cls-3" d="M1021.69,688.1v-3h-5.64v-1.23l5.09-7.63h2v7.56h1.67v1.3h-1.67v3Zm0-10.5-4.17,6.19h4.17Z"/><path class="cls-3" d="M279.42,688.1v-9.77l-4,9.77h-.61l-4-9.77v9.77h-1.48V676.23h2.12l3.69,8.93,3.7-8.93h2.12V688.1Z"/><path class="cls-3" d="M283.12,683.79a4.26,4.26,0,1,1,4.26,4.53A4.22,4.22,0,0,1,283.12,683.79Zm7.11,0c0-1.74-1-3.31-2.85-3.31s-2.87,1.57-2.87,3.31,1,3.33,2.87,3.33S290.23,685.56,290.23,683.79Z"/><path class="cls-3" d="M299.61,688.1v-5.62c0-1.52-.76-2-1.92-2a3.32,3.32,0,0,0-2.55,1.34v6.28h-1.33v-8.6h1.33v1.25a4.28,4.28,0,0,1,3.06-1.46,2.45,2.45,0,0,1,2.75,2.78v6Z"/><path class="cls-3" d="M303.88,686.3v-5.62h-1.42V679.5h1.42v-2.35h1.34v2.35H307v1.18h-1.75V686c0,.64.28,1.1.87,1.1a1.31,1.31,0,0,0,.91-.35l.39,1a2.19,2.19,0,0,1-1.6.55A1.77,1.77,0,0,1,303.88,686.3Z"/><path class="cls-3" d="M314.67,688.1v-5.66c0-1.51-.78-2-1.94-2a3.35,3.35,0,0,0-2.54,1.34v6.28h-1.34V676.23h1.34v4.52a4.27,4.27,0,0,1,3.08-1.46A2.42,2.42,0,0,1,316,682v6.07Z"/><path class="cls-3" d="M322.85,682.19c0-3.22,1.49-6.14,4.82-6.14a4.16,4.16,0,0,1,3.3,1.42l-.75,1.11a3,3,0,0,0-2.55-1.21c-2.29,0-3.34,2.33-3.34,4.66,0,.16,0,.3,0,.46a4.28,4.28,0,0,1,3.37-1.85,3.59,3.59,0,0,1,3.88,3.79,3.9,3.9,0,0,1-4.17,3.89C324.11,688.32,322.85,685.41,322.85,682.19Zm7.24,2.3a2.46,2.46,0,0,0-2.74-2.57,3.65,3.65,0,0,0-3,1.78c.14,1.48.92,3.3,3,3.3A2.57,2.57,0,0,0,330.09,684.49Z"/><polygon class="cls-9" points="175.12 663.74 175.12 631.88 200.79 623.44 374.03 472.14 447.7 433.67 523.45 418.68 892.97 258.95 1044.92 229.57 1044.92 663.74 175.12 663.74"/><polygon class="cls-8" points="175.12 663.74 175.12 634.88 200.81 627.37 370.29 498.33 445.49 464.69 525.04 453.6 896.67 313.21 1044.92 313.21 1044.92 663.74 175.12 663.74"/><polygon class="cls-7" points="175.12 663.74 175.12 634.88 200.81 627.37 370.78 502.55 447.86 466.99 523.6 455.51 1044.92 428.03 1044.92 663.74 175.12 663.74"/><polygon class="cls-6" points="175.12 663.74 175.12 639.52 201.43 635.76 372.53 530.75 447.88 510.04 521.92 502.55 1044.92 502.55 1044.92 663.74 175.12 663.74"/><polygon class="cls-2" points="175.12 663.74 175.12 639.52 201.12 637.58 375.26 548.73 449.05 535.32 1044.92 535.93 1044.92 663.74 175.12 663.74"/><polygon class="cls-5" points="175.12 663.74 175.12 641.66 201.97 639.68 372.2 569.55 452.13 561.61 1044.92 562.54 1044.92 663.74 175.12 663.74"/><polygon class="cls-4" points="175.12 648.31 203.69 643.74 372.27 600.88 446.57 594.02 1044.92 596.88 1044.92 663.74 175.12 663.74 175.12 648.31"/><polyline class="cls-10" points="175.12 229.57 175.12 663.74 1044.92 663.74"/></svg>