<svg id="Layer_1" data-name="Layer 1" xmlns="http://www.w3.org/2000/svg" viewBox="0 0 1089.14 806.34"><defs><style>.cls-1{fill:#13131f;}.cls-2{fill:#fff;}.cls-3{fill:#7fde59;}.cls-4{fill:#429520;}.cls-5{fill:#265412;}.cls-6{fill:#1c400e;}.cls-7{fill:#5fd62f;}.cls-8{fill:none;stroke:#5fd62f;stroke-miterlimit:10;}</style></defs><rect class="cls-1" width="1089.14" height="806.34"/><path class="cls-2" d="M121.91,63.59v5.68h-8.13V93.69h-5.93V69.27H99.76V63.59Z"/><path class="cls-2" d="M142.76,63.59h5.89v30.1h-5.89V81.22H131.58V93.69h-5.93V63.59h5.93v12h11.18Z"/><path class="cls-2" d="M160.61,88h12.68v5.67H154.67V63.59h18.41v5.68H160.61v6.41H172v5.59H160.61Z"/><path class="cls-2" d="M202.92,94.29a15.08,15.08,0,0,1-11.23-4.51,15.29,15.29,0,0,1-4.42-11.14A15.69,15.69,0,0,1,210.46,64.9a14,14,0,0,1,5.4,5.19l-5.12,3a7.93,7.93,0,0,0-3.18-3.16,10.3,10.3,0,0,0-11.72,1.61,10.8,10.8,0,0,0,0,14.24,10.34,10.34,0,0,0,11.74,1.61,7.66,7.66,0,0,0,3.16-3.12l5.12,3a14,14,0,0,1-5.37,5.18A15.29,15.29,0,0,1,202.92,94.29Z"/><path class="cls-2" d="M245,89.76a15.62,15.62,0,0,1-26.7-11.12A15.63,15.63,0,1,1,245,89.76Zm-18-4a10,10,0,0,0,13.84,0,10.36,10.36,0,0,0,0-14.17,10,10,0,0,0-13.84,0,10.36,10.36,0,0,0,0,14.17Z"/><path class="cls-2" d="M283.59,63.59v30.1h-5.9V74.17l-8.48,14-.7,0-8.45-13.92V93.69h-5.93V63.59h6.11l8.63,14.22,8.58-14.22Z"/><path class="cls-2" d="M319.06,63.59v30.1h-5.89V74.17l-8.49,14-.69,0-8.45-13.92V93.69H289.6V63.59h6.11l8.63,14.22,8.59-14.22Z"/><path class="cls-2" d="M336.3,94.29a12,12,0,0,1-8.25-2.83,9.65,9.65,0,0,1-3.23-7.61V63.59h5.89V83.37a5.06,5.06,0,0,0,1.36,3.74,7.19,7.19,0,0,0,8.47,0,5.09,5.09,0,0,0,1.35-3.74V63.59h5.94V83.85a9.65,9.65,0,0,1-3.23,7.61A12.11,12.11,0,0,1,336.3,94.29Z"/><path class="cls-2" d="M371,63.59h5.94v30.1h-4.52l-12.9-18.4v18.4h-5.93V63.59h4.51L371,81.93Z"/><path class="cls-2" d="M383,63.59h5.93v30.1H383Z"/><path class="cls-2" d="M414.82,63.59v5.68h-8.13V93.69h-5.93V69.27h-8.09V63.59Z"/><path class="cls-2" d="M442.38,63.59,432.06,82V93.69h-5.89V82L415.89,63.59h6.71l6.52,12.53,6.55-12.53Z"/><path class="cls-2" d="M443.28,83.37V78h16.13v5.33Z"/><path class="cls-2" d="M471.15,88h11.48v5.67H465.21V63.59h5.94Z"/><path class="cls-2" d="M492.34,88H505v5.67H486.41V63.59h18.4v5.68H492.34v6.41h11.4v5.59h-11.4Z"/><path class="cls-2" d="M521.58,63.59a13.73,13.73,0,0,1,10.35,4.35,15.88,15.88,0,0,1,0,21.41,13.72,13.72,0,0,1-10.35,4.34h-12V63.59Zm0,24.43a8.38,8.38,0,0,0,6.37-2.6,9.52,9.52,0,0,0,2.45-6.78A9.48,9.48,0,0,0,528,71.87a8.38,8.38,0,0,0-6.37-2.6h-6V88Z"/><path class="cls-2" d="M581,77.52v2.33a13.91,13.91,0,0,1-4.13,10.45,14.69,14.69,0,0,1-10.66,4,15.75,15.75,0,0,1-11.55-4.53,15.8,15.8,0,0,1,0-22.21A15.22,15.22,0,0,1,565.87,63a15.78,15.78,0,0,1,7.7,1.91A14.25,14.25,0,0,1,579,70l-5.07,2.92a8.06,8.06,0,0,0-3.25-3,10.15,10.15,0,0,0-4.84-1.16,9.49,9.49,0,0,0-7.07,2.82A9.73,9.73,0,0,0,556,78.69a9.46,9.46,0,0,0,2.82,7,10.18,10.18,0,0,0,7.46,2.77A10,10,0,0,0,572,87,7.55,7.55,0,0,0,575,82.77h-9.11V77.52Z"/><path class="cls-2" d="M611,89.76a15.62,15.62,0,0,1-26.7-11.12A15.63,15.63,0,1,1,611,89.76Zm-18-4a10,10,0,0,0,13.85,0,10.39,10.39,0,0,0,0-14.17,10,10,0,0,0-13.85,0,10.39,10.39,0,0,0,0,14.17Z"/><path class="cls-2" d="M626.24,93.69l-10.1-30.1h6.45L630,86.73l7.3-23.14h6.5L633.6,93.69Z"/><path class="cls-2" d="M653,88h12.68v5.67H647.06V63.59h18.4v5.68H653v6.41h11.39v5.59H653Z"/><path class="cls-2" d="M686.79,93.69,680.7,83.24h-4.49V93.69h-5.93V63.59h12a10,10,0,0,1,10,10,9.16,9.16,0,0,1-1.59,5.18,9.93,9.93,0,0,1-4.21,3.59l6.66,11.35ZM676.21,69.14V78h6.11a3.81,3.81,0,0,0,2.88-1.31,4.51,4.51,0,0,0,1.2-3.16,4.45,4.45,0,0,0-1.2-3.14,3.83,3.83,0,0,0-2.88-1.29Z"/><path class="cls-2" d="M714.52,63.59h5.94v30.1h-4.52L703,75.29v18.4h-5.93V63.59h4.51l12.9,18.34Z"/><path class="cls-2" d="M746.26,93.69l-1.91-5.42H732l-1.8,5.42h-6.41l10.53-30.1h7.36l10.62,30.1Zm-12.34-11h8.47L738,70.43Z"/><path class="cls-2" d="M773.05,63.59H779v30.1h-4.52l-12.9-18.4v18.4h-5.93V63.59h4.51l12.91,18.34Z"/><path class="cls-2" d="M799.27,94.29a15,15,0,0,1-11.22-4.51,16.25,16.25,0,0,1,0-22.3A15.1,15.1,0,0,1,799.27,63a15.4,15.4,0,0,1,7.55,1.91,14,14,0,0,1,5.4,5.19l-5.12,3a8.05,8.05,0,0,0-3.18-3.16A10.3,10.3,0,0,0,792.2,71.5a10.77,10.77,0,0,0,0,14.24,9.45,9.45,0,0,0,7.07,2.75,9.58,9.58,0,0,0,4.67-1.14,7.72,7.72,0,0,0,3.16-3.12l5.12,3a14,14,0,0,1-5.38,5.18A15.23,15.23,0,0,1,799.27,94.29Z"/><path class="cls-2" d="M822.24,88h12.68v5.67H816.3V63.59h18.41v5.68H822.24v6.41h11.39v5.59H822.24Z"/><path class="cls-2" d="M875.6,89.76a15.62,15.62,0,0,1-26.7-11.12,15.63,15.63,0,1,1,26.7,11.12Zm-18-4a10,10,0,0,0,13.85,0,10.39,10.39,0,0,0,0-14.17,10,10,0,0,0-13.85,0,10.39,10.39,0,0,0,0,14.17Z"/><path class="cls-2" d="M902.73,69.27h-12v7.14h11.7v5.67h-11.7V93.69h-5.93V63.59h18Z"/><path class="cls-3" d="M924.19,88h12.68v5.67H918.25V63.59h18.41v5.68H924.19v6.41h11.39v5.59H924.19Z"/><path class="cls-3" d="M948.91,93.69l-10.1-30.1h6.45l7.36,23.14,7.3-23.14h6.49l-10.14,30.1Z"/><path class="cls-3" d="M975.66,88h12.68v5.67H969.72V63.59h18.41v5.68H975.66v6.41h11.39v5.59H975.66Z"/><path class="cls-4" d="M464.11,522.69,414.39,569a160.39,160.39,0,0,1-10.79-12.77c-1.84-2.44-3.64-5-5.48-7.7l56.34-38c1,1.54,2.12,3.05,3.25,4.54A95.39,95.39,0,0,0,464.11,522.69Z"/><path class="cls-5" d="M502.5,548.15,479.25,612a163.87,163.87,0,0,1-37-18.7c-.21-.14-.42-.28-.62-.43-.56-.38-1.11-.77-1.66-1.17l-1.74-1.25q-1.61-1.18-3.18-2.4-2.25-1.74-4.46-3.56-4.89-4.08-9.59-8.66-3.36-3.25-6.65-6.79l49.72-46.33q1.9,2.05,3.95,4a99.71,99.71,0,0,0,34.44,21.46Z"/><path class="cls-6" d="M671.07,553.4a169.28,169.28,0,0,1-46,43.45l-.16.1a163,163,0,0,1-48,20.58l-1.29.32A166.74,166.74,0,0,1,479.25,612l23.25-63.83a99,99,0,0,0,113.85-34.53Z"/><path class="cls-3" d="M700.64,486.5c0,.27-.1.54-.16.81a168.06,168.06,0,0,1-23.85,58h0q-2.64,4.1-5.55,8.1l-54.72-39.78q1.75-2.39,3.37-4.91a99,99,0,1,0-165.26,1.86l-56.34,38A166.64,166.64,0,0,1,674.47,362.27a168.82,168.82,0,0,1,27.75,71.8c0,.25.07.51.1.76A159.52,159.52,0,0,1,700.64,486.5Z"/><path class="cls-2" d="M480.09,175.79a7.67,7.67,0,0,1,7.88-7.93,6.86,6.86,0,0,1,5.82,3l-1.61.9a5.16,5.16,0,0,0-4.21-2.23A6.24,6.24,0,0,0,488,182a5.11,5.11,0,0,0,4.21-2.23l1.64.9a7,7,0,0,1-5.85,3A7.67,7.67,0,0,1,480.09,175.79Z"/><path class="cls-2" d="M495.54,177.89c0-3.22,2.12-5.82,5.5-5.82s5.5,2.6,5.5,5.82-2.12,5.84-5.5,5.84S495.54,181.1,495.54,177.89Zm9.18,0c0-2.26-1.31-4.28-3.68-4.28s-3.7,2-3.7,4.28,1.33,4.29,3.7,4.29S504.72,180.16,504.72,177.89Z"/><path class="cls-2" d="M522.75,183.45v-7.54c0-1.41-.62-2.3-2-2.3a3.9,3.9,0,0,0-2.94,1.7v8.14H516v-7.54c0-1.41-.6-2.3-2-2.3a3.89,3.89,0,0,0-2.92,1.72v8.12h-1.73V172.34h1.73V174a4.8,4.8,0,0,1,3.59-1.88,2.84,2.84,0,0,1,3,2.07,4.68,4.68,0,0,1,3.73-2.07c2,0,3.1,1.12,3.1,3.35v8Z"/><path class="cls-2" d="M541.33,183.45v-7.54c0-1.41-.62-2.3-2-2.3a3.92,3.92,0,0,0-2.95,1.7v8.14h-1.72v-7.54c0-1.41-.6-2.3-2-2.3a3.91,3.91,0,0,0-2.92,1.72v8.12h-1.72V172.34h1.72V174a4.82,4.82,0,0,1,3.59-1.88,2.85,2.85,0,0,1,3,2.07,4.64,4.64,0,0,1,3.72-2.07c2,0,3.11,1.12,3.11,3.35v8Z"/><path class="cls-2" d="M554,183.45v-1.56a5.46,5.46,0,0,1-4,1.84c-2.32,0-3.54-1.13-3.54-3.55v-7.84h1.73v7.32c0,2,1,2.52,2.48,2.52a4.27,4.27,0,0,0,3.29-1.67v-8.17h1.72v11.11Z"/><path class="cls-2" d="M566.68,183.45v-7.27c0-2-1-2.57-2.48-2.57a4.3,4.3,0,0,0-3.29,1.72v8.12h-1.73V172.34h1.73V174a5.5,5.5,0,0,1,4-1.88c2.33,0,3.55,1.17,3.55,3.58v7.8Z"/><path class="cls-2" d="M571.56,169.61a1.16,1.16,0,1,1,2.32,0,1.16,1.16,0,0,1-2.32,0Zm.3,13.84V172.34h1.72v11.11Z"/><path class="cls-2" d="M577.38,181.13v-7.27h-1.84v-1.52h1.84v-3h1.72v3h2.26v1.52H579.1v6.9c0,.83.37,1.42,1.13,1.42a1.67,1.67,0,0,0,1.17-.45l.51,1.28a2.8,2.8,0,0,1-2.07.72A2.28,2.28,0,0,1,577.38,181.13Z"/><path class="cls-2" d="M583.45,186.23a2.54,2.54,0,0,0,.94.19,1.61,1.61,0,0,0,1.66-1.18l.73-1.68-4.64-11.22H584l3.7,9.11,3.68-9.11h1.89L587.7,185.7a3.31,3.31,0,0,1-3.26,2.26,5.81,5.81,0,0,1-1.27-.16Z"/><path class="cls-7" d="M481.27,214c0-8.08,4.56-13.8,12.43-13.8a12,12,0,0,1,7.88,2.76L499,207.34a7.08,7.08,0,0,0-5.32-2.08c-3.92,0-6.67,3.32-6.67,7.56a2.64,2.64,0,0,0,0,.56,8.64,8.64,0,0,1,6.83-3.44c4.8,0,9.08,3,9.08,8.68,0,5.2-4.12,9.16-10.2,9.16C484.67,227.78,481.27,221.54,481.27,214Zm16,4.8c0-2.8-2.4-4-5-4a6.64,6.64,0,0,0-5.19,2.52c.23,2.56,1.68,5.4,5.39,5.4C495.54,222.74,497.22,220.7,497.22,218.82Z"/><path class="cls-7" d="M506.87,225l2.52-4.36a7.06,7.06,0,0,0,5.32,2.08c4.39,0,6.67-3.68,6.67-7.52v-.6A8.82,8.82,0,0,1,514.5,218c-4.79,0-9.11-3-9.11-8.68,0-5.2,4.16-9.16,10.24-9.16,8.07,0,11.47,6.24,11.47,13.8,0,8-4.52,13.76-12.39,13.76A11.63,11.63,0,0,1,506.87,225Zm14.47-14.32c-.24-2.56-1.68-5.44-5.44-5.44-3,0-4.71,2.08-4.71,3.92,0,2.8,2.44,4,4.91,4A6.84,6.84,0,0,0,521.34,210.66Z"/><path class="cls-7" d="M529.51,224.5a3.24,3.24,0,1,1,3.24,3.24A3.28,3.28,0,0,1,529.51,224.5Z"/><path class="cls-7" d="M539.79,223.78l3.16-4a9.6,9.6,0,0,0,7.07,2.92c3.16,0,5-1.8,5-4,0-2.36-1.76-4-4.8-4a7.62,7.62,0,0,0-5.59,2.16l-4-1V200.62h18.31v5H546.3v6.52a8.48,8.48,0,0,1,5.88-2.24,8.34,8.34,0,0,1,8.56,8.64c0,5.68-4.24,9.24-10.68,9.24C545.42,227.78,542.07,226.26,539.79,223.78Z"/><path class="cls-7" d="M563.15,206.94a6.78,6.78,0,0,1,13.55,0,6.78,6.78,0,0,1-13.55,0Zm9.91,0c0-2.24-1.31-3.56-3.15-3.56s-3.16,1.32-3.16,3.56a3.17,3.17,0,1,0,6.31,0Zm-5.75,20.36,17-26.68h3L570.3,227.3Zm10.51-6.12a6.78,6.78,0,1,1,6.76,6.6A6.43,6.43,0,0,1,577.82,221.18Zm10,0c0-2.2-1.36-3.56-3.2-3.56s-3.16,1.36-3.16,3.56,1.32,3.48,3.16,3.48A3.17,3.17,0,0,0,587.78,221.18Z"/><path class="cls-7" d="M871.43,387.68V372.34h10.85v2.88H874.7v3.24h7.42v2.87H874.7v3.48h7.58v2.87Z"/><path class="cls-7" d="M889.14,387.68l-5.93-15.34h3.72l4.26,11.8,4.23-11.8h3.72l-5.91,15.34Z"/><path class="cls-7" d="M900.57,387.68V372.34h10.85v2.88h-7.58v3.24h7.42v2.87h-7.42v3.48h7.58v2.87Z"/><path class="cls-7" d="M922.65,387.68l-3-5.45h-2.39v5.45H914V372.34h7.18a4.78,4.78,0,0,1,5.15,5,4.41,4.41,0,0,1-3.36,4.55l3.45,5.84Zm.32-10.39a2.08,2.08,0,0,0-2.3-2.07h-3.42v4.14h3.42A2.09,2.09,0,0,0,923,377.29Z"/><path class="cls-2" d="M843.25,415.28V399.94h10v1.7h-8.14v4.95h8v1.7h-8v7Z"/><path class="cls-2" d="M855.18,409.72c0-3.22,2.12-5.82,5.5-5.82s5.49,2.6,5.49,5.82-2.11,5.84-5.49,5.84S855.18,412.93,855.18,409.72Zm9.18,0c0-2.26-1.31-4.28-3.68-4.28s-3.71,2-3.71,4.28,1.34,4.3,3.71,4.3S864.36,412,864.36,409.72Z"/><path class="cls-2" d="M876.48,415.28v-1.56a5.46,5.46,0,0,1-4,1.84c-2.32,0-3.54-1.13-3.54-3.55v-7.84h1.73v7.32c0,1.95,1,2.53,2.48,2.53a4.28,4.28,0,0,0,3.29-1.68v-8.17h1.72v11.11Z"/><path class="cls-2" d="M889.15,415.28V408c0-1.95-1-2.57-2.48-2.57a4.3,4.3,0,0,0-3.29,1.72v8.12h-1.73V404.17h1.73v1.61a5.5,5.5,0,0,1,4-1.88c2.33,0,3.55,1.17,3.55,3.58v7.8Z"/><path class="cls-2" d="M902.38,415.28v-1.66a4.69,4.69,0,0,1-3.75,1.94c-2.9,0-5-2.21-5-5.82s2-5.84,5-5.84a4.65,4.65,0,0,1,3.75,2v-5.91h1.72v15.34Zm0-3v-5a4.21,4.21,0,0,0-3.34-1.79c-2.23,0-3.56,1.84-3.56,4.3S896.81,414,899,414A4.17,4.17,0,0,0,902.38,412.27Z"/><path class="cls-2" d="M914.5,415.28V414a4.82,4.82,0,0,1-3.68,1.54,3.7,3.7,0,0,1-3.89-3.68,3.64,3.64,0,0,1,3.89-3.66,4.63,4.63,0,0,1,3.68,1.52v-2c0-1.5-1.2-2.35-2.81-2.35a4.4,4.4,0,0,0-3.4,1.54l-.81-1.19a5.83,5.83,0,0,1,4.44-1.84c2.35,0,4.3,1.05,4.3,3.74v7.64Zm0-2.35v-2.09a3.72,3.72,0,0,0-3.06-1.38,2.44,2.44,0,1,0,0,4.85A3.72,3.72,0,0,0,914.5,412.93Z"/><path class="cls-2" d="M920,413v-7.27h-1.84v-1.52H920v-3h1.72v3H924v1.52h-2.26v6.9c0,.83.37,1.43,1.13,1.43a1.68,1.68,0,0,0,1.17-.46l.51,1.28a2.8,2.8,0,0,1-2.07.72A2.28,2.28,0,0,1,920,413Z"/><path class="cls-2" d="M926.14,401.44a1.16,1.16,0,1,1,1.15,1.15A1.15,1.15,0,0,1,926.14,401.44Zm.29,13.84V404.17h1.73v11.11Z"/><path class="cls-2" d="M931,409.72c0-3.22,2.11-5.82,5.49-5.82s5.5,2.6,5.5,5.82-2.12,5.84-5.5,5.84S931,412.93,931,409.72Zm9.17,0c0-2.26-1.31-4.28-3.68-4.28s-3.7,2-3.7,4.28,1.33,4.3,3.7,4.3S940.14,412,940.14,409.72Z"/><path class="cls-2" d="M952.26,415.28V408c0-1.95-1-2.57-2.48-2.57a4.3,4.3,0,0,0-3.29,1.72v8.12h-1.72V404.17h1.72v1.61a5.5,5.5,0,0,1,4-1.88c2.32,0,3.54,1.17,3.54,3.58v7.8Z"/><path class="cls-7" d="M844.16,458.76v-4.44c10.92-8.08,14.12-10.84,14.12-14.12,0-2.32-2.12-3.48-4.32-3.48a9.54,9.54,0,0,0-7.16,3.08L843.56,436a13.59,13.59,0,0,1,10.28-4.36c5.68,0,10.2,3.2,10.2,8.52,0,4.56-3.76,8.52-10.68,13.56h10.88v5Z"/><path class="cls-7" d="M867.6,445.44c0-6.88,3.4-13.76,11-13.76s11,6.88,11,13.76-3.44,13.8-11,13.8S867.6,452.32,867.6,445.44Zm16.28,0c0-4.92-1.44-8.72-5.24-8.72s-5.28,3.8-5.28,8.72,1.44,8.76,5.28,8.76S883.88,450.36,883.88,445.44Z"/><path class="cls-7" d="M892,456a3.24,3.24,0,1,1,3.24,3.24A3.28,3.28,0,0,1,892,456Z"/><path class="cls-7" d="M902.32,455.24l3.16-4a9.62,9.62,0,0,0,7.08,2.92c3.16,0,5-1.8,5-4,0-2.36-1.76-4-4.8-4a7.66,7.66,0,0,0-5.6,2.16l-4-1V432.08h18.32v5H908.84v6.52a8.46,8.46,0,0,1,5.88-2.24,8.34,8.34,0,0,1,8.56,8.64c0,5.68-4.24,9.24-10.68,9.24C908,459.24,904.6,457.72,902.32,455.24Z"/><path class="cls-7" d="M925.68,438.4a6.78,6.78,0,0,1,13.56,0,6.78,6.78,0,0,1-13.56,0Zm9.92,0c0-2.24-1.32-3.56-3.16-3.56s-3.16,1.32-3.16,3.56a3.17,3.17,0,1,0,6.32,0Zm-5.76,20.36,17-26.68h3l-17.08,26.68Zm10.52-6.12a6.78,6.78,0,1,1,6.76,6.6A6.43,6.43,0,0,1,940.36,452.64Zm10,0c0-2.2-1.36-3.56-3.2-3.56s-3.16,1.36-3.16,3.56,1.32,3.48,3.16,3.48A3.17,3.17,0,0,0,950.32,452.64Z"/><path class="cls-2" d="M447.26,698.23V682.89h5.24a7.46,7.46,0,0,1,7.86,7.68c0,4.37-3.1,7.66-7.86,7.66Zm11.12-7.66c0-3.31-2.09-6-5.88-6h-3.34v11.93h3.34A5.63,5.63,0,0,0,458.38,690.57Z"/><path class="cls-2" d="M462.64,692.66a5.56,5.56,0,0,1,5.48-5.82c3.35,0,5.33,2.62,5.33,6v.43h-9a3.92,3.92,0,0,0,4,3.85,4.88,4.88,0,0,0,3.43-1.41l.82,1.13a6,6,0,0,1-4.41,1.7A5.51,5.51,0,0,1,462.64,692.66Zm5.45-4.39a3.7,3.7,0,0,0-3.63,3.7h7.29A3.6,3.6,0,0,0,468.09,688.27Z"/><path class="cls-2" d="M479.2,698.23l-4.62-11.11h1.86l3.7,9.1,3.68-9.1h1.89l-4.62,11.11Z"/><path class="cls-2" d="M486.86,692.66a5.56,5.56,0,0,1,5.47-5.82c3.36,0,5.34,2.62,5.34,6v.43h-9a3.92,3.92,0,0,0,4,3.85,4.88,4.88,0,0,0,3.43-1.41l.82,1.13a6,6,0,0,1-4.41,1.7A5.51,5.51,0,0,1,486.86,692.66Zm5.45-4.39a3.7,3.7,0,0,0-3.63,3.7H496A3.6,3.6,0,0,0,492.31,688.27Z"/><path class="cls-2" d="M500.45,698.23V682.89h1.73v15.34Z"/><path class="cls-2" d="M505,692.66c0-3.22,2.11-5.82,5.49-5.82s5.5,2.6,5.5,5.82-2.12,5.84-5.5,5.84S505,695.88,505,692.66Zm9.17,0c0-2.25-1.31-4.28-3.68-4.28s-3.7,2-3.7,4.28,1.33,4.3,3.7,4.3S514.16,694.94,514.16,692.66Z"/><path class="cls-2" d="M520.51,696.55v5.91h-1.73V687.12h1.73v1.65a4.65,4.65,0,0,1,3.75-1.93c2.92,0,4.94,2.21,4.94,5.82s-2,5.84-4.94,5.84A4.56,4.56,0,0,1,520.51,696.55Zm6.87-3.89c0-2.46-1.33-4.28-3.56-4.28a4.12,4.12,0,0,0-3.31,1.77v5a4.13,4.13,0,0,0,3.31,1.79C526.05,697,527.38,695.12,527.38,692.66Z"/><path class="cls-2" d="M531.3,692.66a5.56,5.56,0,0,1,5.47-5.82c3.36,0,5.33,2.62,5.33,6v.43h-9a3.92,3.92,0,0,0,4,3.85,4.84,4.84,0,0,0,3.43-1.41l.83,1.13a6.06,6.06,0,0,1-4.42,1.7A5.51,5.51,0,0,1,531.3,692.66Zm5.45-4.39a3.72,3.72,0,0,0-3.64,3.7h7.29A3.59,3.59,0,0,0,536.75,688.27Z"/><path class="cls-2" d="M544.89,698.23V687.12h1.72v1.79a4.74,4.74,0,0,1,3.71-2v1.77a2.87,2.87,0,0,0-.69-.07,4.07,4.07,0,0,0-3,1.77v7.87Z"/><path class="cls-2" d="M551.51,696.75l.9-1.24a5,5,0,0,0,3.66,1.59c1.7,0,2.62-.81,2.62-1.91,0-2.69-6.88-1-6.88-5.15,0-1.73,1.5-3.2,4.14-3.2a5.66,5.66,0,0,1,4.12,1.61l-.81,1.2a4.3,4.3,0,0,0-3.31-1.4c-1.52,0-2.46.75-2.46,1.74,0,2.44,6.88.83,6.88,5.15,0,1.87-1.5,3.36-4.37,3.36A5.91,5.91,0,0,1,551.51,696.75Z"/><path class="cls-2" d="M563.61,701.14l-.85-.71a3.39,3.39,0,0,0,1.49-2.14.82.82,0,0,1-.32.05,1.09,1.09,0,0,1-1.1-1.17,1.23,1.23,0,0,1,1.22-1.24,1.56,1.56,0,0,1,1.45,1.74A4.41,4.41,0,0,1,563.61,701.14Z"/><path class="cls-2" d="M578.26,698.23V684.59h-4.85v-1.7H585v1.7h-4.87v13.64Z"/><path class="cls-2" d="M584.22,692.66a5.56,5.56,0,0,1,5.47-5.82c3.36,0,5.34,2.62,5.34,6v.43h-9a3.91,3.91,0,0,0,4,3.85,4.84,4.84,0,0,0,3.42-1.41l.83,1.13a6,6,0,0,1-4.41,1.7A5.51,5.51,0,0,1,584.22,692.66Zm5.45-4.39A3.7,3.7,0,0,0,586,692h7.28A3.59,3.59,0,0,0,589.67,688.27Z"/><path class="cls-2" d="M604.75,698.23V697a4.78,4.78,0,0,1-3.67,1.54,3.7,3.7,0,0,1-3.89-3.68,3.64,3.64,0,0,1,3.89-3.65,4.64,4.64,0,0,1,3.67,1.51v-2c0-1.49-1.19-2.34-2.8-2.34a4.4,4.4,0,0,0-3.4,1.54l-.81-1.2a5.83,5.83,0,0,1,4.44-1.84c2.35,0,4.3,1.06,4.3,3.75v7.64Zm0-2.35v-2.09a3.69,3.69,0,0,0-3-1.38,2.44,2.44,0,1,0,0,4.85A3.69,3.69,0,0,0,604.75,695.88Z"/><path class="cls-2" d="M623.34,698.23v-7.55c0-1.4-.62-2.3-2.05-2.3a3.88,3.88,0,0,0-2.94,1.7v8.15h-1.73v-7.55c0-1.4-.59-2.3-2-2.3a3.86,3.86,0,0,0-2.92,1.73v8.12h-1.73V687.12h1.73v1.61a4.8,4.8,0,0,1,3.58-1.89,2.84,2.84,0,0,1,3,2.07,4.69,4.69,0,0,1,3.73-2.07c2,0,3.1,1.13,3.1,3.36v8Z"/><path class="cls-7" d="M499.6,742.07l9.56-21.67H495.73v-5h20v4l-9.92,22.71Z"/><path class="cls-7" d="M514.65,739.27a3.24,3.24,0,1,1,3.23,3.24A3.28,3.28,0,0,1,514.65,739.27Z"/><path class="cls-7" d="M524.93,738.55l3.16-4a9.58,9.58,0,0,0,7.07,2.92c3.16,0,5-1.8,5-4,0-2.36-1.76-3.95-4.8-3.95a7.65,7.65,0,0,0-5.6,2.15l-4-1V715.4h18.31v5H531.44v6.52a8.46,8.46,0,0,1,5.88-2.24,8.34,8.34,0,0,1,8.56,8.63c0,5.68-4.24,9.24-10.68,9.24C530.56,742.55,527.21,741,524.93,738.55Z"/><path class="cls-7" d="M548.29,721.72a6.78,6.78,0,0,1,13.55,0,6.78,6.78,0,0,1-13.55,0Zm9.91,0c0-2.24-1.32-3.56-3.15-3.56s-3.16,1.32-3.16,3.56a3.17,3.17,0,1,0,6.31,0Zm-5.75,20.35,17-26.67h3l-17.08,26.67ZM563,736a6.78,6.78,0,1,1,6.76,6.6A6.43,6.43,0,0,1,563,736Zm10,0c0-2.2-1.36-3.56-3.2-3.56s-3.16,1.36-3.16,3.56,1.32,3.48,3.16,3.48A3.17,3.17,0,0,0,572.92,736Z"/><path class="cls-7" d="M152.89,458.76v-4.44C163.81,446.24,167,443.48,167,440.2c0-2.32-2.12-3.48-4.32-3.48a9.54,9.54,0,0,0-7.16,3.08L152.29,436a13.59,13.59,0,0,1,10.28-4.36c5.68,0,10.2,3.2,10.2,8.52,0,4.56-3.76,8.52-10.68,13.56H173v5Z"/><path class="cls-7" d="M176.85,456a3.24,3.24,0,1,1,3.24,3.24A3.28,3.28,0,0,1,176.85,456Z"/><path class="cls-7" d="M187.13,455.24l3.16-4a9.62,9.62,0,0,0,7.08,2.92c3.16,0,5-1.8,5-4,0-2.36-1.76-4-4.8-4a7.66,7.66,0,0,0-5.6,2.16l-4-1V432.08h18.32v5H193.65v6.52a8.46,8.46,0,0,1,5.88-2.24,8.34,8.34,0,0,1,8.56,8.64c0,5.68-4.24,9.24-10.68,9.24C192.77,459.24,189.41,457.72,187.13,455.24Z"/><path class="cls-7" d="M210.49,438.4a6.78,6.78,0,0,1,13.56,0,6.78,6.78,0,0,1-13.56,0Zm9.92,0c0-2.24-1.32-3.56-3.16-3.56s-3.16,1.32-3.16,3.56a3.17,3.17,0,1,0,6.32,0Zm-5.76,20.36,17-26.68h3l-17.08,26.68Zm10.52-6.12a6.78,6.78,0,1,1,6.76,6.6A6.43,6.43,0,0,1,225.17,452.64Zm10,0c0-2.2-1.36-3.56-3.2-3.56s-3.16,1.36-3.16,3.56,1.32,3.48,3.16,3.48A3.17,3.17,0,0,0,235.13,452.64Z"/><line class="cls-8" x1="536.02" y1="240.66" x2="536.02" y2="270.4"/><path class="cls-7" d="M532.26,270.21a3.76,3.76,0,1,0,3.76-3.76A3.76,3.76,0,0,0,532.26,270.21Z"/><polyline class="cls-8" points="253 446.35 283.09 446.35 357.16 570.42 386.53 570.42"/><circle class="cls-7" cx="386.34" cy="570.42" r="3.76"/><polyline class="cls-8" points="833.18 446.35 803.09 446.35 719.01 580.42 683.65 580.42"/><circle class="cls-7" cx="683.83" cy="580.42" r="3.76"/><polyline class="cls-8" points="453.49 611.79 453.49 634.24 536.02 634.24 536.02 667.55"/><path class="cls-7" d="M449.73,612a3.76,3.76,0,1,1,3.76,3.76A3.76,3.76,0,0,1,449.73,612Z"/><path class="cls-7" d="M137.71,414.91V399.57h10.85v2.88H141v3.24h7.43v2.87H141V412h7.59v2.87Z"/><path class="cls-7" d="M155.42,414.91l-5.94-15.34h3.73l4.25,11.8,4.24-11.8h3.72l-5.91,15.34Z"/><path class="cls-7" d="M166.85,414.91V399.57H177.7v2.88h-7.58v3.24h7.42v2.87h-7.42V412h7.58v2.87Z"/><path class="cls-7" d="M188.93,414.91l-3-5.45h-2.4v5.45h-3.26V399.57h7.17a4.78,4.78,0,0,1,5.15,4.95,4.4,4.4,0,0,1-3.35,4.55l3.45,5.84Zm.32-10.39a2.08,2.08,0,0,0-2.3-2.07h-3.43v4.14H187A2.08,2.08,0,0,0,189.25,404.52Z"/><path class="cls-2" d="M194.59,407.25a7.67,7.67,0,0,1,7.89-7.93,6.86,6.86,0,0,1,5.82,3l-1.61.89a5.22,5.22,0,0,0-4.21-2.23,6.24,6.24,0,0,0,0,12.47,5.14,5.14,0,0,0,4.21-2.23l1.63.89a6.94,6.94,0,0,1-5.84,3A7.67,7.67,0,0,1,194.59,407.25Z"/><path class="cls-2" d="M210.14,407.25c0-4.53,3.06-7.93,7.61-7.93s7.61,3.4,7.61,7.93-3.08,7.94-7.61,7.94S210.14,411.78,210.14,407.25Zm13.24,0c0-3.58-2.2-6.23-5.63-6.23s-5.63,2.65-5.63,6.23,2.18,6.24,5.63,6.24S223.38,410.82,223.38,407.25Z"/><path class="cls-2" d="M237.23,414.91l-3.91-6.09h-3.06v6.09h-1.91V399.57h6.17a4.47,4.47,0,0,1,4.8,4.63,4.24,4.24,0,0,1-4,4.46l4.14,6.25Zm.11-10.71a2.84,2.84,0,0,0-3.05-2.92h-4v5.86h4A2.87,2.87,0,0,0,237.34,404.2Z"/><path class="cls-2" d="M242.34,414.91V399.57h6.16a4.63,4.63,0,1,1,0,9.25h-4.25v6.09Zm9-10.71a2.85,2.85,0,0,0-3.06-2.92h-4v5.84h4A2.85,2.85,0,0,0,251.33,404.2Z"/></svg>