<svg id="Layer_1" data-name="Layer 1" xmlns="http://www.w3.org/2000/svg" viewBox="0 0 1605.26 720"><defs><style>.cls-1{fill:#13131f;}.cls-2{fill:#d55fff;}.cls-3{fill:#fff;}.cls-4{fill:#30e4ff;}.cls-5{fill:#ef4136;}.cls-6{fill:#fbb040;}.cls-7{fill:#7fde59;}.cls-8{fill:#d15cfb;}.cls-9{fill:#ff9c63;}.cls-10{fill:#74affb;}.cls-11{fill:#5fe3e8;}.cls-12{fill:#ef6193;}.cls-13{fill:#f933bc;}.cls-14{fill:#2d4beb;}.cls-15{fill:#8b3fff;}.cls-16,.cls-20{fill:none;stroke-miterlimit:10;}.cls-16{stroke:#34343f;stroke-width:3.66px;}.cls-17{fill:#883cff;}.cls-18{fill:#1f51fe;}.cls-19{fill:#74b3ff;}.cls-20{stroke:#fff;stroke-width:1.83px;}</style></defs><rect class="cls-1" width="1605.26" height="720"/><path class="cls-2" d="M93.36,170.82l.79-1a4.57,4.57,0,0,0,3.41,1.55c1.93,0,2.55-1,2.55-1.87,0-2.79-6.41-1.25-6.41-5.12,0-1.78,1.59-3,3.71-3a5.08,5.08,0,0,1,3.85,1.51l-.81,1a4.15,4.15,0,0,0-3.13-1.3c-1.3,0-2.23.7-2.23,1.72,0,2.44,6.42,1,6.42,5.09,0,1.57-1.07,3.18-4,3.18A5.37,5.37,0,0,1,93.36,170.82Z"/><path class="cls-2" d="M103,168.41a3.91,3.91,0,0,1,3.86-4.1c2.37,0,3.77,1.85,3.77,4.2v.31H104.3a2.76,2.76,0,0,0,2.82,2.71,3.42,3.42,0,0,0,2.42-1l.59.8a4.27,4.27,0,0,1-3.12,1.2A3.89,3.89,0,0,1,103,168.41Zm3.84-3.1a2.61,2.61,0,0,0-2.56,2.62h5.15A2.55,2.55,0,0,0,106.86,165.31Z"/><path class="cls-2" d="M112.16,168.41a3.91,3.91,0,0,1,3.86-4.1c2.37,0,3.77,1.85,3.77,4.2v.31h-6.35a2.77,2.77,0,0,0,2.83,2.71,3.41,3.41,0,0,0,2.41-1l.59.8a4.27,4.27,0,0,1-3.12,1.2A3.89,3.89,0,0,1,112.16,168.41Zm3.85-3.1a2.62,2.62,0,0,0-2.57,2.62h5.15A2.55,2.55,0,0,0,116,165.31Z"/><path class="cls-2" d="M127.44,172.34v-1.17a3.32,3.32,0,0,1-2.65,1.37c-2.05,0-3.49-1.56-3.49-4.11s1.43-4.12,3.49-4.12a3.26,3.26,0,0,1,2.65,1.38v-4.18h1.21v10.83Zm0-2.12v-3.56a3,3,0,0,0-2.36-1.27c-1.57,0-2.51,1.3-2.51,3s.94,3,2.51,3A2.92,2.92,0,0,0,127.44,170.22Z"/><path class="cls-2" d="M131.4,174.41l-.6-.51a2.38,2.38,0,0,0,1-1.51.61.61,0,0,1-.22,0,.77.77,0,0,1-.79-.82.88.88,0,0,1,.87-.88,1.1,1.1,0,0,1,1,1.23A3.18,3.18,0,0,1,131.4,174.41Z"/><path class="cls-2" d="M139.06,172.34V161.51h4.35a3.27,3.27,0,1,1,0,6.53h-3v4.3Zm6.35-7.56a2,2,0,0,0-2.16-2.07h-2.84v4.13h2.84A2,2,0,0,0,145.41,164.78Z"/><path class="cls-2" d="M148.54,172.34V164.5h1.22v1.27a3.32,3.32,0,0,1,2.62-1.43v1.25a2.38,2.38,0,0,0-.49-.05,2.88,2.88,0,0,0-2.13,1.25v5.55Z"/><path class="cls-2" d="M153.69,162.57a.82.82,0,1,1,.81.81A.81.81,0,0,1,153.69,162.57Zm.21,9.77V164.5h1.22v7.84Z"/><path class="cls-2" d="M159.65,172.34l-3.27-7.84h1.32l2.61,6.43,2.6-6.43h1.33L161,172.34Z"/><path class="cls-2" d="M170.41,172.34v-.89a3.4,3.4,0,0,1-2.59,1.09,2.61,2.61,0,0,1-2.75-2.6,2.57,2.57,0,0,1,2.75-2.58,3.26,3.26,0,0,1,2.59,1.07V167c0-1.06-.84-1.66-2-1.66a3.11,3.11,0,0,0-2.4,1.09l-.57-.85a4.13,4.13,0,0,1,3.14-1.29c1.65,0,3,.74,3,2.64v5.39Zm0-1.65v-1.48a2.62,2.62,0,0,0-2.16-1,1.72,1.72,0,1,0,0,3.42A2.62,2.62,0,0,0,170.41,170.69Z"/><path class="cls-2" d="M174.31,170.7v-5.13H173V164.5h1.3v-2.14h1.22v2.14h1.59v1.07h-1.59v4.87c0,.59.26,1,.79,1a1.21,1.21,0,0,0,.83-.32l.36.9a2,2,0,0,1-1.46.51A1.61,1.61,0,0,1,174.31,170.7Z"/><path class="cls-2" d="M178.39,168.41a3.91,3.91,0,0,1,3.86-4.1c2.37,0,3.77,1.85,3.77,4.2v.31h-6.35a2.76,2.76,0,0,0,2.82,2.71,3.42,3.42,0,0,0,2.42-1l.59.8a4.27,4.27,0,0,1-3.12,1.2A3.89,3.89,0,0,1,178.39,168.41Zm3.84-3.1a2.61,2.61,0,0,0-2.56,2.62h5.15A2.55,2.55,0,0,0,182.23,165.31Z"/><path class="cls-2" d="M191.49,171.3l.63-.87a3.56,3.56,0,0,0,2.58,1.12c1.2,0,1.85-.57,1.85-1.35,0-1.9-4.85-.73-4.85-3.64,0-1.22,1.05-2.25,2.92-2.25a4,4,0,0,1,2.91,1.13l-.57.85a3,3,0,0,0-2.34-1c-1.07,0-1.74.53-1.74,1.23,0,1.72,4.86.58,4.86,3.64,0,1.31-1.06,2.37-3.09,2.37A4.14,4.14,0,0,1,191.49,171.3Z"/><path class="cls-2" d="M204.62,172.34v-.89a3.4,3.4,0,0,1-2.59,1.09,2.61,2.61,0,0,1-2.75-2.6,2.57,2.57,0,0,1,2.75-2.58,3.26,3.26,0,0,1,2.59,1.07V167c0-1.06-.84-1.66-2-1.66a3.11,3.11,0,0,0-2.4,1.09l-.57-.85a4.13,4.13,0,0,1,3.14-1.29c1.65,0,3,.74,3,2.64v5.39Zm0-1.65v-1.48a2.62,2.62,0,0,0-2.16-1,1.72,1.72,0,1,0,0,3.42A2.62,2.62,0,0,0,204.62,170.69Z"/><path class="cls-2" d="M208.28,172.34V161.51h1.21v10.83Z"/><path class="cls-2" d="M211.47,168.41a3.92,3.92,0,0,1,3.87-4.1c2.37,0,3.77,1.85,3.77,4.2v.31h-6.35a2.76,2.76,0,0,0,2.82,2.71,3.44,3.44,0,0,0,2.42-1l.59.8a4.27,4.27,0,0,1-3.12,1.2A3.89,3.89,0,0,1,211.47,168.41Zm3.85-3.1a2.61,2.61,0,0,0-2.56,2.62h5.15A2.55,2.55,0,0,0,215.32,165.31Z"/><path class="cls-3" d="M94.42,202.11v-2.75c6.74-5,8.72-6.69,8.72-8.72,0-1.43-1.31-2.15-2.67-2.15a5.88,5.88,0,0,0-4.42,1.9l-2-2.32a8.39,8.39,0,0,1,6.35-2.69c3.51,0,6.3,2,6.3,5.26,0,2.82-2.32,5.26-6.6,8.38h6.72v3.09Z"/><path class="cls-3" d="M108.9,193.88c0-4.25,2.1-8.5,6.82-8.5s6.82,4.25,6.82,8.5-2.13,8.52-6.82,8.52S108.9,198.13,108.9,193.88Zm10,0c0-3-.88-5.39-3.23-5.39s-3.26,2.35-3.26,5.39.89,5.41,3.26,5.41S119,196.92,119,193.88Z"/><path class="cls-3" d="M134.67,202.11v-12l-2.74,2.79-2-2.1,5.19-5.22h3.07v16.49Z"/><path class="cls-3" d="M140.62,193.9c0-5,2.82-8.52,7.69-8.52a7.42,7.42,0,0,1,4.86,1.7l-1.58,2.7a4.36,4.36,0,0,0-3.28-1.29c-2.42,0-4.13,2-4.13,4.67a1.42,1.42,0,0,0,0,.35,5.33,5.33,0,0,1,4.22-2.13c3,0,5.61,1.85,5.61,5.36,0,3.22-2.55,5.66-6.3,5.66C142.72,202.4,140.62,198.55,140.62,193.9Zm9.86,3c0-1.73-1.48-2.47-3.06-2.47a4.1,4.1,0,0,0-3.21,1.55c.14,1.58,1,3.34,3.33,3.34A2.66,2.66,0,0,0,150.48,196.87Z"/><path class="cls-3" d="M155.62,193.88c0-4.25,2.1-8.5,6.82-8.5s6.82,4.25,6.82,8.5-2.13,8.52-6.82,8.52S155.62,198.13,155.62,193.88Zm10.06,0c0-3-.89-5.39-3.24-5.39s-3.26,2.35-3.26,5.39.89,5.41,3.26,5.41S165.68,196.92,165.68,193.88Z"/><path class="cls-3" d="M177.21,193.88c0-4.25,2.11-8.5,6.82-8.5s6.82,4.25,6.82,8.5-2.12,8.52-6.82,8.52S177.21,198.13,177.21,193.88Zm10.06,0c0-3-.89-5.39-3.24-5.39s-3.26,2.35-3.26,5.39.89,5.41,3.26,5.41S187.27,196.92,187.27,193.88Z"/><path class="cls-3" d="M192.51,193.88c0-4.25,2.1-8.5,6.82-8.5s6.82,4.25,6.82,8.5-2.13,8.52-6.82,8.52S192.51,198.13,192.51,193.88Zm10.06,0c0-3-.89-5.39-3.24-5.39s-3.26,2.35-3.26,5.39.89,5.41,3.26,5.41S202.57,196.92,202.57,193.88Z"/><path class="cls-3" d="M207.8,193.88c0-4.25,2.1-8.5,6.82-8.5s6.82,4.25,6.82,8.5-2.12,8.52-6.82,8.52S207.8,198.13,207.8,193.88Zm10.06,0c0-3-.89-5.39-3.24-5.39s-3.26,2.35-3.26,5.39.89,5.41,3.26,5.41S217.86,196.92,217.86,193.88Z"/><path class="cls-2" d="M543.7,374.05v-14h-5v-1.75h11.92v1.75h-5v14Z"/><path class="cls-2" d="M549.8,368.35c0-3.3,2.17-6,5.63-6s5.64,2.66,5.64,6-2.17,6-5.64,6S549.8,371.65,549.8,368.35Zm9.4,0c0-2.31-1.34-4.38-3.77-4.38s-3.79,2.07-3.79,4.38,1.37,4.41,3.79,4.41S559.2,370.68,559.2,368.35Z"/><path class="cls-2" d="M564.29,371.67v-7.45h-1.88v-1.55h1.88v-3.11h1.77v3.11h2.31v1.55h-2.31v7.07c0,.85.38,1.47,1.16,1.47a1.72,1.72,0,0,0,1.2-.48l.52,1.32a2.88,2.88,0,0,1-2.12.73C565.14,374.33,564.29,373.37,564.29,371.67Z"/><path class="cls-2" d="M578,374.05v-1.29a5,5,0,0,1-3.78,1.57,3.79,3.79,0,0,1-4-3.77,3.72,3.72,0,0,1,4-3.74,4.77,4.77,0,0,1,3.78,1.55v-2.05c0-1.53-1.23-2.4-2.88-2.4a4.51,4.51,0,0,0-3.49,1.58l-.82-1.23a6,6,0,0,1,4.55-1.88c2.4,0,4.4,1.08,4.4,3.84v7.82Zm0-2.4V369.5a3.83,3.83,0,0,0-3.14-1.41,2.5,2.5,0,1,0,0,5A3.83,3.83,0,0,0,578,371.65Z"/><path class="cls-2" d="M583.29,374.05V358.33h1.77v15.72Z"/><path class="cls-2" d="M593.8,371.84l1.15-1.49a6.64,6.64,0,0,0,4.95,2.24c2.81,0,3.7-1.51,3.7-2.71,0-4.05-9.31-1.81-9.31-7.42,0-2.59,2.31-4.36,5.4-4.36a7.39,7.39,0,0,1,5.58,2.19l-1.17,1.44a6,6,0,0,0-4.55-1.89c-1.89,0-3.23,1-3.23,2.5,0,3.53,9.31,1.51,9.31,7.38,0,2.28-1.56,4.61-5.8,4.61A7.77,7.77,0,0,1,593.8,371.84Z"/><path class="cls-2" d="M616.16,374.05v-1.6a5.55,5.55,0,0,1-4,1.88c-2.38,0-3.63-1.15-3.63-3.62v-8h1.77v7.49c0,2,1,2.6,2.54,2.6a4.38,4.38,0,0,0,3.37-1.72v-8.37h1.77v11.38Z"/><path class="cls-2" d="M623.23,372.33v6.06h-1.77V362.67h1.77v1.7a4.75,4.75,0,0,1,3.84-2c3,0,5.07,2.26,5.07,6s-2.08,6-5.07,6A4.67,4.67,0,0,1,623.23,372.33Zm7-4c0-2.52-1.37-4.38-3.66-4.38a4.19,4.19,0,0,0-3.39,1.81v5.14a4.22,4.22,0,0,0,3.39,1.84C628.91,372.76,630.28,370.87,630.28,368.35Z"/><path class="cls-2" d="M636.71,372.33v6.06h-1.77V362.67h1.77v1.7a4.74,4.74,0,0,1,3.84-2c3,0,5.07,2.26,5.07,6s-2.08,6-5.07,6A4.67,4.67,0,0,1,636.71,372.33Zm7-4c0-2.52-1.37-4.38-3.66-4.38a4.19,4.19,0,0,0-3.39,1.81v5.14a4.22,4.22,0,0,0,3.39,1.84C642.39,372.76,643.76,370.87,643.76,368.35Z"/><path class="cls-2" d="M648.42,374.05V358.33h1.77v15.72Z"/><path class="cls-2" d="M653.37,376.9a2.66,2.66,0,0,0,1,.19,1.64,1.64,0,0,0,1.69-1.2l.76-1.72L652,362.67h1.91l3.79,9.33,3.77-9.33h1.93l-5.7,13.69a3.38,3.38,0,0,1-3.35,2.31,6,6,0,0,1-1.29-.16Z"/><path class="cls-3" d="M451.51,421.33c0-11.38,6.42-19.44,17.52-19.44a17,17,0,0,1,11.1,3.89l-3.61,6.14A10,10,0,0,0,469,409c-5.52,0-9.41,4.67-9.41,10.65a3.42,3.42,0,0,0,.06.78,12.22,12.22,0,0,1,9.63-4.84c6.76,0,12.79,4.23,12.79,12.22,0,7.33-5.8,12.9-14.37,12.9C456.3,440.7,451.51,431.92,451.51,421.33ZM474,428.09c0-3.95-3.38-5.64-7-5.64a9.41,9.41,0,0,0-7.32,3.55c.34,3.61,2.36,7.61,7.6,7.61C471.62,433.61,474,430.73,474,428.09Z"/><path class="cls-3" d="M485.71,421.27c0-9.69,4.78-19.38,15.54-19.38s15.55,9.69,15.55,19.38S512,440.7,501.25,440.7,485.71,431,485.71,421.27Zm22.92,0c0-6.93-2-12.28-7.38-12.28s-7.43,5.35-7.43,12.28,2,12.34,7.43,12.34S508.63,428.2,508.63,421.27Z"/><path class="cls-3" d="M523.79,447.75l-3.1-2.54a9.62,9.62,0,0,0,4.34-5.29,4.68,4.68,0,0,1-1.08.16,3.82,3.82,0,0,1-3.83-4.05,4.5,4.5,0,0,1,4.4-4.51c2.65,0,5.07,2.09,5.07,5.75A13.16,13.16,0,0,1,523.79,447.75Z"/><path class="cls-3" d="M532.57,421.27c0-9.69,4.79-19.38,15.55-19.38s15.55,9.69,15.55,19.38-4.85,19.43-15.55,19.43S532.57,431,532.57,421.27Zm22.93,0c0-6.93-2-12.28-7.38-12.28s-7.43,5.35-7.43,12.28,2,12.34,7.43,12.34S555.5,428.2,555.5,421.27Z"/><path class="cls-3" d="M567.44,421.27c0-9.69,4.79-19.38,15.55-19.38s15.55,9.69,15.55,19.38S593.7,440.7,583,440.7,567.44,431,567.44,421.27Zm22.93,0c0-6.93-2-12.28-7.38-12.28s-7.43,5.35-7.43,12.28,2,12.34,7.43,12.34S590.37,428.2,590.37,421.27Z"/><path class="cls-3" d="M602.32,421.27c0-9.69,4.78-19.38,15.54-19.38s15.55,9.69,15.55,19.38-4.84,19.43-15.55,19.43S602.32,431,602.32,421.27Zm22.92,0c0-6.93-2-12.28-7.38-12.28s-7.43,5.35-7.43,12.28,2,12.34,7.43,12.34S625.24,428.2,625.24,421.27Z"/><path class="cls-3" d="M640.4,447.75l-3.1-2.54a9.62,9.62,0,0,0,4.34-5.29,4.67,4.67,0,0,1-1.07.16,3.81,3.81,0,0,1-3.83-4.05,4.49,4.49,0,0,1,4.39-4.51c2.65,0,5.07,2.09,5.07,5.75A13.16,13.16,0,0,1,640.4,447.75Z"/><path class="cls-3" d="M649.18,421.27c0-9.69,4.79-19.38,15.55-19.38s15.55,9.69,15.55,19.38-4.84,19.43-15.55,19.43S649.18,431,649.18,421.27Zm22.93,0c0-6.93-2-12.28-7.38-12.28s-7.43,5.35-7.43,12.28,2,12.34,7.43,12.34S672.11,428.2,672.11,421.27Z"/><path class="cls-3" d="M684.06,421.27c0-9.69,4.78-19.38,15.54-19.38s15.55,9.69,15.55,19.38-4.84,19.43-15.55,19.43S684.06,431,684.06,421.27Zm22.92,0c0-6.93-2-12.28-7.38-12.28s-7.43,5.35-7.43,12.28,2,12.34,7.43,12.34S707,428.2,707,421.27Z"/><path class="cls-3" d="M718.93,421.27c0-9.69,4.78-19.38,15.54-19.38S750,411.58,750,421.27s-4.84,19.43-15.55,19.43S718.93,431,718.93,421.27Zm22.92,0c0-6.93-2-12.28-7.38-12.28S727,414.34,727,421.27s2,12.34,7.43,12.34S741.85,428.2,741.85,421.27Z"/><path class="cls-4" d="M225.19,162.89l1.26-1.61a4.46,4.46,0,0,0,3.12,1.29c1.37,0,2.13-.59,2.13-1.44s-.7-1.3-2.27-1.3c-.47,0-1.24,0-1.41,0v-2.17c.21,0,1,0,1.41,0,1.25,0,2.08-.37,2.08-1.2s-.91-1.34-2.1-1.34a4,4,0,0,0-2.86,1.17l-1.2-1.51a5.54,5.54,0,0,1,4.32-1.8c2.64,0,4.27,1.19,4.27,3.07a2.77,2.77,0,0,1-2.48,2.57,2.85,2.85,0,0,1,2.65,2.71c0,2-1.75,3.32-4.46,3.32A5.65,5.65,0,0,1,225.19,162.89Z"/><path class="cls-4" d="M240.61,164.5v-2.34h-5.4v-1.89l4.49-7.07H243v6.85h1.45v2.11H243v2.34Zm0-9.16-3.05,4.71h3.05Z"/><path class="cls-4" d="M245.32,155.88a2.88,2.88,0,0,1,5.75,0,2.88,2.88,0,0,1-5.75,0Zm4.2,0a1.34,1.34,0,1,0-1.33,1.46A1.34,1.34,0,0,0,249.52,155.88Zm-2.44,8.62,7.22-11.3h1.29l-7.23,11.3Zm4.46-2.59a2.87,2.87,0,1,1,2.86,2.79A2.72,2.72,0,0,1,251.54,161.91Zm4.22,0a1.37,1.37,0,0,0-1.36-1.51,1.35,1.35,0,0,0-1.34,1.51,1.33,1.33,0,0,0,1.34,1.47A1.34,1.34,0,0,0,255.76,161.91Z"/><path class="cls-4" d="M185.59,253.8v-2.34h-5.41v-1.89l4.49-7.07H188v6.85h1.46v2.11H188v2.34Zm0-9.16-3.05,4.71h3.05Z"/><path class="cls-4" d="M190.3,245.18a2.87,2.87,0,0,1,5.74,0,2.87,2.87,0,0,1-5.74,0Zm4.2,0a1.34,1.34,0,1,0-1.34,1.46A1.34,1.34,0,0,0,194.5,245.18Zm-2.44,8.62,7.22-11.3h1.28l-7.23,11.3Zm4.45-2.59a2.88,2.88,0,0,1,5.75,0,2.88,2.88,0,0,1-5.75,0Zm4.22,0a1.35,1.35,0,1,0-2.69,0,1.35,1.35,0,1,0,2.69,0Z"/><path class="cls-4" d="M208.72,347.91l1.33-1.68a4.09,4.09,0,0,0,3,1.24c1.34,0,2.1-.76,2.1-1.68s-.74-1.67-2-1.67a3.26,3.26,0,0,0-2.37.91l-1.68-.44V338.1h7.76v2.12h-5.35V343a3.58,3.58,0,0,1,2.49-1,3.53,3.53,0,0,1,3.62,3.66c0,2.41-1.79,3.92-4.52,3.92A5.63,5.63,0,0,1,208.72,347.91Z"/><path class="cls-4" d="M218.61,340.78a2.87,2.87,0,0,1,5.74,0,2.87,2.87,0,0,1-5.74,0Zm4.2,0a1.34,1.34,0,1,0-1.34,1.46A1.34,1.34,0,0,0,222.81,340.78Zm-2.44,8.62,7.22-11.3h1.29l-7.24,11.3Zm4.46-2.59a2.87,2.87,0,1,1,2.86,2.8A2.72,2.72,0,0,1,224.83,346.81Zm4.22,0a1.37,1.37,0,0,0-1.36-1.51,1.35,1.35,0,0,0-1.34,1.51,1.33,1.33,0,0,0,1.34,1.47A1.34,1.34,0,0,0,229.05,346.81Z"/><path class="cls-4" d="M239.71,438.92a3.24,3.24,0,0,1,2.42-2.9,2.83,2.83,0,0,1-2.24-2.66c0-2.11,2.26-3,4.36-3s4.35.87,4.35,3a2.86,2.86,0,0,1-2.25,2.66,3.28,3.28,0,0,1,2.44,2.9c0,2.1-2.17,3.13-4.54,3.13S239.71,441,239.71,438.92Zm6.64-.3c0-.95-1.41-1.41-2.1-1.51-.72.1-2.1.56-2.1,1.51s.91,1.37,2.1,1.37S246.35,439.45,246.35,438.62Zm-.21-4.88c0-.82-.79-1.29-1.89-1.29s-1.92.47-1.92,1.29,1.22,1.23,1.92,1.34C244.94,435,246.14,434.58,246.14,433.74Z"/><path class="cls-4" d="M249.8,433.23a2.88,2.88,0,0,1,5.75,0,2.88,2.88,0,0,1-5.75,0Zm4.2,0a1.34,1.34,0,1,0-1.33,1.45A1.32,1.32,0,0,0,254,433.23Zm-2.44,8.62,7.22-11.3h1.29l-7.23,11.3Zm4.46-2.59a2.87,2.87,0,1,1,2.86,2.79A2.72,2.72,0,0,1,256,439.26Zm4.22,0a1.37,1.37,0,0,0-1.36-1.51,1.35,1.35,0,0,0-1.33,1.51,1.32,1.32,0,0,0,1.33,1.47A1.34,1.34,0,0,0,260.24,439.26Z"/><path class="cls-4" d="M171.66,531.31v-8.2L169.78,525l-1.38-1.44L172,520h2.1v11.3Z"/><path class="cls-4" d="M175.74,525.69c0-3.42,1.93-5.85,5.27-5.85a5.15,5.15,0,0,1,3.34,1.17l-1.09,1.85a3,3,0,0,0-5.08,2.32,1,1,0,0,0,0,.24,3.64,3.64,0,0,1,2.89-1.46,3.59,3.59,0,0,1,3.85,3.68c0,2.2-1.75,3.88-4.32,3.88C177.18,531.52,175.74,528.87,175.74,525.69Zm6.76,2c0-1.19-1-1.69-2.1-1.69a2.83,2.83,0,0,0-2.2,1.06,2.26,2.26,0,0,0,2.28,2.29A1.82,1.82,0,0,0,182.5,527.72Z"/><path class="cls-4" d="M185.89,522.69a2.87,2.87,0,0,1,5.74,0,2.87,2.87,0,0,1-5.74,0Zm4.2,0a1.34,1.34,0,1,0-1.34,1.46A1.34,1.34,0,0,0,190.09,522.69Zm-2.44,8.62,7.22-11.3h1.29l-7.24,11.3Zm4.46-2.59a2.87,2.87,0,1,1,2.86,2.8A2.72,2.72,0,0,1,192.11,528.72Zm4.21,0a1.35,1.35,0,1,0-2.69,0,1.35,1.35,0,1,0,2.69,0Z"/><path class="cls-2" d="M94,264.79V254h4.36a3.27,3.27,0,1,1,0,6.53h-3v4.3Zm6.35-7.56a2,2,0,0,0-2.16-2.07H95.35v4.13h2.84A2,2,0,0,0,100.35,257.23Z"/><path class="cls-2" d="M108.78,264.79v-1.1A3.83,3.83,0,0,1,106,265a2.21,2.21,0,0,1-2.5-2.5V257h1.21v5.16c0,1.38.7,1.79,1.76,1.79a3,3,0,0,0,2.32-1.18V257H110v7.84Z"/><path class="cls-2" d="M112.43,264.79V254h1.22v4.18a3.26,3.26,0,0,1,2.65-1.38c2,0,3.49,1.62,3.49,4.12S118.34,265,116.3,265a3.3,3.3,0,0,1-2.65-1.37v1.17Zm3.56-.89c1.59,0,2.53-1.28,2.53-3s-.94-3-2.53-3a2.92,2.92,0,0,0-2.34,1.27v3.56A2.89,2.89,0,0,0,116,263.9Z"/><path class="cls-2" d="M121.77,264.79V254H123v10.83Z"/><path class="cls-2" d="M125.21,255a.82.82,0,1,1,1.64,0,.82.82,0,0,1-1.64,0Zm.21,9.77V257h1.22v7.84Z"/><path class="cls-2" d="M128.62,260.86a3.87,3.87,0,0,1,3.91-4.1,3.36,3.36,0,0,1,2.88,1.36l-.81.75a2.33,2.33,0,0,0-2-1,3,3,0,0,0,0,6.06,2.37,2.37,0,0,0,2-1l.81.74a3.37,3.37,0,0,1-2.88,1.37A3.88,3.88,0,0,1,128.62,260.86Z"/><path class="cls-2" d="M140.7,263.27l.8-1a4.55,4.55,0,0,0,3.41,1.55c1.93,0,2.55-1,2.55-1.87,0-2.79-6.42-1.25-6.42-5.12,0-1.78,1.59-3,3.72-3a5.08,5.08,0,0,1,3.85,1.51l-.81,1a4.17,4.17,0,0,0-3.14-1.3c-1.3,0-2.22.7-2.22,1.72,0,2.44,6.41,1,6.41,5.09,0,1.57-1.07,3.18-4,3.18A5.38,5.38,0,0,1,140.7,263.27Z"/><path class="cls-2" d="M155.72,264.79v-.89a3.37,3.37,0,0,1-2.6,1.09,2.61,2.61,0,0,1-2.74-2.6,2.57,2.57,0,0,1,2.74-2.58,3.28,3.28,0,0,1,2.6,1.07v-1.41c0-1.06-.84-1.66-2-1.66a3.09,3.09,0,0,0-2.4,1.09l-.57-.85a4.11,4.11,0,0,1,3.13-1.29c1.66,0,3,.74,3,2.64v5.39Zm0-1.65v-1.48a2.62,2.62,0,0,0-2.16-1,1.72,1.72,0,1,0,0,3.42A2.62,2.62,0,0,0,155.72,263.14Z"/><path class="cls-2" d="M159.37,264.79V254h1.22v10.83Z"/><path class="cls-2" d="M162.57,260.86a3.92,3.92,0,0,1,3.87-4.1c2.37,0,3.76,1.85,3.76,4.2v.31h-6.35a2.77,2.77,0,0,0,2.83,2.71,3.45,3.45,0,0,0,2.42-1l.58.8a4.24,4.24,0,0,1-3.11,1.2A3.89,3.89,0,0,1,162.57,260.86Zm3.85-3.1a2.63,2.63,0,0,0-2.57,2.62H169A2.54,2.54,0,0,0,166.42,257.76Z"/><path class="cls-3" d="M94.42,294.55v-2.74c6.74-5,8.72-6.69,8.72-8.72,0-1.43-1.31-2.15-2.67-2.15a5.88,5.88,0,0,0-4.42,1.9l-2-2.32a8.39,8.39,0,0,1,6.35-2.69c3.51,0,6.3,2,6.3,5.26,0,2.82-2.32,5.26-6.6,8.38h6.72v3.08Z"/><path class="cls-3" d="M115.52,294.55v-2.74c6.74-5,8.72-6.69,8.72-8.72,0-1.43-1.31-2.15-2.67-2.15a5.88,5.88,0,0,0-4.42,1.9l-2-2.32a8.39,8.39,0,0,1,6.35-2.69c3.51,0,6.3,2,6.3,5.26,0,2.82-2.32,5.26-6.6,8.38h6.72v3.08Z"/><path class="cls-3" d="M137.66,294.55v-3.41h-7.88v-2.76l6.54-10.31h4.85v10h2.12v3.08h-2.12v3.41Zm0-13.36-4.45,6.87h4.45Z"/><path class="cls-3" d="M144.72,286.33c0-4.25,2.1-8.5,6.82-8.5s6.82,4.25,6.82,8.5-2.12,8.52-6.82,8.52S144.72,290.58,144.72,286.33Zm10.06,0c0-3-.89-5.39-3.24-5.39s-3.26,2.35-3.26,5.39.89,5.41,3.26,5.41S154.78,289.37,154.78,286.33Z"/><path class="cls-3" d="M166.32,286.33c0-4.25,2.1-8.5,6.82-8.5s6.82,4.25,6.82,8.5-2.13,8.52-6.82,8.52S166.32,290.58,166.32,286.33Zm10.06,0c0-3-.89-5.39-3.24-5.39s-3.26,2.35-3.26,5.39.89,5.41,3.26,5.41S176.38,289.37,176.38,286.33Z"/><path class="cls-3" d="M181.61,286.33c0-4.25,2.1-8.5,6.82-8.5s6.82,4.25,6.82,8.5-2.12,8.52-6.82,8.52S181.61,290.58,181.61,286.33Zm10.06,0c0-3-.89-5.39-3.24-5.39s-3.26,2.35-3.26,5.39.89,5.41,3.26,5.41S191.67,289.37,191.67,286.33Z"/><path class="cls-3" d="M196.91,286.33c0-4.25,2.1-8.5,6.82-8.5s6.82,4.25,6.82,8.5-2.13,8.52-6.82,8.52S196.91,290.58,196.91,286.33Zm10.05,0c0-3-.89-5.39-3.23-5.39s-3.26,2.35-3.26,5.39.89,5.41,3.26,5.41S207,289.37,207,286.33Z"/><path class="cls-2" d="M96.68,357.24v-9.63H93.26v-1.2h8.21v1.2H98v9.63Z"/><path class="cls-2" d="M100.89,353.31a3.91,3.91,0,0,1,3.86-4.1c2.37,0,3.77,1.85,3.77,4.2v.31h-6.35a2.77,2.77,0,0,0,2.83,2.71,3.45,3.45,0,0,0,2.42-1l.58.8a4.25,4.25,0,0,1-3.12,1.2A3.89,3.89,0,0,1,100.89,353.31Zm3.85-3.1a2.62,2.62,0,0,0-2.57,2.62h5.15A2.55,2.55,0,0,0,104.74,350.21Z"/><path class="cls-2" d="M115.39,357.24v-.89a3.41,3.41,0,0,1-2.6,1.09,2.61,2.61,0,0,1-2.74-2.6,2.57,2.57,0,0,1,2.74-2.58,3.28,3.28,0,0,1,2.6,1.07v-1.41c0-1.06-.85-1.66-2-1.66a3.13,3.13,0,0,0-2.41,1.09l-.56-.85a4.11,4.11,0,0,1,3.13-1.29c1.66,0,3,.74,3,2.64v5.39Zm0-1.65v-1.48a2.63,2.63,0,0,0-2.16-1,1.73,1.73,0,1,0,0,3.43A2.62,2.62,0,0,0,115.39,355.59Z"/><path class="cls-2" d="M128.51,357.24v-5.32c0-1-.44-1.63-1.45-1.63A2.76,2.76,0,0,0,125,351.5v5.74h-1.21v-5.32c0-1-.43-1.63-1.45-1.63a2.75,2.75,0,0,0-2.06,1.22v5.73H119V349.4h1.22v1.14a3.36,3.36,0,0,1,2.53-1.33,2,2,0,0,1,2.11,1.46,3.3,3.3,0,0,1,2.63-1.46c1.43,0,2.2.79,2.2,2.37v5.66Z"/><path class="cls-2" d="M132.47,359.31l-.6-.51a2.38,2.38,0,0,0,1-1.51.61.61,0,0,1-.22,0,.77.77,0,0,1-.78-.82.87.87,0,0,1,.86-.88,1.1,1.1,0,0,1,1,1.23A3.15,3.15,0,0,1,132.47,359.31Z"/><path class="cls-2" d="M140.13,357.24V346.41h7.1v1.2h-5.75v3.5h5.64v1.2h-5.64v4.93Z"/><path class="cls-2" d="M148.56,353.31a3.89,3.89,0,1,1,3.88,4.13A3.84,3.84,0,0,1,148.56,353.31Zm6.48,0c0-1.59-.93-3-2.6-3a2.74,2.74,0,0,0-2.61,3c0,1.61.94,3,2.61,3S155,354.92,155,353.31Z"/><path class="cls-2" d="M163.59,357.24v-1.1a3.83,3.83,0,0,1-2.79,1.3,2.21,2.21,0,0,1-2.5-2.5V349.4h1.22v5.16c0,1.38.7,1.79,1.75,1.79a3,3,0,0,0,2.32-1.19V349.4h1.22v7.84Z"/><path class="cls-2" d="M172.54,357.24v-5.13c0-1.38-.7-1.82-1.75-1.82a3,3,0,0,0-2.32,1.22v5.73h-1.22V349.4h1.22v1.14a3.88,3.88,0,0,1,2.79-1.33,2.22,2.22,0,0,1,2.5,2.53v5.5Z"/><path class="cls-2" d="M181.88,357.24v-1.17a3.32,3.32,0,0,1-2.65,1.37c-2,0-3.49-1.56-3.49-4.11s1.43-4.12,3.49-4.12a3.29,3.29,0,0,1,2.65,1.38v-4.18h1.22v10.83Zm0-2.12v-3.56a3,3,0,0,0-2.36-1.27c-1.57,0-2.51,1.3-2.51,3s.94,3,2.51,3A2.92,2.92,0,0,0,181.88,355.12Z"/><path class="cls-2" d="M185.07,353.31a3.92,3.92,0,0,1,3.87-4.1c2.37,0,3.77,1.85,3.77,4.2v.31h-6.35a2.76,2.76,0,0,0,2.82,2.71,3.42,3.42,0,0,0,2.42-1l.59.8a4.27,4.27,0,0,1-3.12,1.2A3.89,3.89,0,0,1,185.07,353.31Zm3.85-3.1a2.61,2.61,0,0,0-2.56,2.62h5.15A2.55,2.55,0,0,0,188.92,350.21Z"/><path class="cls-2" d="M194.67,357.24V349.4h1.22v1.27a3.32,3.32,0,0,1,2.61-1.43v1.25a2.21,2.21,0,0,0-.48-.05,2.88,2.88,0,0,0-2.13,1.25v5.55Z"/><path class="cls-3" d="M93.75,384.66l1.83-2.35a6.55,6.55,0,0,0,4.55,1.88c2,0,3.11-.87,3.11-2.1s-1-1.9-3.31-1.9c-.69,0-1.81,0-2.05,0v-3.16c.29,0,1.43,0,2.05,0,1.83,0,3-.55,3-1.76s-1.34-1.95-3.07-1.95a5.89,5.89,0,0,0-4.17,1.71L94,372.9a8.11,8.11,0,0,1,6.3-2.62c3.86,0,6.23,1.73,6.23,4.47a4,4,0,0,1-3.61,3.75,4.15,4.15,0,0,1,3.86,4c0,2.84-2.55,4.84-6.5,4.84A8.24,8.24,0,0,1,93.75,384.66Z"/><path class="cls-3" d="M114.88,378.78c0-4.25,2.1-8.5,6.82-8.5s6.82,4.25,6.82,8.5-2.13,8.52-6.82,8.52S114.88,383,114.88,378.78Zm10.05,0c0-3-.89-5.39-3.23-5.39s-3.26,2.35-3.26,5.39.88,5.41,3.26,5.41S124.93,381.82,124.93,378.78Z"/><path class="cls-3" d="M130.17,378.78c0-4.25,2.1-8.5,6.82-8.5s6.82,4.25,6.82,8.5-2.12,8.52-6.82,8.52S130.17,383,130.17,378.78Zm10.06,0c0-3-.89-5.39-3.24-5.39s-3.26,2.35-3.26,5.39.89,5.41,3.26,5.41S140.23,381.82,140.23,378.78Z"/><path class="cls-3" d="M145.47,378.78c0-4.25,2.1-8.5,6.82-8.5s6.81,4.25,6.81,8.5-2.12,8.52-6.81,8.52S145.47,383,145.47,378.78Zm10.05,0c0-3-.89-5.39-3.23-5.39s-3.27,2.35-3.27,5.39.89,5.41,3.27,5.41S155.52,381.82,155.52,378.78Z"/><path class="cls-3" d="M167.06,378.78c0-4.25,2.1-8.5,6.82-8.5s6.82,4.25,6.82,8.5-2.13,8.52-6.82,8.52S167.06,383,167.06,378.78Zm10.06,0c0-3-.89-5.39-3.24-5.39s-3.26,2.35-3.26,5.39.89,5.41,3.26,5.41S177.12,381.82,177.12,378.78Z"/><path class="cls-3" d="M182.35,378.78c0-4.25,2.11-8.5,6.82-8.5s6.82,4.25,6.82,8.5-2.12,8.52-6.82,8.52S182.35,383,182.35,378.78Zm10.06,0c0-3-.89-5.39-3.24-5.39s-3.26,2.35-3.26,5.39.89,5.41,3.26,5.41S192.41,381.82,192.41,378.78Z"/><path class="cls-3" d="M197.65,378.78c0-4.25,2.1-8.5,6.82-8.5s6.82,4.25,6.82,8.5-2.13,8.52-6.82,8.52S197.65,383,197.65,378.78Zm10.06,0c0-3-.89-5.39-3.24-5.39s-3.26,2.35-3.26,5.39.89,5.41,3.26,5.41S207.71,381.82,207.71,378.78Z"/><path class="cls-2" d="M94,449.69V438.86h1.35v9.63h5v1.2Z"/><path class="cls-2" d="M102,439.92a.82.82,0,0,1,.81-.83.83.83,0,0,1,.83.83.82.82,0,0,1-.83.81A.81.81,0,0,1,102,439.92Zm.21,9.77v-7.84h1.21v7.84Z"/><path class="cls-2" d="M105.39,445.76c0-2.55,1.43-4.11,3.49-4.11a3.22,3.22,0,0,1,2.63,1.37v-1.17h1.22v10.83h-1.22v-4.17a3.24,3.24,0,0,1-2.63,1.38C106.82,449.89,105.39,448.3,105.39,445.76Zm6.12,1.77V444a2.87,2.87,0,0,0-2.34-1.25c-1.58,0-2.5,1.29-2.5,3s.92,3,2.5,3A2.86,2.86,0,0,0,111.51,447.53Z"/><path class="cls-2" d="M120.47,449.69v-1.1a3.83,3.83,0,0,1-2.79,1.3,2.21,2.21,0,0,1-2.5-2.5v-5.54h1.21V447c0,1.38.7,1.79,1.76,1.79a3,3,0,0,0,2.32-1.19v-5.76h1.22v7.84Z"/><path class="cls-2" d="M123.91,439.92a.82.82,0,1,1,1.64,0,.82.82,0,0,1-1.64,0Zm.21,9.77v-7.84h1.22v7.84Z"/><path class="cls-2" d="M133.46,449.69v-1.17a3.3,3.3,0,0,1-2.65,1.37c-2,0-3.49-1.56-3.49-4.11s1.43-4.13,3.49-4.13a3.26,3.26,0,0,1,2.65,1.39v-4.18h1.22v10.83Zm0-2.12V444a3,3,0,0,0-2.36-1.27c-1.57,0-2.51,1.3-2.51,3s.94,3,2.51,3A2.92,2.92,0,0,0,133.46,447.57Z"/><path class="cls-2" d="M136.9,439.92a.82.82,0,1,1,1.64,0,.82.82,0,0,1-1.64,0Zm.21,9.77v-7.84h1.22v7.84Z"/><path class="cls-2" d="M141,448.05v-5.13h-1.3v-1.07H141v-2.14h1.22v2.14h1.59v1.07h-1.59v4.87c0,.59.26,1,.79,1a1.17,1.17,0,0,0,.83-.33l.36.91a2,2,0,0,1-1.46.51A1.61,1.61,0,0,1,141,448.05Z"/><path class="cls-2" d="M145.3,451.66a1.85,1.85,0,0,0,.66.13,1.13,1.13,0,0,0,1.17-.83l.52-1.19-3.28-7.92h1.31l2.62,6.43,2.6-6.43h1.33l-3.93,9.43a2.34,2.34,0,0,1-2.31,1.6,3.68,3.68,0,0,1-.89-.12Z"/><path class="cls-2" d="M152.88,451.76l-.6-.51a2.38,2.38,0,0,0,1.05-1.51.61.61,0,0,1-.22,0,.77.77,0,0,1-.78-.82.86.86,0,0,1,.86-.88,1.1,1.1,0,0,1,1,1.23A3.15,3.15,0,0,1,152.88,451.76Z"/><path class="cls-2" d="M160.54,449.69V438.86h7.1v1.2h-5.75v3.5h5.63v1.2h-5.63v3.73h5.75v1.2Z"/><path class="cls-2" d="M174.81,449.69l-2.35-3.21-2.36,3.21h-1.39l3-4-2.84-3.82h1.41l2.18,3,2.18-3h1.41l-2.84,3.82,3,4Z"/><path class="cls-2" d="M176.57,445.76a3.87,3.87,0,0,1,3.91-4.11,3.35,3.35,0,0,1,2.87,1.37l-.81.75a2.31,2.31,0,0,0-2-1,3,3,0,0,0,0,6.06,2.38,2.38,0,0,0,2-1l.81.74a3.35,3.35,0,0,1-2.87,1.37A3.88,3.88,0,0,1,176.57,445.76Z"/><path class="cls-2" d="M190.37,449.69v-5.16c0-1.38-.72-1.79-1.77-1.79a3.09,3.09,0,0,0-2.32,1.22v5.73h-1.22V438.86h1.22V443a3.89,3.89,0,0,1,2.81-1.34,2.21,2.21,0,0,1,2.5,2.51v5.53Z"/><path class="cls-2" d="M198.92,449.69v-.89a3.39,3.39,0,0,1-2.59,1.09,2.62,2.62,0,0,1-2.75-2.6,2.57,2.57,0,0,1,2.75-2.58,3.26,3.26,0,0,1,2.59,1.07v-1.41c0-1.06-.84-1.66-2-1.66a3.11,3.11,0,0,0-2.4,1.09L194,443a4.14,4.14,0,0,1,3.14-1.3c1.65,0,3,.75,3,2.65v5.39Zm0-1.65v-1.48a2.61,2.61,0,0,0-2.15-1,1.73,1.73,0,1,0,0,3.43A2.6,2.6,0,0,0,198.92,448Z"/><path class="cls-2" d="M207.87,449.69v-5.13c0-1.38-.7-1.82-1.75-1.82A3,3,0,0,0,203.8,444v5.73h-1.22v-7.84h1.22V443a3.88,3.88,0,0,1,2.79-1.34,2.23,2.23,0,0,1,2.5,2.54v5.5Z"/><path class="cls-2" d="M211.51,451.71l.61-.91a3,3,0,0,0,2.55,1.07,2.25,2.25,0,0,0,2.52-2.36v-1.12a3.28,3.28,0,0,1-2.63,1.4c-2.05,0-3.49-1.53-3.49-4.06s1.43-4.08,3.49-4.08a3.22,3.22,0,0,1,2.63,1.39v-1.19h1.22v7.62c0,2.59-1.82,3.41-3.74,3.41A4,4,0,0,1,211.51,451.71Zm5.68-4.27V444a2.89,2.89,0,0,0-2.34-1.27c-1.57,0-2.51,1.25-2.51,3s.94,3,2.51,3A2.9,2.9,0,0,0,217.19,447.44Z"/><path class="cls-2" d="M220.39,445.76a3.92,3.92,0,0,1,3.86-4.11c2.37,0,3.77,1.86,3.77,4.21v.31h-6.35a2.77,2.77,0,0,0,2.83,2.71,3.45,3.45,0,0,0,2.42-1l.58.8a4.25,4.25,0,0,1-3.12,1.2A3.89,3.89,0,0,1,220.39,445.76Zm3.85-3.1a2.62,2.62,0,0,0-2.57,2.62h5.15A2.55,2.55,0,0,0,224.24,442.66Z"/><path class="cls-2" d="M229.3,448.65l.64-.87a3.56,3.56,0,0,0,2.58,1.12c1.2,0,1.85-.57,1.85-1.35,0-1.9-4.86-.73-4.86-3.64,0-1.22,1.06-2.26,2.93-2.26a4,4,0,0,1,2.9,1.14l-.57.85a3,3,0,0,0-2.33-1c-1.07,0-1.74.53-1.74,1.23,0,1.72,4.85.58,4.85,3.64,0,1.31-1.05,2.37-3.08,2.37A4.17,4.17,0,0,1,229.3,448.65Z"/><path class="cls-3" d="M101.76,479.45v-3.4H93.88v-2.77L100.42,463h4.85v10h2.12v3.09h-2.12v3.4Zm0-13.36L97.31,473h4.45Z"/><path class="cls-3" d="M115.49,477.28l2-2.45a5.9,5.9,0,0,0,4.37,1.81c2,0,3.06-1.11,3.06-2.45s-1.08-2.44-3-2.44a4.72,4.72,0,0,0-3.46,1.33l-2.45-.64V463h11.32v3.09h-7.81v4a5.23,5.23,0,0,1,3.63-1.38,5.15,5.15,0,0,1,5.29,5.33c0,3.51-2.62,5.71-6.6,5.71A8.24,8.24,0,0,1,115.49,477.28Z"/><path class="cls-3" d="M130.12,471.23c0-4.25,2.1-8.5,6.82-8.5s6.82,4.25,6.82,8.5-2.12,8.52-6.82,8.52S130.12,475.48,130.12,471.23Zm10.06,0c0-3-.89-5.39-3.24-5.39s-3.26,2.35-3.26,5.39.89,5.41,3.26,5.41S140.18,474.27,140.18,471.23Z"/><path class="cls-3" d="M145.42,471.23c0-4.25,2.1-8.5,6.82-8.5s6.82,4.25,6.82,8.5-2.13,8.52-6.82,8.52S145.42,475.48,145.42,471.23Zm10.05,0c0-3-.89-5.39-3.23-5.39s-3.27,2.35-3.27,5.39.89,5.41,3.27,5.41S155.47,474.27,155.47,471.23Z"/><path class="cls-3" d="M167,471.23c0-4.25,2.1-8.5,6.82-8.5s6.82,4.25,6.82,8.5-2.12,8.52-6.82,8.52S167,475.48,167,471.23Zm10.06,0c0-3-.89-5.39-3.24-5.39s-3.26,2.35-3.26,5.39.89,5.41,3.26,5.41S177.07,474.27,177.07,471.23Z"/><path class="cls-3" d="M182.3,471.23c0-4.25,2.1-8.5,6.82-8.5s6.82,4.25,6.82,8.5-2.12,8.52-6.82,8.52S182.3,475.48,182.3,471.23Zm10.06,0c0-3-.89-5.39-3.24-5.39s-3.26,2.35-3.26,5.39.89,5.41,3.26,5.41S192.36,474.27,192.36,471.23Z"/><path class="cls-3" d="M197.6,471.23c0-4.25,2.1-8.5,6.82-8.5s6.82,4.25,6.82,8.5-2.13,8.52-6.82,8.52S197.6,475.48,197.6,471.23Zm10.06,0c0-3-.89-5.39-3.24-5.39s-3.26,2.35-3.26,5.39.89,5.41,3.26,5.41S207.66,474.27,207.66,471.23Z"/><path class="cls-2" d="M103.26,542.14v-8.91l-3.68,8.91H99l-3.67-8.91v8.91H94V531.31h1.94l3.36,8.15,3.38-8.15h1.93v10.83Z"/><path class="cls-2" d="M112,542.14v-.89a3.42,3.42,0,0,1-2.6,1.09,2.62,2.62,0,0,1-2.75-2.6,2.57,2.57,0,0,1,2.75-2.58,3.3,3.3,0,0,1,2.6,1.07v-1.41c0-1.06-.85-1.66-2-1.66a3.11,3.11,0,0,0-2.4,1.09l-.57-.85a4.14,4.14,0,0,1,3.14-1.3c1.65,0,3,.75,3,2.65v5.39Zm0-1.65V539a2.64,2.64,0,0,0-2.16-1,1.73,1.73,0,1,0,0,3.43A2.64,2.64,0,0,0,112,540.49Z"/><path class="cls-2" d="M115.65,542.14V534.3h1.22v1.27a3.32,3.32,0,0,1,2.61-1.43v1.25a2.31,2.31,0,0,0-.49,0,2.86,2.86,0,0,0-2.12,1.25v5.55Z"/><path class="cls-2" d="M126.35,542.14l-2.83-3.52-1.3,1.28v2.24H121V531.31h1.21v7.16l4.13-4.17h1.54l-3.47,3.56,3.49,4.28Z"/><path class="cls-2" d="M128.85,538.21a3.92,3.92,0,0,1,3.86-4.11c2.37,0,3.77,1.86,3.77,4.21v.31h-6.35a2.77,2.77,0,0,0,2.83,2.71,3.45,3.45,0,0,0,2.42-1l.58.8a4.25,4.25,0,0,1-3.12,1.2A3.89,3.89,0,0,1,128.85,538.21Zm3.85-3.1a2.62,2.62,0,0,0-2.57,2.62h5.15A2.55,2.55,0,0,0,132.7,535.11Z"/><path class="cls-2" d="M138.69,540.5v-5.13h-1.3V534.3h1.3v-2.14h1.22v2.14h1.59v1.07h-1.59v4.87c0,.59.25,1,.79,1a1.17,1.17,0,0,0,.83-.33l.36.91a2,2,0,0,1-1.47.51A1.6,1.6,0,0,1,138.69,540.5Z"/><path class="cls-2" d="M143,532.37a.82.82,0,0,1,.81-.83.83.83,0,0,1,.83.83.82.82,0,0,1-.83.81A.81.81,0,0,1,143,532.37Zm.21,9.77V534.3h1.21v7.84Z"/><path class="cls-2" d="M152.16,542.14V537c0-1.38-.69-1.82-1.75-1.82a3,3,0,0,0-2.32,1.22v5.73h-1.22V534.3h1.22v1.14a3.88,3.88,0,0,1,2.79-1.34,2.23,2.23,0,0,1,2.5,2.54v5.5Z"/><path class="cls-2" d="M155.8,544.16l.62-.91a3,3,0,0,0,2.55,1.07,2.24,2.24,0,0,0,2.51-2.36v-1.12a3.25,3.25,0,0,1-2.63,1.4c-2,0-3.49-1.53-3.49-4.06s1.43-4.08,3.49-4.08a3.24,3.24,0,0,1,2.63,1.38V534.3h1.22v7.62c0,2.59-1.82,3.41-3.73,3.41A4,4,0,0,1,155.8,544.16Zm5.68-4.27v-3.43a2.88,2.88,0,0,0-2.33-1.27c-1.58,0-2.52,1.25-2.52,3s.94,3,2.52,3A2.89,2.89,0,0,0,161.48,539.89Z"/><path class="cls-3" d="M94.91,570.47l1.56-2.69a4.37,4.37,0,0,0,3.29,1.28c2.71,0,4.12-2.27,4.12-4.64v-.37a5.44,5.44,0,0,1-4.25,2.12c-3,0-5.63-1.85-5.63-5.36,0-3.21,2.57-5.66,6.32-5.66,5,0,7.1,3.86,7.1,8.53,0,5-2.8,8.5-7.66,8.5A7.19,7.19,0,0,1,94.91,570.47Zm9-8.84c-.15-1.59-1-3.36-3.36-3.36a2.66,2.66,0,0,0-2.92,2.42c0,1.73,1.51,2.47,3,2.47A4.24,4.24,0,0,0,103.86,561.63Z"/><path class="cls-3" d="M115.42,567.63c0-2,1.56-3.53,3.53-4.23-1.82-.64-3.26-1.82-3.26-3.87,0-3.09,3.29-4.35,6.35-4.35s6.35,1.26,6.35,4.35c0,2.05-1.45,3.23-3.28,3.87,2,.7,3.55,2.23,3.55,4.23,0,3.06-3.16,4.57-6.62,4.57S115.42,570.72,115.42,567.63Zm9.69-.44c0-1.39-2-2.06-3.07-2.2-1,.14-3.06.81-3.06,2.2,0,1.21,1.33,2,3.06,2S125.11,568.4,125.11,567.19Zm-.3-7.12c0-1.19-1.16-1.88-2.77-1.88s-2.79.69-2.79,1.88S121,561.87,122,562C123.06,561.87,124.81,561.31,124.81,560.07Z"/><path class="cls-3" d="M130.34,563.68c0-4.25,2.1-8.5,6.82-8.5s6.82,4.25,6.82,8.5-2.12,8.52-6.82,8.52S130.34,567.93,130.34,563.68Zm10.06,0c0-3-.89-5.39-3.24-5.39s-3.26,2.35-3.26,5.39.89,5.41,3.26,5.41S140.4,566.72,140.4,563.68Z"/><path class="cls-3" d="M145.64,563.68c0-4.25,2.1-8.5,6.82-8.5s6.82,4.25,6.82,8.5-2.13,8.52-6.82,8.52S145.64,567.93,145.64,563.68Zm10.05,0c0-3-.88-5.39-3.23-5.39s-3.26,2.35-3.26,5.39.89,5.41,3.26,5.41S155.69,566.72,155.69,563.68Z"/><path class="cls-3" d="M167.23,563.68c0-4.25,2.1-8.5,6.82-8.5s6.82,4.25,6.82,8.5-2.12,8.52-6.82,8.52S167.23,567.93,167.23,563.68Zm10.06,0c0-3-.89-5.39-3.24-5.39s-3.26,2.35-3.26,5.39.89,5.41,3.26,5.41S177.29,566.72,177.29,563.68Z"/><path class="cls-3" d="M182.53,563.68c0-4.25,2.1-8.5,6.82-8.5s6.82,4.25,6.82,8.5-2.13,8.52-6.82,8.52S182.53,567.93,182.53,563.68Zm10.05,0c0-3-.89-5.39-3.23-5.39s-3.26,2.35-3.26,5.39.89,5.41,3.26,5.41S192.58,566.72,192.58,563.68Z"/><path class="cls-3" d="M197.82,563.68c0-4.25,2.1-8.5,6.82-8.5s6.82,4.25,6.82,8.5-2.12,8.52-6.82,8.52S197.82,567.93,197.82,563.68Zm10.06,0c0-3-.89-5.39-3.24-5.39s-3.26,2.35-3.26,5.39.89,5.41,3.26,5.41S207.88,566.72,207.88,563.68Z"/><path class="cls-3" d="M430.92,73.72H441v4.53H426.19v-24h14.68v4.53h-9.95v5.11H440v4.46h-9.09Z"/><path class="cls-3" d="M450.3,78.25l-8.06-24h5.15l5.87,18.46,5.82-18.46h5.18l-8.09,24Z"/><path class="cls-3" d="M471.29,73.72h10.12v4.53H466.56v-24h14.68v4.53h-9.95v5.11h9.09v4.46h-9.09Z"/><path class="cls-3" d="M509.2,54.24v4.53h-6.49V78.25H498V58.77h-6.45V54.24Z"/><path class="cls-3" d="M523.12,76.11a9.16,9.16,0,1,1,2.64-6.43A8.8,8.8,0,0,1,523.12,76.11Zm-9.76-3a4.48,4.48,0,0,0,3.31,1.34A4.52,4.52,0,0,0,520,73.07a5,5,0,0,0,0-6.79,4.52,4.52,0,0,0-3.33-1.34,4.48,4.48,0,0,0-3.31,1.34,5,5,0,0,0,0,6.79Z"/><path class="cls-3" d="M544.7,78.25h-5.15l-6.24-7.79v7.79h-4.42v-24h4.42V68.68l5.9-7.58h5.28l-6.89,8.47Z"/><path class="cls-3" d="M549.4,71.49q.89,3.23,4.83,3.23A4.5,4.5,0,0,0,558.07,73l3.57,2.06a8.49,8.49,0,0,1-7.48,3.67,9.23,9.23,0,0,1-6.82-2.57,8.78,8.78,0,0,1-2.57-6.48,8.88,8.88,0,0,1,2.53-6.47,8.74,8.74,0,0,1,6.52-2.59,8.18,8.18,0,0,1,6.23,2.61,9.06,9.06,0,0,1,2.45,6.45,10.71,10.71,0,0,1-.17,1.81Zm-.07-3.43h8.74a4.13,4.13,0,0,0-1.56-2.6,4.41,4.41,0,0,0-2.69-.86,4.63,4.63,0,0,0-3,.91A4.31,4.31,0,0,0,549.33,68.06Z"/><path class="cls-3" d="M575.12,60.62a6.2,6.2,0,0,1,4.65,1.89,7.15,7.15,0,0,1,1.84,5.21V78.25h-4.43v-10a3.49,3.49,0,0,0-.93-2.62,3.35,3.35,0,0,0-2.47-.91A3.64,3.64,0,0,0,571,65.8,4.4,4.4,0,0,0,570,69v9.26h-4.42V61.1H570V63A5.72,5.72,0,0,1,575.12,60.62Z"/><path class="cls-2" d="M603.69,54.24a11,11,0,0,1,8.25,3.46,12.68,12.68,0,0,1,0,17.09,10.92,10.92,0,0,1-8.25,3.46h-9.53v-24Zm0,19.48a6.67,6.67,0,0,0,5.08-2.07,8.43,8.43,0,0,0,0-10.81,6.67,6.67,0,0,0-5.08-2.07h-4.8V73.72Z"/><path class="cls-2" d="M620.6,59a2.75,2.75,0,0,1-2.71-2.71,2.66,2.66,0,0,1,.81-1.92,2.57,2.57,0,0,1,1.9-.82,2.61,2.61,0,0,1,1.94.82,2.66,2.66,0,0,1,.81,1.92,2.62,2.62,0,0,1-.81,1.91A2.67,2.67,0,0,1,620.6,59Zm-2.19,19.21V61.1h4.42V78.25Z"/><path class="cls-2" d="M630.83,66c0,.46.3.83.91,1.12a12.6,12.6,0,0,0,2.21.75,23.63,23.63,0,0,1,2.6.82,5.16,5.16,0,0,1,2.22,1.67,4.62,4.62,0,0,1,.91,2.91,4.72,4.72,0,0,1-2,4.07,8.16,8.16,0,0,1-4.92,1.42q-5.28,0-7.2-4.08l3.84-2.16a3.18,3.18,0,0,0,3.36,2.23c1.58,0,2.37-.49,2.37-1.48,0-.45-.31-.83-.91-1.11a12,12,0,0,0-2.21-.77,24.11,24.11,0,0,1-2.61-.86,5.3,5.3,0,0,1-2.21-1.63,4.27,4.27,0,0,1-.91-2.8,4.77,4.77,0,0,1,1.87-4,7.32,7.32,0,0,1,4.65-1.46,7.73,7.73,0,0,1,3.8.94,6.83,6.83,0,0,1,2.71,2.7l-3.77,2a2.83,2.83,0,0,0-2.74-1.75,2.54,2.54,0,0,0-1.43.38A1.17,1.17,0,0,0,630.83,66Z"/><path class="cls-2" d="M651.82,65.35h-3.88v7.14a1.68,1.68,0,0,0,.45,1.3,2,2,0,0,0,1.3.46,19,19,0,0,0,2.13,0v4c-3,.34-5.19.06-6.43-.86s-1.87-2.55-1.87-4.9V65.35h-3V61.1h3V57.64l4.42-1.34v4.8h3.88Z"/><path class="cls-2" d="M659.64,64.05a4.6,4.6,0,0,1,2-2.47,6.22,6.22,0,0,1,3.17-.82V65.7a5.21,5.21,0,0,0-3.62.82,3.94,3.94,0,0,0-1.59,3.53v8.2h-4.43V61.1h4.43Z"/><path class="cls-2" d="M669.62,59a2.75,2.75,0,0,1-2.71-2.71,2.66,2.66,0,0,1,.81-1.92,2.55,2.55,0,0,1,1.9-.82,2.62,2.62,0,0,1,1.94.82,2.69,2.69,0,0,1,.8,1.92,2.65,2.65,0,0,1-.8,1.91A2.68,2.68,0,0,1,669.62,59Zm-2.2,19.21V61.1h4.43V78.25Z"/><path class="cls-2" d="M685.88,60.62a7.78,7.78,0,0,1,5.91,2.62,9.65,9.65,0,0,1,0,12.87,7.78,7.78,0,0,1-5.91,2.62,6.64,6.64,0,0,1-5.56-2.5v2H675.9v-24h4.42v8.88A6.64,6.64,0,0,1,685.88,60.62Zm-4.22,12.54a4.57,4.57,0,0,0,3.39,1.35,4.65,4.65,0,0,0,3.42-1.35,5.17,5.17,0,0,0,0-7,4.65,4.65,0,0,0-3.42-1.35,4.57,4.57,0,0,0-3.39,1.35,5.2,5.2,0,0,0,0,7Z"/><path class="cls-2" d="M708.69,61.1h4.42V78.25h-4.42V76.33a5.72,5.72,0,0,1-5.11,2.4,6.2,6.2,0,0,1-4.65-1.89,7.11,7.11,0,0,1-1.84-5.21V61.1h4.43v10a3.55,3.55,0,0,0,.92,2.63,3.4,3.4,0,0,0,2.47.9,3.65,3.65,0,0,0,2.75-1.06,4.45,4.45,0,0,0,1-3.19Z"/><path class="cls-2" d="M727,65.35h-3.88v7.14a1.68,1.68,0,0,0,.45,1.3,2,2,0,0,0,1.3.46,19,19,0,0,0,2.13,0v4c-3,.34-5.19.06-6.43-.86s-1.87-2.55-1.87-4.9V65.35h-3V61.1h3V57.64l4.42-1.34v4.8H727Z"/><path class="cls-2" d="M732.28,59a2.71,2.71,0,0,1-1.9-4.63,2.66,2.66,0,0,1,3.84,0,2.66,2.66,0,0,1,.81,1.92,2.62,2.62,0,0,1-.81,1.91A2.65,2.65,0,0,1,732.28,59Zm-2.19,19.21V61.1h4.42V78.25Z"/><path class="cls-2" d="M753.17,76.11a9.14,9.14,0,1,1,2.65-6.43A8.79,8.79,0,0,1,753.17,76.11Zm-9.75-3a4.46,4.46,0,0,0,3.31,1.34,4.52,4.52,0,0,0,3.32-1.34,5,5,0,0,0,0-6.79,4.52,4.52,0,0,0-3.32-1.34,4.46,4.46,0,0,0-3.31,1.34,5,5,0,0,0,0,6.79Z"/><path class="cls-2" d="M768.47,60.62a6.2,6.2,0,0,1,4.65,1.89A7.15,7.15,0,0,1,775,67.72V78.25h-4.43v-10a3.49,3.49,0,0,0-.93-2.62,3.35,3.35,0,0,0-2.47-.91,3.64,3.64,0,0,0-2.74,1.06,4.4,4.4,0,0,0-1,3.19v9.26h-4.42V61.1h4.42V63A5.72,5.72,0,0,1,768.47,60.62Z"/><path class="cls-5" d="M722,176.23l-.64,1.19-2.85,5.3-.64,1.2A249.77,249.77,0,0,0,601,154.66c-138.62-.45-251.35,111.56-251.8,250.18q0,7.95.44,15.77l-1.36.09-6,.39-1.35.1c-8.56-142.59,99.7-265.46,242.41-274.76A254.85,254.85,0,0,1,722,176.23Z"/><path class="cls-6" d="M360.62,480.8l-1.3.41L353.6,483l-1.29.41A241.25,241.25,0,0,1,341,423.89l1.35-.1,6-.39,1.36-.09A248.37,248.37,0,0,0,360.62,480.8Z"/><path class="cls-7" d="M395.59,551.11l-1.1.79-4.9,3.53-1.1.79A248.4,248.4,0,0,1,353.14,486l1.29-.4h0l5.72-1.83,1.29-.41A249.28,249.28,0,0,0,395.59,551.11Z"/><path class="cls-8" d="M487.81,630.14l-.6,1.22-2.67,5.4L484,638c-39.6-19.75-67.89-43.71-93.89-79.54l1.11-.8,4.9-3.53,1.1-.79A252,252,0,0,0,487.81,630.14Z"/><path class="cls-9" d="M731.7,629.63c-77.37,45.51-164.64,48.91-245.32,9.54L487,638l2.66-5.4.6-1.22a251.32,251.32,0,0,0,237-9.23l.69,1.18,3.08,5.17Z"/><path class="cls-10" d="M814,553c-21.94,31.89-46.81,55.29-80,75.2l-.69-1.16-3.07-5.18-.71-1.17A252,252,0,0,0,806.8,548.1l1.13.77,5,3.41Z"/><path class="cls-11" d="M830.41,525.87a241,241,0,0,1-14.84,24.94l-6.12-4.17-1.12-.77a246.28,246.28,0,0,0,14.32-24l1.21.63,5.35,2.75Z"/><path class="cls-12" d="M844.89,492.66l-13.25,30.81-1.2-.62-5.34-2.75-1.22-.63a245.74,245.74,0,0,0,12.79-29.68l1.28.44.3.1,5.37,1.88h0Z"/><path class="cls-13" d="M845.79,490.1l-1.28-.44-5.67-2-1.28-.45a250.05,250.05,0,0,0,13.57-80.77,252.93,252.93,0,0,0-2.67-37.55l1.34-.21,6-.91,1.33-.21C863.64,411.34,860.24,448.27,845.79,490.1Z"/><path class="cls-14" d="M856.69,364.9l-1.34.2-6,.92-1.35.2a248.81,248.81,0,0,0-29.24-83.87l1.18-.68,5.24-3,1.16-.67C842.6,306.67,851.56,332.38,856.69,364.9Z"/><path class="cls-15" d="M825.05,275.66l-1.18.67-5.23,3-1.19.68a251.82,251.82,0,0,0-97.21-94.79l.65-1.2,2.85-5.31.63-1.19C768.34,201.4,800.05,232.32,825.05,275.66Z"/><path class="cls-2" d="M946.5,172.34V161.51h3.7a5.42,5.42,0,1,1,0,10.83Zm7.86-5.4a4,4,0,0,0-4.16-4.23h-2.35v8.43h2.35A4,4,0,0,0,954.36,166.94Z"/><path class="cls-2" d="M965,172.34l-1-2.4h-5.39l-1,2.4h-1.54l4.35-10.83h1.67l4.37,10.83Zm-3.66-9.43-2.3,5.83h4.59Z"/><path class="cls-2" d="M966.91,166.94a5.38,5.38,0,1,1,5.38,5.6A5.29,5.29,0,0,1,966.91,166.94Zm9.35,0c0-2.54-1.55-4.4-4-4.4s-4,1.86-4,4.4,1.54,4.4,4,4.4S976.26,169.45,976.26,166.94Z"/><path class="cls-2" d="M986.64,172.34v-9.63h-3.43v-1.2h8.22v1.2H988v9.63Z"/><path class="cls-2" d="M991.79,172.34V164.5H993v1.27a3.35,3.35,0,0,1,2.62-1.43v1.25a2.31,2.31,0,0,0-.49-.05,2.88,2.88,0,0,0-2.13,1.25v5.55Z"/><path class="cls-2" d="M996.69,168.41a3.91,3.91,0,0,1,3.86-4.1c2.37,0,3.77,1.85,3.77,4.2v.31H998a2.77,2.77,0,0,0,2.83,2.71,3.45,3.45,0,0,0,2.42-1l.58.8a4.25,4.25,0,0,1-3.12,1.2A3.89,3.89,0,0,1,996.69,168.41Zm3.85-3.1a2.62,2.62,0,0,0-2.57,2.62h5.15A2.55,2.55,0,0,0,1000.54,165.31Z"/><path class="cls-2" d="M1011.19,172.34v-.89a3.41,3.41,0,0,1-2.6,1.09,2.61,2.61,0,0,1-2.74-2.6,2.57,2.57,0,0,1,2.74-2.58,3.28,3.28,0,0,1,2.6,1.07V167c0-1.06-.85-1.66-2-1.66a3.13,3.13,0,0,0-2.41,1.09l-.56-.85a4.11,4.11,0,0,1,3.13-1.29c1.66,0,3,.74,3,2.64v5.39Zm0-1.65v-1.48a2.62,2.62,0,0,0-2.16-1,1.72,1.72,0,1,0,0,3.42A2.62,2.62,0,0,0,1011.19,170.69Z"/><path class="cls-2" d="M1014.16,171.3l.63-.87a3.56,3.56,0,0,0,2.58,1.12c1.21,0,1.86-.57,1.86-1.35,0-1.9-4.86-.73-4.86-3.64,0-1.22,1.06-2.25,2.92-2.25a4,4,0,0,1,2.91,1.13l-.57.85a3,3,0,0,0-2.34-1c-1.07,0-1.73.53-1.73,1.23,0,1.72,4.85.58,4.85,3.64,0,1.31-1,2.37-3.08,2.37A4.16,4.16,0,0,1,1014.16,171.3Z"/><path class="cls-2" d="M1027.68,172.34v-1.1a3.83,3.83,0,0,1-2.79,1.3,2.21,2.21,0,0,1-2.5-2.5V164.5h1.22v5.16c0,1.38.7,1.79,1.75,1.79a3,3,0,0,0,2.32-1.19V164.5h1.22v7.84Z"/><path class="cls-2" d="M1031.34,172.34V164.5h1.21v1.27a3.35,3.35,0,0,1,2.62-1.43v1.25a2.31,2.31,0,0,0-.49-.05,2.9,2.9,0,0,0-2.13,1.25v5.55Z"/><path class="cls-2" d="M1036.45,174.31a1.9,1.9,0,0,0,.67.13,1.14,1.14,0,0,0,1.17-.83l.52-1.19-3.28-7.92h1.31l2.62,6.43,2.59-6.43h1.33l-3.92,9.43a2.35,2.35,0,0,1-2.31,1.6,3.61,3.61,0,0,1-.89-.12Z"/><path class="cls-3" d="M947,199.93l1.95-2.45a5.9,5.9,0,0,0,4.37,1.81c2,0,3.06-1.11,3.06-2.45s-1.08-2.44-3-2.44a4.72,4.72,0,0,0-3.46,1.33l-2.45-.64v-9.47H958.8v3.09H951v4a5.24,5.24,0,0,1,3.64-1.38,5.14,5.14,0,0,1,5.28,5.33c0,3.51-2.62,5.71-6.59,5.71A8.21,8.21,0,0,1,947,199.93Z"/><path class="cls-3" d="M975.55,202.11V198.7h-7.88v-2.77l6.55-10.31h4.84v10h2.13v3.09h-2.13v3.41Zm0-13.37-4.44,6.87h4.44Z"/><path class="cls-3" d="M982.62,193.9c0-5,2.82-8.52,7.68-8.52a7.47,7.47,0,0,1,4.87,1.7l-1.58,2.7a4.38,4.38,0,0,0-3.29-1.29c-2.42,0-4.12,2-4.12,4.67a2.11,2.11,0,0,0,0,.35,5.35,5.35,0,0,1,4.23-2.13c3,0,5.61,1.85,5.61,5.36,0,3.22-2.55,5.66-6.31,5.66C984.72,202.4,982.62,198.55,982.62,193.9Zm9.86,3c0-1.73-1.48-2.47-3.07-2.47A4.11,4.11,0,0,0,986.2,196c.15,1.58,1,3.34,3.34,3.34A2.66,2.66,0,0,0,992.48,196.87Z"/><path class="cls-3" d="M997.62,193.88c0-4.25,2.1-8.5,6.82-8.5s6.82,4.25,6.82,8.5-2.13,8.52-6.82,8.52S997.62,198.13,997.62,193.88Zm10,0c0-3-.89-5.39-3.23-5.39s-3.26,2.35-3.26,5.39.89,5.41,3.26,5.41S1007.67,196.92,1007.67,193.88Z"/><path class="cls-3" d="M1019.21,193.88c0-4.25,2.1-8.5,6.82-8.5s6.82,4.25,6.82,8.5-2.12,8.52-6.82,8.52S1019.21,198.13,1019.21,193.88Zm10.06,0c0-3-.89-5.39-3.24-5.39s-3.26,2.35-3.26,5.39.89,5.41,3.26,5.41S1029.27,196.92,1029.27,193.88Z"/><path class="cls-3" d="M1034.51,193.88c0-4.25,2.1-8.5,6.82-8.5s6.81,4.25,6.81,8.5-2.12,8.52-6.81,8.52S1034.51,198.13,1034.51,193.88Zm10,0c0-3-.89-5.39-3.23-5.39s-3.27,2.35-3.27,5.39.89,5.41,3.27,5.41S1044.56,196.92,1044.56,193.88Z"/><path class="cls-3" d="M1049.8,193.88c0-4.25,2.1-8.5,6.82-8.5s6.82,4.25,6.82,8.5-2.12,8.52-6.82,8.52S1049.8,198.13,1049.8,193.88Zm10.06,0c0-3-.89-5.39-3.24-5.39s-3.26,2.35-3.26,5.39.89,5.41,3.26,5.41S1059.86,196.92,1059.86,193.88Z"/><path class="cls-4" d="M1048.7,160.73l1.06-1.85a3,3,0,0,0,2.26.89,2.91,2.91,0,0,0,2.83-3.19v-.25a3.76,3.76,0,0,1-2.92,1.45,3.6,3.6,0,0,1-3.86-3.67c0-2.21,1.76-3.88,4.34-3.88,3.42,0,4.86,2.64,4.86,5.84,0,3.41-1.92,5.83-5.25,5.83A4.91,4.91,0,0,1,1048.7,160.73Zm6.13-6.06a2.28,2.28,0,0,0-2.31-2.31,1.83,1.83,0,0,0-2,1.66c0,1.19,1,1.7,2.09,1.7A2.89,2.89,0,0,0,1054.83,154.67Z"/><path class="cls-4" d="M1058.29,153.09a2.87,2.87,0,0,1,5.74,0,2.87,2.87,0,0,1-5.74,0Zm4.2,0a1.34,1.34,0,1,0-1.34,1.46A1.34,1.34,0,0,0,1062.49,153.09Zm-2.44,8.62,7.21-11.3h1.29l-7.23,11.3Zm4.45-2.59a2.88,2.88,0,1,1,2.87,2.8A2.75,2.75,0,0,1,1064.5,159.12Zm4.22,0a1.35,1.35,0,1,0-2.69,0,1.35,1.35,0,1,0,2.69,0Z"/><path class="cls-4" d="M1008.6,251.33c0-3.42,1.93-5.85,5.26-5.85a5.11,5.11,0,0,1,3.34,1.17l-1.08,1.85a3,3,0,0,0-2.26-.88,2.94,2.94,0,0,0-2.82,3.2,2,2,0,0,0,0,.24,3.66,3.66,0,0,1,2.9-1.46,3.59,3.59,0,0,1,3.85,3.68c0,2.2-1.75,3.87-4.32,3.87C1010,257.15,1008.6,254.51,1008.6,251.33Zm6.76,2c0-1.19-1-1.69-2.1-1.69a2.85,2.85,0,0,0-2.21,1.06,2.26,2.26,0,0,0,2.29,2.29A1.83,1.83,0,0,0,1015.36,253.36Z"/><path class="cls-4" d="M1018.75,248.33a2.87,2.87,0,0,1,5.74,0,2.87,2.87,0,0,1-5.74,0Zm4.2,0a1.34,1.34,0,1,0-1.34,1.46A1.34,1.34,0,0,0,1023,248.33Zm-2.44,8.62,7.21-11.3H1029l-7.23,11.3Zm4.45-2.59a2.88,2.88,0,0,1,5.75,0,2.88,2.88,0,0,1-5.75,0Zm4.22,0a1.35,1.35,0,1,0-2.69,0,1.35,1.35,0,1,0,2.69,0Z"/><path class="cls-4" d="M1048.66,343a3.26,3.26,0,0,1,2.42-2.9,2.84,2.84,0,0,1-2.23-2.66c0-2.12,2.25-3,4.35-3s4.36.86,4.36,3a2.85,2.85,0,0,1-2.26,2.66,3.27,3.27,0,0,1,2.44,2.9c0,2.1-2.17,3.13-4.54,3.13S1048.66,345.11,1048.66,343Zm6.64-.31c0-.94-1.4-1.4-2.1-1.5-.71.1-2.1.56-2.1,1.5s.92,1.38,2.1,1.38S1055.3,343.51,1055.3,342.68Zm-.2-4.88c0-.81-.8-1.28-1.9-1.28s-1.91.47-1.91,1.28,1.22,1.24,1.91,1.34C1053.9,339,1055.1,338.65,1055.1,337.8Z"/><path class="cls-4" d="M1058.76,337.3a2.87,2.87,0,0,1,5.74,0,2.87,2.87,0,0,1-5.74,0Zm4.2,0a1.34,1.34,0,1,0-1.34,1.45A1.33,1.33,0,0,0,1063,337.3Zm-2.44,8.62,7.22-11.3H1069l-7.24,11.3Zm4.46-2.59a2.87,2.87,0,1,1,2.86,2.79A2.72,2.72,0,0,1,1065,343.33Zm4.21,0a1.35,1.35,0,1,0-2.69,0,1.35,1.35,0,1,0,2.69,0Z"/><path class="cls-4" d="M1003.09,438.69V436.8c4.62-3.42,6-4.59,6-6,0-1-.9-1.47-1.83-1.47a4,4,0,0,0-3,1.3l-1.38-1.59a5.77,5.77,0,0,1,4.36-1.84c2.4,0,4.32,1.35,4.32,3.6,0,1.94-1.59,3.61-4.52,5.75h4.6v2.12Z"/><path class="cls-4" d="M1012.88,430.06a2.87,2.87,0,0,1,5.74,0,2.87,2.87,0,0,1-5.74,0Zm4.2,0a1.34,1.34,0,1,0-1.34,1.46A1.34,1.34,0,0,0,1017.08,430.06Zm-2.44,8.63,7.22-11.3h1.29l-7.24,11.3Zm4.46-2.6a2.87,2.87,0,1,1,2.86,2.8A2.75,2.75,0,0,1,1019.1,436.09Zm4.22,0a1.36,1.36,0,0,0-1.36-1.5,1.5,1.5,0,1,0,1.36,1.5Z"/><path class="cls-4" d="M988.37,531.31v-1.88c4.62-3.42,6-4.59,6-6,0-1-.9-1.47-1.83-1.47a4.08,4.08,0,0,0-3,1.3l-1.37-1.59a5.76,5.76,0,0,1,4.35-1.85c2.41,0,4.33,1.36,4.33,3.61,0,1.93-1.6,3.61-4.53,5.75h4.61v2.11Z"/><path class="cls-4" d="M998.16,522.69a2.87,2.87,0,0,1,5.74,0,2.87,2.87,0,0,1-5.74,0Zm4.2,0a1.34,1.34,0,1,0-1.34,1.46A1.34,1.34,0,0,0,1002.36,522.69Zm-2.44,8.62,7.22-11.3h1.28l-7.23,11.3Zm4.46-2.59a2.87,2.87,0,1,1,2.86,2.8A2.72,2.72,0,0,1,1004.38,528.72Zm4.21,0a1.35,1.35,0,1,0-2.69,0,1.35,1.35,0,1,0,2.69,0Z"/><path class="cls-2" d="M952.77,264.79l-2.76-4.3h-2.16v4.3H946.5V254h4.35a3.16,3.16,0,0,1,3.4,3.27,3,3,0,0,1-2.81,3.15l2.92,4.41Zm.08-7.56a2,2,0,0,0-2.16-2.07h-2.84v4.15h2.84A2,2,0,0,0,952.85,257.23Z"/><path class="cls-2" d="M955.38,260.86a3.92,3.92,0,0,1,3.87-4.1c2.37,0,3.76,1.85,3.76,4.2v.31h-6.34a2.75,2.75,0,0,0,2.82,2.71,3.45,3.45,0,0,0,2.42-1l.59.8a4.27,4.27,0,0,1-3.12,1.2A3.89,3.89,0,0,1,955.38,260.86Zm3.85-3.1a2.62,2.62,0,0,0-2.56,2.62h5.14A2.54,2.54,0,0,0,959.23,257.76Z"/><path class="cls-2" d="M964.3,263.75l.63-.87a3.56,3.56,0,0,0,2.58,1.12c1.2,0,1.85-.57,1.85-1.35,0-1.9-4.85-.73-4.85-3.64,0-1.22,1-2.25,2.92-2.25a4,4,0,0,1,2.91,1.13l-.57.85a3,3,0,0,0-2.34-1c-1.07,0-1.74.53-1.74,1.23,0,1.72,4.86.58,4.86,3.64,0,1.31-1.06,2.37-3.09,2.37A4.14,4.14,0,0,1,964.3,263.75Z"/><path class="cls-2" d="M972.07,260.86a3.92,3.92,0,0,1,3.87-4.1c2.37,0,3.77,1.85,3.77,4.2v.31h-6.35a2.75,2.75,0,0,0,2.82,2.71,3.45,3.45,0,0,0,2.42-1l.59.8a4.27,4.27,0,0,1-3.12,1.2A3.89,3.89,0,0,1,972.07,260.86Zm3.85-3.1a2.62,2.62,0,0,0-2.56,2.62h5.14A2.54,2.54,0,0,0,975.92,257.76Z"/><path class="cls-2" d="M981.67,264.79V257h1.22v1.27a3.32,3.32,0,0,1,2.61-1.43V258A2.31,2.31,0,0,0,985,258a2.86,2.86,0,0,0-2.12,1.25v5.55Z"/><path class="cls-2" d="M989.12,264.79,985.86,257h1.31l2.62,6.43,2.6-6.43h1.33l-3.27,7.84Z"/><path class="cls-2" d="M994.53,260.86a3.91,3.91,0,0,1,3.86-4.1c2.37,0,3.77,1.85,3.77,4.2v.31h-6.35a2.77,2.77,0,0,0,2.83,2.71,3.45,3.45,0,0,0,2.42-1l.58.8a4.25,4.25,0,0,1-3.12,1.2A3.89,3.89,0,0,1,994.53,260.86Zm3.85-3.1a2.62,2.62,0,0,0-2.57,2.62H1001A2.55,2.55,0,0,0,998.38,257.76Z"/><path class="cls-3" d="M946.25,292.21l1.83-2.35a6.53,6.53,0,0,0,4.54,1.88c2,0,3.12-.87,3.12-2.1s-1-1.9-3.31-1.9c-.7,0-1.81,0-2,0v-3.16c.29,0,1.43,0,2,0,1.83,0,3-.55,3-1.76s-1.34-1.95-3.07-1.95a5.92,5.92,0,0,0-4.17,1.7l-1.76-2.19a8.11,8.11,0,0,1,6.3-2.62c3.86,0,6.23,1.73,6.23,4.47a4,4,0,0,1-3.61,3.75,4.15,4.15,0,0,1,3.86,4c0,2.84-2.55,4.84-6.5,4.84A8.24,8.24,0,0,1,946.25,292.21Z"/><path class="cls-3" d="M967.37,286.35c0-5,2.82-8.52,7.69-8.52a7.47,7.47,0,0,1,4.87,1.7l-1.58,2.69a4.37,4.37,0,0,0-3.29-1.28c-2.42,0-4.13,2.05-4.13,4.67a1.42,1.42,0,0,0,0,.35,5.33,5.33,0,0,1,4.22-2.13c3,0,5.61,1.85,5.61,5.36,0,3.22-2.54,5.66-6.3,5.66C969.47,294.85,967.37,291,967.37,286.35Zm9.86,3c0-1.73-1.48-2.47-3.06-2.47A4.1,4.1,0,0,0,971,288.4c.15,1.58,1,3.34,3.33,3.34A2.65,2.65,0,0,0,977.23,289.32Z"/><path class="cls-3" d="M990,294.55v-3.41h-7.88v-2.76l6.55-10.31h4.84v10h2.13v3.08h-2.13v3.41Zm0-13.36-4.45,6.87H990Z"/><path class="cls-3" d="M997.1,286.33c0-4.25,2.1-8.5,6.82-8.5s6.82,4.25,6.82,8.5-2.13,8.52-6.82,8.52S997.1,290.58,997.1,286.33Zm10,0c0-3-.88-5.39-3.23-5.39s-3.26,2.35-3.26,5.39.89,5.41,3.26,5.41S1007.15,289.37,1007.15,286.33Z"/><path class="cls-3" d="M1018.69,286.33c0-4.25,2.1-8.5,6.82-8.5s6.82,4.25,6.82,8.5-2.12,8.52-6.82,8.52S1018.69,290.58,1018.69,286.33Zm10.06,0c0-3-.89-5.39-3.24-5.39s-3.26,2.35-3.26,5.39.89,5.41,3.26,5.41S1028.75,289.37,1028.75,286.33Z"/><path class="cls-3" d="M1034,286.33c0-4.25,2.1-8.5,6.82-8.5s6.82,4.25,6.82,8.5-2.13,8.52-6.82,8.52S1034,290.58,1034,286.33Zm10,0c0-3-.89-5.39-3.23-5.39s-3.26,2.35-3.26,5.39.89,5.41,3.26,5.41S1044,289.37,1044,286.33Z"/><path class="cls-3" d="M1049.28,286.33c0-4.25,2.1-8.5,6.82-8.5s6.82,4.25,6.82,8.5-2.12,8.52-6.82,8.52S1049.28,290.58,1049.28,286.33Zm10.06,0c0-3-.89-5.39-3.24-5.39s-3.26,2.35-3.26,5.39.89,5.41,3.26,5.41S1059.34,289.37,1059.34,286.33Z"/><path class="cls-2" d="M946.5,357.24V346.41h3.7a5.42,5.42,0,1,1,0,10.83Zm7.86-5.4a4,4,0,0,0-4.16-4.23h-2.35V356h2.35A4,4,0,0,0,954.36,351.84Z"/><path class="cls-2" d="M957.36,353.31a3.92,3.92,0,0,1,3.87-4.1c2.37,0,3.77,1.85,3.77,4.2v.31h-6.35a2.75,2.75,0,0,0,2.82,2.71,3.44,3.44,0,0,0,2.42-1l.59.8a4.27,4.27,0,0,1-3.12,1.2A3.89,3.89,0,0,1,957.36,353.31Zm3.85-3.1a2.61,2.61,0,0,0-2.56,2.62h5.14A2.54,2.54,0,0,0,961.21,350.21Z"/><path class="cls-2" d="M969.05,357.24l-3.26-7.84h1.32l2.61,6.43,2.6-6.43h1.33l-3.26,7.84Z"/><path class="cls-2" d="M974.46,353.31a3.91,3.91,0,0,1,3.86-4.1c2.38,0,3.77,1.85,3.77,4.2v.31h-6.35a2.77,2.77,0,0,0,2.83,2.71,3.45,3.45,0,0,0,2.42-1l.58.8a4.24,4.24,0,0,1-3.11,1.2A3.89,3.89,0,0,1,974.46,353.31Zm3.85-3.1a2.63,2.63,0,0,0-2.57,2.62h5.15A2.55,2.55,0,0,0,978.31,350.21Z"/><path class="cls-2" d="M984.06,357.24V346.41h1.21v10.83Z"/><path class="cls-2" d="M987.25,353.31a3.89,3.89,0,1,1,3.89,4.13A3.85,3.85,0,0,1,987.25,353.31Zm6.48,0c0-1.59-.92-3-2.59-3a2.74,2.74,0,0,0-2.62,3c0,1.61.94,3,2.62,3S993.73,354.92,993.73,353.31Z"/><path class="cls-2" d="M998.21,356.06v4.17H997V349.4h1.21v1.17a3.28,3.28,0,0,1,2.65-1.36c2.06,0,3.49,1.55,3.49,4.1s-1.43,4.13-3.49,4.13A3.25,3.25,0,0,1,998.21,356.06Zm4.86-2.75c0-1.73-.94-3-2.52-3a2.92,2.92,0,0,0-2.34,1.25v3.54a2.91,2.91,0,0,0,2.34,1.27C1002.13,356.35,1003.07,355.05,1003.07,353.31Z"/><path class="cls-2" d="M1015.75,357.24v-5.32c0-1-.44-1.63-1.44-1.63a2.72,2.72,0,0,0-2.08,1.21v5.74H1011v-5.32c0-1-.42-1.63-1.45-1.63a2.75,2.75,0,0,0-2.06,1.22v5.73h-1.22V349.4h1.22v1.14a3.38,3.38,0,0,1,2.53-1.33,2,2,0,0,1,2.12,1.46,3.27,3.27,0,0,1,2.63-1.46c1.43,0,2.19.79,2.19,2.37v5.66Z"/><path class="cls-2" d="M1019,353.31a3.91,3.91,0,0,1,3.86-4.1c2.37,0,3.77,1.85,3.77,4.2v.31h-6.35a2.77,2.77,0,0,0,2.83,2.71,3.45,3.45,0,0,0,2.42-1l.58.8a4.25,4.25,0,0,1-3.12,1.2A3.89,3.89,0,0,1,1019,353.31Zm3.85-3.1a2.62,2.62,0,0,0-2.57,2.62h5.15A2.55,2.55,0,0,0,1022.8,350.21Z"/><path class="cls-2" d="M1033.84,357.24v-5.13c0-1.38-.7-1.82-1.76-1.82a3.06,3.06,0,0,0-2.32,1.22v5.73h-1.22V349.4h1.22v1.14a3.89,3.89,0,0,1,2.79-1.33,2.23,2.23,0,0,1,2.51,2.53v5.5Z"/><path class="cls-2" d="M1037.73,355.6v-5.13h-1.3V349.4h1.3v-2.14H1039v2.14h1.59v1.07H1039v4.87c0,.59.26,1,.8,1a1.23,1.23,0,0,0,.83-.32l.35.9a2,2,0,0,1-1.46.51A1.61,1.61,0,0,1,1037.73,355.6Z"/><path class="cls-3" d="M947,384.83l1.95-2.45a5.9,5.9,0,0,0,4.37,1.81c2,0,3.06-1.11,3.06-2.45s-1.08-2.44-3-2.44a4.72,4.72,0,0,0-3.46,1.33l-2.45-.64v-9.47H958.8v3.09H951v4a5.24,5.24,0,0,1,3.64-1.38,5.14,5.14,0,0,1,5.28,5.33c0,3.51-2.62,5.71-6.59,5.71A8.21,8.21,0,0,1,947,384.83Z"/><path class="cls-3" d="M967.89,378.78c0-4.25,2.1-8.5,6.82-8.5s6.82,4.25,6.82,8.5-2.12,8.52-6.82,8.52S967.89,383,967.89,378.78Zm10.06,0c0-3-.89-5.39-3.24-5.39s-3.26,2.35-3.26,5.39.89,5.41,3.26,5.41S978,381.82,978,378.78Z"/><path class="cls-3" d="M983.19,378.78c0-4.25,2.1-8.5,6.82-8.5s6.82,4.25,6.82,8.5-2.13,8.52-6.82,8.52S983.19,383,983.19,378.78Zm10,0c0-3-.89-5.39-3.23-5.39s-3.26,2.35-3.26,5.39.89,5.41,3.26,5.41S993.24,381.82,993.24,378.78Z"/><path class="cls-3" d="M998.48,378.78c0-4.25,2.1-8.5,6.82-8.5s6.82,4.25,6.82,8.5-2.12,8.52-6.82,8.52S998.48,383,998.48,378.78Zm10.06,0c0-3-.89-5.39-3.24-5.39s-3.26,2.35-3.26,5.39.89,5.41,3.26,5.41S1008.54,381.82,1008.54,378.78Z"/><path class="cls-3" d="M1020.08,378.78c0-4.25,2.1-8.5,6.82-8.5s6.82,4.25,6.82,8.5-2.13,8.52-6.82,8.52S1020.08,383,1020.08,378.78Zm10.05,0c0-3-.89-5.39-3.23-5.39s-3.26,2.35-3.26,5.39.88,5.41,3.26,5.41S1030.13,381.82,1030.13,378.78Z"/><path class="cls-3" d="M1035.37,378.78c0-4.25,2.1-8.5,6.82-8.5s6.82,4.25,6.82,8.5-2.12,8.52-6.82,8.52S1035.37,383,1035.37,378.78Zm10.06,0c0-3-.89-5.39-3.24-5.39s-3.26,2.35-3.26,5.39.89,5.41,3.26,5.41S1045.43,381.82,1045.43,378.78Z"/><path class="cls-3" d="M1050.67,378.78c0-4.25,2.1-8.5,6.82-8.5s6.81,4.25,6.81,8.5-2.12,8.52-6.81,8.52S1050.67,383,1050.67,378.78Zm10,0c0-3-.89-5.39-3.23-5.39s-3.27,2.35-3.27,5.39.89,5.41,3.27,5.41S1060.72,381.82,1060.72,378.78Z"/><path class="cls-2" d="M946.06,444.29a5.42,5.42,0,0,1,5.57-5.61,4.84,4.84,0,0,1,4.11,2.15l-1.14.63a3.64,3.64,0,0,0-3-1.58,4.41,4.41,0,0,0,0,8.81,3.58,3.58,0,0,0,3-1.58l1.16.63a4.9,4.9,0,0,1-4.13,2.15A5.42,5.42,0,0,1,946.06,444.29Z"/><path class="cls-2" d="M962.74,449.69v-5.16c0-1.38-.72-1.79-1.77-1.79a3.09,3.09,0,0,0-2.32,1.22v5.73h-1.22V438.86h1.22V443a3.89,3.89,0,0,1,2.81-1.34,2.21,2.21,0,0,1,2.5,2.51v5.53Z"/><path class="cls-2" d="M971.3,449.69v-.89a3.42,3.42,0,0,1-2.6,1.09,2.62,2.62,0,0,1-2.75-2.6,2.57,2.57,0,0,1,2.75-2.58,3.3,3.3,0,0,1,2.6,1.07v-1.41c0-1.06-.85-1.66-2-1.66a3.11,3.11,0,0,0-2.4,1.09l-.57-.85a4.14,4.14,0,0,1,3.14-1.3c1.65,0,3,.75,3,2.65v5.39Zm0-1.65v-1.48a2.64,2.64,0,0,0-2.16-1,1.73,1.73,0,1,0,0,3.43A2.64,2.64,0,0,0,971.3,448Z"/><path class="cls-2" d="M975,449.69v-7.84h1.22v1.27a3.32,3.32,0,0,1,2.61-1.43v1.25a2.31,2.31,0,0,0-.49-.05,2.86,2.86,0,0,0-2.12,1.25v5.55Z"/><path class="cls-2" d="M980.09,439.92a.82.82,0,1,1,1.64,0,.82.82,0,0,1-1.64,0Zm.22,9.77v-7.84h1.21v7.84Z"/><path class="cls-2" d="M984.2,448.05v-5.13h-1.3v-1.07h1.3v-2.14h1.22v2.14H987v1.07h-1.59v4.87c0,.59.26,1,.8,1a1.15,1.15,0,0,0,.82-.33l.36.91a2,2,0,0,1-1.46.51A1.61,1.61,0,0,1,984.2,448.05Z"/><path class="cls-2" d="M988.49,451.66a1.89,1.89,0,0,0,.66.13,1.12,1.12,0,0,0,1.17-.83l.52-1.19-3.28-7.92h1.32l2.61,6.43,2.6-6.43h1.33l-3.93,9.43a2.33,2.33,0,0,1-2.3,1.6,3.76,3.76,0,0,1-.9-.12Z"/><path class="cls-3" d="M950.77,479.45V467.5L948,470.29l-2-2.1,5.19-5.22h3.06v16.48Z"/><path class="cls-3" d="M963,471.23c0-4.25,2.1-8.5,6.82-8.5s6.82,4.25,6.82,8.5-2.13,8.52-6.82,8.52S963,475.48,963,471.23Zm10.05,0c0-3-.89-5.39-3.23-5.39s-3.27,2.35-3.27,5.39.89,5.41,3.27,5.41S973.08,474.27,973.08,471.23Z"/><path class="cls-3" d="M978.32,471.23c0-4.25,2.1-8.5,6.82-8.5S992,467,992,471.23s-2.13,8.52-6.82,8.52S978.32,475.48,978.32,471.23Zm10.06,0c0-3-.89-5.39-3.24-5.39s-3.26,2.35-3.26,5.39.89,5.41,3.26,5.41S988.38,474.27,988.38,471.23Z"/><path class="cls-3" d="M993.61,471.23c0-4.25,2.1-8.5,6.82-8.5s6.82,4.25,6.82,8.5-2.12,8.52-6.82,8.52S993.61,475.48,993.61,471.23Zm10.06,0c0-3-.89-5.39-3.24-5.39s-3.26,2.35-3.26,5.39.89,5.41,3.26,5.41S1003.67,474.27,1003.67,471.23Z"/><path class="cls-3" d="M1015.21,471.23c0-4.25,2.1-8.5,6.82-8.5s6.82,4.25,6.82,8.5-2.13,8.52-6.82,8.52S1015.21,475.48,1015.21,471.23Zm10.06,0c0-3-.89-5.39-3.24-5.39s-3.26,2.35-3.26,5.39.89,5.41,3.26,5.41S1025.27,474.27,1025.27,471.23Z"/><path class="cls-3" d="M1030.5,471.23c0-4.25,2.1-8.5,6.82-8.5s6.82,4.25,6.82,8.5-2.12,8.52-6.82,8.52S1030.5,475.48,1030.5,471.23Zm10.06,0c0-3-.89-5.39-3.24-5.39s-3.26,2.35-3.26,5.39.89,5.41,3.26,5.41S1040.56,474.27,1040.56,471.23Z"/><path class="cls-3" d="M1045.8,471.23c0-4.25,2.1-8.5,6.82-8.5s6.82,4.25,6.82,8.5-2.13,8.52-6.82,8.52S1045.8,475.48,1045.8,471.23Zm10,0c0-3-.88-5.39-3.23-5.39s-3.26,2.35-3.26,5.39.89,5.41,3.26,5.41S1055.85,474.27,1055.85,471.23Z"/><path class="cls-2" d="M946.5,542.14V531.31h4.82a2.73,2.73,0,0,1,3,2.76,2.46,2.46,0,0,1-1.9,2.49,2.7,2.7,0,0,1,2.11,2.66,2.82,2.82,0,0,1-3.13,2.92Zm6.46-7.87a1.7,1.7,0,0,0-1.86-1.76h-3.25V536h3.25A1.68,1.68,0,0,0,953,534.27Zm.22,4.8a1.84,1.84,0,0,0-2-1.86h-3.31v3.73h3.31A1.79,1.79,0,0,0,953.18,539.07Z"/><path class="cls-2" d="M962,542.14V541a3.83,3.83,0,0,1-2.79,1.3,2.21,2.21,0,0,1-2.5-2.5V534.3h1.21v5.16c0,1.38.7,1.79,1.76,1.79a3,3,0,0,0,2.32-1.19V534.3h1.22v7.84Z"/><path class="cls-2" d="M965.61,542.14V534.3h1.22v1.27a3.32,3.32,0,0,1,2.61-1.43v1.25a2.21,2.21,0,0,0-.48,0,2.88,2.88,0,0,0-2.13,1.25v5.55Z"/><path class="cls-2" d="M976.26,542.14V537c0-1.38-.69-1.82-1.75-1.82a3,3,0,0,0-2.32,1.22v5.73H971V534.3h1.22v1.14A3.88,3.88,0,0,1,975,534.1a2.23,2.23,0,0,1,2.5,2.54v5.5Z"/><path class="cls-3" d="M950.77,571.91V560L948,562.74l-2-2.1,5.19-5.22h3.06v16.49Z"/><path class="cls-3" d="M963,563.68c0-4.25,2.1-8.5,6.82-8.5s6.82,4.25,6.82,8.5-2.13,8.52-6.82,8.52S963,567.93,963,563.68Zm10.05,0c0-3-.89-5.39-3.23-5.39s-3.27,2.35-3.27,5.39.89,5.41,3.27,5.41S973.08,566.72,973.08,563.68Z"/><path class="cls-3" d="M978.32,563.68c0-4.25,2.1-8.5,6.82-8.5s6.82,4.25,6.82,8.5-2.13,8.52-6.82,8.52S978.32,567.93,978.32,563.68Zm10.06,0c0-3-.89-5.39-3.24-5.39s-3.26,2.35-3.26,5.39.89,5.41,3.26,5.41S988.38,566.72,988.38,563.68Z"/><path class="cls-3" d="M993.61,563.68c0-4.25,2.1-8.5,6.82-8.5s6.82,4.25,6.82,8.5-2.12,8.52-6.82,8.52S993.61,567.93,993.61,563.68Zm10.06,0c0-3-.89-5.39-3.24-5.39s-3.26,2.35-3.26,5.39.89,5.41,3.26,5.41S1003.67,566.72,1003.67,563.68Z"/><path class="cls-3" d="M1015.21,563.68c0-4.25,2.1-8.5,6.82-8.5s6.82,4.25,6.82,8.5-2.13,8.52-6.82,8.52S1015.21,567.93,1015.21,563.68Zm10.06,0c0-3-.89-5.39-3.24-5.39s-3.26,2.35-3.26,5.39.89,5.41,3.26,5.41S1025.27,566.72,1025.27,563.68Z"/><path class="cls-3" d="M1030.5,563.68c0-4.25,2.1-8.5,6.82-8.5s6.82,4.25,6.82,8.5-2.12,8.52-6.82,8.52S1030.5,567.93,1030.5,563.68Zm10.06,0c0-3-.89-5.39-3.24-5.39s-3.26,2.35-3.26,5.39.89,5.41,3.26,5.41S1040.56,566.72,1040.56,563.68Z"/><path class="cls-3" d="M1045.8,563.68c0-4.25,2.1-8.5,6.82-8.5s6.82,4.25,6.82,8.5-2.13,8.52-6.82,8.52S1045.8,567.93,1045.8,563.68Zm10,0c0-3-.88-5.39-3.23-5.39s-3.26,2.35-3.26,5.39.89,5.41,3.26,5.41S1055.85,566.72,1055.85,563.68Z"/><path class="cls-4" d="M1072.71,626.75l4-9.18h-5.69v-2.12h8.48v1.68l-4.2,9.62Z"/><path class="cls-4" d="M1080.32,618.13a2.87,2.87,0,0,1,5.74,0,2.87,2.87,0,0,1-5.74,0Zm4.2,0a1.34,1.34,0,1,0-1.34,1.45A1.33,1.33,0,0,0,1084.52,618.13Zm-2.44,8.62,7.22-11.3h1.28l-7.23,11.3Zm4.45-2.59a2.88,2.88,0,0,1,5.75,0,2.88,2.88,0,0,1-5.75,0Zm4.22,0a1.35,1.35,0,1,0-2.69,0,1.35,1.35,0,1,0,2.69,0Z"/><path class="cls-2" d="M945.85,633.07l.8-1a4.55,4.55,0,0,0,3.41,1.55c1.93,0,2.55-1,2.55-1.87,0-2.79-6.42-1.25-6.42-5.12,0-1.78,1.59-3,3.72-3a5.08,5.08,0,0,1,3.85,1.51l-.81,1a4.16,4.16,0,0,0-3.14-1.3c-1.3,0-2.22.7-2.22,1.72,0,2.44,6.41,1,6.41,5.08,0,1.58-1.07,3.19-4,3.19A5.39,5.39,0,0,1,945.85,633.07Z"/><path class="cls-2" d="M955.94,633v-5.13h-1.3v-1.07h1.3v-2.14h1.21v2.14h1.59v1.07h-1.59v4.87c0,.59.26,1,.8,1a1.19,1.19,0,0,0,.83-.33l.35.91a1.93,1.93,0,0,1-1.46.51A1.6,1.6,0,0,1,955.94,633Z"/><path class="cls-2" d="M965.37,634.59v-.89a3.41,3.41,0,0,1-2.6,1.09,2.61,2.61,0,0,1-2.74-2.6,2.57,2.57,0,0,1,2.74-2.58,3.28,3.28,0,0,1,2.6,1.07v-1.41c0-1.06-.85-1.66-2-1.66A3.13,3.13,0,0,0,961,628.7l-.56-.85a4.12,4.12,0,0,1,3.13-1.3c1.66,0,3,.75,3,2.65v5.39Zm0-1.65v-1.48a2.63,2.63,0,0,0-2.16-1,1.73,1.73,0,1,0,0,3.43A2.62,2.62,0,0,0,965.37,632.94Z"/><path class="cls-2" d="M974.36,634.59l-2.82-3.52-1.3,1.28v2.24H969V623.76h1.22v7.16l4.12-4.17h1.55l-3.48,3.56,3.49,4.28Z"/><path class="cls-2" d="M977.16,624.82A.82.82,0,0,1,978,624a.83.83,0,0,1,.83.83.82.82,0,0,1-.83.81A.81.81,0,0,1,977.16,624.82Zm.21,9.77v-7.84h1.21v7.84Z"/><path class="cls-2" d="M986.31,634.59v-5.13c0-1.38-.69-1.82-1.75-1.82a3,3,0,0,0-2.32,1.22v5.73H981v-7.84h1.22v1.14a3.88,3.88,0,0,1,2.79-1.34,2.23,2.23,0,0,1,2.5,2.54v5.5Z"/><path class="cls-2" d="M990,636.61l.62-.91a3,3,0,0,0,2.55,1.07,2.24,2.24,0,0,0,2.51-2.36v-1.12a3.25,3.25,0,0,1-2.63,1.4c-2,0-3.49-1.53-3.49-4.06s1.43-4.08,3.49-4.08a3.22,3.22,0,0,1,2.63,1.39v-1.19h1.22v7.62c0,2.59-1.82,3.41-3.73,3.41A4,4,0,0,1,990,636.61Zm5.68-4.27v-3.43a2.88,2.88,0,0,0-2.33-1.27c-1.58,0-2.52,1.25-2.52,3s.94,3,2.52,3A2.89,2.89,0,0,0,995.63,632.34Z"/><path class="cls-2" d="M1009.79,634.59l-2.76-4.3h-2.16v4.3h-1.35V623.76h4.36a3.16,3.16,0,0,1,3.39,3.27,3,3,0,0,1-2.81,3.15l2.92,4.41Zm.08-7.56a2,2,0,0,0-2.16-2.07h-2.84v4.14h2.84A2,2,0,0,0,1009.87,627Z"/><path class="cls-2" d="M1012.41,630.66a3.92,3.92,0,0,1,3.86-4.11c2.37,0,3.77,1.86,3.77,4.21v.31h-6.35a2.76,2.76,0,0,0,2.82,2.71,3.42,3.42,0,0,0,2.42-1l.59.8a4.27,4.27,0,0,1-3.12,1.2A3.89,3.89,0,0,1,1012.41,630.66Zm3.84-3.1a2.61,2.61,0,0,0-2.56,2.62h5.15A2.55,2.55,0,0,0,1016.25,627.56Z"/><path class="cls-2" d="M1028.79,634.59l-2-6.3-2,6.3h-1.22l-2.5-7.84h1.26l1.92,6.25,2.06-6.25h1l2.06,6.25,1.92-6.25h1.27l-2.5,7.84Z"/><path class="cls-2" d="M1038.82,634.59v-.89a3.41,3.41,0,0,1-2.6,1.09,2.61,2.61,0,0,1-2.74-2.6,2.57,2.57,0,0,1,2.74-2.58,3.27,3.27,0,0,1,2.6,1.07v-1.41c0-1.06-.84-1.66-2-1.66a3.11,3.11,0,0,0-2.4,1.09l-.57-.85a4.12,4.12,0,0,1,3.13-1.3c1.66,0,3,.75,3,2.65v5.39Zm0-1.65v-1.48a2.63,2.63,0,0,0-2.16-1,1.73,1.73,0,1,0,0,3.43A2.62,2.62,0,0,0,1038.82,632.94Z"/><path class="cls-2" d="M1042.48,634.59v-7.84h1.21V628a3.35,3.35,0,0,1,2.62-1.43v1.25a2.31,2.31,0,0,0-.49-.05,2.88,2.88,0,0,0-2.13,1.25v5.55Z"/><path class="cls-2" d="M1053.52,634.59v-1.17a3.32,3.32,0,0,1-2.65,1.37c-2,0-3.49-1.56-3.49-4.11s1.43-4.13,3.49-4.13a3.29,3.29,0,0,1,2.65,1.39v-4.18h1.21v10.83Zm0-2.12v-3.56a3,3,0,0,0-2.36-1.27c-1.57,0-2.52,1.3-2.52,3s.95,3,2.52,3A2.92,2.92,0,0,0,1053.52,632.47Z"/><path class="cls-2" d="M1056.49,633.55l.63-.87a3.56,3.56,0,0,0,2.58,1.12c1.2,0,1.85-.57,1.85-1.35,0-1.9-4.85-.73-4.85-3.64,0-1.22,1-2.26,2.92-2.26a4,4,0,0,1,2.91,1.14l-.57.85a3,3,0,0,0-2.34-1c-1.07,0-1.74.53-1.74,1.23,0,1.72,4.86.58,4.86,3.64,0,1.31-1.06,2.37-3.09,2.37A4.14,4.14,0,0,1,1056.49,633.55Z"/><path class="cls-3" d="M954.25,664.35V661h-7.88v-2.77l6.55-10.31h4.84v10h2.13V661h-2.13v3.4Zm0-13.36-4.44,6.87h4.44Z"/><path class="cls-3" d="M967.94,664.35v-2.74c6.75-5,8.72-6.69,8.72-8.72,0-1.43-1.31-2.15-2.66-2.15a5.9,5.9,0,0,0-4.43,1.9l-2-2.32a8.41,8.41,0,0,1,6.35-2.69c3.51,0,6.3,2,6.3,5.26,0,2.82-2.32,5.26-6.6,8.38h6.73v3.08Z"/><path class="cls-3" d="M982.42,656.13c0-4.25,2.1-8.5,6.82-8.5s6.82,4.25,6.82,8.5-2.12,8.52-6.82,8.52S982.42,660.38,982.42,656.13Zm10.06,0c0-3-.89-5.39-3.24-5.39s-3.26,2.35-3.26,5.39.89,5.41,3.26,5.41S992.48,659.17,992.48,656.13Z"/><path class="cls-3" d="M997.72,656.13c0-4.25,2.1-8.5,6.82-8.5s6.81,4.25,6.81,8.5-2.12,8.52-6.81,8.52S997.72,660.38,997.72,656.13Zm10,0c0-3-.89-5.39-3.23-5.39s-3.27,2.35-3.27,5.39.89,5.41,3.27,5.41S1007.77,659.17,1007.77,656.13Z"/><path class="cls-3" d="M1019.31,656.13c0-4.25,2.1-8.5,6.82-8.5s6.82,4.25,6.82,8.5-2.13,8.52-6.82,8.52S1019.31,660.38,1019.31,656.13Zm10.06,0c0-3-.89-5.39-3.24-5.39s-3.26,2.35-3.26,5.39.89,5.41,3.26,5.41S1029.37,659.17,1029.37,656.13Z"/><path class="cls-3" d="M1034.6,656.13c0-4.25,2.1-8.5,6.82-8.5s6.82,4.25,6.82,8.5-2.12,8.52-6.82,8.52S1034.6,660.38,1034.6,656.13Zm10.06,0c0-3-.89-5.39-3.24-5.39s-3.26,2.35-3.26,5.39.89,5.41,3.26,5.41S1044.66,659.17,1044.66,656.13Z"/><path class="cls-3" d="M1049.9,656.13c0-4.25,2.1-8.5,6.82-8.5s6.82,4.25,6.82,8.5-2.13,8.52-6.82,8.52S1049.9,660.38,1049.9,656.13Zm10.06,0c0-3-.89-5.39-3.24-5.39s-3.26,2.35-3.26,5.39.89,5.41,3.26,5.41S1060,659.17,1060,656.13Z"/><line class="cls-16" x1="927.79" y1="191.08" x2="776.98" y2="191.08"/><line class="cls-16" x1="927.79" y1="286.32" x2="848.93" y2="286.32"/><line class="cls-16" x1="927.79" y1="378.67" x2="868.41" y2="378.67"/><polyline class="cls-16" points="927.79 473.94 876.21 473.94 876.21 506.63 851.25 506.63"/><polyline class="cls-16" points="927.79 564.43 877.77 564.43 877.77 545.19 837.56 545.19"/><polyline class="cls-16" points="927.79 653.52 882.16 653.52 882.16 615.28 782.94 615.28"/><polyline class="cls-16" points="222.19 560.71 267.23 560.71 267.23 656.77 498.78 656.77"/><polyline class="cls-16" points="222.19 468.42 266.54 468.42 266.54 528.96 325.94 528.96 325.94 593.15 400.56 593.15"/><polyline class="cls-16" points="221.44 378.42 296.61 378.42 296.61 499.44 352.43 499.44"/><polyline class="cls-16" points="225.19 283.52 317.52 283.52 317.52 452.88 333.82 452.88"/><line class="cls-16" x1="239.71" y1="191.08" x2="410.91" y2="191.08"/><path class="cls-3" d="M263.33,158.64a13.23,13.23,0,0,1,.55-3.88,12.07,12.07,0,0,1,1.57-3.25h1.16a7.05,7.05,0,0,0-.75,1.35,13.09,13.09,0,0,0-.61,1.77,15.78,15.78,0,0,0-.41,2,14.07,14.07,0,0,0-.15,2,14.67,14.67,0,0,0,.26,2.69,15.3,15.3,0,0,0,.69,2.53,7.8,7.8,0,0,0,1,1.9h-1.16a12.07,12.07,0,0,1-1.57-3.25A13.21,13.21,0,0,1,263.33,158.64Z"/><path class="cls-3" d="M275,155.79a1.77,1.77,0,0,0-.81-1.32,3.54,3.54,0,0,0-3.07-.22,2.09,2.09,0,0,0-.88.67,1.62,1.62,0,0,0-.32,1,1.43,1.43,0,0,0,.22.78,1.84,1.84,0,0,0,.57.54,4,4,0,0,0,.72.35c.25.09.49.16.7.22l1.16.31c.29.08.62.19,1,.32a4.47,4.47,0,0,1,1.05.57,2.66,2.66,0,0,1,.83.9,2.6,2.6,0,0,1,.33,1.35,3,3,0,0,1-.48,1.67,3.3,3.3,0,0,1-1.4,1.19,5.23,5.23,0,0,1-2.24.44,5.14,5.14,0,0,1-2.12-.4,3.36,3.36,0,0,1-1.4-1.1,3.18,3.18,0,0,1-.58-1.64h1.43a1.78,1.78,0,0,0,.44,1.07,2.35,2.35,0,0,0,1,.62,4,4,0,0,0,1.26.2,3.56,3.56,0,0,0,1.42-.26,2.41,2.41,0,0,0,1-.72,1.73,1.73,0,0,0,.37-1.09,1.32,1.32,0,0,0-.32-.92,2.29,2.29,0,0,0-.84-.58,7.71,7.71,0,0,0-1.12-.39l-1.4-.4a5.32,5.32,0,0,1-2.11-1.1,2.42,2.42,0,0,1-.78-1.87,2.74,2.74,0,0,1,.52-1.67,3.31,3.31,0,0,1,1.4-1.11,5.09,5.09,0,0,1,3.93,0,3.44,3.44,0,0,1,1.37,1.07,2.76,2.76,0,0,1,.53,1.55Zm-3.07,10V151.51h.91v14.25Z"/><path class="cls-3" d="M282.24,164.49a3.38,3.38,0,0,1-2.14-.68,4.28,4.28,0,0,1-1.35-2,9.29,9.29,0,0,1-.47-3.17,9.44,9.44,0,0,1,.47-3.16,4.28,4.28,0,0,1,1.36-2,3.65,3.65,0,0,1,4.27,0,4.35,4.35,0,0,1,1.36,2,9.44,9.44,0,0,1,.47,3.16,9.54,9.54,0,0,1-.47,3.17,4.28,4.28,0,0,1-1.35,2A3.39,3.39,0,0,1,282.24,164.49Zm0-1.22a2.13,2.13,0,0,0,1.94-1.2,7,7,0,0,0,.69-3.43,8.88,8.88,0,0,0-.31-2.53,3.48,3.48,0,0,0-.9-1.58,2,2,0,0,0-1.42-.55,2.15,2.15,0,0,0-1.93,1.22,7,7,0,0,0-.69,3.44,8.73,8.73,0,0,0,.31,2.51,3.31,3.31,0,0,0,.9,1.58A2,2,0,0,0,282.24,163.27Z"/><path class="cls-3" d="M288.9,164.43a1,1,0,1,1,1-1,1,1,0,0,1-.14.5,1,1,0,0,1-.36.36A1,1,0,0,1,288.9,164.43Z"/><path class="cls-3" d="M292,162v-1.14l5-7.93h.82v1.76h-.55l-3.79,6v.09h6.75V162Zm5.37,2.34V152.93h1.31v11.41Z"/><path class="cls-3" d="M305.88,164.49a4,4,0,0,1-1.77-.39,3.35,3.35,0,0,1-1.26-1.06,3,3,0,0,1-.51-1.55h1.33a1.83,1.83,0,0,0,.71,1.28,2.51,2.51,0,0,0,2.75.17,2.4,2.4,0,0,0,.86-.9,2.7,2.7,0,0,0,.32-1.31,2.65,2.65,0,0,0-.33-1.33,2.41,2.41,0,0,0-.89-.93,2.55,2.55,0,0,0-1.3-.35,3.77,3.77,0,0,0-1.08.16,3,3,0,0,0-.9.42l-1.29-.15.68-5.62h5.93v1.23h-4.77l-.4,3.36H304a3,3,0,0,1,.88-.46,3.38,3.38,0,0,1,1.1-.18,3.46,3.46,0,0,1,3.16,1.86,4,4,0,0,1,.47,2,3.88,3.88,0,0,1-.48,1.94,3.69,3.69,0,0,1-1.34,1.35A3.81,3.81,0,0,1,305.88,164.49Z"/><path class="cls-3" d="M313.41,162.78l-.09.6c-.07.42-.16.88-.29,1.36s-.26.94-.4,1.36-.25.77-.34,1h-1l.19-.94c.08-.39.16-.82.24-1.3s.14-1,.19-1.48l.07-.62Z"/><path class="cls-3" d="M326.66,155.79a1.77,1.77,0,0,0-.81-1.32,3.54,3.54,0,0,0-3.07-.22,2.09,2.09,0,0,0-.88.67,1.62,1.62,0,0,0-.32,1,1.35,1.35,0,0,0,.22.78,1.84,1.84,0,0,0,.57.54,4,4,0,0,0,.72.35c.25.09.49.16.7.22l1.16.31c.29.08.62.19,1,.32A4.47,4.47,0,0,1,327,159a2.66,2.66,0,0,1,.83.9,2.6,2.6,0,0,1,.33,1.35,3,3,0,0,1-.48,1.67,3.3,3.3,0,0,1-1.4,1.19,5.23,5.23,0,0,1-2.24.44,5.14,5.14,0,0,1-2.12-.4,3.36,3.36,0,0,1-1.4-1.1,3.18,3.18,0,0,1-.58-1.64h1.43a1.78,1.78,0,0,0,.44,1.07,2.35,2.35,0,0,0,1,.62,4,4,0,0,0,1.26.2,3.56,3.56,0,0,0,1.42-.26,2.41,2.41,0,0,0,1-.72,1.73,1.73,0,0,0,.37-1.09,1.32,1.32,0,0,0-.32-.92,2.29,2.29,0,0,0-.84-.58,7.71,7.71,0,0,0-1.12-.39l-1.4-.4a5.37,5.37,0,0,1-2.12-1.1,2.46,2.46,0,0,1-.78-1.87,2.75,2.75,0,0,1,.53-1.67,3.31,3.31,0,0,1,1.4-1.11,5.09,5.09,0,0,1,3.93,0,3.41,3.41,0,0,1,1.36,1.07,2.69,2.69,0,0,1,.54,1.55Zm-3.07,10V151.51h.91v14.25Z"/><path class="cls-3" d="M333.94,164.49a3.38,3.38,0,0,1-2.14-.68,4.28,4.28,0,0,1-1.35-2,9.54,9.54,0,0,1-.47-3.17,9.44,9.44,0,0,1,.47-3.16,4.28,4.28,0,0,1,1.36-2,3.65,3.65,0,0,1,4.27,0,4.28,4.28,0,0,1,1.36,2,9.44,9.44,0,0,1,.47,3.16,9.54,9.54,0,0,1-.47,3.17,4.28,4.28,0,0,1-1.35,2A3.39,3.39,0,0,1,333.94,164.49Zm0-1.22a2.13,2.13,0,0,0,1.94-1.2,7,7,0,0,0,.69-3.43,8.88,8.88,0,0,0-.31-2.53,3.48,3.48,0,0,0-.9-1.58,2,2,0,0,0-1.42-.55A2.15,2.15,0,0,0,332,155.2a7,7,0,0,0-.69,3.44,8.73,8.73,0,0,0,.31,2.51,3.48,3.48,0,0,0,.9,1.58A2,2,0,0,0,333.94,163.27Z"/><path class="cls-3" d="M340.6,164.43a1,1,0,1,1,1-1,1,1,0,0,1-.14.5,1,1,0,0,1-.36.36A1,1,0,0,1,340.6,164.43Z"/><path class="cls-3" d="M347.33,164.49a4.07,4.07,0,0,1-1.4-.26,3.25,3.25,0,0,1-1.28-.87,4.28,4.28,0,0,1-.93-1.65,8.21,8.21,0,0,1-.35-2.63,11.61,11.61,0,0,1,.28-2.7,6,6,0,0,1,.83-2,3.63,3.63,0,0,1,1.3-1.23,3.54,3.54,0,0,1,1.73-.41,3.65,3.65,0,0,1,1.71.38,3.31,3.31,0,0,1,1.22,1.07,3.61,3.61,0,0,1,.61,1.58h-1.36a2.51,2.51,0,0,0-.73-1.3,2.05,2.05,0,0,0-1.45-.51,2.39,2.39,0,0,0-2.09,1.16,5.94,5.94,0,0,0-.76,3.25h.09a3.57,3.57,0,0,1,.74-.81,3.43,3.43,0,0,1,1-.52,3.34,3.34,0,0,1,1.1-.18,3.46,3.46,0,0,1,1.8.48,3.74,3.74,0,0,1,1.3,1.35,3.82,3.82,0,0,1,.49,1.95,4.09,4.09,0,0,1-.47,1.94,3.62,3.62,0,0,1-1.33,1.39A3.75,3.75,0,0,1,347.33,164.49Zm0-1.22a2.34,2.34,0,0,0,1.26-.35,2.51,2.51,0,0,0,.89-.94,2.86,2.86,0,0,0,0-2.61,2.53,2.53,0,0,0-.86-.92,2.42,2.42,0,0,0-2.24-.14,2.66,2.66,0,0,0-.8.57,2.7,2.7,0,0,0-.54.83,2.47,2.47,0,0,0-.19,1,2.7,2.7,0,0,0,.32,1.28,2.59,2.59,0,0,0,.88.95A2.3,2.3,0,0,0,347.33,163.27Z"/><path class="cls-3" d="M356.89,164.49a3.93,3.93,0,0,1-1.77-.39,3.35,3.35,0,0,1-1.26-1.06,3,3,0,0,1-.51-1.55h1.33a1.83,1.83,0,0,0,.71,1.28,2.32,2.32,0,0,0,1.5.5A2.34,2.34,0,0,0,359,162a2.7,2.7,0,0,0,.32-1.31,2.65,2.65,0,0,0-.33-1.33,2.49,2.49,0,0,0-.89-.93,2.58,2.58,0,0,0-1.3-.35,3.77,3.77,0,0,0-1.08.16,3,3,0,0,0-.9.42l-1.3-.15.69-5.62h5.93v1.23h-4.77l-.4,3.36H355a3,3,0,0,1,.88-.46,3.38,3.38,0,0,1,1.1-.18,3.46,3.46,0,0,1,3.16,1.86,4.07,4.07,0,0,1,.47,2,3.78,3.78,0,0,1-.49,1.94,3.59,3.59,0,0,1-1.33,1.35A3.81,3.81,0,0,1,356.89,164.49Z"/><path class="cls-3" d="M365.69,158.64a13.21,13.21,0,0,1-.55,3.87,12.07,12.07,0,0,1-1.57,3.25h-1.16a6.49,6.49,0,0,0,.75-1.35,13.09,13.09,0,0,0,.61-1.77,17.51,17.51,0,0,0,.41-2,13.8,13.8,0,0,0,.15-2,14.58,14.58,0,0,0-.26-2.69,15.42,15.42,0,0,0-.69-2.54,7.8,7.8,0,0,0-1-1.9h1.16a12.07,12.07,0,0,1,1.57,3.25A13.23,13.23,0,0,1,365.69,158.64Z"/><path class="cls-3" d="M224.48,248.3a13.21,13.21,0,0,1,.55-3.87,12.07,12.07,0,0,1,1.57-3.25h1.16a6.49,6.49,0,0,0-.75,1.35,13.09,13.09,0,0,0-.61,1.77,15.78,15.78,0,0,0-.41,2,13.94,13.94,0,0,0-.15,2,14.58,14.58,0,0,0,.26,2.69,15.42,15.42,0,0,0,.69,2.54,7.8,7.8,0,0,0,1,1.9H226.6a12.22,12.22,0,0,1-1.57-3.25A13.23,13.23,0,0,1,224.48,248.3Z"/><path class="cls-3" d="M236.11,245.45a1.76,1.76,0,0,0-.81-1.31,3.15,3.15,0,0,0-1.75-.47,3.31,3.31,0,0,0-1.32.24,2.11,2.11,0,0,0-.88.68,1.59,1.59,0,0,0-.32,1,1.38,1.38,0,0,0,.22.78,2,2,0,0,0,.57.55,4.79,4.79,0,0,0,.72.35c.25.09.49.16.7.22l1.16.31c.29.08.62.18,1,.32a4.43,4.43,0,0,1,1.05.56,3,3,0,0,1,.84.9,2.71,2.71,0,0,1,.32,1.36,3,3,0,0,1-.48,1.67,3.37,3.37,0,0,1-1.4,1.19,5.23,5.23,0,0,1-2.24.44,5.31,5.31,0,0,1-2.12-.4,3.36,3.36,0,0,1-1.4-1.1,3.18,3.18,0,0,1-.58-1.64h1.43a1.76,1.76,0,0,0,.44,1.06,2.17,2.17,0,0,0,1,.62,3.7,3.7,0,0,0,1.26.21,3.74,3.74,0,0,0,1.42-.26,2.35,2.35,0,0,0,1-.72,1.77,1.77,0,0,0,.37-1.09A1.36,1.36,0,0,0,236,250a2.29,2.29,0,0,0-.84-.58A8,8,0,0,0,234,249l-1.41-.4a5.19,5.19,0,0,1-2.11-1.09,2.42,2.42,0,0,1-.78-1.87,2.72,2.72,0,0,1,.52-1.67,3.4,3.4,0,0,1,1.4-1.12,4.85,4.85,0,0,1,2-.4,4.52,4.52,0,0,1,2,.4,3.44,3.44,0,0,1,1.37,1.07,2.72,2.72,0,0,1,.53,1.54Zm-3.07,10V241.18H234v14.25Z"/><path class="cls-3" d="M243.39,254.16a3.39,3.39,0,0,1-2.14-.69,4.18,4.18,0,0,1-1.35-2,10.89,10.89,0,0,1,0-6.33,4.29,4.29,0,0,1,1.36-2,3.61,3.61,0,0,1,4.27,0,4.29,4.29,0,0,1,1.36,2,10.89,10.89,0,0,1,0,6.33,4.18,4.18,0,0,1-1.35,2A3.4,3.4,0,0,1,243.39,254.16Zm0-1.23a2.13,2.13,0,0,0,1.94-1.2,7,7,0,0,0,.69-3.43,8.76,8.76,0,0,0-.31-2.52,3.52,3.52,0,0,0-.9-1.59,2,2,0,0,0-1.42-.54,2.14,2.14,0,0,0-1.93,1.21,7.08,7.08,0,0,0-.69,3.44,8.76,8.76,0,0,0,.31,2.52,3.45,3.45,0,0,0,.9,1.58A2,2,0,0,0,243.39,252.93Z"/><path class="cls-3" d="M250.05,254.09a.93.93,0,0,1-.7-.29,1,1,0,0,1-.3-.71,1,1,0,0,1,2,0,1,1,0,0,1-.14.5,1,1,0,0,1-.36.37A1,1,0,0,1,250.05,254.09Z"/><path class="cls-3" d="M256.69,254.16a4.76,4.76,0,0,1-2-.41,3.27,3.27,0,0,1-1.37-1.13,2.82,2.82,0,0,1-.48-1.64,3,3,0,0,1,.28-1.34,2.9,2.9,0,0,1,.79-1,2.4,2.4,0,0,1,1.13-.53V248a2.17,2.17,0,0,1-1.3-.92,2.81,2.81,0,0,1-.48-1.62,2.75,2.75,0,0,1,.44-1.55,3.08,3.08,0,0,1,1.23-1.08,4,4,0,0,1,1.78-.4,3.91,3.91,0,0,1,1.77.4,3.08,3.08,0,0,1,1.23,1.08,2.86,2.86,0,0,1,0,3.17,2.14,2.14,0,0,1-1.29.92v.07a2.28,2.28,0,0,1,1.12.53,3.1,3.1,0,0,1,1.09,2.37,2.84,2.84,0,0,1-.5,1.64,3.3,3.3,0,0,1-1.36,1.13A4.79,4.79,0,0,1,256.69,254.16Zm0-1.23a3.24,3.24,0,0,0,1.34-.25,2,2,0,0,0,.87-.7,1.92,1.92,0,0,0,.31-1.07,2.09,2.09,0,0,0-.33-1.14,2.28,2.28,0,0,0-.9-.78,2.79,2.79,0,0,0-1.29-.29,2.89,2.89,0,0,0-1.3.29,2.19,2.19,0,0,0-.89.78,1.93,1.93,0,0,0-.32,1.14,1.83,1.83,0,0,0,.29,1.07,2,2,0,0,0,.88.7A3.21,3.21,0,0,0,256.69,252.93Zm0-5.41a2.39,2.39,0,0,0,1.09-.24,1.85,1.85,0,0,0,.75-.69,1.91,1.91,0,0,0,.28-1,2,2,0,0,0-.27-1,1.84,1.84,0,0,0-.74-.67,2.59,2.59,0,0,0-1.11-.23,2.63,2.63,0,0,0-1.12.23,1.78,1.78,0,0,0-.74.67,1.87,1.87,0,0,0-.25,1,1.82,1.82,0,0,0,.26,1,1.85,1.85,0,0,0,.75.69A2.44,2.44,0,0,0,256.69,247.52Z"/><path class="cls-3" d="M266.27,254.16a3.89,3.89,0,0,1-1.76-.39,3.22,3.22,0,0,1-1.26-1.07,2.88,2.88,0,0,1-.52-1.55h1.34a1.78,1.78,0,0,0,.7,1.28,2.3,2.3,0,0,0,1.5.5,2.35,2.35,0,0,0,1.25-.32,2.29,2.29,0,0,0,.86-.91,2.84,2.84,0,0,0,0-2.64,2.32,2.32,0,0,0-.89-.92,2.46,2.46,0,0,0-1.3-.35,3.65,3.65,0,0,0-1.07.16,3.08,3.08,0,0,0-.91.42l-1.29-.16.69-5.61h5.92v1.23h-4.76l-.4,3.36h.06a2.92,2.92,0,0,1,.88-.46,3.16,3.16,0,0,1,1.11-.19,3.52,3.52,0,0,1,1.86.5,3.61,3.61,0,0,1,1.3,1.36,4.13,4.13,0,0,1,.47,2,3.92,3.92,0,0,1-.49,1.95,3.62,3.62,0,0,1-1.34,1.35A3.81,3.81,0,0,1,266.27,254.16Z"/><path class="cls-3" d="M275.07,248.3a12.9,12.9,0,0,1-.55,3.88,11.92,11.92,0,0,1-1.57,3.25H271.8a7.41,7.41,0,0,0,.74-1.36,11.33,11.33,0,0,0,.61-1.76,15.57,15.57,0,0,0,.41-2,13.89,13.89,0,0,0-.11-4.71,15.3,15.3,0,0,0-.69-2.53,8,8,0,0,0-1-1.9H273a11.78,11.78,0,0,1,1.57,3.25A12.88,12.88,0,0,1,275.07,248.3Z"/><path class="cls-2" d="M1214.68,209.21V152a7.8,7.8,0,0,1,7.78-7.78h86.68a7.8,7.8,0,0,1,7.78,7.78v57.17a10.63,10.63,0,0,0-8.72-4.55h-84.81A10.6,10.6,0,0,0,1214.68,209.21Z"/><path class="cls-17" d="M1316.92,215.26V308a10.63,10.63,0,0,0-8.72-4.55h-84.81a10.6,10.6,0,0,0-8.71,4.55V215.26a7.8,7.8,0,0,1,7.78-7.78h86.68A7.8,7.8,0,0,1,1316.92,215.26Z"/><path class="cls-18" d="M1316.92,434.08V664.65H1214.68V434.08a7.8,7.8,0,0,1,7.78-7.78h86.68A7.8,7.8,0,0,1,1316.92,434.08Z"/><path class="cls-19" d="M1316.92,315V428a10.63,10.63,0,0,0-8.72-4.55h-84.81a10.6,10.6,0,0,0-8.71,4.55V315a8.72,8.72,0,0,1,8.71-8.72h84.81A8.72,8.72,0,0,1,1316.92,315Z"/><rect class="cls-4" x="1362.89" y="153.29" width="66.02" height="23.45" rx="11.72"/><path class="cls-1" d="M1386.67,167.71l1.15-1.45a3.51,3.51,0,0,0,2.59,1.07c1.15,0,1.81-.66,1.81-1.45s-.65-1.44-1.76-1.44a2.76,2.76,0,0,0-2,.79l-1.45-.38v-5.6h6.69v1.83h-4.61v2.38a3.15,3.15,0,0,1,5.27,2.34c0,2.07-1.55,3.37-3.9,3.37A4.84,4.84,0,0,1,1386.67,167.71Z"/><path class="cls-1" d="M1395.2,161.56a2.48,2.48,0,0,1,5,0,2.48,2.48,0,0,1-5,0Zm3.62,0a1.15,1.15,0,0,0-1.15-1.3,1.29,1.29,0,0,0,0,2.56A1.15,1.15,0,0,0,1398.82,161.56Zm-2.1,7.44,6.22-9.75h1.11l-6.24,9.75Zm3.84-2.24a2.48,2.48,0,1,1,2.47,2.41A2.35,2.35,0,0,1,1400.56,166.76Zm3.64,0a1.17,1.17,0,1,0-2.33,0,1.17,1.17,0,1,0,2.33,0Z"/><rect class="cls-4" x="1362.89" y="238.43" width="66.02" height="23.45" rx="11.72"/><path class="cls-1" d="M1382.17,254.13v-1.62c4-2.95,5.16-4,5.16-5.15,0-.85-.77-1.28-1.58-1.28a3.47,3.47,0,0,0-2.61,1.13l-1.19-1.37a5,5,0,0,1,3.76-1.6c2.07,0,3.73,1.17,3.73,3.12,0,1.66-1.38,3.11-3.91,4.95h4v1.82Z"/><path class="cls-1" d="M1390.73,249.27c0-2.51,1.25-5,4-5s4,2.52,4,5-1.26,5-4,5S1390.73,251.78,1390.73,249.27Zm6,0c0-1.8-.53-3.19-1.91-3.19s-1.93,1.39-1.93,3.19.52,3.2,1.93,3.2S1396.68,251.07,1396.68,249.27Z"/><path class="cls-1" d="M1399.66,246.7a2.48,2.48,0,0,1,4.95,0,2.48,2.48,0,0,1-4.95,0Zm3.62,0a1.15,1.15,0,0,0-1.15-1.3,1.28,1.28,0,0,0,0,2.55A1.14,1.14,0,0,0,1403.28,246.7Zm-2.1,7.43,6.22-9.74h1.11l-6.24,9.74Zm3.84-2.23a2.48,2.48,0,1,1,2.47,2.41A2.35,2.35,0,0,1,1405,251.9Zm3.64,0a1.18,1.18,0,0,0-1.17-1.3,1.16,1.16,0,0,0-1.15,1.3,1.14,1.14,0,0,0,1.15,1.27A1.16,1.16,0,0,0,1408.66,251.9Z"/><rect class="cls-4" x="1362.89" y="323.57" width="66.02" height="23.45" rx="11.72"/><path class="cls-1" d="M1381.87,337.89l1.09-1.39a3.86,3.86,0,0,0,2.68,1.11c1.19,0,1.84-.51,1.84-1.24s-.59-1.13-2-1.13c-.41,0-1.07,0-1.22,0V333.4c.18,0,.85,0,1.22,0,1.08,0,1.79-.33,1.79-1s-.79-1.16-1.81-1.16a3.51,3.51,0,0,0-2.47,1l-1-1.3a4.77,4.77,0,0,1,3.72-1.55c2.28,0,3.68,1,3.68,2.65a2.39,2.39,0,0,1-2.13,2.22,2.44,2.44,0,0,1,2.28,2.34c0,1.68-1.51,2.86-3.84,2.86A4.91,4.91,0,0,1,1381.87,337.89Z"/><path class="cls-1" d="M1390.64,334.41c0-2.51,1.24-5,4-5s4,2.52,4,5-1.25,5-4,5S1390.64,336.92,1390.64,334.41Zm5.95,0c0-1.8-.53-3.19-1.92-3.19s-1.93,1.39-1.93,3.19.53,3.2,1.93,3.2S1396.59,336.21,1396.59,334.41Z"/><path class="cls-1" d="M1399.56,331.84a2.48,2.48,0,0,1,5,0,2.48,2.48,0,0,1-5,0Zm3.63,0a1.16,1.16,0,1,0-1.16,1.25A1.16,1.16,0,0,0,1403.19,331.84Zm-2.11,7.43,6.23-9.74h1.11l-6.24,9.74Zm3.85-2.23a2.48,2.48,0,0,1,5,0,2.48,2.48,0,0,1-5,0Zm3.63,0a1.17,1.17,0,1,0-2.32,0,1.16,1.16,0,1,0,2.32,0Z"/><rect class="cls-4" x="1362.89" y="454.77" width="66.02" height="23.45" rx="11.72"/><path class="cls-1" d="M1386.62,470.47v-2H1382v-1.64l3.87-6.09h2.87v5.9H1390v1.83h-1.25v2Zm0-7.9-2.63,4.06h2.63Z"/><path class="cls-1" d="M1391,469.19l1.15-1.45a3.52,3.52,0,0,0,2.59,1.07c1.15,0,1.81-.66,1.81-1.45s-.64-1.44-1.75-1.44a2.82,2.82,0,0,0-2,.78l-1.44-.37v-5.6H1398v1.83h-4.62v2.38a3.09,3.09,0,0,1,2.15-.82,3,3,0,0,1,3.12,3.15c0,2.08-1.54,3.38-3.9,3.38A4.87,4.87,0,0,1,1391,469.19Z"/><path class="cls-1" d="M1399.55,463a2.48,2.48,0,0,1,5,0,2.48,2.48,0,0,1-5,0Zm3.62,0a1.15,1.15,0,1,0-1.15,1.25A1.15,1.15,0,0,0,1403.17,463Zm-2.1,7.43,6.22-9.74h1.11l-6.23,9.74Zm3.84-2.23a2.48,2.48,0,1,1,2.47,2.41A2.35,2.35,0,0,1,1404.91,468.24Zm3.64,0a1.18,1.18,0,0,0-1.17-1.3,1.16,1.16,0,0,0-1.15,1.3,1.14,1.14,0,0,0,1.15,1.27A1.16,1.16,0,0,0,1408.55,468.24Z"/><path class="cls-3" d="M1364.11,199.89V189.52h1.29v9.22h4.82v1.15Z"/><path class="cls-3" d="M1371.23,196.13a3.76,3.76,0,0,1,3.71-3.94c2.27,0,3.61,1.78,3.61,4v.3h-6.09a2.66,2.66,0,0,0,2.71,2.6,3.31,3.31,0,0,0,2.32-1l.56.76a4.08,4.08,0,0,1-3,1.15A3.73,3.73,0,0,1,1371.23,196.13Zm3.69-3a2.51,2.51,0,0,0-2.46,2.5h4.93A2.43,2.43,0,0,0,1374.92,193.16Z"/><path class="cls-3" d="M1380.41,201.82l.59-.87a2.88,2.88,0,0,0,2.45,1,2.16,2.16,0,0,0,2.41-2.26v-1.07a3.15,3.15,0,0,1-2.52,1.34c-2,0-3.35-1.46-3.35-3.89s1.37-3.91,3.35-3.91a3.11,3.11,0,0,1,2.52,1.33v-1.14H1387v7.3c0,2.49-1.74,3.26-3.57,3.26A3.82,3.82,0,0,1,1380.41,201.82Zm5.45-4.09v-3.28a2.79,2.79,0,0,0-2.24-1.21c-1.51,0-2.42,1.19-2.42,2.86s.91,2.86,2.42,2.86A2.78,2.78,0,0,0,1385.86,197.73Z"/><path class="cls-3" d="M1394.06,199.89V199a3.28,3.28,0,0,1-2.49,1,2.5,2.5,0,0,1-2.63-2.49,2.46,2.46,0,0,1,2.63-2.47,3.13,3.13,0,0,1,2.49,1v-1.36c0-1-.81-1.59-1.9-1.59a3,3,0,0,0-2.31,1.05l-.54-.81a3.93,3.93,0,0,1,3-1.25c1.59,0,2.91.72,2.91,2.54v5.16Zm0-1.58v-1.42A2.54,2.54,0,0,0,1392,196a1.65,1.65,0,1,0,0,3.28A2.54,2.54,0,0,0,1394.06,198.31Z"/><path class="cls-3" d="M1397.55,199.89V189.52h1.17v10.37Z"/><path class="cls-3" d="M1411.82,199.89c-.31-.26-.72-.65-1.14-1.08a4.07,4.07,0,0,1-3,1.27c-1.79,0-3.24-1-3.24-2.89,0-1.62,1.09-2.45,2.29-3.08a4.89,4.89,0,0,1-.8-2.34,2.48,2.48,0,0,1,2.62-2.41,2.07,2.07,0,0,1,2.35,2c0,1.56-1.32,2.24-2.65,2.92.42.58.86,1.09,1.2,1.48s.83.95,1.23,1.39a9.73,9.73,0,0,0,1.12-2.37l1,.44a14.73,14.73,0,0,1-1.41,2.67c.6.64,1.26,1.26,2,2Zm-1.84-1.8c-.59-.62-1.13-1.21-1.43-1.57s-.88-1.06-1.3-1.65a2.61,2.61,0,0,0-1.53,2.24,2,2,0,0,0,2.09,2A3.1,3.1,0,0,0,1410,198.09Zm-2.19-4.51c1.11-.55,2-1.11,2-2.13a1.11,1.11,0,0,0-1.22-1.17,1.45,1.45,0,0,0-1.45,1.51A3.81,3.81,0,0,0,1407.79,193.58Z"/><path class="cls-3" d="M1426.51,199.89l-.92-2.3h-5.17l-.92,2.3H1418l4.17-10.37h1.6l4.18,10.37Zm-3.5-9-2.21,5.59h4.4Z"/><path class="cls-3" d="M1428.85,196.13a3.71,3.71,0,0,1,3.75-3.94,3.23,3.23,0,0,1,2.76,1.31l-.78.72a2.23,2.23,0,0,0-1.92-1,2.92,2.92,0,0,0,0,5.8,2.27,2.27,0,0,0,1.92-1l.78.71a3.23,3.23,0,0,1-2.76,1.31A3.72,3.72,0,0,1,1428.85,196.13Z"/><path class="cls-3" d="M1436.55,196.13a3.71,3.71,0,0,1,3.75-3.94,3.23,3.23,0,0,1,2.76,1.31l-.78.72a2.22,2.22,0,0,0-1.91-1,2.92,2.92,0,0,0,0,5.8,2.27,2.27,0,0,0,1.91-1l.78.71a3.23,3.23,0,0,1-2.76,1.31A3.72,3.72,0,0,1,1436.55,196.13Z"/><path class="cls-3" d="M1444.25,196.13a3.73,3.73,0,1,1,3.72,4A3.69,3.69,0,0,1,1444.25,196.13Zm6.21,0A2.52,2.52,0,1,0,1448,199C1449.57,199,1450.46,197.67,1450.46,196.13Z"/><path class="cls-3" d="M1458.66,199.89v-1a3.68,3.68,0,0,1-2.68,1.24,2.11,2.11,0,0,1-2.39-2.39v-5.31h1.16v5c0,1.32.67,1.71,1.69,1.71a2.88,2.88,0,0,0,2.22-1.14v-5.52h1.17v7.51Z"/><path class="cls-3" d="M1467.23,199.89V195c0-1.32-.67-1.74-1.68-1.74a2.89,2.89,0,0,0-2.22,1.16v5.49h-1.17v-7.51h1.17v1.09a3.71,3.71,0,0,1,2.67-1.28,2.14,2.14,0,0,1,2.4,2.43v5.27Z"/><path class="cls-3" d="M1471,198.32v-4.91h-1.24v-1H1471v-2h1.17v2h1.53v1h-1.53v4.66c0,.56.25,1,.76,1a1.15,1.15,0,0,0,.8-.31l.34.87a1.92,1.92,0,0,1-1.4.48A1.54,1.54,0,0,1,1471,198.32Z"/><path class="cls-3" d="M1480,199.89V199a3.25,3.25,0,0,1-2.49,1,2.5,2.5,0,0,1-2.63-2.49,2.46,2.46,0,0,1,2.63-2.47,3.1,3.1,0,0,1,2.49,1v-1.36c0-1-.81-1.59-1.9-1.59a3,3,0,0,0-2.3,1.05l-.54-.81a3.93,3.93,0,0,1,3-1.25c1.59,0,2.91.72,2.91,2.54v5.16Zm0-1.58v-1.42a2.51,2.51,0,0,0-2.07-.93,1.65,1.65,0,1,0,0,3.28A2.51,2.51,0,0,0,1480,198.31Z"/><path class="cls-3" d="M1488.58,199.89V195c0-1.32-.67-1.74-1.69-1.74a2.93,2.93,0,0,0-2.22,1.16v5.49h-1.17v-7.51h1.17v1.09a3.73,3.73,0,0,1,2.68-1.28,2.14,2.14,0,0,1,2.39,2.43v5.27Z"/><path class="cls-3" d="M1491.64,196.13a3.71,3.71,0,0,1,3.75-3.94,3.19,3.19,0,0,1,2.75,1.31l-.77.72a2.23,2.23,0,0,0-1.92-1,2.92,2.92,0,0,0,0,5.8,2.27,2.27,0,0,0,1.92-1l.77.71a3.19,3.19,0,0,1-2.75,1.31A3.72,3.72,0,0,1,1491.64,196.13Z"/><path class="cls-3" d="M1499.54,201.78a1.73,1.73,0,0,0,.64.12,1.08,1.08,0,0,0,1.12-.79l.5-1.14-3.15-7.59h1.26l2.51,6.16,2.49-6.16h1.28l-3.77,9a2.22,2.22,0,0,1-2.21,1.52,4,4,0,0,1-.86-.1Z"/><path class="cls-3" d="M1364.11,287.66V277.28h6.8v1.15h-5.51v3.35h5.4v1.15h-5.4v3.58h5.51v1.15Z"/><path class="cls-3" d="M1372.48,283.89a3.72,3.72,0,0,1,3.75-3.94,3.19,3.19,0,0,1,2.75,1.31l-.78.72a2.2,2.2,0,0,0-1.91-1,2.92,2.92,0,0,0,0,5.8,2.24,2.24,0,0,0,1.91-1l.78.72a3.21,3.21,0,0,1-2.75,1.3A3.72,3.72,0,0,1,1372.48,283.89Z"/><path class="cls-3" d="M1380.18,283.89a3.72,3.72,0,1,1,3.72,3.95A3.69,3.69,0,0,1,1380.18,283.89Zm6.21,0a2.53,2.53,0,1,0-2.49,2.91C1385.5,286.8,1386.39,285.43,1386.39,283.89Z"/><path class="cls-3" d="M1388.86,286.66l.6-.84a3.4,3.4,0,0,0,2.48,1.07c1.15,0,1.77-.54,1.77-1.29,0-1.82-4.65-.7-4.65-3.48,0-1.17,1-2.17,2.8-2.17a3.84,3.84,0,0,1,2.79,1.09l-.55.81a2.93,2.93,0,0,0-2.24-1c-1,0-1.66.52-1.66,1.19,0,1.65,4.65.56,4.65,3.48,0,1.26-1,2.27-3,2.27A4,4,0,0,1,1388.86,286.66Z"/><path class="cls-3" d="M1396.51,289.54a1.73,1.73,0,0,0,.64.12,1.08,1.08,0,0,0,1.12-.79l.5-1.14-3.14-7.59h1.26l2.5,6.16,2.49-6.16h1.28l-3.77,9a2.24,2.24,0,0,1-2.21,1.53,3.8,3.8,0,0,1-.85-.11Z"/><path class="cls-3" d="M1403.71,286.66l.61-.84a3.4,3.4,0,0,0,2.48,1.07c1.15,0,1.77-.54,1.77-1.29,0-1.82-4.65-.7-4.65-3.48,0-1.17,1-2.17,2.8-2.17a3.82,3.82,0,0,1,2.78,1.09l-.54.81a3,3,0,0,0-2.24-1c-1,0-1.67.52-1.67,1.19,0,1.65,4.65.56,4.65,3.48,0,1.26-1,2.27-3,2.27A4,4,0,0,1,1403.71,286.66Z"/><path class="cls-3" d="M1411.83,286.09v-4.92h-1.24v-1h1.24v-2.05H1413v2.05h1.53v1H1413v4.67c0,.56.25,1,.76,1a1.15,1.15,0,0,0,.8-.31l.34.87a1.9,1.9,0,0,1-1.4.48A1.54,1.54,0,0,1,1411.83,286.09Z"/><path class="cls-3" d="M1415.74,283.89a3.76,3.76,0,0,1,3.7-3.94c2.27,0,3.61,1.78,3.61,4v.3H1417a2.65,2.65,0,0,0,2.71,2.6,3.26,3.26,0,0,0,2.31-.95l.56.76a4,4,0,0,1-3,1.15A3.72,3.72,0,0,1,1415.74,283.89Zm3.69-3a2.5,2.5,0,0,0-2.46,2.5h4.93A2.43,2.43,0,0,0,1419.43,280.92Z"/><path class="cls-3" d="M1434,287.66v-5.11c0-.95-.41-1.55-1.38-1.55a2.63,2.63,0,0,0-2,1.15v5.51h-1.17v-5.11c0-.95-.4-1.55-1.38-1.55a2.62,2.62,0,0,0-2,1.16v5.5h-1.17v-7.52h1.17v1.09a3.25,3.25,0,0,1,2.43-1.28,1.93,1.93,0,0,1,2,1.41,3.15,3.15,0,0,1,2.52-1.41c1.37,0,2.1.77,2.1,2.28v5.43Z"/><path class="cls-3" d="M1441.14,282.48a5.19,5.19,0,0,1,5.34-5.37,5,5,0,0,1,4,1.94l-1,.64a3.82,3.82,0,0,0-3-1.43,4.23,4.23,0,0,0,0,8.45,4.1,4.1,0,0,0,2.78-1.12v-2.12h-3.56v-1.15h4.86v3.75a5.43,5.43,0,0,1-4.08,1.79A5.2,5.2,0,0,1,1441.14,282.48Z"/><path class="cls-3" d="M1452.61,287.66v-7.52h1.17v1.22a3.15,3.15,0,0,1,2.5-1.37v1.19a2.17,2.17,0,0,0-.47,0,2.73,2.73,0,0,0-2,1.2v5.32Z"/><path class="cls-3" d="M1457.31,283.89a3.72,3.72,0,1,1,3.71,3.95A3.69,3.69,0,0,1,1457.31,283.89Zm6.2,0a2.52,2.52,0,1,0-2.49,2.91C1462.63,286.8,1463.51,285.43,1463.51,283.89Z"/><path class="cls-3" d="M1473.14,287.66l-2-6-2,6h-1.16l-2.4-7.52h1.21l1.84,6,2-6h1l2,6,1.83-6h1.22l-2.4,7.52Z"/><path class="cls-3" d="M1478.29,286.09v-4.92h-1.24v-1h1.24v-2.05h1.17v2.05H1481v1h-1.52v4.67c0,.56.25,1,.76,1a1.11,1.11,0,0,0,.79-.31l.35.87a1.92,1.92,0,0,1-1.4.48A1.53,1.53,0,0,1,1478.29,286.09Z"/><path class="cls-3" d="M1487.72,287.66v-5c0-1.32-.69-1.71-1.7-1.71a3,3,0,0,0-2.22,1.16v5.5h-1.17V277.28h1.17v4a3.74,3.74,0,0,1,2.69-1.28,2.12,2.12,0,0,1,2.4,2.4v5.31Z"/><path class="cls-3" d="M1364.11,375.69V365.31h1.29v9.23h4.82v1.15Z"/><path class="cls-3" d="M1371.79,366.32a.79.79,0,1,1,1.57,0,.79.79,0,0,1-1.57,0Zm.21,9.37v-7.52h1.16v7.52Z"/><path class="cls-3" d="M1375,371.92c0-2.44,1.37-3.93,3.35-3.93a3.09,3.09,0,0,1,2.52,1.3v-1.12h1.17v10.38h-1.17v-4a3.09,3.09,0,0,1-2.52,1.33C1376.38,375.88,1375,374.35,1375,371.92Zm5.87,1.7v-3.39a2.72,2.72,0,0,0-2.24-1.2c-1.51,0-2.4,1.23-2.4,2.89s.89,2.91,2.4,2.91A2.76,2.76,0,0,0,1380.88,373.62Z"/><path class="cls-3" d="M1389.47,375.69v-1.06a3.71,3.71,0,0,1-2.68,1.25,2.12,2.12,0,0,1-2.4-2.4v-5.31h1.17v4.95c0,1.32.67,1.71,1.68,1.71a2.91,2.91,0,0,0,2.23-1.13v-5.53h1.16v7.52Z"/><path class="cls-3" d="M1392.76,366.32a.79.79,0,1,1,1.57,0,.79.79,0,0,1-1.57,0Zm.21,9.37v-7.52h1.16v7.52Z"/><path class="cls-3" d="M1401.91,375.69v-1.12a3.18,3.18,0,0,1-2.54,1.31c-2,0-3.34-1.5-3.34-3.94s1.37-3.95,3.34-3.95a3.12,3.12,0,0,1,2.54,1.32v-4h1.17v10.38Zm0-2v-3.41a2.82,2.82,0,0,0-2.25-1.21c-1.51,0-2.42,1.24-2.42,2.91s.91,2.89,2.42,2.89A2.8,2.8,0,0,0,1401.91,373.65Z"/><path class="cls-3" d="M1405.21,366.32a.79.79,0,1,1,1.57,0,.79.79,0,0,1-1.57,0Zm.2,9.37v-7.52h1.17v7.52Z"/><path class="cls-3" d="M1409.14,374.12V369.2h-1.24v-1h1.24v-2.05h1.17v2.05h1.52v1h-1.52v4.67c0,.56.25,1,.76,1a1.15,1.15,0,0,0,.8-.31l.34.87a1.92,1.92,0,0,1-1.4.49A1.54,1.54,0,0,1,1409.14,374.12Z"/><path class="cls-3" d="M1413.25,377.57a1.74,1.74,0,0,0,.64.13,1.1,1.1,0,0,0,1.12-.8l.5-1.13-3.15-7.6h1.26l2.51,6.17,2.49-6.17h1.27l-3.76,9a2.24,2.24,0,0,1-2.21,1.53,4,4,0,0,1-.86-.11Z"/><path class="cls-3" d="M1431.87,375.69c-.31-.27-.71-.66-1.13-1.09a4.12,4.12,0,0,1-3,1.28c-1.79,0-3.24-1-3.24-2.9,0-1.62,1.09-2.44,2.29-3.08a4.8,4.8,0,0,1-.79-2.33,2.48,2.48,0,0,1,2.61-2.42,2.08,2.08,0,0,1,2.35,2c0,1.56-1.32,2.24-2.65,2.93.42.57.86,1.09,1.2,1.48s.83.95,1.23,1.38a9.33,9.33,0,0,0,1.12-2.36l1,.43a13.89,13.89,0,0,1-1.41,2.68c.6.64,1.26,1.26,2,2Zm-1.83-1.81c-.59-.62-1.14-1.21-1.43-1.57a20.66,20.66,0,0,1-1.31-1.65,2.61,2.61,0,0,0-1.53,2.24,2,2,0,0,0,2.09,2A3.13,3.13,0,0,0,1430,373.88Zm-2.2-4.51c1.11-.54,2.06-1.1,2.06-2.13a1.12,1.12,0,0,0-1.23-1.17,1.45,1.45,0,0,0-1.45,1.51A3.77,3.77,0,0,0,1427.84,369.37Z"/><path class="cls-3" d="M1439.15,375.69V365.31h6.8v1.15h-5.51v3.35h5.4V371h-5.4v3.58H1446v1.15Z"/><path class="cls-3" d="M1452.83,375.69l-2.26-3.08-2.26,3.08H1447l2.87-3.86-2.72-3.66h1.36l2.08,2.87,2.09-2.87H1454l-2.72,3.66,2.89,3.86Z"/><path class="cls-3" d="M1454.51,371.92a3.7,3.7,0,0,1,3.75-3.93,3.24,3.24,0,0,1,2.75,1.3l-.78.72a2.21,2.21,0,0,0-1.91-1,2.92,2.92,0,0,0,0,5.8,2.26,2.26,0,0,0,1.91-1l.78.72a3.22,3.22,0,0,1-2.75,1.31A3.72,3.72,0,0,1,1454.51,371.92Z"/><path class="cls-3" d="M1467.73,375.69v-4.95c0-1.32-.68-1.71-1.7-1.71a2.94,2.94,0,0,0-2.22,1.17v5.49h-1.17V365.31h1.17v3.95a3.73,3.73,0,0,1,2.69-1.27,2.11,2.11,0,0,1,2.4,2.39v5.31Z"/><path class="cls-3" d="M1475.93,375.69v-.86a3.25,3.25,0,0,1-2.49,1.05,2.5,2.5,0,0,1-2.63-2.49,2.46,2.46,0,0,1,2.63-2.48,3.16,3.16,0,0,1,2.49,1v-1.35c0-1-.81-1.59-1.9-1.59a3,3,0,0,0-2.3,1l-.55-.81a3.92,3.92,0,0,1,3-1.24c1.59,0,2.91.71,2.91,2.53v5.17Zm0-1.59v-1.41a2.51,2.51,0,0,0-2.07-.94,1.65,1.65,0,1,0,0,3.28A2.53,2.53,0,0,0,1475.93,374.1Z"/><path class="cls-3" d="M1484.13,375.69v-.86a3.25,3.25,0,0,1-2.49,1.05,2.5,2.5,0,0,1-2.63-2.49,2.46,2.46,0,0,1,2.63-2.48,3.16,3.16,0,0,1,2.49,1v-1.35c0-1-.81-1.59-1.9-1.59a3,3,0,0,0-2.31,1l-.54-.81a3.92,3.92,0,0,1,3-1.24c1.59,0,2.91.71,2.91,2.53v5.17Zm0-1.59v-1.41a2.52,2.52,0,0,0-2.07-.94,1.65,1.65,0,1,0,0,3.28A2.54,2.54,0,0,0,1484.13,374.1Z"/><path class="cls-3" d="M1492.7,375.69v-4.92c0-1.32-.67-1.74-1.68-1.74a2.91,2.91,0,0,0-2.23,1.17v5.49h-1.17v-7.52h1.17v1.09a3.74,3.74,0,0,1,2.68-1.27,2.13,2.13,0,0,1,2.39,2.42v5.28Z"/><path class="cls-3" d="M1496.18,377.62l.59-.87a2.88,2.88,0,0,0,2.44,1,2.15,2.15,0,0,0,2.42-2.25v-1.08a3.14,3.14,0,0,1-2.52,1.34c-2,0-3.35-1.46-3.35-3.89s1.37-3.9,3.35-3.9a3.1,3.1,0,0,1,2.52,1.32v-1.14h1.16v7.3c0,2.49-1.74,3.27-3.58,3.27A3.85,3.85,0,0,1,1496.18,377.62Zm5.45-4.09v-3.29a2.79,2.79,0,0,0-2.24-1.21c-1.51,0-2.42,1.2-2.42,2.86s.91,2.87,2.42,2.87A2.8,2.8,0,0,0,1501.63,373.53Z"/><path class="cls-3" d="M1504.69,371.92a3.76,3.76,0,0,1,3.7-3.93c2.28,0,3.61,1.77,3.61,4v.29h-6.08a2.65,2.65,0,0,0,2.71,2.6,3.3,3.3,0,0,0,2.32-1l.56.76a4.09,4.09,0,0,1-3,1.16A3.73,3.73,0,0,1,1504.69,371.92Zm3.69-3a2.5,2.5,0,0,0-2.46,2.51h4.93A2.43,2.43,0,0,0,1508.38,369Z"/><path class="cls-3" d="M1364.11,505V494.64h4.17a3.13,3.13,0,1,1,0,6.26h-2.88V505Zm6.08-7.25a1.93,1.93,0,0,0-2.07-2h-2.72v4h2.72A1.93,1.93,0,0,0,1370.19,497.77Z"/><path class="cls-3" d="M1373.19,505v-7.51h1.17v1.21a3.21,3.21,0,0,1,2.51-1.37v1.2a2.19,2.19,0,0,0-.47-.05,2.73,2.73,0,0,0-2,1.2V505Z"/><path class="cls-3" d="M1377.89,501.26a3.73,3.73,0,1,1,3.72,3.95A3.69,3.69,0,0,1,1377.89,501.26Zm6.21,0a2.52,2.52,0,1,0-2.49,2.91C1383.21,504.17,1384.1,502.8,1384.1,501.26Z"/><path class="cls-3" d="M1392.67,505V503.9a3.18,3.18,0,0,1-2.54,1.31c-2,0-3.34-1.49-3.34-3.94s1.37-3.95,3.34-3.95a3.15,3.15,0,0,1,2.54,1.32v-4h1.17V505Zm0-2v-3.4a2.81,2.81,0,0,0-2.26-1.22c-1.5,0-2.41,1.25-2.41,2.91s.91,2.9,2.41,2.9A2.78,2.78,0,0,0,1392.67,503Z"/><path class="cls-3" d="M1401.24,505V504a3.63,3.63,0,0,1-2.67,1.25,2.11,2.11,0,0,1-2.4-2.4v-5.3h1.17v4.94c0,1.33.67,1.72,1.68,1.72a2.85,2.85,0,0,0,2.22-1.14v-5.52h1.17V505Z"/><path class="cls-3" d="M1404.31,501.26a3.71,3.71,0,0,1,3.75-3.94,3.22,3.22,0,0,1,2.75,1.31l-.78.71a2.23,2.23,0,0,0-1.91-1,2.92,2.92,0,0,0,0,5.81,2.26,2.26,0,0,0,1.91-1l.78.71a3.22,3.22,0,0,1-2.75,1.31A3.71,3.71,0,0,1,1404.31,501.26Z"/><path class="cls-3" d="M1412.67,503.45v-4.92h-1.24v-1h1.24v-2.06h1.17v2.06h1.53v1h-1.53v4.67c0,.56.25,1,.76,1a1.15,1.15,0,0,0,.8-.31l.34.87a1.9,1.9,0,0,1-1.4.48A1.54,1.54,0,0,1,1412.67,503.45Z"/><path class="cls-3" d="M1421.08,505V494.64h3.54a5.19,5.19,0,1,1,0,10.38Zm7.53-5.18a3.8,3.8,0,0,0-4-4h-2.25v8.08h2.25A3.82,3.82,0,0,0,1428.61,499.84Z"/><path class="cls-3" d="M1431.48,501.26a3.76,3.76,0,0,1,3.7-3.94c2.28,0,3.61,1.77,3.61,4v.3h-6.08a2.64,2.64,0,0,0,2.71,2.59,3.28,3.28,0,0,0,2.32-.95l.56.77a4.12,4.12,0,0,1-3,1.15A3.73,3.73,0,0,1,1431.48,501.26Zm3.69-3a2.51,2.51,0,0,0-2.46,2.51h4.93A2.43,2.43,0,0,0,1435.17,498.28Z"/><path class="cls-3" d="M1442.68,505l-3.12-7.51h1.26l2.5,6.16,2.49-6.16h1.28L1444,505Z"/><path class="cls-3" d="M1447.86,501.26a3.76,3.76,0,0,1,3.71-3.94c2.27,0,3.61,1.77,3.61,4v.3h-6.09a2.65,2.65,0,0,0,2.71,2.59,3.27,3.27,0,0,0,2.32-.95l.56.77a4.12,4.12,0,0,1-3,1.15A3.73,3.73,0,0,1,1447.86,501.26Zm3.69-3a2.52,2.52,0,0,0-2.46,2.51H1454A2.45,2.45,0,0,0,1451.55,498.28Z"/><path class="cls-3" d="M1457.06,505V494.64h1.16V505Z"/><path class="cls-3" d="M1460.12,501.26a3.73,3.73,0,1,1,3.72,3.95A3.69,3.69,0,0,1,1460.12,501.26Zm6.21,0a2.53,2.53,0,1,0-2.49,2.91C1465.44,504.17,1466.33,502.8,1466.33,501.26Z"/><path class="cls-3" d="M1470.62,503.89v4h-1.17V497.51h1.17v1.12a3.14,3.14,0,0,1,2.54-1.31c2,0,3.34,1.49,3.34,3.94s-1.37,3.95-3.34,3.95A3.08,3.08,0,0,1,1470.62,503.89Zm4.65-2.63c0-1.67-.9-2.9-2.41-2.9a2.79,2.79,0,0,0-2.24,1.2V503a2.78,2.78,0,0,0,2.24,1.22C1474.37,504.17,1475.27,502.92,1475.27,501.26Z"/><path class="cls-3" d="M1487.43,505v-5.1c0-.95-.43-1.56-1.39-1.56a2.63,2.63,0,0,0-2,1.15V505h-1.17v-5.1c0-.95-.4-1.56-1.38-1.56a2.61,2.61,0,0,0-2,1.17V505h-1.17v-7.51h1.17v1.09a3.22,3.22,0,0,1,2.43-1.28,1.93,1.93,0,0,1,2,1.4,3.17,3.17,0,0,1,2.52-1.4c1.37,0,2.1.76,2.1,2.27V505Z"/><path class="cls-3" d="M1490.49,501.26a3.76,3.76,0,0,1,3.7-3.94c2.27,0,3.61,1.77,3.61,4v.3h-6.08a2.64,2.64,0,0,0,2.7,2.59,3.27,3.27,0,0,0,2.32-.95l.56.77a4.1,4.1,0,0,1-3,1.15A3.72,3.72,0,0,1,1490.49,501.26Zm3.68-3a2.51,2.51,0,0,0-2.45,2.51h4.93A2.44,2.44,0,0,0,1494.17,498.28Z"/><path class="cls-3" d="M1504.75,505V500.1c0-1.32-.67-1.74-1.68-1.74a2.89,2.89,0,0,0-2.22,1.17V505h-1.17v-7.51h1.17v1.09a3.69,3.69,0,0,1,2.67-1.28,2.13,2.13,0,0,1,2.4,2.43V505Z"/><path class="cls-3" d="M1508.49,503.45v-4.92h-1.25v-1h1.25v-2.06h1.16v2.06h1.53v1h-1.53v4.67c0,.56.25,1,.76,1a1.15,1.15,0,0,0,.8-.31l.34.87a1.9,1.9,0,0,1-1.4.48A1.54,1.54,0,0,1,1508.49,503.45Z"/><line class="cls-20" x1="1358.52" y1="165.01" x2="1324.49" y2="165.01"/><line class="cls-20" x1="1358.52" y1="250.15" x2="1324.49" y2="250.15"/><line class="cls-20" x1="1358.52" y1="335.29" x2="1324.49" y2="335.29"/><line class="cls-20" x1="1358.52" y1="466.49" x2="1324.49" y2="466.49"/><path class="cls-3" d="M1224.31,75.25a8.28,8.28,0,0,1-5.67-2,6.61,6.61,0,0,1-2.22-5.23V54.15h4v13.6a3.51,3.51,0,0,0,.93,2.57,5,5,0,0,0,5.82,0,3.52,3.52,0,0,0,.94-2.57V54.15h4.07V68.07A6.6,6.6,0,0,1,1230,73.3,8.33,8.33,0,0,1,1224.31,75.25Z"/><path class="cls-3" d="M1239.09,64.26c0,.39.26.71.79,1a10.21,10.21,0,0,0,1.9.65,19.47,19.47,0,0,1,2.25.71,4.27,4.27,0,0,1,1.9,1.43,3.92,3.92,0,0,1,.79,2.51A4.08,4.08,0,0,1,1245,74a7.13,7.13,0,0,1-4.24,1.22q-4.56,0-6.21-3.51l3.31-1.87a2.74,2.74,0,0,0,2.9,1.93c1.36,0,2-.43,2-1.28,0-.39-.27-.71-.79-1a12.22,12.22,0,0,0-1.9-.66,19.7,19.7,0,0,1-2.25-.74,4.63,4.63,0,0,1-1.91-1.4,3.71,3.71,0,0,1-.78-2.41,4.15,4.15,0,0,1,1.61-3.45,6.36,6.36,0,0,1,4-1.25,6.73,6.73,0,0,1,3.28.81,6,6,0,0,1,2.33,2.32l-3.25,1.77a2.43,2.43,0,0,0-2.36-1.5,2.2,2.2,0,0,0-1.23.32A1,1,0,0,0,1239.09,64.26Z"/><path class="cls-3" d="M1260.2,60.06H1264V74.84h-3.81V73.1a5.83,5.83,0,0,1-4.82,2.15,6.69,6.69,0,0,1-5.07-2.26,8.33,8.33,0,0,1,0-11.08,6.69,6.69,0,0,1,5.07-2.26,5.81,5.81,0,0,1,4.82,2.16Zm-7,10.39a4.27,4.27,0,0,0,5.87,0,4.43,4.43,0,0,0,0-6,4.27,4.27,0,0,0-5.87,0,4.49,4.49,0,0,0,0,6Z"/><path class="cls-3" d="M1278.79,60.06h3.72V74.13a6.28,6.28,0,0,1-2.26,5.23,8.5,8.5,0,0,1-5.45,1.81,9.3,9.3,0,0,1-4.22-.92,6.42,6.42,0,0,1-2.79-2.69L1271,75.7a4.68,4.68,0,0,0,6.71,1.12,3.47,3.47,0,0,0,1-2.69v-1.6a5.58,5.58,0,0,1-4.73,2.25,7,7,0,0,1-5.25-2.2,7.84,7.84,0,0,1,0-10.72,7,7,0,0,1,5.23-2.21,5.59,5.59,0,0,1,4.73,2.24Zm-7.11,10.07a4.47,4.47,0,0,0,5.94,0,3.89,3.89,0,0,0,1.17-2.92,3.85,3.85,0,0,0-1.17-2.88,4.44,4.44,0,0,0-5.94,0,3.85,3.85,0,0,0-1.17,2.88A3.89,3.89,0,0,0,1271.68,70.13Z"/><path class="cls-3" d="M1289.19,69q.76,2.78,4.17,2.78a3.91,3.91,0,0,0,3.31-1.48l3.07,1.77a7.32,7.32,0,0,1-6.44,3.16,8,8,0,0,1-5.88-2.21A7.8,7.8,0,0,1,1293,59.65a7.08,7.08,0,0,1,5.37,2.24,7.8,7.8,0,0,1,2.11,5.56,8.84,8.84,0,0,1-.15,1.57Zm-.06-3h7.54a3.58,3.58,0,0,0-1.35-2.24,3.8,3.8,0,0,0-2.32-.74,4,4,0,0,0-2.54.78A3.77,3.77,0,0,0,1289.13,66.06Z"/><path class="cls-3" d="M1323.12,73a7.87,7.87,0,1,1,2.28-5.54A7.48,7.48,0,0,1,1323.12,73Zm-8.41-2.61a4.13,4.13,0,0,0,5.72,0,4.28,4.28,0,0,0,0-5.86,4.13,4.13,0,0,0-5.72,0,4.36,4.36,0,0,0,0,5.86Z"/><path class="cls-3" d="M1335.57,57.4q-3.13-.24-3.14,2.51v.15h3.14v3.67h-3.14V74.84h-3.81V63.73h-2.13V60.06h2.13v-.15a6.22,6.22,0,0,1,1.74-4.76c1.17-1.08,2.9-1.55,5.21-1.41Z"/><path class="cls-2" d="M1357.23,58.05H1349V63h8v3.9h-8v8h-4.07V54.15h12.35Z"/><path class="cls-2" d="M1369.79,60.06h3.82V74.84h-3.82V73.18a4.91,4.91,0,0,1-4.4,2.07,5.37,5.37,0,0,1-4-1.62,6.19,6.19,0,0,1-1.58-4.49V60.06h3.82v8.6a3,3,0,0,0,.79,2.26,2.91,2.91,0,0,0,2.13.79,3.15,3.15,0,0,0,2.37-.92,3.82,3.82,0,0,0,.88-2.75Z"/><path class="cls-2" d="M1385.31,59.65a5.37,5.37,0,0,1,4,1.62,6.2,6.2,0,0,1,1.58,4.5v9.07h-3.82v-8.6a3,3,0,0,0-.79-2.26,3,3,0,0,0-2.13-.79,3.15,3.15,0,0,0-2.37.92,3.82,3.82,0,0,0-.88,2.75v8h-3.82V60.06h3.82v1.66A4.91,4.91,0,0,1,1385.31,59.65Z"/><path class="cls-2" d="M1405.35,54.15h3.81V74.84h-3.81V73.1a5.74,5.74,0,0,1-4.79,2.15,6.72,6.72,0,0,1-5.1-2.26,8.33,8.33,0,0,1,0-11.08,6.72,6.72,0,0,1,5.1-2.26,5.72,5.72,0,0,1,4.79,2.16Zm-7,16.3a4.27,4.27,0,0,0,5.87,0,4.49,4.49,0,0,0,0-6,4.27,4.27,0,0,0-5.87,0,4.43,4.43,0,0,0,0,6Z"/><path class="cls-2" d="M1416.05,64.26q0,.58.78,1a10.6,10.6,0,0,0,1.91.65,19.47,19.47,0,0,1,2.25.71,4.33,4.33,0,0,1,1.9,1.43,4,4,0,0,1,.79,2.51A4.08,4.08,0,0,1,1422,74a7.14,7.14,0,0,1-4.25,1.22q-4.55,0-6.2-3.51l3.31-1.87a2.73,2.73,0,0,0,2.89,1.93c1.36,0,2-.43,2-1.28q0-.58-.78-1a12,12,0,0,0-1.91-.66,20.22,20.22,0,0,1-2.24-.74,4.63,4.63,0,0,1-1.91-1.4,3.71,3.71,0,0,1-.78-2.41,4.12,4.12,0,0,1,1.61-3.45,6.35,6.35,0,0,1,4-1.25,6.67,6.67,0,0,1,3.28.81,5.93,5.93,0,0,1,2.34,2.32l-3.25,1.77a2.43,2.43,0,0,0-2.37-1.5,2.19,2.19,0,0,0-1.22.32A1,1,0,0,0,1416.05,64.26Z"/><path class="cls-2" d="M1445.19,74.84,1441,67.66h-3.09v7.18h-4.08V54.15h8.28A6.86,6.86,0,0,1,1449,61a6.28,6.28,0,0,1-1.1,3.56A6.93,6.93,0,0,1,1445,67l4.58,7.8ZM1437.92,58v6.12h4.2a2.59,2.59,0,0,0,2-.9,3.11,3.11,0,0,0,.83-2.17,3.06,3.06,0,0,0-.83-2.16,2.62,2.62,0,0,0-2-.89Z"/><path class="cls-2" d="M1453.71,58.29a2.39,2.39,0,0,1-2.34-2.34,2.25,2.25,0,0,1,.7-1.65,2.19,2.19,0,0,1,1.64-.71,2.24,2.24,0,0,1,1.67.71,2.28,2.28,0,0,1,.69,1.65,2.37,2.37,0,0,1-2.36,2.34Zm-1.9,16.55V60.06h3.82V74.84Z"/><path class="cls-2" d="M1462.51,64.26c0,.39.26.71.79,1a10.21,10.21,0,0,0,1.9.65,19.47,19.47,0,0,1,2.25.71,4.36,4.36,0,0,1,1.91,1.43,4,4,0,0,1,.78,2.51,4.08,4.08,0,0,1-1.7,3.51,7.11,7.11,0,0,1-4.24,1.22q-4.56,0-6.21-3.51l3.31-1.87a2.74,2.74,0,0,0,2.9,1.93c1.36,0,2-.43,2-1.28,0-.39-.26-.71-.79-1a11.86,11.86,0,0,0-1.9-.66,19.7,19.7,0,0,1-2.25-.74,4.6,4.6,0,0,1-1.9-1.4,3.66,3.66,0,0,1-.79-2.41,4.15,4.15,0,0,1,1.61-3.45,6.38,6.38,0,0,1,4-1.25,6.73,6.73,0,0,1,3.28.81,6,6,0,0,1,2.33,2.32l-3.25,1.77a2.43,2.43,0,0,0-2.36-1.5,2.23,2.23,0,0,0-1.23.32A1,1,0,0,0,1462.51,64.26Z"/><path class="cls-2" d="M1475.61,69q.77,2.78,4.17,2.78a3.93,3.93,0,0,0,3.31-1.48l3.07,1.77a7.33,7.33,0,0,1-6.44,3.16,8,8,0,0,1-5.89-2.21,8.19,8.19,0,0,1,0-11.16,7.52,7.52,0,0,1,5.62-2.23,7,7,0,0,1,5.36,2.24,7.81,7.81,0,0,1,2.12,5.56,8.84,8.84,0,0,1-.15,1.57Zm-.06-3h7.54a3.58,3.58,0,0,0-1.35-2.24,3.8,3.8,0,0,0-2.32-.74,4,4,0,0,0-2.54.78A3.77,3.77,0,0,0,1475.55,66.06Z"/><path class="cls-2" d="M1500.64,54.15h3.82V74.84h-3.82V73.1a5.74,5.74,0,0,1-4.79,2.15,6.69,6.69,0,0,1-5.09-2.26,8.3,8.3,0,0,1,0-11.08,6.69,6.69,0,0,1,5.09-2.26,5.72,5.72,0,0,1,4.79,2.16Zm-7,16.3a4,4,0,0,0,2.94,1.17,3.93,3.93,0,0,0,2.93-1.17,4.49,4.49,0,0,0,0-6,3.93,3.93,0,0,0-2.93-1.17,4,4,0,0,0-2.94,1.17,4.46,4.46,0,0,0,0,6Z"/></svg>