<svg id="Layer_1" data-name="Layer 1" xmlns="http://www.w3.org/2000/svg" viewBox="0 0 1741.25 806.34"><defs><style>.cls-1{fill:#13131f;}.cls-2{fill:#d55fff;}.cls-3{fill:#fff;}.cls-4{fill:#30e4ff;}.cls-5{fill:#883cff;}.cls-6{fill:#1f51fe;}.cls-7{fill:#74b3ff;}.cls-20,.cls-8{fill:none;stroke-miterlimit:10;}.cls-8{stroke:#fff;}.cls-9{fill:#ef4136;}.cls-10{fill:#fbb040;}.cls-11{fill:#7fde59;}.cls-12{fill:#d15cfb;}.cls-13{fill:#ff9c63;}.cls-14{fill:#74affb;}.cls-15{fill:#5fe3e8;}.cls-16{fill:#ef6193;}.cls-17{fill:#f933bc;}.cls-18{fill:#2d4beb;}.cls-19{fill:#8b3fff;}.cls-20{stroke:#34343f;stroke-width:2px;}</style></defs><rect class="cls-1" width="1741.25" height="806.34"/><path class="cls-2" d="M74,196.85l.88-1.14a5.08,5.08,0,0,0,3.78,1.71c2.14,0,2.82-1.15,2.82-2.07,0-3.09-7.1-1.38-7.1-5.66,0-2,1.76-3.33,4.12-3.33A5.65,5.65,0,0,1,82.77,188l-.9,1.1a4.59,4.59,0,0,0-3.47-1.44c-1.44,0-2.47.77-2.47,1.91,0,2.69,7.11,1.15,7.11,5.63,0,1.74-1.19,3.52-4.43,3.52A6,6,0,0,1,74,196.85Z"/><path class="cls-2" d="M84.71,194.18A4.34,4.34,0,0,1,89,189.63c2.63,0,4.18,2.05,4.18,4.66v.34h-7a3.07,3.07,0,0,0,3.13,3,3.8,3.8,0,0,0,2.68-1.1l.65.88a4.72,4.72,0,0,1-3.45,1.33A4.31,4.31,0,0,1,84.71,194.18ZM89,190.75a2.89,2.89,0,0,0-2.84,2.89h5.71A2.82,2.82,0,0,0,89,190.75Z"/><path class="cls-2" d="M94.84,194.18a4.34,4.34,0,0,1,4.28-4.55c2.63,0,4.17,2.05,4.17,4.66v.34h-7a3.07,3.07,0,0,0,3.13,3,3.8,3.8,0,0,0,2.68-1.1l.65.88a4.76,4.76,0,0,1-3.46,1.33A4.3,4.3,0,0,1,94.84,194.18Zm4.26-3.43a2.89,2.89,0,0,0-2.84,2.89H102A2.81,2.81,0,0,0,99.1,190.75Z"/><path class="cls-2" d="M111.76,198.54v-1.3a3.64,3.64,0,0,1-2.93,1.51c-2.26,0-3.86-1.72-3.86-4.55s1.58-4.57,3.86-4.57a3.64,3.64,0,0,1,2.93,1.53v-4.62h1.35v12Zm0-2.36v-3.94a3.22,3.22,0,0,0-2.6-1.4c-1.75,0-2.79,1.44-2.79,3.36s1,3.35,2.79,3.35A3.2,3.2,0,0,0,111.76,196.18Z"/><path class="cls-2" d="M116.15,200.82l-.66-.56a2.68,2.68,0,0,0,1.17-1.67.76.76,0,0,1-.25,0,.86.86,0,0,1-.87-.92,1,1,0,0,1,1-1,1.22,1.22,0,0,1,1.13,1.36A3.47,3.47,0,0,1,116.15,200.82Z"/><path class="cls-2" d="M124.64,198.54v-12h4.83a3.62,3.62,0,1,1,0,7.23h-3.33v4.77Zm7-8.39a2.22,2.22,0,0,0-2.39-2.28h-3.15v4.57h3.15A2.23,2.23,0,0,0,131.68,190.15Z"/><path class="cls-2" d="M135.15,198.54v-8.69h1.35v1.4a3.68,3.68,0,0,1,2.89-1.58v1.38a2.76,2.76,0,0,0-.54-.05,3.17,3.17,0,0,0-2.35,1.38v6.16Z"/><path class="cls-2" d="M140.85,187.71a.91.91,0,0,1,.9-.92.92.92,0,0,1,.92.92.91.91,0,0,1-.92.9A.9.9,0,0,1,140.85,187.71Zm.23,10.83v-8.69h1.35v8.69Z"/><path class="cls-2" d="M147.45,198.54l-3.61-8.69h1.45l2.9,7.12,2.88-7.12h1.47l-3.61,8.69Z"/><path class="cls-2" d="M159.38,198.54v-1a3.76,3.76,0,0,1-2.88,1.2,2.89,2.89,0,0,1-3-2.88,2.84,2.84,0,0,1,3-2.86,3.63,3.63,0,0,1,2.88,1.19v-1.56c0-1.17-.94-1.84-2.2-1.84a3.44,3.44,0,0,0-2.66,1.21l-.63-.94a4.56,4.56,0,0,1,3.47-1.44c1.84,0,3.37.83,3.37,2.93v6Zm0-1.84v-1.64A2.9,2.9,0,0,0,157,194a1.91,1.91,0,1,0,0,3.79A2.91,2.91,0,0,0,159.38,196.7Z"/><path class="cls-2" d="M163.69,196.72V191h-1.43v-1.18h1.43v-2.38H165v2.38h1.77V191H165v5.4c0,.65.29,1.12.89,1.12a1.29,1.29,0,0,0,.91-.36l.4,1a2.18,2.18,0,0,1-1.62.56A1.78,1.78,0,0,1,163.69,196.72Z"/><path class="cls-2" d="M168.21,194.18a4.34,4.34,0,0,1,4.28-4.55c2.63,0,4.17,2.05,4.17,4.66v.34h-7a3.07,3.07,0,0,0,3.13,3,3.8,3.8,0,0,0,2.68-1.1l.65.88a4.74,4.74,0,0,1-3.45,1.33A4.31,4.31,0,0,1,168.21,194.18Zm4.26-3.43a2.89,2.89,0,0,0-2.84,2.89h5.7A2.81,2.81,0,0,0,172.47,190.75Z"/><path class="cls-2" d="M182.72,197.39l.71-1a3.91,3.91,0,0,0,2.86,1.25c1.33,0,2.05-.63,2.05-1.5,0-2.1-5.38-.81-5.38-4,0-1.35,1.17-2.5,3.24-2.5a4.41,4.41,0,0,1,3.22,1.26l-.63.94a3.39,3.39,0,0,0-2.59-1.1c-1.19,0-1.93.59-1.93,1.37,0,1.9,5.38.64,5.38,4,0,1.45-1.17,2.62-3.42,2.62A4.66,4.66,0,0,1,182.72,197.39Z"/><path class="cls-2" d="M197.28,198.54v-1a3.76,3.76,0,0,1-2.88,1.2,2.89,2.89,0,0,1-3-2.88,2.84,2.84,0,0,1,3-2.86,3.63,3.63,0,0,1,2.88,1.19v-1.56c0-1.17-.94-1.84-2.2-1.84a3.44,3.44,0,0,0-2.66,1.21l-.63-.94a4.56,4.56,0,0,1,3.47-1.44c1.84,0,3.37.83,3.37,2.93v6Zm0-1.84v-1.64a2.9,2.9,0,0,0-2.39-1.07,1.91,1.91,0,1,0,0,3.79A2.91,2.91,0,0,0,197.28,196.7Z"/><path class="cls-2" d="M201.32,198.54v-12h1.35v12Z"/><path class="cls-2" d="M204.87,194.18a4.34,4.34,0,0,1,4.28-4.55c2.63,0,4.17,2.05,4.17,4.66v.34h-7a3.07,3.07,0,0,0,3.13,3,3.8,3.8,0,0,0,2.68-1.1l.65.88a4.76,4.76,0,0,1-3.46,1.33A4.3,4.3,0,0,1,204.87,194.18Zm4.26-3.43a2.89,2.89,0,0,0-2.84,2.89H212A2.81,2.81,0,0,0,209.13,190.75Z"/><path class="cls-3" d="M75.19,231.51v-3c7.47-5.53,9.66-7.42,9.66-9.66,0-1.59-1.45-2.38-3-2.38a6.54,6.54,0,0,0-4.9,2.1L74.78,216a9.28,9.28,0,0,1,7-3c3.89,0,7,2.19,7,5.83,0,3.12-2.57,5.83-7.31,9.28h7.45v3.42Z"/><path class="cls-3" d="M91.23,222.39c0-4.71,2.32-9.41,7.55-9.41s7.56,4.7,7.56,9.41-2.36,9.45-7.56,9.45S91.23,227.1,91.23,222.39Zm11.14,0c0-3.36-1-6-3.59-6s-3.61,2.6-3.61,6,1,6,3.61,6S102.37,225.76,102.37,222.39Z"/><path class="cls-3" d="M119.78,231.51V218.26l-3,3.09L114.52,219l5.75-5.78h3.39v18.26Z"/><path class="cls-3" d="M126.37,222.42c0-5.53,3.12-9.44,8.52-9.44a8.25,8.25,0,0,1,5.39,1.88l-1.75,3a4.86,4.86,0,0,0-3.64-1.42c-2.69,0-4.57,2.27-4.57,5.17a2.36,2.36,0,0,0,0,.38,6,6,0,0,1,4.68-2.35c3.29,0,6.22,2.05,6.22,5.94,0,3.56-2.82,6.27-7,6.27C128.7,231.84,126.37,227.57,126.37,222.42Zm10.93,3.28c0-1.91-1.65-2.73-3.4-2.73a4.59,4.59,0,0,0-3.56,1.72c.17,1.75,1.15,3.7,3.7,3.7C136.15,228.39,137.3,227,137.3,225.7Z"/><path class="cls-3" d="M143,222.39c0-4.71,2.33-9.41,7.55-9.41s7.56,4.7,7.56,9.41-2.35,9.45-7.56,9.45S143,227.1,143,222.39Zm11.14,0c0-3.36-1-6-3.59-6s-3.61,2.6-3.61,6,1,6,3.61,6S154.13,225.76,154.13,222.39Z"/><path class="cls-3" d="M166.91,222.39c0-4.71,2.33-9.41,7.56-9.41s7.55,4.7,7.55,9.41-2.35,9.45-7.55,9.45S166.91,227.1,166.91,222.39Zm11.14,0c0-3.36-1-6-3.58-6s-3.62,2.6-3.62,6,1,6,3.62,6S178.05,225.76,178.05,222.39Z"/><path class="cls-3" d="M183.86,222.39c0-4.71,2.32-9.41,7.55-9.41s7.56,4.7,7.56,9.41-2.36,9.45-7.56,9.45S183.86,227.1,183.86,222.39Zm11.14,0c0-3.36-1-6-3.59-6s-3.61,2.6-3.61,6,1,6,3.61,6S195,225.76,195,222.39Z"/><path class="cls-3" d="M200.8,222.39c0-4.71,2.33-9.41,7.56-9.41s7.55,4.7,7.55,9.41-2.35,9.45-7.55,9.45S200.8,227.1,200.8,222.39Zm11.14,0c0-3.36-1-6-3.58-6s-3.62,2.6-3.62,6,1,6,3.62,6S211.94,225.76,211.94,222.39Z"/><path class="cls-2" d="M572.92,422V406.52h-5.51v-1.93h13.22v1.93h-5.54V422Z"/><path class="cls-2" d="M579.69,415.68c0-3.65,2.4-6.6,6.24-6.6s6.24,2.95,6.24,6.6-2.41,6.63-6.24,6.63S579.69,419.34,579.69,415.68Zm10.41,0c0-2.56-1.49-4.85-4.17-4.85s-4.21,2.29-4.21,4.85,1.52,4.88,4.21,4.88S590.1,418.27,590.1,415.68Z"/><path class="cls-2" d="M595.74,419.36v-8.25h-2.09v-1.72h2.09v-3.45h2v3.45h2.56v1.72H597.7V419c0,.94.42,1.61,1.28,1.61a1.87,1.87,0,0,0,1.33-.52l.57,1.46a3.19,3.19,0,0,1-2.35.81C596.68,422.31,595.74,421.24,595.74,419.36Z"/><path class="cls-2" d="M610.91,422v-1.44a5.46,5.46,0,0,1-4.18,1.75,4.19,4.19,0,0,1-4.41-4.17,4.13,4.13,0,0,1,4.41-4.15,5.25,5.25,0,0,1,4.18,1.72v-2.27c0-1.7-1.36-2.67-3.19-2.67a5,5,0,0,0-3.86,1.75l-.91-1.35a6.58,6.58,0,0,1,5-2.09c2.66,0,4.88,1.2,4.88,4.25V422Zm0-2.66V417a4.24,4.24,0,0,0-3.47-1.57,2.78,2.78,0,1,0,0,5.51A4.23,4.23,0,0,0,610.91,419.34Z"/><path class="cls-2" d="M616.78,422V404.59h2V422Z"/><path class="cls-2" d="M628.43,419.55l1.28-1.65a7.33,7.33,0,0,0,5.48,2.48c3.11,0,4.1-1.67,4.1-3,0-4.49-10.32-2-10.32-8.22,0-2.88,2.56-4.83,6-4.83a8.18,8.18,0,0,1,6.19,2.42l-1.3,1.6a6.67,6.67,0,0,0-5-2.09c-2.09,0-3.58,1.12-3.58,2.76,0,3.92,10.31,1.68,10.31,8.18,0,2.53-1.72,5.11-6.42,5.11A8.63,8.63,0,0,1,628.43,419.55Z"/><path class="cls-2" d="M653.2,422v-1.77a6.17,6.17,0,0,1-4.49,2.08c-2.63,0-4-1.28-4-4v-8.9h2v8.3c0,2.22,1.12,2.87,2.82,2.87a4.81,4.81,0,0,0,3.73-1.9v-9.27h2V422Z"/><path class="cls-2" d="M661,420.09v6.71h-1.95V409.39H661v1.88a5.28,5.28,0,0,1,4.26-2.19c3.32,0,5.61,2.5,5.61,6.6s-2.29,6.63-5.61,6.63A5.18,5.18,0,0,1,661,420.09Zm7.81-4.41c0-2.79-1.51-4.85-4.05-4.85a4.66,4.66,0,0,0-3.76,2v5.69a4.7,4.7,0,0,0,3.76,2C667.33,420.56,668.84,418.48,668.84,415.68Z"/><path class="cls-2" d="M676,420.09v6.71h-2V409.39h2v1.88a5.26,5.26,0,0,1,4.25-2.19c3.32,0,5.62,2.5,5.62,6.6s-2.3,6.63-5.62,6.63A5.16,5.16,0,0,1,676,420.09Zm7.8-4.41c0-2.79-1.51-4.85-4-4.85a4.66,4.66,0,0,0-3.76,2v5.69a4.7,4.7,0,0,0,3.76,2C682.26,420.56,683.77,418.48,683.77,415.68Z"/><path class="cls-2" d="M688.94,422V404.59h2V422Z"/><path class="cls-2" d="M694.43,425.16a3,3,0,0,0,1.07.21,1.82,1.82,0,0,0,1.88-1.33l.83-1.91-5.27-12.74h2.11l4.21,10.34,4.17-10.34h2.14l-6.31,15.17a3.76,3.76,0,0,1-3.71,2.56,6.1,6.1,0,0,1-1.44-.19Z"/><path class="cls-3" d="M470.79,474.37c0-12.6,7.12-21.53,19.41-21.53a18.79,18.79,0,0,1,12.3,4.31l-4,6.8a11,11,0,0,0-8.3-3.24c-6.11,0-10.42,5.18-10.42,11.79a4.39,4.39,0,0,0,.06.88A13.55,13.55,0,0,1,490.51,468c7.49,0,14.17,4.68,14.17,13.54,0,8.11-6.43,14.29-15.91,14.29C476.1,495.84,470.79,486.11,470.79,474.37Zm24.9,7.49c0-4.37-3.74-6.24-7.73-6.24a10.45,10.45,0,0,0-8.12,3.93c.38,4,2.62,8.43,8.43,8.43C493.07,488,495.69,484.8,495.69,481.86Z"/><path class="cls-3" d="M508.68,474.31c0-10.73,5.3-21.47,17.22-21.47s17.23,10.74,17.23,21.47-5.37,21.53-17.23,21.53S508.68,485.05,508.68,474.31Zm25.4,0c0-7.67-2.25-13.6-8.18-13.6s-8.24,5.93-8.24,13.6S519.91,488,525.9,488,534.08,482,534.08,474.31Z"/><path class="cls-3" d="M550.86,503.64l-3.43-2.81a10.6,10.6,0,0,0,4.81-5.86,4.82,4.82,0,0,1-1.19.19,4.24,4.24,0,0,1-4.24-4.5,5,5,0,0,1,4.87-5c2.93,0,5.61,2.31,5.61,6.37A14.52,14.52,0,0,1,550.86,503.64Z"/><path class="cls-3" d="M560.6,474.31c0-10.73,5.3-21.47,17.22-21.47s17.23,10.74,17.23,21.47-5.37,21.53-17.23,21.53S560.6,485.05,560.6,474.31Zm25.4,0c0-7.67-2.25-13.6-8.18-13.6s-8.23,5.93-8.23,13.6S571.83,488,577.82,488,586,482,586,474.31Z"/><path class="cls-3" d="M599.23,474.31c0-10.73,5.31-21.47,17.23-21.47s17.22,10.74,17.22,21.47-5.37,21.53-17.22,21.53S599.23,485.05,599.23,474.31Zm25.4,0c0-7.67-2.24-13.6-8.17-13.6s-8.24,5.93-8.24,13.6S610.47,488,616.46,488,624.63,482,624.63,474.31Z"/><path class="cls-3" d="M637.86,474.31c0-10.73,5.31-21.47,17.23-21.47s17.22,10.74,17.22,21.47-5.36,21.53-17.22,21.53S637.86,485.05,637.86,474.31Zm25.4,0c0-7.67-2.24-13.6-8.17-13.6s-8.24,5.93-8.24,13.6S649.1,488,655.09,488,663.26,482,663.26,474.31Z"/><path class="cls-3" d="M680.05,503.64l-3.43-2.81a10.54,10.54,0,0,0,4.8-5.86,4.64,4.64,0,0,1-1.18.19,4.24,4.24,0,0,1-4.24-4.5,5,5,0,0,1,4.86-5c2.94,0,5.62,2.31,5.62,6.37A14.52,14.52,0,0,1,680.05,503.64Z"/><path class="cls-3" d="M689.79,474.31c0-10.73,5.3-21.47,17.22-21.47s17.23,10.74,17.23,21.47-5.37,21.53-17.23,21.53S689.79,485.05,689.79,474.31Zm25.4,0c0-7.67-2.25-13.6-8.18-13.6s-8.24,5.93-8.24,13.6S701,488,707,488,715.19,482,715.19,474.31Z"/><path class="cls-3" d="M728.42,474.31c0-10.73,5.3-21.47,17.22-21.47s17.23,10.74,17.23,21.47-5.37,21.53-17.23,21.53S728.42,485.05,728.42,474.31Zm25.4,0c0-7.67-2.25-13.6-8.18-13.6s-8.23,5.93-8.23,13.6S739.65,488,745.64,488,753.82,482,753.82,474.31Z"/><path class="cls-3" d="M767.05,474.31c0-10.73,5.31-21.47,17.23-21.47s17.22,10.74,17.22,21.47-5.37,21.53-17.22,21.53S767.05,485.05,767.05,474.31Zm25.4,0c0-7.67-2.25-13.6-8.17-13.6s-8.24,5.93-8.24,13.6S778.28,488,784.28,488,792.45,482,792.45,474.31Z"/><path class="cls-4" d="M220.07,188.07l1.39-1.79a5,5,0,0,0,3.45,1.43c1.52,0,2.36-.66,2.36-1.6s-.77-1.44-2.51-1.44c-.53,0-1.37,0-1.56,0V182.3c.23,0,1.09,0,1.56,0,1.39,0,2.31-.41,2.31-1.33s-1-1.48-2.33-1.48a4.51,4.51,0,0,0-3.17,1.29l-1.33-1.67a6.17,6.17,0,0,1,4.78-2c2.93,0,4.73,1.32,4.73,3.4a3.06,3.06,0,0,1-2.74,2.85,3.14,3.14,0,0,1,2.93,3c0,2.15-1.93,3.67-4.94,3.67A6.26,6.26,0,0,1,220.07,188.07Z"/><path class="cls-4" d="M237.15,189.85v-2.59h-6v-2.1l5-7.83h3.68v7.58h1.62v2.35h-1.62v2.59Zm0-10.16-3.38,5.22h3.38Z"/><path class="cls-4" d="M242.37,180.3a3.18,3.18,0,0,1,6.36,0,3.18,3.18,0,0,1-6.36,0Zm4.65,0a1.49,1.49,0,1,0-1.48,1.61A1.49,1.49,0,0,0,247,180.3Zm-2.7,9.55,8-12.52h1.43l-8,12.52Zm4.93-2.87a3.19,3.19,0,1,1,3.18,3.09A3,3,0,0,1,249.25,187Zm4.68,0a1.5,1.5,0,1,0-3,0,1.5,1.5,0,1,0,3,0Z"/><path class="cls-4" d="M176.19,288.78v-2.59h-6v-2.1l5-7.83h3.68v7.58h1.62v2.35h-1.62v2.59Zm0-10.15-3.38,5.21h3.38Z"/><path class="cls-4" d="M181.41,279.23a3.18,3.18,0,0,1,6.36,0,3.18,3.18,0,0,1-6.36,0Zm4.65,0a1.49,1.49,0,1,0-1.48,1.61A1.49,1.49,0,0,0,186.06,279.23Zm-2.7,9.55,8-12.52h1.43l-8,12.52Zm4.93-2.87a3.19,3.19,0,1,1,3.18,3.1A3,3,0,0,1,188.29,285.91Zm4.68,0a1.5,1.5,0,1,0-3,0,1.5,1.5,0,1,0,3,0Z"/><path class="cls-4" d="M201.81,393l1.48-1.86a4.54,4.54,0,0,0,3.33,1.37c1.48,0,2.32-.84,2.32-1.86s-.82-1.85-2.25-1.85a3.61,3.61,0,0,0-2.63,1l-1.85-.49v-7.19h8.59v2.35h-5.93v3.06a4,4,0,0,1,2.76-1.05,3.91,3.91,0,0,1,4,4.05c0,2.67-2,4.34-5,4.34A6.27,6.27,0,0,1,201.81,393Z"/><path class="cls-4" d="M212.77,385.14a3.19,3.19,0,0,1,6.37,0,3.19,3.19,0,0,1-6.37,0Zm4.66,0a1.49,1.49,0,1,0-1.48,1.61A1.49,1.49,0,0,0,217.43,385.14Zm-2.71,9.55,8-12.52h1.43l-8,12.52Zm4.94-2.87a3.18,3.18,0,1,1,3.17,3.1A3,3,0,0,1,219.66,391.82Zm4.67,0a1.5,1.5,0,1,0-3,0,1.5,1.5,0,1,0,3,0Z"/><path class="cls-4" d="M236.14,493.87a3.6,3.6,0,0,1,2.69-3.21c-1.39-.49-2.48-1.39-2.48-3,0-2.35,2.5-3.3,4.82-3.3s4.83.95,4.83,3.3c0,1.56-1.11,2.46-2.5,3a3.61,3.61,0,0,1,2.7,3.21c0,2.32-2.4,3.47-5,3.47S236.14,496.21,236.14,493.87Zm7.36-.34c0-1-1.56-1.56-2.33-1.67-.78.11-2.32.62-2.32,1.67s1,1.52,2.32,1.52S243.5,494.45,243.5,493.53Zm-.22-5.41c0-.9-.89-1.42-2.11-1.42s-2.12.52-2.12,1.42,1.35,1.37,2.12,1.49C241.94,489.49,243.28,489.06,243.28,488.12Z"/><path class="cls-4" d="M247.33,487.56a3.18,3.18,0,0,1,6.36,0,3.18,3.18,0,0,1-6.36,0Zm4.65,0a1.48,1.48,0,0,0-1.48-1.67,1.65,1.65,0,0,0,0,3.28A1.47,1.47,0,0,0,252,487.56Zm-2.7,9.55,8-12.52h1.42l-8,12.52Zm4.94-2.87a3.18,3.18,0,1,1,3.17,3.1A3,3,0,0,1,254.22,494.24Zm4.67,0a1.5,1.5,0,1,0-3,0,1.5,1.5,0,1,0,3,0Z"/><path class="cls-4" d="M160.76,596.22v-9.08l-2.09,2.12-1.52-1.6,3.94-4h2.33v12.52Z"/><path class="cls-4" d="M165.28,590c0-3.79,2.14-6.47,5.84-6.47a5.62,5.62,0,0,1,3.69,1.29l-1.2,2.05a3.29,3.29,0,0,0-5.63,2.57,1.14,1.14,0,0,0,0,.26,4.08,4.08,0,0,1,3.21-1.61,4,4,0,0,1,4.26,4.07c0,2.44-1.93,4.3-4.79,4.3C166.87,596.45,165.28,593.52,165.28,590Zm7.49,2.25c0-1.31-1.13-1.87-2.33-1.87a3.13,3.13,0,0,0-2.44,1.18,2.5,2.5,0,0,0,2.53,2.53A2,2,0,0,0,172.77,592.24Z"/><path class="cls-4" d="M176.52,586.67a3.19,3.19,0,0,1,6.37,0,3.19,3.19,0,0,1-6.37,0Zm4.66,0a1.49,1.49,0,1,0-1.49,1.61A1.49,1.49,0,0,0,181.18,586.67Zm-2.71,9.55,8-12.52h1.43l-8,12.52Zm4.94-2.87a3.18,3.18,0,1,1,3.17,3.1A3,3,0,0,1,183.41,593.35Zm4.67,0a1.5,1.5,0,1,0-3,0,1.5,1.5,0,1,0,3,0Z"/><path class="cls-3" d="M269.34,193.58a14.35,14.35,0,0,1,0-16.59l.85.64a15.91,15.91,0,0,0,0,15.3Z"/><path class="cls-3" d="M275.59,190.06a6.09,6.09,0,0,1-4.3-2l.92-1.18a5.3,5.3,0,0,0,3.38,1.77v-4.58c-1.91-.53-3.9-1.17-3.9-3.48,0-2,1.63-3.32,3.9-3.45v-1.73h1.15v1.75a5.69,5.69,0,0,1,3.69,1.71L279.5,180a4.65,4.65,0,0,0-2.76-1.42v4.07c1.93.54,4,1.28,4,3.72,0,1.7-1.09,3.43-4,3.66v1.67h-1.15Zm0-7.68v-3.83c-1.35.09-2.29.86-2.29,2S274.31,182,275.59,182.38Zm1.15,2v4.26c1.78-.19,2.36-1.26,2.36-2.14C279.1,185.31,278.05,184.8,276.74,184.41Z"/><path class="cls-3" d="M282.57,183.6c0-3.06,1.36-6.46,4.79-6.46s4.79,3.4,4.79,6.46-1.37,6.47-4.79,6.47S282.57,186.64,282.57,183.6Zm8,0c0-2.5-.81-5.07-3.19-5.07s-3.19,2.57-3.19,5.07.81,5.08,3.19,5.08S290.55,186.09,290.55,183.6Z"/><path class="cls-3" d="M293.63,189a1,1,0,1,1,1,1A1,1,0,0,1,293.63,189Z"/><path class="cls-3" d="M297.83,189.85l5.05-11.13h-6.73v-1.39h8.53v1.07l-5.12,11.45Z"/><path class="cls-3" d="M306.17,183.6c0-3.06,1.35-6.46,4.78-6.46s4.79,3.4,4.79,6.46-1.37,6.47-4.79,6.47S306.17,186.64,306.17,183.6Zm8,0c0-2.5-.8-5.07-3.19-5.07s-3.19,2.57-3.19,5.07.81,5.08,3.19,5.08S314.14,186.09,314.14,183.6Z"/><path class="cls-3" d="M317,192.93a15.84,15.84,0,0,0,0-15.3l.84-.64a14.22,14.22,0,0,1,0,16.59Z"/><path class="cls-3" d="M219.38,292.52a14.37,14.37,0,0,1,0-16.6l.85.64a15.91,15.91,0,0,0,0,15.3Z"/><path class="cls-3" d="M225.63,289a6.09,6.09,0,0,1-4.3-2l.92-1.19a5.3,5.3,0,0,0,3.38,1.77V283c-1.91-.53-3.9-1.16-3.9-3.47,0-2,1.63-3.33,3.9-3.46v-1.72h1.15v1.74a5.69,5.69,0,0,1,3.69,1.71l-.93,1.14a4.65,4.65,0,0,0-2.76-1.42v4.07c1.93.55,4,1.28,4,3.72,0,1.71-1.09,3.43-4,3.66v1.67h-1.15Zm0-7.68v-3.83c-1.35.1-2.29.87-2.29,2S224.35,280.94,225.63,281.31Zm1.15,2v4.26c1.78-.19,2.36-1.26,2.36-2.14C229.14,284.24,228.09,283.73,226.78,283.34Z"/><path class="cls-3" d="M232.61,282.53c0-3.06,1.36-6.46,4.79-6.46s4.79,3.4,4.79,6.46S240.82,289,237.4,289,232.61,285.57,232.61,282.53Zm8,0c0-2.5-.81-5.07-3.19-5.07s-3.19,2.57-3.19,5.07.81,5.09,3.19,5.09S240.59,285,240.59,282.53Z"/><path class="cls-3" d="M243.67,287.94a1,1,0,1,1,1,1A1,1,0,0,1,243.67,287.94Z"/><path class="cls-3" d="M248.42,287.49l.79-1.17a3.24,3.24,0,0,0,2.68,1.28c2.53,0,3.53-2.54,3.53-4.9a4.35,4.35,0,0,0,0-.51,4.46,4.46,0,0,1-3.53,1.95,3.8,3.8,0,0,1-4.11-4,4.11,4.11,0,0,1,4.38-4.09c3.5,0,4.84,3.06,4.84,6.47S255.4,289,251.89,289A4.36,4.36,0,0,1,248.42,287.49Zm6.92-6.55c-.13-1.56-1-3.5-3.13-3.5a2.74,2.74,0,0,0-2.87,2.65,2.59,2.59,0,0,0,2.89,2.7A3.73,3.73,0,0,0,255.34,280.94Z"/><path class="cls-3" d="M258.87,282.53c0-3.06,1.35-6.46,4.79-6.46s4.79,3.4,4.79,6.46-1.37,6.48-4.79,6.48S258.87,285.57,258.87,282.53Zm8,0c0-2.5-.81-5.07-3.19-5.07s-3.19,2.57-3.19,5.07.81,5.09,3.19,5.09S266.85,285,266.85,282.53Z"/><path class="cls-3" d="M269.7,291.86a15.77,15.77,0,0,0,0-15.3l.85-.64a14.28,14.28,0,0,1,0,16.6Z"/><path class="cls-2" d="M74.73,301V289h4.82a3.62,3.62,0,1,1,0,7.23H76.22V301Zm7-8.38a2.23,2.23,0,0,0-2.39-2.29H76.22v4.57h3.15A2.23,2.23,0,0,0,81.76,292.58Z"/><path class="cls-2" d="M91.1,301v-1.22a4.28,4.28,0,0,1-3.1,1.43,2.45,2.45,0,0,1-2.77-2.77v-6.13h1.35V298c0,1.53.77,2,1.94,2a3.34,3.34,0,0,0,2.58-1.31v-6.39h1.35V301Z"/><path class="cls-2" d="M95.14,301V289h1.35v4.62a3.63,3.63,0,0,1,2.94-1.53c2.26,0,3.86,1.8,3.86,4.57s-1.6,4.55-3.86,4.55a3.67,3.67,0,0,1-2.94-1.51V301Zm3.94-1c1.77,0,2.81-1.42,2.81-3.35s-1-3.36-2.81-3.36a3.24,3.24,0,0,0-2.59,1.4v3.94A3.19,3.19,0,0,0,99.08,300Z"/><path class="cls-2" d="M105.49,301V289h1.35v12Z"/><path class="cls-2" d="M109.3,290.13a.91.91,0,0,1,.9-.92.92.92,0,0,1,.92.92.91.91,0,0,1-.92.9A.9.9,0,0,1,109.3,290.13Zm.23,10.83v-8.69h1.35V301Z"/><path class="cls-2" d="M113.08,296.6a4.29,4.29,0,0,1,4.33-4.55,3.74,3.74,0,0,1,3.19,1.51l-.9.83a2.59,2.59,0,0,0-2.22-1.13c-1.85,0-3,1.42-3,3.34s1.15,3.37,3,3.37a2.64,2.64,0,0,0,2.22-1.13l.9.82a3.71,3.71,0,0,1-3.19,1.51A4.29,4.29,0,0,1,113.08,296.6Z"/><path class="cls-2" d="M126.46,299.27l.88-1.14a5,5,0,0,0,3.78,1.71c2.14,0,2.82-1.15,2.82-2.07,0-3.09-7.1-1.38-7.1-5.66,0-2,1.76-3.33,4.12-3.33a5.65,5.65,0,0,1,4.26,1.67l-.9,1.1a4.59,4.59,0,0,0-3.47-1.44c-1.44,0-2.46.77-2.46,1.91,0,2.7,7.1,1.15,7.1,5.63,0,1.74-1.19,3.52-4.42,3.52A6,6,0,0,1,126.46,299.27Z"/><path class="cls-2" d="M143.1,301v-1a3.76,3.76,0,0,1-2.88,1.2,2.89,2.89,0,0,1-3-2.87,2.84,2.84,0,0,1,3-2.86,3.62,3.62,0,0,1,2.88,1.18v-1.56c0-1.17-.94-1.84-2.19-1.84a3.46,3.46,0,0,0-2.67,1.21l-.63-.94a4.57,4.57,0,0,1,3.48-1.44c1.83,0,3.36.83,3.36,2.94v6Zm0-1.84v-1.63a2.91,2.91,0,0,0-2.39-1.08,1.91,1.91,0,1,0,0,3.79A2.91,2.91,0,0,0,143.1,299.12Z"/><path class="cls-2" d="M147.15,301V289h1.35v12Z"/><path class="cls-2" d="M150.69,296.6a4.35,4.35,0,0,1,4.28-4.55c2.63,0,4.17,2.05,4.17,4.66v.34h-7a3.07,3.07,0,0,0,3.13,3,3.8,3.8,0,0,0,2.68-1.1l.65.88a4.68,4.68,0,0,1-3.45,1.33A4.31,4.31,0,0,1,150.69,296.6Zm4.26-3.43a2.89,2.89,0,0,0-2.84,2.89h5.7A2.81,2.81,0,0,0,155,293.17Z"/><path class="cls-3" d="M75.19,333.93v-3c7.47-5.53,9.66-7.42,9.66-9.66,0-1.59-1.45-2.38-3-2.38A6.54,6.54,0,0,0,77,321l-2.21-2.57a9.28,9.28,0,0,1,7-3c3.89,0,7,2.19,7,5.83,0,3.12-2.57,5.83-7.31,9.28h7.45v3.42Z"/><path class="cls-3" d="M98.56,333.93v-3c7.48-5.53,9.67-7.42,9.67-9.66,0-1.59-1.46-2.38-3-2.38a6.54,6.54,0,0,0-4.9,2.1l-2.22-2.57a9.31,9.31,0,0,1,7-3c3.88,0,7,2.19,7,5.83,0,3.12-2.58,5.83-7.31,9.28h7.44v3.42Z"/><path class="cls-3" d="M123.09,333.93v-3.78h-8.73v-3.06l7.25-11.42H127v11.06h2.35v3.42H127v3.78Zm0-14.81-4.93,7.61h4.93Z"/><path class="cls-3" d="M130.92,324.81c0-4.71,2.32-9.41,7.55-9.41s7.56,4.7,7.56,9.41-2.36,9.45-7.56,9.45S130.92,329.52,130.92,324.81Zm11.14,0c0-3.36-1-6-3.59-6s-3.61,2.6-3.61,6,1,6,3.61,6S142.06,328.18,142.06,324.81Z"/><path class="cls-3" d="M154.84,324.81c0-4.71,2.33-9.41,7.56-9.41s7.55,4.7,7.55,9.41-2.35,9.45-7.55,9.45S154.84,329.52,154.84,324.81Zm11.14,0c0-3.36-1-6-3.58-6s-3.62,2.6-3.62,6,1,6,3.62,6S166,328.18,166,324.81Z"/><path class="cls-3" d="M171.79,324.81c0-4.71,2.32-9.41,7.55-9.41s7.56,4.7,7.56,9.41-2.36,9.45-7.56,9.45S171.79,329.52,171.79,324.81Zm11.14,0c0-3.36-1-6-3.59-6s-3.61,2.6-3.61,6,1,6,3.61,6S182.93,328.18,182.93,324.81Z"/><path class="cls-3" d="M188.73,324.81c0-4.71,2.33-9.41,7.55-9.41s7.56,4.7,7.56,9.41-2.35,9.45-7.56,9.45S188.73,329.52,188.73,324.81Zm11.14,0c0-3.36-1-6-3.59-6s-3.61,2.6-3.61,6,1,6,3.61,6S199.87,328.18,199.87,324.81Z"/><path class="cls-2" d="M77.7,403.38V392.71H73.9v-1.33H83v1.33H79.19v10.67Z"/><path class="cls-2" d="M82.35,399a4.35,4.35,0,0,1,4.29-4.56c2.62,0,4.17,2,4.17,4.66v.35h-7a3.06,3.06,0,0,0,3.13,3,3.82,3.82,0,0,0,2.68-1.1l.64.88a4.69,4.69,0,0,1-3.45,1.34A4.32,4.32,0,0,1,82.35,399Zm4.27-3.44a2.89,2.89,0,0,0-2.84,2.9h5.7A2.82,2.82,0,0,0,86.62,395.59Z"/><path class="cls-2" d="M98.42,403.38v-1a3.77,3.77,0,0,1-2.88,1.21,2.89,2.89,0,0,1-3-2.88,2.84,2.84,0,0,1,3-2.86A3.62,3.62,0,0,1,98.42,399v-1.56c0-1.17-.94-1.84-2.2-1.84a3.44,3.44,0,0,0-2.66,1.21l-.63-.94a4.56,4.56,0,0,1,3.47-1.44c1.84,0,3.37.83,3.37,2.94v6Zm0-1.84v-1.63A2.91,2.91,0,0,0,96,398.83a1.91,1.91,0,1,0,0,3.79A2.91,2.91,0,0,0,98.42,401.54Z"/><path class="cls-2" d="M113,403.38v-5.9c0-1.1-.48-1.8-1.6-1.8a3,3,0,0,0-2.3,1.33v6.37H107.7v-5.9c0-1.1-.47-1.8-1.6-1.8a3.06,3.06,0,0,0-2.29,1.35v6.35h-1.34v-8.69h1.34V396a3.75,3.75,0,0,1,2.81-1.48,2.23,2.23,0,0,1,2.34,1.62,3.64,3.64,0,0,1,2.91-1.62c1.59,0,2.43.89,2.43,2.63v6.28Z"/><path class="cls-2" d="M117.34,405.66l-.66-.55a2.69,2.69,0,0,0,1.16-1.68.72.72,0,0,1-.25,0,.86.86,0,0,1-.86-.92,1,1,0,0,1,1-1,1.22,1.22,0,0,1,1.14,1.37A3.45,3.45,0,0,1,117.34,405.66Z"/><path class="cls-2" d="M125.83,403.38v-12h7.86v1.33h-6.37v3.87h6.25v1.33h-6.25v5.47Z"/><path class="cls-2" d="M135.17,399a4.3,4.3,0,1,1,4.3,4.57A4.27,4.27,0,0,1,135.17,399Zm7.17,0c0-1.77-1-3.35-2.87-3.35s-2.9,1.58-2.9,3.35,1,3.36,2.9,3.36S142.34,400.81,142.34,399Z"/><path class="cls-2" d="M151.82,403.38v-1.22a4.26,4.26,0,0,1-3.09,1.44,2.45,2.45,0,0,1-2.77-2.78v-6.13h1.35v5.72c0,1.53.77,2,1.94,2a3.32,3.32,0,0,0,2.57-1.31v-6.39h1.35v8.69Z"/><path class="cls-2" d="M161.73,403.38v-5.69c0-1.52-.77-2-1.94-2a3.35,3.35,0,0,0-2.57,1.35v6.35h-1.35v-8.69h1.35V396a4.31,4.31,0,0,1,3.09-1.48,2.47,2.47,0,0,1,2.77,2.81v6.1Z"/><path class="cls-2" d="M172.08,403.38v-1.3a3.65,3.65,0,0,1-2.93,1.52c-2.27,0-3.87-1.73-3.87-4.56s1.58-4.57,3.87-4.57a3.65,3.65,0,0,1,2.93,1.53v-4.62h1.35v12Zm0-2.36v-3.94a3.28,3.28,0,0,0-2.61-1.4c-1.75,0-2.79,1.44-2.79,3.36s1,3.35,2.79,3.35A3.23,3.23,0,0,0,172.08,401Z"/><path class="cls-2" d="M175.62,399a4.35,4.35,0,0,1,4.28-4.56c2.63,0,4.18,2,4.18,4.66v.35h-7a3.06,3.06,0,0,0,3.13,3,3.8,3.8,0,0,0,2.68-1.1l.65.88a4.69,4.69,0,0,1-3.45,1.34A4.31,4.31,0,0,1,175.62,399Zm4.26-3.44a2.9,2.9,0,0,0-2.84,2.9h5.7A2.81,2.81,0,0,0,179.88,395.59Z"/><path class="cls-2" d="M186.25,403.38v-8.69h1.35v1.4a3.71,3.71,0,0,1,2.9-1.58v1.39a2.23,2.23,0,0,0-.54-.06,3.17,3.17,0,0,0-2.36,1.39v6.15Z"/><path class="cls-3" d="M74.45,433.75l2-2.6a7.3,7.3,0,0,0,5,2.08c2.22,0,3.45-1,3.45-2.33s-1.12-2.1-3.67-2.1c-.77,0-2,0-2.27.05v-3.5c.33,0,1.59,0,2.27,0,2,0,3.37-.6,3.37-1.94s-1.48-2.16-3.4-2.16a6.56,6.56,0,0,0-4.62,1.89l-2-2.44a9,9,0,0,1,7-2.9c4.27,0,6.9,1.91,6.9,4.95,0,2.3-2,3.81-4,4.16a4.6,4.6,0,0,1,4.27,4.38c0,3.15-2.82,5.37-7.2,5.37A9.13,9.13,0,0,1,74.45,433.75Z"/><path class="cls-3" d="M97.85,427.24c0-4.71,2.33-9.42,7.56-9.42s7.55,4.71,7.55,9.42-2.35,9.44-7.55,9.44S97.85,431.94,97.85,427.24Zm11.14,0c0-3.37-1-6-3.58-6s-3.62,2.6-3.62,6,1,6,3.62,6S109,430.6,109,427.24Z"/><path class="cls-3" d="M114.8,427.24c0-4.71,2.32-9.42,7.55-9.42s7.56,4.71,7.56,9.42-2.36,9.44-7.56,9.44S114.8,431.94,114.8,427.24Zm11.14,0c0-3.37-1-6-3.59-6s-3.61,2.6-3.61,6,1,6,3.61,6S125.94,430.6,125.94,427.24Z"/><path class="cls-3" d="M131.74,427.24c0-4.71,2.33-9.42,7.55-9.42s7.56,4.71,7.56,9.42-2.35,9.44-7.56,9.44S131.74,431.94,131.74,427.24Zm11.14,0c0-3.37-1-6-3.59-6s-3.61,2.6-3.61,6,1,6,3.61,6S142.88,430.6,142.88,427.24Z"/><path class="cls-3" d="M155.66,427.24c0-4.71,2.33-9.42,7.56-9.42s7.55,4.71,7.55,9.42-2.35,9.44-7.55,9.44S155.66,431.94,155.66,427.24Zm11.14,0c0-3.37-1-6-3.58-6s-3.62,2.6-3.62,6,1,6,3.62,6S166.8,430.6,166.8,427.24Z"/><path class="cls-3" d="M172.61,427.24c0-4.71,2.32-9.42,7.55-9.42s7.56,4.71,7.56,9.42-2.36,9.44-7.56,9.44S172.61,431.94,172.61,427.24Zm11.14,0c0-3.37-1-6-3.59-6s-3.61,2.6-3.61,6,1,6,3.61,6S183.75,430.6,183.75,427.24Z"/><path class="cls-3" d="M189.55,427.24c0-4.71,2.33-9.42,7.56-9.42s7.55,4.71,7.55,9.42-2.35,9.44-7.55,9.44S189.55,431.94,189.55,427.24Zm11.14,0c0-3.37-1-6-3.58-6s-3.62,2.6-3.62,6,1,6,3.62,6S200.69,430.6,200.69,427.24Z"/><path class="cls-2" d="M74.73,505.8v-12h1.49v10.67H81.8v1.33Z"/><path class="cls-2" d="M83.61,495a.91.91,0,1,1,1.82,0,.91.91,0,0,1-1.82,0Zm.24,10.83v-8.69H85.2v8.69Z"/><path class="cls-2" d="M87.34,501.45c0-2.83,1.58-4.56,3.86-4.56a3.56,3.56,0,0,1,2.92,1.52v-1.3h1.35v12H94.12v-4.62A3.56,3.56,0,0,1,91.2,506C88.92,506,87.34,504.25,87.34,501.45Zm6.78,2v-3.92a3.15,3.15,0,0,0-2.59-1.39c-1.75,0-2.77,1.42-2.77,3.35s1,3.36,2.77,3.36A3.18,3.18,0,0,0,94.12,503.41Z"/><path class="cls-2" d="M104.05,505.8v-1.22A4.28,4.28,0,0,1,101,506a2.45,2.45,0,0,1-2.77-2.77v-6.14h1.35v5.72c0,1.53.78,2,2,2a3.33,3.33,0,0,0,2.57-1.31v-6.39h1.35v8.69Z"/><path class="cls-2" d="M107.86,495a.92.92,0,0,1,.9-.92.93.93,0,0,1,.92.92.91.91,0,0,1-.92.9A.9.9,0,0,1,107.86,495Zm.24,10.83v-8.69h1.34v8.69Z"/><path class="cls-2" d="M118.44,505.8v-1.29a3.67,3.67,0,0,1-2.93,1.51c-2.27,0-3.87-1.73-3.87-4.56s1.58-4.57,3.87-4.57a3.64,3.64,0,0,1,2.93,1.53V493.8h1.35v12Zm0-2.36V499.5a3.28,3.28,0,0,0-2.61-1.4c-1.75,0-2.79,1.44-2.79,3.36s1,3.35,2.79,3.35A3.23,3.23,0,0,0,118.44,503.44Z"/><path class="cls-2" d="M122.25,495a.91.91,0,1,1,1.82,0,.91.91,0,0,1-1.82,0Zm.24,10.83v-8.69h1.34v8.69Z"/><path class="cls-2" d="M126.8,504V498.3h-1.44v-1.19h1.44v-2.37h1.35v2.37h1.76v1.19h-1.76v5.4c0,.64.29,1.11.88,1.11a1.3,1.3,0,0,0,.92-.36l.4,1a2.24,2.24,0,0,1-1.62.56A1.78,1.78,0,0,1,126.8,504Z"/><path class="cls-2" d="M131.55,508a2.07,2.07,0,0,0,.74.14,1.24,1.24,0,0,0,1.29-.92l.58-1.31-3.64-8.78H132l2.9,7.12,2.88-7.12h1.47l-4.35,10.45a2.6,2.6,0,0,1-2.56,1.77,4.63,4.63,0,0,1-1-.13Z"/><path class="cls-2" d="M140,508.09l-.66-.56a2.69,2.69,0,0,0,1.16-1.68.72.72,0,0,1-.25,0,.86.86,0,0,1-.86-.92,1,1,0,0,1,.95-1,1.23,1.23,0,0,1,1.14,1.37A3.48,3.48,0,0,1,140,508.09Z"/><path class="cls-2" d="M148.44,505.8v-12h7.86v1.33h-6.37V499h6.25v1.33h-6.25v4.14h6.37v1.33Z"/><path class="cls-2" d="M164.25,505.8l-2.61-3.56L159,505.8h-1.55l3.33-4.46-3.15-4.23h1.56l2.41,3.31,2.41-3.31h1.57l-3.15,4.23,3.35,4.46Z"/><path class="cls-2" d="M166.19,501.45a4.3,4.3,0,0,1,4.34-4.56,3.7,3.7,0,0,1,3.18,1.52l-.9.82a2.57,2.57,0,0,0-2.21-1.13c-1.85,0-3,1.42-3,3.35s1.15,3.36,3,3.36a2.61,2.61,0,0,0,2.21-1.13l.9.83a3.72,3.72,0,0,1-3.18,1.51A4.3,4.3,0,0,1,166.19,501.45Z"/><path class="cls-2" d="M181.49,505.8v-5.72c0-1.53-.8-2-2-2a3.42,3.42,0,0,0-2.57,1.35v6.35H175.6v-12H177v4.57a4.32,4.32,0,0,1,3.11-1.48,2.45,2.45,0,0,1,2.77,2.78v6.13Z"/><path class="cls-2" d="M191,505.8v-1a3.75,3.75,0,0,1-2.87,1.21,2.89,2.89,0,0,1-3-2.88,2.84,2.84,0,0,1,3-2.86,3.62,3.62,0,0,1,2.87,1.18V499.9c0-1.17-.93-1.84-2.19-1.84a3.44,3.44,0,0,0-2.66,1.21l-.63-.94a4.54,4.54,0,0,1,3.47-1.44c1.83,0,3.36.83,3.36,2.94v6Zm0-1.83v-1.64a2.91,2.91,0,0,0-2.39-1.08,1.91,1.91,0,1,0,0,3.79A2.93,2.93,0,0,0,191,504Z"/><path class="cls-2" d="M200.88,505.8v-5.68c0-1.53-.78-2-1.95-2a3.35,3.35,0,0,0-2.57,1.35v6.35H195v-8.69h1.35v1.26a4.31,4.31,0,0,1,3.09-1.48,2.47,2.47,0,0,1,2.77,2.81v6.1Z"/><path class="cls-2" d="M204.9,508l.69-1a3.3,3.3,0,0,0,2.82,1.19,2.49,2.49,0,0,0,2.79-2.61v-1.24a3.63,3.63,0,0,1-2.91,1.55c-2.27,0-3.87-1.69-3.87-4.5s1.58-4.52,3.87-4.52a3.6,3.6,0,0,1,2.91,1.53v-1.31h1.35v8.44c0,2.88-2,3.78-4.14,3.78A4.45,4.45,0,0,1,204.9,508Zm6.3-4.73v-3.8a3.21,3.21,0,0,0-2.59-1.4c-1.75,0-2.79,1.39-2.79,3.31s1,3.31,2.79,3.31A3.21,3.21,0,0,0,211.2,503.3Z"/><path class="cls-2" d="M214.74,501.45a4.35,4.35,0,0,1,4.28-4.56c2.63,0,4.18,2.06,4.18,4.66v.35h-7a3.07,3.07,0,0,0,3.14,3,3.75,3.75,0,0,0,2.67-1.1l.65.88a4.69,4.69,0,0,1-3.45,1.34A4.32,4.32,0,0,1,214.74,501.45ZM219,498a2.91,2.91,0,0,0-2.85,2.9h5.71A2.82,2.82,0,0,0,219,498Z"/><path class="cls-2" d="M224.62,504.65l.7-1a4,4,0,0,0,2.86,1.24c1.33,0,2-.63,2-1.49,0-2.11-5.38-.81-5.38-4,0-1.35,1.17-2.51,3.24-2.51a4.39,4.39,0,0,1,3.22,1.26l-.63.94a3.37,3.37,0,0,0-2.59-1.1c-1.19,0-1.92.6-1.92,1.37,0,1.91,5.37.65,5.37,4,0,1.46-1.16,2.63-3.41,2.63A4.65,4.65,0,0,1,224.62,504.65Z"/><path class="cls-3" d="M83.32,538.77V535H74.58v-3.06l7.26-11.42H87.2v11.06h2.36V535H87.2v3.78Zm0-14.81-4.93,7.61h4.93Z"/><path class="cls-3" d="M98.54,536.36l2.16-2.71a6.57,6.57,0,0,0,4.84,2c2.17,0,3.4-1.23,3.4-2.71s-1.21-2.71-3.29-2.71a5.25,5.25,0,0,0-3.83,1.48L99.11,531V520.51h12.54v3.42H103v4.47a5.9,5.9,0,0,1,9.88,4.38c0,3.88-2.9,6.32-7.31,6.32A9.08,9.08,0,0,1,98.54,536.36Z"/><path class="cls-3" d="M114.74,529.66c0-4.71,2.33-9.42,7.56-9.42s7.55,4.71,7.55,9.42-2.35,9.44-7.55,9.44S114.74,534.36,114.74,529.66Zm11.14,0c0-3.37-1-6-3.58-6s-3.62,2.6-3.62,6,1,6,3.62,6S125.88,533,125.88,529.66Z"/><path class="cls-3" d="M131.68,529.66c0-4.71,2.33-9.42,7.56-9.42s7.55,4.71,7.55,9.42-2.35,9.44-7.55,9.44S131.68,534.36,131.68,529.66Zm11.15,0c0-3.37-1-6-3.59-6s-3.61,2.6-3.61,6,1,6,3.61,6S142.83,533,142.83,529.66Z"/><path class="cls-3" d="M155.61,529.66c0-4.71,2.32-9.42,7.55-9.42s7.56,4.71,7.56,9.42-2.36,9.44-7.56,9.44S155.61,534.36,155.61,529.66Zm11.14,0c0-3.37-1-6-3.59-6s-3.61,2.6-3.61,6,1,6,3.61,6S166.75,533,166.75,529.66Z"/><path class="cls-3" d="M172.55,529.66c0-4.71,2.33-9.42,7.56-9.42s7.55,4.71,7.55,9.42-2.35,9.44-7.55,9.44S172.55,534.36,172.55,529.66Zm11.14,0c0-3.37-1-6-3.58-6s-3.62,2.6-3.62,6,1,6,3.62,6S183.69,533,183.69,529.66Z"/><path class="cls-3" d="M189.5,529.66c0-4.71,2.32-9.42,7.55-9.42s7.56,4.71,7.56,9.42-2.36,9.44-7.56,9.44S189.5,534.36,189.5,529.66Zm11.14,0c0-3.37-1-6-3.59-6s-3.61,2.6-3.61,6,1,6,3.61,6S200.64,533,200.64,529.66Z"/><path class="cls-2" d="M85,608.22v-9.88l-4.08,9.88h-.61l-4.07-9.88v9.88H74.73v-12h2.14l3.72,9,3.74-9h2.14v12Z"/><path class="cls-2" d="M94.66,608.22v-1a3.77,3.77,0,0,1-2.88,1.21,2.89,2.89,0,0,1-3-2.88,2.84,2.84,0,0,1,3-2.86,3.63,3.63,0,0,1,2.88,1.19v-1.57c0-1.17-.94-1.83-2.2-1.83a3.43,3.43,0,0,0-2.66,1.2l-.63-.93a4.52,4.52,0,0,1,3.47-1.44c1.84,0,3.37.82,3.37,2.93v6Zm0-1.83v-1.64a2.91,2.91,0,0,0-2.39-1.08,1.91,1.91,0,1,0,0,3.8A2.91,2.91,0,0,0,94.66,606.39Z"/><path class="cls-2" d="M98.71,608.22v-8.69h1.34v1.4a3.73,3.73,0,0,1,2.9-1.58v1.39a2.12,2.12,0,0,0-.54-.06,3.2,3.2,0,0,0-2.36,1.39v6.15Z"/><path class="cls-2" d="M110.56,608.22l-3.13-3.9L106,605.74v2.48h-1.35v-12H106v7.94l4.57-4.63h1.71l-3.85,3.94,3.87,4.75Z"/><path class="cls-2" d="M113.33,603.87a4.34,4.34,0,0,1,4.28-4.55c2.63,0,4.17,2,4.17,4.66v.34h-7a3.06,3.06,0,0,0,3.13,3,3.76,3.76,0,0,0,2.68-1.1l.65.89a4.72,4.72,0,0,1-3.45,1.33A4.31,4.31,0,0,1,113.33,603.87Zm4.26-3.44a2.9,2.9,0,0,0-2.84,2.9h5.7A2.82,2.82,0,0,0,117.59,600.43Z"/><path class="cls-2" d="M124.23,606.4v-5.68h-1.44v-1.19h1.44v-2.37h1.35v2.37h1.76v1.19h-1.76v5.4c0,.64.29,1.11.88,1.11a1.3,1.3,0,0,0,.92-.36l.39,1a2.21,2.21,0,0,1-1.62.56A1.78,1.78,0,0,1,124.23,606.4Z"/><path class="cls-2" d="M129,597.39a.91.91,0,1,1,1.82,0,.91.91,0,0,1-1.82,0Zm.24,10.83v-8.69h1.35v8.69Z"/><path class="cls-2" d="M139.16,608.22v-5.68c0-1.53-.77-2-1.94-2a3.39,3.39,0,0,0-2.58,1.35v6.35H133.3v-8.69h1.34v1.26a4.33,4.33,0,0,1,3.1-1.47,2.47,2.47,0,0,1,2.77,2.8v6.1Z"/><path class="cls-2" d="M143.19,610.45l.68-1a3.32,3.32,0,0,0,2.83,1.19,2.49,2.49,0,0,0,2.79-2.61v-1.24a3.65,3.65,0,0,1-2.92,1.55c-2.27,0-3.87-1.69-3.87-4.5s1.59-4.51,3.87-4.51a3.6,3.6,0,0,1,2.92,1.53v-1.32h1.35V608c0,2.88-2,3.78-4.14,3.78A4.43,4.43,0,0,1,143.19,610.45Zm6.3-4.73v-3.8a3.23,3.23,0,0,0-2.6-1.4c-1.74,0-2.78,1.39-2.78,3.31s1,3.31,2.78,3.31A3.22,3.22,0,0,0,149.49,605.72Z"/><path class="cls-3" d="M75.73,639.61l1.73-3a4.83,4.83,0,0,0,3.64,1.43c3,0,4.57-2.52,4.57-5.15v-.41A6,6,0,0,1,81,634.84c-3.28,0-6.24-2.05-6.24-5.94,0-3.56,2.85-6.27,7-6.27,5.53,0,7.86,4.27,7.86,9.45,0,5.5-3.1,9.41-8.49,9.41A8,8,0,0,1,75.73,639.61Zm9.91-9.8c-.16-1.76-1.15-3.73-3.72-3.73a3,3,0,0,0-3.23,2.69c0,1.91,1.67,2.73,3.37,2.73A4.68,4.68,0,0,0,85.64,629.81Z"/><path class="cls-3" d="M98.45,636.46c0-2.22,1.73-3.92,3.92-4.68-2-.72-3.62-2-3.62-4.3,0-3.42,3.65-4.82,7-4.82s7,1.4,7,4.82c0,2.27-1.62,3.58-3.65,4.3,2.19.76,3.95,2.46,3.95,4.68,0,3.39-3.51,5.06-7.34,5.06S98.45,639.88,98.45,636.46Zm10.73-.49c0-1.54-2.27-2.28-3.39-2.44-1.15.16-3.39.9-3.39,2.44,0,1.34,1.47,2.21,3.39,2.21S109.18,637.31,109.18,636Zm-.32-7.89c0-1.31-1.29-2.08-3.07-2.08s-3.09.77-3.09,2.08,2,2,3.09,2.16C106.91,630.08,108.86,629.45,108.86,628.08Z"/><path class="cls-3" d="M115,632.08c0-4.71,2.32-9.42,7.55-9.42s7.56,4.71,7.56,9.42-2.36,9.44-7.56,9.44S115,636.79,115,632.08Zm11.14,0c0-3.37-1-6-3.59-6s-3.61,2.6-3.61,6,1,6,3.61,6S126.13,635.44,126.13,632.08Z"/><path class="cls-3" d="M131.93,632.08c0-4.71,2.33-9.42,7.56-9.42s7.55,4.71,7.55,9.42-2.35,9.44-7.55,9.44S131.93,636.79,131.93,632.08Zm11.14,0c0-3.37-1-6-3.58-6s-3.62,2.6-3.62,6,1,6,3.62,6S143.07,635.44,143.07,632.08Z"/><path class="cls-3" d="M155.85,632.08c0-4.71,2.33-9.42,7.56-9.42s7.55,4.71,7.55,9.42-2.35,9.44-7.55,9.44S155.85,636.79,155.85,632.08Zm11.15,0c0-3.37-1-6-3.59-6s-3.61,2.6-3.61,6,1,6,3.61,6S167,635.44,167,632.08Z"/><path class="cls-3" d="M172.8,632.08c0-4.71,2.33-9.42,7.55-9.42s7.56,4.71,7.56,9.42-2.36,9.44-7.56,9.44S172.8,636.79,172.8,632.08Zm11.14,0c0-3.37-1-6-3.59-6s-3.61,2.6-3.61,6,1,6,3.61,6S183.94,635.44,183.94,632.08Z"/><path class="cls-3" d="M189.74,632.08c0-4.71,2.33-9.42,7.56-9.42s7.55,4.71,7.55,9.42-2.35,9.44-7.55,9.44S189.74,636.79,189.74,632.08Zm11.14,0c0-3.37-1-6-3.58-6s-3.62,2.6-3.62,6,1,6,3.62,6S200.88,635.44,200.88,632.08Z"/><path class="cls-3" d="M448,89.28H459.2v5H442.74V67.69H459v5H448v5.66h10.07v4.94H448Z"/><path class="cls-3" d="M469.45,94.29l-8.92-26.6h5.7l6.5,20.46,6.45-20.46h5.74l-9,26.6Z"/><path class="cls-3" d="M492.71,89.28h11.21v5H487.47V67.69h16.26v5h-11v5.66h10.07v4.94H492.71Z"/><path class="cls-3" d="M534.7,67.69v5h-7.18V94.29h-5.25V72.71h-7.14v-5Z"/><path class="cls-3" d="M550.13,91.92a10.13,10.13,0,1,1,2.93-7.13A9.74,9.74,0,0,1,550.13,91.92Zm-10.81-3.36A5,5,0,0,0,543,90a5,5,0,0,0,3.68-1.48,5.53,5.53,0,0,0,0-7.53A5,5,0,0,0,543,79.55,4.93,4.93,0,0,0,539.32,81a5.58,5.58,0,0,0,0,7.53Z"/><path class="cls-3" d="M574,94.29h-5.7l-6.92-8.63v8.63h-4.9V67.69h4.9v16l6.54-8.4h5.85l-7.63,9.39Z"/><path class="cls-3" d="M579.24,86.81q1,3.57,5.36,3.57a5,5,0,0,0,4.25-1.9l3.95,2.28a9.41,9.41,0,0,1-8.28,4.07A10.22,10.22,0,0,1,577,92a10,10,0,0,1,7.18-17.22,9.09,9.09,0,0,1,6.9,2.89,10,10,0,0,1,2.71,7.14,11.18,11.18,0,0,1-.19,2Zm-.08-3.8h9.69a4.58,4.58,0,0,0-1.73-2.89,5,5,0,0,0-3-1,5.16,5.16,0,0,0-3.27,1A4.81,4.81,0,0,0,579.16,83Z"/><path class="cls-3" d="M607.74,74.76a6.91,6.91,0,0,1,5.15,2.09,8,8,0,0,1,2,5.78V94.29H610V83.24a3.87,3.87,0,0,0-1-2.91,3.74,3.74,0,0,0-2.73-1,4,4,0,0,0-3,1.18A4.91,4.91,0,0,0,602.07,84V94.29h-4.9v-19h4.9v2.13A6.34,6.34,0,0,1,607.74,74.76Z"/><path class="cls-2" d="M639.39,67.69a12.13,12.13,0,0,1,9.14,3.84,14,14,0,0,1,0,18.93,12.12,12.12,0,0,1-9.14,3.83H628.83V67.69Zm0,21.59A7.36,7.36,0,0,0,645,87a9.34,9.34,0,0,0,0-12,7.36,7.36,0,0,0-5.62-2.3h-5.32V89.28Z"/><path class="cls-2" d="M658.12,73a3.08,3.08,0,0,1-3-3,2.94,2.94,0,0,1,.9-2.13,2.86,2.86,0,0,1,2.1-.91,3.07,3.07,0,0,1,3,3,2.86,2.86,0,0,1-.89,2.11A2.91,2.91,0,0,1,658.12,73Zm-2.43,21.27v-19h4.9v19Z"/><path class="cls-2" d="M669.45,80.69c0,.51.33.92,1,1.24a13.67,13.67,0,0,0,2.45.83,27.47,27.47,0,0,1,2.89.91,5.72,5.72,0,0,1,2.45,1.85,5.08,5.08,0,0,1,1,3.23,5.23,5.23,0,0,1-2.18,4.5,9.11,9.11,0,0,1-5.46,1.58q-5.85,0-8-4.53l4.25-2.39a3.52,3.52,0,0,0,3.72,2.47c1.75,0,2.63-.54,2.63-1.63,0-.51-.34-.92-1-1.24a14.72,14.72,0,0,0-2.45-.85,27.08,27.08,0,0,1-2.89-1,5.89,5.89,0,0,1-2.45-1.81,4.74,4.74,0,0,1-1-3.1,5.29,5.29,0,0,1,2.07-4.42,8.11,8.11,0,0,1,5.15-1.62,8.58,8.58,0,0,1,4.22,1,7.54,7.54,0,0,1,3,3l-4.18,2.28a3.12,3.12,0,0,0-3-1.94,2.74,2.74,0,0,0-1.57.42A1.3,1.3,0,0,0,669.45,80.69Z"/><path class="cls-2" d="M692.71,80h-4.3v7.9a1.9,1.9,0,0,0,.49,1.44,2.27,2.27,0,0,0,1.45.52,21.06,21.06,0,0,0,2.36,0v4.44c-3.37.38-5.75.07-7.13-1s-2.07-2.82-2.07-5.43V80H680.2V75.29h3.31V71.46l4.9-1.48v5.31h4.3Z"/><path class="cls-2" d="M701.37,78.56a5.08,5.08,0,0,1,2.26-2.73,6.86,6.86,0,0,1,3.51-.92v5.48a5.71,5.71,0,0,0-4,.91,4.34,4.34,0,0,0-1.77,3.91v9.08h-4.9v-19h4.9Z"/><path class="cls-2" d="M712.43,73a3.08,3.08,0,0,1-3-3,2.94,2.94,0,0,1,.9-2.13,2.88,2.88,0,0,1,2.11-.91,2.91,2.91,0,0,1,2.14.91,2.94,2.94,0,0,1,.9,2.13,2.87,2.87,0,0,1-.9,2.11A2.9,2.9,0,0,1,712.43,73ZM710,94.29v-19h4.91v19Z"/><path class="cls-2" d="M730.44,74.76A8.63,8.63,0,0,1,737,77.67a10.69,10.69,0,0,1,0,14.25,8.63,8.63,0,0,1-6.55,2.91,7.37,7.37,0,0,1-6.16-2.78v2.24h-4.9V67.69h4.9v9.85A7.37,7.37,0,0,1,730.44,74.76Zm-4.68,13.89a5.5,5.5,0,0,0,7.55,0,5.7,5.7,0,0,0,0-7.71,5.5,5.5,0,0,0-7.55,0,5.76,5.76,0,0,0,0,7.71Z"/><path class="cls-2" d="M755.71,75.29h4.9v19h-4.9V92.17a6.34,6.34,0,0,1-5.66,2.66,6.88,6.88,0,0,1-5.15-2.09,7.93,7.93,0,0,1-2-5.78V75.29h4.9V86.35a3.91,3.91,0,0,0,1,2.91,3.75,3.75,0,0,0,2.74,1,4.07,4.07,0,0,0,3-1.18,4.91,4.91,0,0,0,1.14-3.54Z"/><path class="cls-2" d="M776,80h-4.29v7.9a1.86,1.86,0,0,0,.49,1.44,2.25,2.25,0,0,0,1.45.52,20.88,20.88,0,0,0,2.35,0v4.44c-3.37.38-5.74.07-7.12-1s-2.07-2.82-2.07-5.43V80h-3.31V75.29h3.31V71.46l4.9-1.48v5.31H776Z"/><path class="cls-2" d="M781.85,73a3.06,3.06,0,0,1-3-3,3,3,0,0,1,.89-2.13,2.89,2.89,0,0,1,2.11-.91,2.93,2.93,0,0,1,2.15.91,3,3,0,0,1,.89,2.13,3.06,3.06,0,0,1-3,3Zm-2.43,21.27v-19h4.9v19Z"/><path class="cls-2" d="M805,91.92a10.13,10.13,0,1,1,2.93-7.13A9.74,9.74,0,0,1,805,91.92Zm-10.81-3.36a5.3,5.3,0,0,0,7.35,0,5.5,5.5,0,0,0,0-7.53,5.3,5.3,0,0,0-7.35,0,5.58,5.58,0,0,0,0,7.53Z"/><path class="cls-2" d="M821.94,74.76a6.9,6.9,0,0,1,5.15,2.09,8,8,0,0,1,2,5.78V94.29h-4.9V83.24a3.87,3.87,0,0,0-1-2.91,3.72,3.72,0,0,0-2.73-1,4.05,4.05,0,0,0-3,1.18A4.91,4.91,0,0,0,816.28,84V94.29h-4.9v-19h4.9v2.13A6.34,6.34,0,0,1,821.94,74.76Z"/><path class="cls-2" d="M1285.82,267.05V193.54a10,10,0,0,1,10-10h111.45a10,10,0,0,1,10,10v73.51a13.64,13.64,0,0,0-11.21-5.85H1297A13.65,13.65,0,0,0,1285.82,267.05Z"/><path class="cls-5" d="M1417.27,274.82V394a13.67,13.67,0,0,0-11.21-5.85H1297a13.68,13.68,0,0,0-11.21,5.85V274.82a10,10,0,0,1,10-10h111.45A10,10,0,0,1,1417.27,274.82Z"/><path class="cls-6" d="M1417.27,556.14V752.25H1285.82V556.14a10,10,0,0,1,10-10h111.45A10,10,0,0,1,1417.27,556.14Z"/><path class="cls-7" d="M1417.27,403V548.37a13.67,13.67,0,0,0-11.21-5.85H1297a13.68,13.68,0,0,0-11.21,5.85V403A11.22,11.22,0,0,1,1297,391.78h109A11.21,11.21,0,0,1,1417.27,403Z"/><rect class="cls-4" x="1476.38" y="195.15" width="84.88" height="30.15" rx="15.07"/><path class="cls-1" d="M1506.94,213.69l1.48-1.86a4.5,4.5,0,0,0,3.33,1.37c1.48,0,2.33-.84,2.33-1.86s-.83-1.86-2.26-1.86a3.63,3.63,0,0,0-2.63,1l-1.86-.49v-7.19h8.61v2.34H1510v3.07a4,4,0,0,1,6.78,3c0,2.67-2,4.34-5,4.34A6.24,6.24,0,0,1,1506.94,213.69Z"/><path class="cls-1" d="M1517.91,205.78a3.19,3.19,0,0,1,6.37,0,3.19,3.19,0,0,1-6.37,0Zm4.66,0a1.49,1.49,0,1,0-1.49,1.62A1.49,1.49,0,0,0,1522.57,205.78Zm-2.71,9.57,8-12.53h1.43l-8,12.53Zm4.94-2.88a3.19,3.19,0,1,1,3.18,3.1A3,3,0,0,1,1524.8,212.47Zm4.68,0a1.5,1.5,0,1,0-3,0,1.5,1.5,0,1,0,3,0Z"/><rect class="cls-4" x="1476.38" y="304.61" width="84.88" height="30.15" rx="15.07"/><path class="cls-1" d="M1501.16,324.8v-2.08c5.13-3.8,6.64-5.09,6.64-6.63,0-1.09-1-1.64-2-1.64a4.51,4.51,0,0,0-3.37,1.45l-1.52-1.77a6.41,6.41,0,0,1,4.83-2c2.67,0,4.79,1.5,4.79,4,0,2.14-1.77,4-5,6.36h5.11v2.35Z"/><path class="cls-1" d="M1512.17,318.55c0-3.23,1.6-6.46,5.18-6.46s5.19,3.23,5.19,6.46-1.62,6.48-5.19,6.48S1512.17,321.78,1512.17,318.55Zm7.64,0c0-2.31-.67-4.1-2.46-4.1s-2.47,1.79-2.47,4.1.67,4.11,2.47,4.11S1519.81,320.86,1519.81,318.55Z"/><path class="cls-1" d="M1523.64,315.24a3.19,3.19,0,0,1,6.37,0,3.19,3.19,0,0,1-6.37,0Zm4.66,0a1.49,1.49,0,1,0-1.48,1.62A1.49,1.49,0,0,0,1528.3,315.24Zm-2.7,9.56,8-12.53H1535l-8,12.53Zm4.94-2.87a3.19,3.19,0,1,1,3.17,3.1A3,3,0,0,1,1530.54,321.93Zm4.68,0a1.51,1.51,0,0,0-1.51-1.67,1.5,1.5,0,0,0-1.48,1.67,1.47,1.47,0,0,0,1.48,1.63A1.49,1.49,0,0,0,1535.22,321.93Z"/><rect class="cls-4" x="1476.38" y="414.07" width="84.88" height="30.15" rx="15.07"/><path class="cls-1" d="M1500.78,432.48l1.39-1.79a5,5,0,0,0,3.46,1.43c1.52,0,2.36-.66,2.36-1.6s-.77-1.44-2.52-1.44c-.52,0-1.37,0-1.55,0v-2.4c.22,0,1.09,0,1.55,0,1.4,0,2.32-.41,2.32-1.34s-1-1.48-2.33-1.48a4.49,4.49,0,0,0-3.18,1.3l-1.33-1.67a6.15,6.15,0,0,1,4.79-2c2.93,0,4.73,1.32,4.73,3.4a3.07,3.07,0,0,1-2.74,2.86,3.14,3.14,0,0,1,2.93,3c0,2.16-1.94,3.68-4.94,3.68A6.28,6.28,0,0,1,1500.78,432.48Z"/><path class="cls-1" d="M1512.05,428c0-3.24,1.59-6.47,5.18-6.47s5.19,3.23,5.19,6.47-1.62,6.48-5.19,6.48S1512.05,431.24,1512.05,428Zm7.64,0c0-2.31-.67-4.1-2.46-4.1s-2.48,1.79-2.48,4.1.68,4.11,2.48,4.11S1519.69,430.32,1519.69,428Z"/><path class="cls-1" d="M1523.52,424.7a3.19,3.19,0,0,1,6.37,0,3.19,3.19,0,0,1-6.37,0Zm4.66,0a1.49,1.49,0,1,0-1.48,1.62A1.49,1.49,0,0,0,1528.18,424.7Zm-2.7,9.56,8-12.53h1.43l-8,12.53Zm4.94-2.87a3.18,3.18,0,1,1,3.17,3.1A3,3,0,0,1,1530.42,431.39Zm4.67,0a1.5,1.5,0,1,0-3,0,1.5,1.5,0,1,0,3,0Z"/><rect class="cls-4" x="1476.38" y="582.74" width="84.88" height="30.15" rx="15.07"/><path class="cls-1" d="M1506.89,602.94v-2.59h-6v-2.11l5-7.83h3.68V598h1.62v2.35h-1.62v2.59Zm0-10.16L1503.5,598h3.39Z"/><path class="cls-1" d="M1512.54,601.28l1.48-1.85a4.54,4.54,0,0,0,3.33,1.37c1.48,0,2.33-.85,2.33-1.86s-.83-1.86-2.26-1.86a3.61,3.61,0,0,0-2.63,1l-1.86-.49v-7.19h8.6v2.35h-5.93v3.06a4,4,0,0,1,2.76-1.05,3.91,3.91,0,0,1,4,4.05c0,2.67-2,4.34-5,4.34A6.23,6.23,0,0,1,1512.54,601.28Z"/><path class="cls-1" d="M1523.51,593.38a3.18,3.18,0,0,1,6.36,0,3.18,3.18,0,0,1-6.36,0Zm4.65,0a1.49,1.49,0,1,0-1.48,1.61A1.48,1.48,0,0,0,1528.16,593.38Zm-2.7,9.56,8-12.53h1.43l-8,12.53Zm4.94-2.88a3.19,3.19,0,1,1,3.17,3.1A3,3,0,0,1,1530.4,600.06Zm4.68,0a1.51,1.51,0,0,0-1.51-1.67,1.5,1.5,0,0,0-1.48,1.67,1.48,1.48,0,0,0,1.48,1.64A1.49,1.49,0,0,0,1535.08,600.06Z"/><path class="cls-3" d="M1477.94,255.07V241.73h1.66v11.86h6.2v1.48Z"/><path class="cls-3" d="M1487.1,250.23a4.83,4.83,0,0,1,4.76-5.06c2.92,0,4.64,2.28,4.64,5.18v.38h-7.82a3.4,3.4,0,0,0,3.48,3.34,4.22,4.22,0,0,0,3-1.22l.72,1a5.25,5.25,0,0,1-3.84,1.48A4.79,4.79,0,0,1,1487.1,250.23Zm4.74-3.82a3.22,3.22,0,0,0-3.16,3.22H1495A3.13,3.13,0,0,0,1491.84,246.41Z"/><path class="cls-3" d="M1498.9,257.55l.76-1.12a3.69,3.69,0,0,0,3.14,1.32c1.6,0,3.1-.78,3.1-2.9v-1.38a4,4,0,0,1-3.24,1.72c-2.52,0-4.3-1.88-4.3-5s1.76-5,4.3-5a4,4,0,0,1,3.24,1.7v-1.46h1.5v9.38c0,3.2-2.24,4.2-4.6,4.2A4.94,4.94,0,0,1,1498.9,257.55Zm7-5.26v-4.22a3.56,3.56,0,0,0-2.88-1.56c-1.94,0-3.1,1.54-3.1,3.68s1.16,3.68,3.1,3.68A3.58,3.58,0,0,0,1505.9,252.29Z"/><path class="cls-3" d="M1516.44,255.07V254a4.18,4.18,0,0,1-3.2,1.34,3.22,3.22,0,0,1-3.38-3.2,3.16,3.16,0,0,1,3.38-3.18,4,4,0,0,1,3.2,1.32v-1.74c0-1.3-1-2-2.44-2a3.84,3.84,0,0,0-3,1.34l-.7-1a5.06,5.06,0,0,1,3.86-1.6c2,0,3.74.92,3.74,3.26v6.64Zm0-2v-1.82a3.23,3.23,0,0,0-2.66-1.2,2.13,2.13,0,1,0,0,4.22A3.23,3.23,0,0,0,1516.44,253Z"/><path class="cls-3" d="M1520.94,255.07V241.73h1.5v13.34Z"/><path class="cls-3" d="M1539.28,255.07c-.4-.34-.92-.84-1.46-1.4a5.25,5.25,0,0,1-3.84,1.64c-2.3,0-4.16-1.24-4.16-3.72,0-2.08,1.4-3.14,2.94-4a6.25,6.25,0,0,1-1-3,3.18,3.18,0,0,1,3.36-3.1c1.74,0,3,.94,3,2.62,0,2-1.7,2.88-3.4,3.76.54.74,1.1,1.4,1.54,1.9s1.06,1.22,1.58,1.78a12.54,12.54,0,0,0,1.44-3l1.3.56a18.55,18.55,0,0,1-1.82,3.44c.78.82,1.62,1.62,2.6,2.52Zm-2.36-2.32c-.76-.8-1.46-1.56-1.84-2a27,27,0,0,1-1.68-2.12,3.35,3.35,0,0,0-2,2.88,2.53,2.53,0,0,0,2.68,2.58A4,4,0,0,0,1536.92,252.75Zm-2.82-5.8c1.42-.7,2.64-1.42,2.64-2.74a1.44,1.44,0,0,0-1.58-1.5,1.86,1.86,0,0,0-1.86,1.94A4.9,4.9,0,0,0,1534.1,247Z"/><path class="cls-3" d="M1558.16,255.07l-1.18-3h-6.64l-1.18,3h-1.9l5.36-13.34h2.06l5.38,13.34Zm-4.5-11.62-2.84,7.18h5.66Z"/><path class="cls-3" d="M1561.18,250.23a4.77,4.77,0,0,1,4.82-5.06,4.13,4.13,0,0,1,3.54,1.68l-1,.92a2.86,2.86,0,0,0-2.46-1.26c-2.06,0-3.34,1.58-3.34,3.72s1.28,3.74,3.34,3.74a2.91,2.91,0,0,0,2.46-1.26l1,.92a4.13,4.13,0,0,1-3.54,1.68A4.78,4.78,0,0,1,1561.18,250.23Z"/><path class="cls-3" d="M1571.08,250.23a4.77,4.77,0,0,1,4.82-5.06,4.13,4.13,0,0,1,3.54,1.68l-1,.92a2.86,2.86,0,0,0-2.46-1.26c-2.06,0-3.34,1.58-3.34,3.72s1.28,3.74,3.34,3.74a2.91,2.91,0,0,0,2.46-1.26l1,.92a4.13,4.13,0,0,1-3.54,1.68A4.78,4.78,0,0,1,1571.08,250.23Z"/><path class="cls-3" d="M1581,250.23a4.79,4.79,0,1,1,4.78,5.08A4.74,4.74,0,0,1,1581,250.23Zm8,0c0-2-1.14-3.72-3.2-3.72s-3.22,1.76-3.22,3.72,1.16,3.74,3.22,3.74S1589,252.21,1589,250.23Z"/><path class="cls-3" d="M1599.5,255.07v-1.36a4.73,4.73,0,0,1-3.44,1.6c-2,0-3.08-1-3.08-3.08v-6.82h1.5v6.36c0,1.7.86,2.2,2.16,2.2a3.7,3.7,0,0,0,2.86-1.46v-7.1h1.5v9.66Z"/><path class="cls-3" d="M1610.52,255.07v-6.32c0-1.7-.86-2.24-2.16-2.24a3.73,3.73,0,0,0-2.86,1.5v7.06H1604v-9.66h1.5v1.4a4.79,4.79,0,0,1,3.44-1.64c2,0,3.08,1,3.08,3.12v6.78Z"/><path class="cls-3" d="M1615.32,253.05v-6.32h-1.6v-1.32h1.6v-2.64h1.5v2.64h2v1.32h-2v6c0,.72.32,1.24,1,1.24a1.45,1.45,0,0,0,1-.4l.44,1.12a2.45,2.45,0,0,1-1.8.62A2,2,0,0,1,1615.32,253.05Z"/><path class="cls-3" d="M1626.94,255.07V254a4.18,4.18,0,0,1-3.2,1.34,3.22,3.22,0,0,1-3.38-3.2,3.16,3.16,0,0,1,3.38-3.18,4,4,0,0,1,3.2,1.32v-1.74c0-1.3-1-2-2.44-2a3.84,3.84,0,0,0-3,1.34l-.7-1a5.06,5.06,0,0,1,3.86-1.6c2,0,3.74.92,3.74,3.26v6.64Zm0-2v-1.82a3.23,3.23,0,0,0-2.66-1.2,2.13,2.13,0,1,0,0,4.22A3.23,3.23,0,0,0,1626.94,253Z"/><path class="cls-3" d="M1638,255.07v-6.32c0-1.7-.86-2.24-2.16-2.24a3.73,3.73,0,0,0-2.86,1.5v7.06h-1.5v-9.66h1.5v1.4a4.79,4.79,0,0,1,3.44-1.64c2,0,3.08,1,3.08,3.12v6.78Z"/><path class="cls-3" d="M1641.9,250.23a4.77,4.77,0,0,1,4.82-5.06,4.13,4.13,0,0,1,3.54,1.68l-1,.92a2.86,2.86,0,0,0-2.46-1.26c-2.06,0-3.34,1.58-3.34,3.72s1.28,3.74,3.34,3.74a2.91,2.91,0,0,0,2.46-1.26l1,.92a4.13,4.13,0,0,1-3.54,1.68A4.78,4.78,0,0,1,1641.9,250.23Z"/><path class="cls-3" d="M1652.06,257.49a2.3,2.3,0,0,0,.82.16,1.39,1.39,0,0,0,1.44-1l.64-1.46-4-9.76h1.62l3.22,7.92,3.2-7.92h1.64L1655.76,257a2.87,2.87,0,0,1-2.84,2,4.87,4.87,0,0,1-1.1-.14Z"/><path class="cls-3" d="M1477.94,367.9V354.56h8.74V356h-7.08v4.3h6.94v1.48h-6.94v4.6h7.08v1.48Z"/><path class="cls-3" d="M1488.7,363.06a4.77,4.77,0,0,1,4.82-5.06,4.13,4.13,0,0,1,3.54,1.68l-1,.92a2.86,2.86,0,0,0-2.46-1.26c-2.06,0-3.34,1.58-3.34,3.72s1.28,3.74,3.34,3.74a2.91,2.91,0,0,0,2.46-1.26l1,.92a4.13,4.13,0,0,1-3.54,1.68A4.78,4.78,0,0,1,1488.7,363.06Z"/><path class="cls-3" d="M1498.6,363.06a4.79,4.79,0,1,1,4.78,5.08A4.74,4.74,0,0,1,1498.6,363.06Zm8,0c0-2-1.14-3.72-3.2-3.72s-3.22,1.76-3.22,3.72,1.16,3.74,3.22,3.74S1506.58,365,1506.58,363.06Z"/><path class="cls-3" d="M1509.76,366.62l.78-1.08a4.38,4.38,0,0,0,3.18,1.38c1.48,0,2.28-.7,2.28-1.66,0-2.34-6-.9-6-4.48,0-1.5,1.3-2.78,3.6-2.78a4.89,4.89,0,0,1,3.58,1.4l-.7,1a3.76,3.76,0,0,0-2.88-1.22c-1.32,0-2.14.66-2.14,1.52,0,2.12,6,.72,6,4.48,0,1.62-1.3,2.92-3.8,2.92A5.14,5.14,0,0,1,1509.76,366.62Z"/><path class="cls-3" d="M1519.6,370.32a2.3,2.3,0,0,0,.82.16,1.39,1.39,0,0,0,1.44-1l.64-1.46-4-9.76h1.62l3.22,7.92,3.2-7.92h1.64l-4.84,11.62a2.87,2.87,0,0,1-2.84,2,4.87,4.87,0,0,1-1.1-.14Z"/><path class="cls-3" d="M1528.86,366.62l.78-1.08a4.38,4.38,0,0,0,3.18,1.38c1.48,0,2.28-.7,2.28-1.66,0-2.34-6-.9-6-4.48,0-1.5,1.3-2.78,3.6-2.78a4.89,4.89,0,0,1,3.58,1.4l-.7,1a3.76,3.76,0,0,0-2.88-1.22c-1.32,0-2.14.66-2.14,1.52,0,2.12,6,.72,6,4.48,0,1.62-1.3,2.92-3.8,2.92A5.14,5.14,0,0,1,1528.86,366.62Z"/><path class="cls-3" d="M1539.3,365.88v-6.32h-1.6v-1.32h1.6V355.6h1.5v2.64h2v1.32h-2v6c0,.72.32,1.24,1,1.24a1.45,1.45,0,0,0,1-.4l.44,1.12a2.45,2.45,0,0,1-1.8.62A2,2,0,0,1,1539.3,365.88Z"/><path class="cls-3" d="M1544.32,363.06a4.83,4.83,0,0,1,4.76-5.06c2.92,0,4.64,2.28,4.64,5.18v.38h-7.82a3.4,3.4,0,0,0,3.48,3.34,4.22,4.22,0,0,0,3-1.22l.72,1a5.25,5.25,0,0,1-3.84,1.48A4.79,4.79,0,0,1,1544.32,363.06Zm4.74-3.82a3.22,3.22,0,0,0-3.16,3.22h6.34A3.13,3.13,0,0,0,1549.06,359.24Z"/><path class="cls-3" d="M1567.8,367.9v-6.56c0-1.22-.54-2-1.78-2a3.38,3.38,0,0,0-2.56,1.48v7.08H1562v-6.56c0-1.22-.52-2-1.78-2a3.37,3.37,0,0,0-2.54,1.5v7.06h-1.5v-9.66h1.5v1.4a4.18,4.18,0,0,1,3.12-1.64,2.48,2.48,0,0,1,2.6,1.8,4.07,4.07,0,0,1,3.24-1.8c1.76,0,2.7,1,2.7,2.92v7Z"/><path class="cls-3" d="M1577,361.24a6.67,6.67,0,0,1,6.86-6.9,6.36,6.36,0,0,1,5.18,2.5l-1.32.82a4.92,4.92,0,0,0-3.86-1.84,5.44,5.44,0,0,0,0,10.86,5.26,5.26,0,0,0,3.58-1.44v-2.72h-4.58V361h6.24v4.82a7,7,0,0,1-5.24,2.3A6.69,6.69,0,0,1,1577,361.24Z"/><path class="cls-3" d="M1591.72,367.9v-9.66h1.5v1.56a4.11,4.11,0,0,1,3.22-1.76v1.54a2.64,2.64,0,0,0-.6-.06,3.53,3.53,0,0,0-2.62,1.54v6.84Z"/><path class="cls-3" d="M1597.76,363.06a4.79,4.79,0,1,1,4.78,5.08A4.74,4.74,0,0,1,1597.76,363.06Zm8,0c0-2-1.14-3.72-3.2-3.72s-3.22,1.76-3.22,3.72,1.16,3.74,3.22,3.74S1605.74,365,1605.74,363.06Z"/><path class="cls-3" d="M1618.12,367.9l-2.52-7.76-2.52,7.76h-1.5l-3.08-9.66h1.56l2.36,7.7,2.54-7.7h1.28l2.54,7.7,2.36-7.7h1.56l-3.08,9.66Z"/><path class="cls-3" d="M1624.74,365.88v-6.32h-1.6v-1.32h1.6V355.6h1.5v2.64h2v1.32h-2v6c0,.72.32,1.24,1,1.24a1.45,1.45,0,0,0,1-.4l.44,1.12a2.45,2.45,0,0,1-1.8.62A2,2,0,0,1,1624.74,365.88Z"/><path class="cls-3" d="M1636.86,367.9v-6.36c0-1.7-.88-2.2-2.18-2.2a3.8,3.8,0,0,0-2.86,1.5v7.06h-1.5V354.56h1.5v5.08a4.8,4.8,0,0,1,3.46-1.64c2,0,3.08,1,3.08,3.08v6.82Z"/><path class="cls-3" d="M1477.94,481.08V467.73h1.66V479.6h6.2v1.48Z"/><path class="cls-3" d="M1487.82,469a1,1,0,1,1,2,0,1,1,0,0,1-2,0Zm.26,12.05v-9.66h1.5v9.66Z"/><path class="cls-3" d="M1492,476.24c0-3.14,1.76-5.06,4.3-5.06a4,4,0,0,1,3.24,1.68v-1.44h1.5v13.34h-1.5v-5.14a4,4,0,0,1-3.24,1.7C1493.72,481.32,1492,479.36,1492,476.24Zm7.54,2.18v-4.36a3.51,3.51,0,0,0-2.88-1.54c-1.94,0-3.08,1.58-3.08,3.72s1.14,3.74,3.08,3.74A3.53,3.53,0,0,0,1499.5,478.42Z"/><path class="cls-3" d="M1510.54,481.08v-1.36a4.73,4.73,0,0,1-3.44,1.6c-2,0-3.08-1-3.08-3.08v-6.82h1.5v6.36c0,1.7.86,2.2,2.16,2.2a3.7,3.7,0,0,0,2.86-1.46v-7.1h1.5v9.66Z"/><path class="cls-3" d="M1514.78,469a1,1,0,1,1,2,0,1,1,0,0,1-2,0Zm.26,12.05v-9.66h1.5v9.66Z"/><path class="cls-3" d="M1526.54,481.08v-1.44a4.07,4.07,0,0,1-3.26,1.68c-2.52,0-4.3-1.92-4.3-5.06s1.76-5.08,4.3-5.08a4,4,0,0,1,3.26,1.7v-5.15h1.5v13.35Zm0-2.62v-4.38a3.63,3.63,0,0,0-2.9-1.56c-1.94,0-3.1,1.6-3.1,3.74s1.16,3.72,3.1,3.72A3.59,3.59,0,0,0,1526.54,478.46Z"/><path class="cls-3" d="M1530.78,469a1,1,0,1,1,2,0,1,1,0,0,1-2,0Zm.26,12.05v-9.66h1.5v9.66Z"/><path class="cls-3" d="M1535.84,479.06v-6.32h-1.6v-1.32h1.6v-2.65h1.5v2.65h2v1.32h-2v6c0,.72.32,1.24,1,1.24a1.45,1.45,0,0,0,1-.4l.44,1.12a2.45,2.45,0,0,1-1.8.62A2,2,0,0,1,1535.84,479.06Z"/><path class="cls-3" d="M1541.12,483.5a2.3,2.3,0,0,0,.82.16,1.39,1.39,0,0,0,1.44-1l.64-1.46-4-9.76h1.62l3.22,7.92,3.2-7.92h1.64L1544.82,483a2.87,2.87,0,0,1-2.84,2,4.87,4.87,0,0,1-1.1-.14Z"/><path class="cls-3" d="M1565.06,481.08c-.4-.34-.92-.84-1.46-1.4a5.25,5.25,0,0,1-3.84,1.64c-2.3,0-4.16-1.24-4.16-3.72,0-2.08,1.4-3.14,2.94-4a6.25,6.25,0,0,1-1-3,3.18,3.18,0,0,1,3.36-3.11c1.74,0,3,1,3,2.62,0,2-1.7,2.89-3.4,3.77.54.74,1.1,1.4,1.54,1.9s1.06,1.22,1.58,1.78a12.54,12.54,0,0,0,1.44-3l1.3.56a18.55,18.55,0,0,1-1.82,3.44c.78.82,1.62,1.62,2.6,2.52Zm-2.36-2.32c-.76-.8-1.46-1.56-1.84-2a27,27,0,0,1-1.68-2.12,3.35,3.35,0,0,0-2,2.88,2.53,2.53,0,0,0,2.68,2.58A4,4,0,0,0,1562.7,478.76Zm-2.82-5.8c1.42-.7,2.64-1.42,2.64-2.74a1.44,1.44,0,0,0-1.58-1.51,1.87,1.87,0,0,0-1.86,1.94A4.93,4.93,0,0,0,1559.88,473Z"/><path class="cls-3" d="M1574.42,481.08V467.73h8.74v1.49h-7.08v4.3H1583V475h-6.94v4.6h7.08v1.48Z"/><path class="cls-3" d="M1592,481.08l-2.9-4-2.9,4h-1.72l3.7-5-3.5-4.7h1.74l2.68,3.68,2.68-3.68h1.74l-3.5,4.7,3.72,5Z"/><path class="cls-3" d="M1594.16,476.24a4.77,4.77,0,0,1,4.82-5.06,4.11,4.11,0,0,1,3.54,1.68l-1,.92a2.86,2.86,0,0,0-2.46-1.26c-2.06,0-3.34,1.58-3.34,3.72s1.28,3.74,3.34,3.74a2.91,2.91,0,0,0,2.46-1.26l1,.92a4.13,4.13,0,0,1-3.54,1.68A4.78,4.78,0,0,1,1594.16,476.24Z"/><path class="cls-3" d="M1611.16,481.08v-6.36c0-1.7-.88-2.2-2.18-2.2a3.8,3.8,0,0,0-2.86,1.5v7.06h-1.5V467.73h1.5v5.09a4.8,4.8,0,0,1,3.46-1.64c2,0,3.08,1,3.08,3.08v6.82Z"/><path class="cls-3" d="M1621.7,481.08V480a4.18,4.18,0,0,1-3.2,1.34,3.22,3.22,0,0,1-3.38-3.2,3.16,3.16,0,0,1,3.38-3.18,4,4,0,0,1,3.2,1.32v-1.74c0-1.3-1-2-2.44-2a3.84,3.84,0,0,0-3,1.34l-.7-1a5.06,5.06,0,0,1,3.86-1.6c2,0,3.74.92,3.74,3.26v6.64Zm0-2v-1.82A3.23,3.23,0,0,0,1619,476a2.13,2.13,0,1,0,0,4.22A3.23,3.23,0,0,0,1621.7,479Z"/><path class="cls-3" d="M1632.24,481.08V480a4.18,4.18,0,0,1-3.2,1.34,3.22,3.22,0,0,1-3.38-3.2,3.16,3.16,0,0,1,3.38-3.18,4,4,0,0,1,3.2,1.32v-1.74c0-1.3-1-2-2.44-2a3.84,3.84,0,0,0-3,1.34l-.7-1a5.06,5.06,0,0,1,3.86-1.6c2,0,3.74.92,3.74,3.26v6.64Zm0-2v-1.82a3.23,3.23,0,0,0-2.66-1.2,2.13,2.13,0,1,0,0,4.22A3.23,3.23,0,0,0,1632.24,479Z"/><path class="cls-3" d="M1643.26,481.08v-6.32c0-1.7-.86-2.24-2.16-2.24a3.73,3.73,0,0,0-2.86,1.5v7.06h-1.5v-9.66h1.5v1.4a4.79,4.79,0,0,1,3.44-1.64c2,0,3.08,1,3.08,3.12v6.78Z"/><path class="cls-3" d="M1647.74,483.56l.76-1.12a3.69,3.69,0,0,0,3.14,1.32c1.6,0,3.1-.78,3.1-2.9v-1.38a4,4,0,0,1-3.24,1.72c-2.52,0-4.3-1.88-4.3-5s1.76-5,4.3-5a4,4,0,0,1,3.24,1.7v-1.46h1.5v9.38c0,3.2-2.24,4.2-4.6,4.2A4.94,4.94,0,0,1,1647.74,483.56Zm7-5.26v-4.22a3.56,3.56,0,0,0-2.88-1.56c-1.94,0-3.1,1.54-3.1,3.68s1.16,3.68,3.1,3.68A3.58,3.58,0,0,0,1654.74,478.3Z"/><path class="cls-3" d="M1658.68,476.24a4.83,4.83,0,0,1,4.76-5.06c2.92,0,4.64,2.28,4.64,5.18v.38h-7.82a3.4,3.4,0,0,0,3.48,3.34,4.22,4.22,0,0,0,3-1.22l.72,1a5.25,5.25,0,0,1-3.84,1.48A4.79,4.79,0,0,1,1658.68,476.24Zm4.74-3.82a3.22,3.22,0,0,0-3.16,3.22h6.34A3.13,3.13,0,0,0,1663.42,472.42Z"/><path class="cls-3" d="M1477.94,647.35V634h5.36a4,4,0,1,1,0,8h-3.7v5.3Zm7.82-9.32a2.48,2.48,0,0,0-2.66-2.54h-3.5v5.08h3.5A2.48,2.48,0,0,0,1485.76,638Z"/><path class="cls-3" d="M1489.62,647.35v-9.66h1.5v1.56a4.11,4.11,0,0,1,3.22-1.76V639a2.64,2.64,0,0,0-.6-.06,3.53,3.53,0,0,0-2.62,1.54v6.84Z"/><path class="cls-3" d="M1495.66,642.51a4.79,4.79,0,1,1,4.78,5.08A4.74,4.74,0,0,1,1495.66,642.51Zm8,0c0-2-1.14-3.72-3.2-3.72s-3.22,1.76-3.22,3.72,1.16,3.74,3.22,3.74S1503.64,644.49,1503.64,642.51Z"/><path class="cls-3" d="M1514.66,647.35v-1.44a4.07,4.07,0,0,1-3.26,1.68c-2.52,0-4.3-1.92-4.3-5.06s1.76-5.08,4.3-5.08a4,4,0,0,1,3.26,1.7V634h1.5v13.34Zm0-2.62v-4.38a3.63,3.63,0,0,0-2.9-1.56c-1.94,0-3.1,1.6-3.1,3.74s1.16,3.72,3.1,3.72A3.59,3.59,0,0,0,1514.66,644.73Z"/><path class="cls-3" d="M1525.68,647.35V646a4.73,4.73,0,0,1-3.44,1.6c-2,0-3.08-1-3.08-3.08v-6.82h1.5v6.36c0,1.7.86,2.2,2.16,2.2a3.7,3.7,0,0,0,2.86-1.46v-7.1h1.5v9.66Z"/><path class="cls-3" d="M1529.62,642.51a4.77,4.77,0,0,1,4.82-5.06,4.13,4.13,0,0,1,3.54,1.68l-1,.92a2.86,2.86,0,0,0-2.46-1.26c-2.06,0-3.34,1.58-3.34,3.72s1.28,3.74,3.34,3.74A2.91,2.91,0,0,0,1537,645l1,.92a4.13,4.13,0,0,1-3.54,1.68A4.78,4.78,0,0,1,1529.62,642.51Z"/><path class="cls-3" d="M1540.38,645.33V639h-1.6v-1.32h1.6v-2.64h1.5v2.64h2V639h-2v6c0,.72.32,1.24,1,1.24a1.45,1.45,0,0,0,1-.4l.44,1.12a2.45,2.45,0,0,1-1.8.62A2,2,0,0,1,1540.38,645.33Z"/><path class="cls-3" d="M1551.18,647.35V634h4.56a6.67,6.67,0,1,1,0,13.34Zm9.68-6.66a4.88,4.88,0,0,0-5.12-5.2h-2.9v10.38h2.9A4.91,4.91,0,0,0,1560.86,640.69Z"/><path class="cls-3" d="M1564.56,642.51a4.83,4.83,0,0,1,4.76-5.06c2.92,0,4.64,2.28,4.64,5.18V643h-7.82a3.4,3.4,0,0,0,3.48,3.34,4.22,4.22,0,0,0,3-1.22l.72,1a5.25,5.25,0,0,1-3.84,1.48A4.79,4.79,0,0,1,1564.56,642.51Zm4.74-3.82a3.22,3.22,0,0,0-3.16,3.22h6.34A3.13,3.13,0,0,0,1569.3,638.69Z"/><path class="cls-3" d="M1579,647.35l-4-9.66h1.62l3.22,7.92,3.2-7.92h1.64l-4,9.66Z"/><path class="cls-3" d="M1585.62,642.51a4.83,4.83,0,0,1,4.76-5.06c2.92,0,4.64,2.28,4.64,5.18V643h-7.82a3.4,3.4,0,0,0,3.48,3.34,4.22,4.22,0,0,0,3-1.22l.72,1a5.25,5.25,0,0,1-3.84,1.48A4.79,4.79,0,0,1,1585.62,642.51Zm4.74-3.82a3.22,3.22,0,0,0-3.16,3.22h6.34A3.13,3.13,0,0,0,1590.36,638.69Z"/><path class="cls-3" d="M1597.44,647.35V634h1.5v13.34Z"/><path class="cls-3" d="M1601.38,642.51a4.79,4.79,0,1,1,4.78,5.08A4.74,4.74,0,0,1,1601.38,642.51Zm8,0c0-2-1.14-3.72-3.2-3.72s-3.22,1.76-3.22,3.72,1.16,3.74,3.22,3.74S1609.36,644.49,1609.36,642.51Z"/><path class="cls-3" d="M1614.88,645.89V651h-1.5V637.69h1.5v1.44a4,4,0,0,1,3.26-1.68c2.54,0,4.3,1.92,4.3,5.06s-1.76,5.08-4.3,5.08A4,4,0,0,1,1614.88,645.89Zm6-3.38c0-2.14-1.16-3.72-3.1-3.72a3.57,3.57,0,0,0-2.88,1.54v4.36a3.59,3.59,0,0,0,2.88,1.56C1619.7,646.25,1620.86,644.65,1620.86,642.51Z"/><path class="cls-3" d="M1636.48,647.35v-6.56c0-1.22-.54-2-1.78-2a3.38,3.38,0,0,0-2.56,1.48v7.08h-1.5v-6.56c0-1.22-.52-2-1.78-2a3.37,3.37,0,0,0-2.54,1.5v7.06h-1.5v-9.66h1.5v1.4a4.18,4.18,0,0,1,3.12-1.64,2.48,2.48,0,0,1,2.6,1.8,4.07,4.07,0,0,1,3.24-1.8c1.76,0,2.7,1,2.7,2.92v7Z"/><path class="cls-3" d="M1640.42,642.51a4.83,4.83,0,0,1,4.76-5.06c2.92,0,4.64,2.28,4.64,5.18V643H1642a3.4,3.4,0,0,0,3.48,3.34,4.22,4.22,0,0,0,3-1.22l.72,1a5.25,5.25,0,0,1-3.84,1.48A4.79,4.79,0,0,1,1640.42,642.51Zm4.74-3.82a3.22,3.22,0,0,0-3.16,3.22h6.34A3.13,3.13,0,0,0,1645.16,638.69Z"/><path class="cls-3" d="M1658.76,647.35V641c0-1.7-.86-2.24-2.16-2.24a3.73,3.73,0,0,0-2.86,1.5v7.06h-1.5v-9.66h1.5v1.4a4.79,4.79,0,0,1,3.44-1.64c2,0,3.08,1,3.08,3.12v6.78Z"/><path class="cls-3" d="M1663.56,645.33V639H1662v-1.32h1.6v-2.64h1.5v2.64h2V639h-2v6c0,.72.32,1.24,1,1.24a1.45,1.45,0,0,0,1-.4l.44,1.12a2.45,2.45,0,0,1-1.8.62A2,2,0,0,1,1663.56,645.33Z"/><line class="cls-8" x1="1470.75" y1="210.22" x2="1427.01" y2="210.22"/><line class="cls-8" x1="1470.75" y1="319.68" x2="1427.01" y2="319.68"/><line class="cls-8" x1="1470.75" y1="429.14" x2="1427.01" y2="429.14"/><line class="cls-8" x1="1470.75" y1="597.82" x2="1427.01" y2="597.82"/><path class="cls-3" d="M1298.21,94.83a10.64,10.64,0,0,1-7.29-2.51,8.52,8.52,0,0,1-2.85-6.73V67.69h5.2V85.17a4.5,4.5,0,0,0,1.2,3.31,6.36,6.36,0,0,0,7.49,0,4.53,4.53,0,0,0,1.19-3.31V67.69h5.25v17.9a8.52,8.52,0,0,1-2.85,6.73A10.72,10.72,0,0,1,1298.21,94.83Z"/><path class="cls-3" d="M1317.21,80.69c0,.51.34.92,1,1.24a14,14,0,0,0,2.45.83,26.75,26.75,0,0,1,2.89.91,5.66,5.66,0,0,1,2.45,1.85,5.09,5.09,0,0,1,1,3.23,5.21,5.21,0,0,1-2.19,4.5,9.08,9.08,0,0,1-5.45,1.58q-5.85,0-8-4.53l4.25-2.39a3.53,3.53,0,0,0,3.73,2.47c1.75,0,2.62-.54,2.62-1.63,0-.51-.34-.92-1-1.24a14.41,14.41,0,0,0-2.45-.85,27.84,27.84,0,0,1-2.89-1,5.89,5.89,0,0,1-2.45-1.81,4.73,4.73,0,0,1-1-3.1,5.29,5.29,0,0,1,2.07-4.42,8.09,8.09,0,0,1,5.15-1.62,8.54,8.54,0,0,1,4.21,1,7.63,7.63,0,0,1,3,3l-4.18,2.28a3.13,3.13,0,0,0-3-1.94,2.77,2.77,0,0,0-1.58.42A1.3,1.3,0,0,0,1317.21,80.69Z"/><path class="cls-3" d="M1344.35,75.29h4.9v19h-4.9V92.05a7.48,7.48,0,0,1-6.2,2.78,8.63,8.63,0,0,1-6.52-2.91,10.72,10.72,0,0,1,0-14.25,8.63,8.63,0,0,1,6.52-2.91,7.48,7.48,0,0,1,6.2,2.78Zm-9,13.36a5.06,5.06,0,0,0,3.76,1.5,5.12,5.12,0,0,0,3.78-1.5,5.68,5.68,0,0,0,0-7.71,5.12,5.12,0,0,0-3.78-1.5,5.06,5.06,0,0,0-3.76,1.5,5.76,5.76,0,0,0,0,7.71Z"/><path class="cls-3" d="M1368.25,75.29H1373V93.38a8.1,8.1,0,0,1-2.9,6.73,10.94,10.94,0,0,1-7,2.32,12,12,0,0,1-5.42-1.18,8.27,8.27,0,0,1-3.59-3.46l4.18-2.39a6,6,0,0,0,8.63,1.44,4.47,4.47,0,0,0,1.33-3.46v-2a7.16,7.16,0,0,1-6.08,2.89,9,9,0,0,1-6.75-2.83,10.06,10.06,0,0,1,0-13.78,9,9,0,0,1,6.73-2.85,7.18,7.18,0,0,1,6.08,2.89Zm-9.14,12.94a5.7,5.7,0,0,0,7.64,0,5.36,5.36,0,0,0,0-7.44,5.7,5.7,0,0,0-7.64,0,5.36,5.36,0,0,0,0,7.44Z"/><path class="cls-3" d="M1381.62,86.81q1,3.57,5.36,3.57a5,5,0,0,0,4.26-1.9l4,2.28a9.44,9.44,0,0,1-8.29,4.07,10.22,10.22,0,0,1-7.56-2.85,10,10,0,0,1,7.18-17.22,9.08,9.08,0,0,1,6.9,2.89,10,10,0,0,1,2.72,7.14,11.18,11.18,0,0,1-.19,2Zm-.07-3.8h9.69a4.62,4.62,0,0,0-1.73-2.89,5,5,0,0,0-3-1,5.15,5.15,0,0,0-3.26,1A4.76,4.76,0,0,0,1381.55,83Z"/><path class="cls-3" d="M1425.25,91.92a9.78,9.78,0,0,1-7.15,2.91,10,10,0,1,1,0-20.07,9.78,9.78,0,0,1,7.15,2.91,10.15,10.15,0,0,1,0,14.25Zm-10.82-3.36A5,5,0,0,0,1418.1,90a5,5,0,0,0,3.69-1.48,5.53,5.53,0,0,0,0-7.53,5,5,0,0,0-3.69-1.48,4.94,4.94,0,0,0-3.67,1.48,5.58,5.58,0,0,0,0,7.53Z"/><path class="cls-3" d="M1441.24,71.87q-4-.3-4,3.23v.19h4V80h-4V94.29h-4.91V80h-2.73V75.29h2.73V75.1a7.93,7.93,0,0,1,2.25-6.11c1.49-1.4,3.72-2,6.68-1.83Z"/><path class="cls-2" d="M1469.1,72.71h-10.64V79h10.33v5h-10.33V94.29h-5.25V67.69h15.89Z"/><path class="cls-2" d="M1485.25,75.29h4.9v19h-4.9V92.17a6.34,6.34,0,0,1-5.66,2.66,6.88,6.88,0,0,1-5.15-2.09,7.93,7.93,0,0,1-2-5.78V75.29h4.91V86.35a3.91,3.91,0,0,0,1,2.91,3.76,3.76,0,0,0,2.74,1,4.07,4.07,0,0,0,3-1.18,4.91,4.91,0,0,0,1.14-3.54Z"/><path class="cls-2" d="M1505.2,74.76a6.91,6.91,0,0,1,5.15,2.09,8,8,0,0,1,2,5.78V94.29h-4.9V83.24a3.87,3.87,0,0,0-1-2.91,3.72,3.72,0,0,0-2.73-1,4.05,4.05,0,0,0-3,1.18,4.91,4.91,0,0,0-1.14,3.54V94.29h-4.91v-19h4.91v2.13A6.33,6.33,0,0,1,1505.2,74.76Z"/><path class="cls-2" d="M1531,67.69h4.9v26.6H1531V92.05a7.34,7.34,0,0,1-6.15,2.78,8.65,8.65,0,0,1-6.56-2.91,10.69,10.69,0,0,1,0-14.25,8.65,8.65,0,0,1,6.56-2.91,7.34,7.34,0,0,1,6.15,2.78Zm-9,21a5.12,5.12,0,0,0,3.78,1.5,5.06,5.06,0,0,0,3.76-1.5,5.76,5.76,0,0,0,0-7.71,5.06,5.06,0,0,0-3.76-1.5,5.12,5.12,0,0,0-3.78,1.5,5.7,5.7,0,0,0,0,7.71Z"/><path class="cls-2" d="M1544.72,80.69c0,.51.33.92,1,1.24a14.08,14.08,0,0,0,2.46.83,26.59,26.59,0,0,1,2.88.91,5.6,5.6,0,0,1,2.45,1.85,5,5,0,0,1,1,3.23,5.23,5.23,0,0,1-2.18,4.5,9.11,9.11,0,0,1-5.46,1.58q-5.85,0-8-4.53l4.26-2.39a3.52,3.52,0,0,0,3.72,2.47c1.75,0,2.63-.54,2.63-1.63,0-.51-.34-.92-1-1.24a14.72,14.72,0,0,0-2.45-.85,26.36,26.36,0,0,1-2.89-1,5.89,5.89,0,0,1-2.45-1.81,4.74,4.74,0,0,1-1-3.1,5.29,5.29,0,0,1,2.07-4.42,8.11,8.11,0,0,1,5.15-1.62,8.58,8.58,0,0,1,4.22,1,7.54,7.54,0,0,1,3,3L1550,81.07a3.13,3.13,0,0,0-3-1.94,2.8,2.8,0,0,0-1.58.42A1.32,1.32,0,0,0,1544.72,80.69Z"/><path class="cls-2" d="M1582.18,94.29l-5.37-9.23h-4v9.23h-5.25V67.69h10.64a8.84,8.84,0,0,1,8.86,8.82,8.08,8.08,0,0,1-1.41,4.58,8.81,8.81,0,0,1-3.72,3.17l5.89,10Zm-9.34-21.69v7.86h5.39a3.32,3.32,0,0,0,2.55-1.16,4,4,0,0,0,1.06-2.79,3.9,3.9,0,0,0-1.06-2.77,3.37,3.37,0,0,0-2.55-1.14Z"/><path class="cls-2" d="M1593.13,73a3.06,3.06,0,0,1-3-3,3,3,0,0,1,.89-2.13,2.89,2.89,0,0,1,2.11-.91,2.93,2.93,0,0,1,2.15.91,3,3,0,0,1,.89,2.13,3.06,3.06,0,0,1-3,3Zm-2.43,21.27v-19h4.9v19Z"/><path class="cls-2" d="M1604.45,80.69c0,.51.34.92,1,1.24a14,14,0,0,0,2.45.83,26.75,26.75,0,0,1,2.89.91,5.66,5.66,0,0,1,2.45,1.85,5.09,5.09,0,0,1,1,3.23,5.21,5.21,0,0,1-2.19,4.5,9.08,9.08,0,0,1-5.45,1.58q-5.85,0-8-4.53l4.25-2.39a3.53,3.53,0,0,0,3.73,2.47c1.75,0,2.62-.54,2.62-1.63,0-.51-.34-.92-1-1.24a14.41,14.41,0,0,0-2.45-.85,27.84,27.84,0,0,1-2.89-1,5.89,5.89,0,0,1-2.45-1.81,4.73,4.73,0,0,1-1-3.1,5.29,5.29,0,0,1,2.07-4.42,8.09,8.09,0,0,1,5.15-1.62,8.54,8.54,0,0,1,4.21,1,7.63,7.63,0,0,1,3,3l-4.18,2.28a3.13,3.13,0,0,0-3-1.94,2.77,2.77,0,0,0-1.58.42A1.3,1.3,0,0,0,1604.45,80.69Z"/><path class="cls-2" d="M1621.29,86.81c.65,2.38,2.44,3.57,5.35,3.57a5,5,0,0,0,4.26-1.9l3.95,2.28a9.41,9.41,0,0,1-8.28,4.07A10.22,10.22,0,0,1,1619,92a10,10,0,0,1,7.18-17.22,9.11,9.11,0,0,1,6.9,2.89,10,10,0,0,1,2.71,7.14,11.18,11.18,0,0,1-.19,2Zm-.08-3.8h9.69a4.58,4.58,0,0,0-1.73-2.89,5,5,0,0,0-3-1,5.16,5.16,0,0,0-3.27,1A4.81,4.81,0,0,0,1621.21,83Z"/><path class="cls-2" d="M1653.47,67.69h4.9v26.6h-4.9V92.05a7.34,7.34,0,0,1-6.15,2.78,8.65,8.65,0,0,1-6.56-2.91,10.69,10.69,0,0,1,0-14.25,8.65,8.65,0,0,1,6.56-2.91,7.34,7.34,0,0,1,6.15,2.78Zm-9,21a5.12,5.12,0,0,0,3.78,1.5,5.06,5.06,0,0,0,3.76-1.5,5.76,5.76,0,0,0,0-7.71,5.06,5.06,0,0,0-3.76-1.5,5.12,5.12,0,0,0-3.78,1.5,5.7,5.7,0,0,0,0,7.71Z"/><path class="cls-9" d="M770.44,202.85l-.7,1.31L766.58,210l-.72,1.33a276.84,276.84,0,0,0-129.5-32.42c-153.57-.49-278.46,123.6-279,277.17q0,8.81.49,17.47l-1.5.11-6.69.42-1.5.11c-9.48-158,110.45-294.09,268.55-304.39Q698.32,164.52,770.44,202.85Z"/><path class="cls-10" d="M370.09,540.26l-1.43.46-6.33,2-1.44.46a267.25,267.25,0,0,1-12.49-66l1.49-.11,6.7-.42,1.5-.11A275.87,275.87,0,0,0,370.09,540.26Z"/><path class="cls-11" d="M408.84,618.15l-1.22.88-5.43,3.91-1.21.88a274.6,274.6,0,0,1-39.16-77.77l1.42-.44h0l6.33-2,1.44-.46A276.49,276.49,0,0,0,408.84,618.15Z"/><path class="cls-12" d="M511,705.71l-.66,1.35-2.95,6-.66,1.34c-43.87-21.87-75.21-48.42-104-88.11l1.22-.89,5.43-3.91,1.23-.88A279,279,0,0,0,511,705.71Z"/><path class="cls-13" d="M781.21,705.14c-85.73,50.42-182.4,54.19-271.79,10.57l.66-1.34,2.95-6,.67-1.35a278.43,278.43,0,0,0,262.56-10.22l.77,1.3,3.41,5.73Z"/><path class="cls-14" d="M872.42,620.3c-24.3,35.33-51.86,61.25-88.64,83.3l-.76-1.28-3.41-5.74-.77-1.29a279.46,279.46,0,0,0,85.57-80.47l1.24.85,5.53,3.78Z"/><path class="cls-15" d="M890.56,590.19a267.78,267.78,0,0,1-16.44,27.63l-6.78-4.62-1.24-.85A276.52,276.52,0,0,0,882,585.77l1.34.69,5.93,3Z"/><path class="cls-16" d="M906.6,553.41l-14.67,34.12-1.33-.68-5.92-3.05-1.35-.7a271.61,271.61,0,0,0,14.16-32.88l1.42.49.33.11,6,2.08h0Z"/><path class="cls-17" d="M907.6,550.57l-1.41-.5-6.29-2.2-1.42-.49A280.08,280.08,0,0,0,910.56,416.3l1.48-.24,6.61-1,1.48-.23C927.37,463.31,923.6,504.22,907.6,550.57Z"/><path class="cls-18" d="M919.67,411.86l-1.48.22-6.6,1-1.49.23a275.75,275.75,0,0,0-32.41-92.92l1.32-.75,5.8-3.31,1.29-.75C904.07,347.35,914,375.83,919.67,411.86Z"/><path class="cls-19" d="M884.62,313l-1.3.75-5.8,3.31-1.32.76a279,279,0,0,0-107.69-105l.71-1.33,3.16-5.88.71-1.32C821.79,230.73,856.92,265,884.62,313Z"/><path class="cls-2" d="M1019.17,198.54v-12h4.1a6,6,0,1,1,0,12Zm8.71-6a4.39,4.39,0,0,0-4.61-4.68h-2.6v9.34h2.6A4.41,4.41,0,0,0,1027.88,192.55Z"/><path class="cls-2" d="M1039.66,198.54l-1.06-2.67h-6l-1.06,2.67h-1.71l4.82-12h1.85l4.84,12Zm-4.05-10.46-2.55,6.46h5.09Z"/><path class="cls-2" d="M1041.78,192.55a6,6,0,1,1,6,6.2A5.86,5.86,0,0,1,1041.78,192.55Zm10.37,0c0-2.81-1.73-4.88-4.41-4.88s-4.41,2.07-4.41,4.88,1.71,4.87,4.41,4.87S1052.15,195.33,1052.15,192.55Z"/><path class="cls-2" d="M1063.64,198.54V187.87h-3.8v-1.33H1069v1.33h-3.82v10.67Z"/><path class="cls-2" d="M1069.34,198.54v-8.69h1.35v1.4a3.68,3.68,0,0,1,2.9-1.58v1.38a2.92,2.92,0,0,0-.54-.05,3.19,3.19,0,0,0-2.36,1.38v6.16Z"/><path class="cls-2" d="M1074.77,194.18a4.34,4.34,0,0,1,4.28-4.55c2.63,0,4.18,2.05,4.18,4.66v.34h-7a3.07,3.07,0,0,0,3.13,3,3.8,3.8,0,0,0,2.68-1.1l.65.88a4.72,4.72,0,0,1-3.45,1.33A4.31,4.31,0,0,1,1074.77,194.18Zm4.27-3.43a2.9,2.9,0,0,0-2.85,2.89h5.71A2.82,2.82,0,0,0,1079,190.75Z"/><path class="cls-2" d="M1090.84,198.54v-1a3.76,3.76,0,0,1-2.88,1.2,2.89,2.89,0,0,1-3-2.88,2.84,2.84,0,0,1,3-2.86,3.64,3.64,0,0,1,2.88,1.19v-1.56c0-1.17-.94-1.84-2.2-1.84A3.44,3.44,0,0,0,1086,192l-.63-.94a4.54,4.54,0,0,1,3.47-1.44c1.84,0,3.37.83,3.37,2.93v6Zm0-1.84v-1.64a2.92,2.92,0,0,0-2.4-1.07,1.91,1.91,0,1,0,0,3.79A2.93,2.93,0,0,0,1090.84,196.7Z"/><path class="cls-2" d="M1094.13,197.39l.7-1a3.91,3.91,0,0,0,2.86,1.25c1.33,0,2-.63,2-1.5,0-2.1-5.38-.81-5.38-4,0-1.35,1.17-2.5,3.24-2.5a4.41,4.41,0,0,1,3.22,1.26l-.63.94a3.37,3.37,0,0,0-2.59-1.1c-1.19,0-1.93.59-1.93,1.37,0,1.9,5.38.64,5.38,4,0,1.45-1.17,2.62-3.41,2.62A4.63,4.63,0,0,1,1094.13,197.39Z"/><path class="cls-2" d="M1109.11,198.54v-1.23a4.22,4.22,0,0,1-3.09,1.44,2.44,2.44,0,0,1-2.77-2.77v-6.13h1.35v5.72c0,1.53.77,2,1.94,2a3.3,3.3,0,0,0,2.57-1.32v-6.38h1.35v8.69Z"/><path class="cls-2" d="M1113.16,198.54v-8.69h1.35v1.4a3.68,3.68,0,0,1,2.89-1.58v1.38a2.76,2.76,0,0,0-.54-.05,3.17,3.17,0,0,0-2.35,1.38v6.16Z"/><path class="cls-2" d="M1118.82,200.71a2.12,2.12,0,0,0,.74.15,1.25,1.25,0,0,0,1.3-.92l.57-1.31-3.63-8.78h1.46l2.89,7.12,2.88-7.12h1.48l-4.36,10.45a2.58,2.58,0,0,1-2.55,1.76,4.47,4.47,0,0,1-1-.12Z"/><path class="cls-3" d="M1019.69,229.1l2.16-2.71a6.57,6.57,0,0,0,4.84,2c2.17,0,3.4-1.23,3.4-2.71s-1.21-2.71-3.29-2.71a5.25,5.25,0,0,0-3.83,1.48l-2.71-.72V213.25h12.54v3.42h-8.65v4.46a5.79,5.79,0,0,1,4-1.53,5.71,5.71,0,0,1,5.86,5.91c0,3.89-2.9,6.33-7.31,6.33A9.1,9.1,0,0,1,1019.69,229.1Z"/><path class="cls-3" d="M1051.36,231.51v-3.78h-8.73v-3.07l7.25-11.41h5.36v11.06h2.36v3.42h-2.36v3.78Zm0-14.81-4.93,7.61h4.93Z"/><path class="cls-3" d="M1059.18,222.42c0-5.53,3.13-9.44,8.52-9.44a8.23,8.23,0,0,1,5.39,1.88l-1.75,3a4.86,4.86,0,0,0-3.64-1.42c-2.68,0-4.57,2.27-4.57,5.17a2.36,2.36,0,0,0,0,.38,6,6,0,0,1,4.69-2.35c3.28,0,6.21,2.05,6.21,5.94,0,3.56-2.82,6.27-7,6.27C1061.51,231.84,1059.18,227.57,1059.18,222.42Zm10.93,3.28c0-1.91-1.64-2.73-3.4-2.73a4.59,4.59,0,0,0-3.56,1.72c.17,1.75,1.15,3.7,3.7,3.7C1069,228.39,1070.11,227,1070.11,225.7Z"/><path class="cls-3" d="M1075.8,222.39c0-4.71,2.33-9.41,7.56-9.41s7.55,4.7,7.55,9.41-2.35,9.45-7.55,9.45S1075.8,227.1,1075.8,222.39Zm11.14,0c0-3.36-1-6-3.58-6s-3.62,2.6-3.62,6,1,6,3.62,6S1086.94,225.76,1086.94,222.39Z"/><path class="cls-3" d="M1099.72,222.39c0-4.71,2.33-9.41,7.56-9.41s7.56,4.7,7.56,9.41-2.36,9.45-7.56,9.45S1099.72,227.1,1099.72,222.39Zm11.15,0c0-3.36-1-6-3.59-6s-3.61,2.6-3.61,6,1,6,3.61,6S1110.87,225.76,1110.87,222.39Z"/><path class="cls-3" d="M1116.67,222.39c0-4.71,2.33-9.41,7.55-9.41s7.56,4.7,7.56,9.41-2.35,9.45-7.56,9.45S1116.67,227.1,1116.67,222.39Zm11.14,0c0-3.36-1-6-3.59-6s-3.61,2.6-3.61,6,1,6,3.61,6S1127.81,225.76,1127.81,222.39Z"/><path class="cls-3" d="M1133.61,222.39c0-4.71,2.33-9.41,7.56-9.41s7.55,4.7,7.55,9.41-2.35,9.45-7.55,9.45S1133.61,227.1,1133.61,222.39Zm11.14,0c0-3.36-1-6-3.58-6s-3.62,2.6-3.62,6,1,6,3.62,6S1144.75,225.76,1144.75,222.39Z"/><path class="cls-4" d="M1132.39,185.67l1.18-2a3.36,3.36,0,0,0,2.5,1c2.06,0,3.13-1.73,3.13-3.53v-.28a4.13,4.13,0,0,1-3.23,1.62,4,4,0,0,1-4.28-4.08c0-2.44,2-4.3,4.81-4.3,3.79,0,5.39,2.93,5.39,6.48,0,3.77-2.13,6.46-5.82,6.46A5.46,5.46,0,0,1,1132.39,185.67Zm6.79-6.72a2.52,2.52,0,0,0-2.55-2.55,2,2,0,0,0-2.21,1.84c0,1.31,1.14,1.88,2.3,1.88A3.22,3.22,0,0,0,1139.18,179Z"/><path class="cls-4" d="M1143,177.21a3.19,3.19,0,0,1,6.37,0,3.19,3.19,0,0,1-6.37,0Zm4.66,0a1.49,1.49,0,1,0-1.49,1.61A1.49,1.49,0,0,0,1147.67,177.21Zm-2.71,9.55,8-12.52h1.43l-8,12.52Zm4.94-2.87a3.18,3.18,0,1,1,3.17,3.09A3,3,0,0,1,1149.9,183.89Zm4.67,0a1.5,1.5,0,1,0-3,0,1.5,1.5,0,1,0,3,0Z"/><path class="cls-4" d="M1088,286c0-3.79,2.14-6.48,5.84-6.48a5.66,5.66,0,0,1,3.7,1.3l-1.2,2.05a3.33,3.33,0,0,0-2.5-1,3.27,3.27,0,0,0-3.13,3.55,1.14,1.14,0,0,0,0,.26,4.06,4.06,0,0,1,3.21-1.62,4,4,0,0,1,4.26,4.08c0,2.44-1.94,4.3-4.79,4.3C1089.56,292.5,1088,289.57,1088,286Zm7.49,2.25c0-1.31-1.12-1.88-2.32-1.88a3.14,3.14,0,0,0-2.44,1.19,2.5,2.5,0,0,0,2.53,2.53A2,2,0,0,0,1095.45,288.29Z"/><path class="cls-4" d="M1099.21,282.72a3.18,3.18,0,0,1,6.36,0,3.18,3.18,0,0,1-6.36,0Zm4.65,0a1.49,1.49,0,1,0-1.48,1.61A1.49,1.49,0,0,0,1103.86,282.72Zm-2.7,9.55,8-12.52h1.42l-8,12.52Zm4.94-2.87a3.18,3.18,0,1,1,3.17,3.1A3,3,0,0,1,1106.1,289.4Zm4.67,0a1.51,1.51,0,0,0-1.5-1.67,1.49,1.49,0,0,0-1.48,1.67,1.47,1.47,0,0,0,1.48,1.63A1.49,1.49,0,0,0,1110.77,289.4Z"/><path class="cls-4" d="M1132.35,387.59a3.58,3.58,0,0,1,2.69-3.21c-1.39-.49-2.48-1.39-2.48-2.95,0-2.34,2.49-3.3,4.82-3.3s4.83,1,4.83,3.3c0,1.56-1.11,2.46-2.5,2.95a3.61,3.61,0,0,1,2.7,3.21c0,2.32-2.4,3.47-5,3.47S1132.35,389.93,1132.35,387.59Zm7.36-.34c0-1.05-1.56-1.56-2.33-1.67-.79.11-2.33.62-2.33,1.67s1,1.52,2.33,1.52S1139.71,388.17,1139.71,387.25Zm-.23-5.41c0-.9-.88-1.42-2.1-1.42s-2.12.52-2.12,1.42,1.35,1.37,2.12,1.49C1138.15,383.21,1139.48,382.78,1139.48,381.84Z"/><path class="cls-4" d="M1143.54,381.28a3.18,3.18,0,0,1,6.36,0,3.18,3.18,0,0,1-6.36,0Zm4.65,0a1.49,1.49,0,1,0-1.48,1.61A1.49,1.49,0,0,0,1148.19,381.28Zm-2.7,9.55,8-12.51h1.42l-8,12.51Zm4.94-2.87a3.18,3.18,0,1,1,3.17,3.1A3,3,0,0,1,1150.43,388Zm4.67,0a1.51,1.51,0,0,0-1.5-1.67,1.49,1.49,0,0,0-1.48,1.67,1.47,1.47,0,0,0,1.48,1.64A1.49,1.49,0,0,0,1155.1,388Z"/><path class="cls-4" d="M1081.86,493.6v-2.08c5.13-3.79,6.63-5.09,6.63-6.62,0-1.09-1-1.64-2-1.64a4.49,4.49,0,0,0-3.36,1.45l-1.52-1.77a6.4,6.4,0,0,1,4.82-2c2.67,0,4.79,1.5,4.79,4,0,2.14-1.76,4-5,6.36h5.1v2.34Z"/><path class="cls-4" d="M1092.71,484.05a3.18,3.18,0,0,1,6.36,0,3.18,3.18,0,0,1-6.36,0Zm4.66,0a1.49,1.49,0,1,0-1.49,1.62A1.49,1.49,0,0,0,1097.37,484.05Zm-2.71,9.55,8-12.51h1.43l-8,12.51Zm4.94-2.87a3.18,3.18,0,1,1,3.17,3.1A3,3,0,0,1,1099.6,490.73Zm4.67,0a1.5,1.5,0,1,0-3,0,1.5,1.5,0,1,0,3,0Z"/><path class="cls-4" d="M1065.55,596.22v-2.08c5.13-3.79,6.63-5.09,6.63-6.62,0-1.09-1-1.64-2-1.64a4.45,4.45,0,0,0-3.36,1.45l-1.52-1.77a6.36,6.36,0,0,1,4.82-2c2.67,0,4.79,1.5,4.79,4,0,2.13-1.77,4-5,6.36h5.1v2.34Z"/><path class="cls-4" d="M1076.4,586.67a3.18,3.18,0,0,1,6.36,0,3.18,3.18,0,0,1-6.36,0Zm4.65,0a1.48,1.48,0,0,0-1.48-1.67,1.65,1.65,0,0,0,0,3.28A1.47,1.47,0,0,0,1081.05,586.67Zm-2.7,9.55,8-12.52h1.42l-8,12.52Zm4.94-2.87a3.18,3.18,0,1,1,3.17,3.1A3,3,0,0,1,1083.29,593.35Zm4.67,0a1.5,1.5,0,1,0-3,0,1.5,1.5,0,1,0,3,0Z"/><path class="cls-2" d="M1026.12,301l-3.06-4.77h-2.39V301h-1.5V289H1024a3.49,3.49,0,0,1,3.76,3.62,3.31,3.31,0,0,1-3.11,3.48l3.24,4.9Zm.09-8.38a2.24,2.24,0,0,0-2.4-2.29h-3.14v4.59h3.14A2.25,2.25,0,0,0,1026.21,292.58Z"/><path class="cls-2" d="M1029,296.6a4.35,4.35,0,0,1,4.28-4.55c2.63,0,4.18,2.05,4.18,4.66v.34h-7a3.07,3.07,0,0,0,3.13,3,3.8,3.8,0,0,0,2.68-1.1l.65.88a4.68,4.68,0,0,1-3.45,1.33A4.31,4.31,0,0,1,1029,296.6Zm4.26-3.43a2.89,2.89,0,0,0-2.84,2.89h5.71A2.82,2.82,0,0,0,1033.27,293.17Z"/><path class="cls-2" d="M1038.89,299.81l.7-1a3.94,3.94,0,0,0,2.86,1.24c1.33,0,2-.63,2-1.5,0-2.1-5.38-.81-5.38-4,0-1.35,1.17-2.5,3.24-2.5a4.41,4.41,0,0,1,3.22,1.26l-.63.94a3.39,3.39,0,0,0-2.59-1.1c-1.19,0-1.93.59-1.93,1.37,0,1.9,5.38.65,5.38,4,0,1.45-1.17,2.62-3.42,2.62A4.62,4.62,0,0,1,1038.89,299.81Z"/><path class="cls-2" d="M1047.5,296.6a4.35,4.35,0,0,1,4.28-4.55c2.63,0,4.18,2.05,4.18,4.66v.34h-7a3.07,3.07,0,0,0,3.13,3,3.8,3.8,0,0,0,2.68-1.1l.65.88a4.68,4.68,0,0,1-3.45,1.33A4.31,4.31,0,0,1,1047.5,296.6Zm4.27-3.43a2.9,2.9,0,0,0-2.85,2.89h5.71A2.82,2.82,0,0,0,1051.77,293.17Z"/><path class="cls-2" d="M1058.13,301v-8.69h1.35v1.4a3.68,3.68,0,0,1,2.9-1.58v1.38a2.84,2.84,0,0,0-.54-.05,3.17,3.17,0,0,0-2.36,1.39V301Z"/><path class="cls-2" d="M1066.39,301l-3.62-8.69h1.46l2.9,7.12,2.88-7.12h1.47l-3.61,8.69Z"/><path class="cls-2" d="M1072.38,296.6a4.35,4.35,0,0,1,4.28-4.55c2.63,0,4.17,2.05,4.17,4.66v.34h-7a3.07,3.07,0,0,0,3.13,3,3.8,3.8,0,0,0,2.68-1.1l.65.88a4.7,4.7,0,0,1-3.46,1.33A4.3,4.3,0,0,1,1072.38,296.6Zm4.26-3.43a2.89,2.89,0,0,0-2.84,2.89h5.7A2.81,2.81,0,0,0,1076.64,293.17Z"/><path class="cls-3" d="M1018.89,331.33l2-2.6a7.3,7.3,0,0,0,5,2.08c2.21,0,3.44-1,3.44-2.33s-1.12-2.11-3.66-2.11c-.77,0-2,0-2.28.06v-3.51c.33,0,1.59,0,2.28,0,2,0,3.36-.6,3.36-1.94s-1.47-2.16-3.39-2.16a6.59,6.59,0,0,0-4.63,1.88l-1.94-2.43a9,9,0,0,1,7-2.9c4.27,0,6.9,1.91,6.9,5,0,2.3-2,3.81-4,4.16a4.58,4.58,0,0,1,4.27,4.38c0,3.15-2.82,5.37-7.2,5.37A9.13,9.13,0,0,1,1018.89,331.33Z"/><path class="cls-3" d="M1042.3,324.84c0-5.53,3.12-9.44,8.51-9.44a8.18,8.18,0,0,1,5.39,1.89l-1.75,3a4.83,4.83,0,0,0-3.64-1.42c-2.68,0-4.57,2.27-4.57,5.17a1.58,1.58,0,0,0,0,.38,5.92,5.92,0,0,1,4.68-2.35c3.28,0,6.21,2.05,6.21,5.94,0,3.56-2.82,6.27-7,6.27C1044.62,334.26,1042.3,330,1042.3,324.84Zm10.92,3.29c0-1.92-1.64-2.74-3.4-2.74a4.57,4.57,0,0,0-3.55,1.72c.16,1.75,1.15,3.7,3.69,3.7C1052.07,330.81,1053.22,329.41,1053.22,328.13Z"/><path class="cls-3" d="M1067.4,333.93v-3.78h-8.73v-3.06l7.25-11.42h5.36v11.06h2.36v3.42h-2.36v3.78Zm0-14.81-4.93,7.61h4.93Z"/><path class="cls-3" d="M1075.23,324.81c0-4.71,2.32-9.41,7.55-9.41s7.56,4.7,7.56,9.41-2.36,9.45-7.56,9.45S1075.23,329.52,1075.23,324.81Zm11.14,0c0-3.36-1-6-3.59-6s-3.61,2.6-3.61,6,1,6,3.61,6S1086.37,328.18,1086.37,324.81Z"/><path class="cls-3" d="M1099.15,324.81c0-4.71,2.33-9.41,7.56-9.41s7.55,4.7,7.55,9.41-2.35,9.45-7.55,9.45S1099.15,329.52,1099.15,324.81Zm11.14,0c0-3.36-1-6-3.58-6s-3.62,2.6-3.62,6,1,6,3.62,6S1110.29,328.18,1110.29,324.81Z"/><path class="cls-3" d="M1116.09,324.81c0-4.71,2.33-9.41,7.56-9.41s7.55,4.7,7.55,9.41-2.35,9.45-7.55,9.45S1116.09,329.52,1116.09,324.81Zm11.15,0c0-3.36-1-6-3.59-6s-3.61,2.6-3.61,6,1,6,3.61,6S1127.24,328.18,1127.24,324.81Z"/><path class="cls-3" d="M1133,324.81c0-4.71,2.32-9.41,7.55-9.41s7.56,4.7,7.56,9.41-2.36,9.45-7.56,9.45S1133,329.52,1133,324.81Zm11.14,0c0-3.36-1-6-3.59-6s-3.61,2.6-3.61,6,1,6,3.61,6S1144.18,328.18,1144.18,324.81Z"/><path class="cls-2" d="M1019.17,403.38v-12h4.1a6,6,0,1,1,0,12Zm8.71-6a4.39,4.39,0,0,0-4.61-4.68h-2.6v9.34h2.6A4.41,4.41,0,0,0,1027.88,397.39Z"/><path class="cls-2" d="M1031.21,399a4.35,4.35,0,0,1,4.28-4.56c2.62,0,4.17,2,4.17,4.66v.35h-7a3.06,3.06,0,0,0,3.13,3,3.82,3.82,0,0,0,2.68-1.1l.65.88a4.73,4.73,0,0,1-3.46,1.34A4.31,4.31,0,0,1,1031.21,399Zm4.26-3.44a2.9,2.9,0,0,0-2.84,2.9h5.7A2.82,2.82,0,0,0,1035.47,395.59Z"/><path class="cls-2" d="M1044.16,403.38l-3.62-8.69H1042l2.89,7.12,2.88-7.12h1.48l-3.62,8.69Z"/><path class="cls-2" d="M1050.15,399a4.35,4.35,0,0,1,4.28-4.56c2.62,0,4.17,2,4.17,4.66v.35h-7a3.06,3.06,0,0,0,3.13,3,3.82,3.82,0,0,0,2.68-1.1l.65.88a4.73,4.73,0,0,1-3.46,1.34A4.31,4.31,0,0,1,1050.15,399Zm4.26-3.44a2.9,2.9,0,0,0-2.84,2.9h5.7A2.82,2.82,0,0,0,1054.41,395.59Z"/><path class="cls-2" d="M1060.78,403.38v-12h1.35v12Z"/><path class="cls-2" d="M1064.32,399a4.31,4.31,0,1,1,4.3,4.57A4.27,4.27,0,0,1,1064.32,399Zm7.18,0c0-1.77-1-3.35-2.88-3.35s-2.9,1.58-2.9,3.35,1,3.36,2.9,3.36S1071.5,400.81,1071.5,399Z"/><path class="cls-2" d="M1076.46,402.07v4.62h-1.35v-12h1.35V396a3.62,3.62,0,0,1,2.93-1.52c2.29,0,3.87,1.73,3.87,4.56s-1.58,4.57-3.87,4.57A3.57,3.57,0,0,1,1076.46,402.07Zm5.38-3c0-1.93-1-3.35-2.79-3.35a3.23,3.23,0,0,0-2.59,1.38V401a3.24,3.24,0,0,0,2.59,1.4C1080.8,402.39,1081.84,401,1081.84,399Z"/><path class="cls-2" d="M1095.89,403.38v-5.9c0-1.1-.49-1.8-1.6-1.8A3,3,0,0,0,1092,397v6.37h-1.35v-5.9c0-1.1-.47-1.8-1.6-1.8a3,3,0,0,0-2.29,1.35v6.35h-1.35v-8.69h1.35V396a3.75,3.75,0,0,1,2.81-1.48,2.24,2.24,0,0,1,2.34,1.62,3.64,3.64,0,0,1,2.91-1.62c1.58,0,2.43.89,2.43,2.63v6.28Z"/><path class="cls-2" d="M1099.43,399a4.35,4.35,0,0,1,4.28-4.56c2.63,0,4.18,2,4.18,4.66v.35h-7a3.06,3.06,0,0,0,3.13,3,3.8,3.8,0,0,0,2.68-1.1l.65.88a4.69,4.69,0,0,1-3.45,1.34A4.32,4.32,0,0,1,1099.43,399Zm4.27-3.44a2.9,2.9,0,0,0-2.85,2.9h5.71A2.82,2.82,0,0,0,1103.7,395.59Z"/><path class="cls-2" d="M1115.93,403.38v-5.69c0-1.52-.78-2-1.94-2a3.37,3.37,0,0,0-2.58,1.35v6.35h-1.35v-8.69h1.35V396a4.31,4.31,0,0,1,3.1-1.48,2.47,2.47,0,0,1,2.77,2.81v6.1Z"/><path class="cls-2" d="M1120.24,401.56v-5.68h-1.44v-1.19h1.44v-2.37h1.35v2.37h1.77v1.19h-1.77v5.39c0,.65.29,1.12.88,1.12a1.3,1.3,0,0,0,.92-.36l.4,1a2.22,2.22,0,0,1-1.62.56A1.78,1.78,0,0,1,1120.24,401.56Z"/><path class="cls-3" d="M1019.69,433.94l2.16-2.71a6.57,6.57,0,0,0,4.84,2c2.17,0,3.4-1.23,3.4-2.71s-1.21-2.71-3.29-2.71a5.25,5.25,0,0,0-3.83,1.48l-2.71-.71V418.09h12.54v3.42h-8.65V426a5.9,5.9,0,0,1,9.88,4.38c0,3.88-2.9,6.32-7.31,6.32A9.1,9.1,0,0,1,1019.69,433.94Z"/><path class="cls-3" d="M1042.87,427.24c0-4.71,2.33-9.42,7.56-9.42s7.55,4.71,7.55,9.42-2.35,9.44-7.55,9.44S1042.87,431.94,1042.87,427.24Zm11.14,0c0-3.37-1-6-3.58-6s-3.62,2.6-3.62,6,1,6,3.62,6S1054,430.6,1054,427.24Z"/><path class="cls-3" d="M1059.81,427.24c0-4.71,2.33-9.42,7.56-9.42s7.56,4.71,7.56,9.42-2.36,9.44-7.56,9.44S1059.81,431.94,1059.81,427.24Zm11.15,0c0-3.37-1-6-3.59-6s-3.61,2.6-3.61,6,1,6,3.61,6S1071,430.6,1071,427.24Z"/><path class="cls-3" d="M1076.76,427.24c0-4.71,2.33-9.42,7.55-9.42s7.56,4.71,7.56,9.42-2.35,9.44-7.56,9.44S1076.76,431.94,1076.76,427.24Zm11.14,0c0-3.37-1-6-3.59-6s-3.61,2.6-3.61,6,1,6,3.61,6S1087.9,430.6,1087.9,427.24Z"/><path class="cls-3" d="M1100.68,427.24c0-4.71,2.33-9.42,7.56-9.42s7.55,4.71,7.55,9.42-2.35,9.44-7.55,9.44S1100.68,431.94,1100.68,427.24Zm11.14,0c0-3.37-1-6-3.58-6s-3.61,2.6-3.61,6,1,6,3.61,6S1111.82,430.6,1111.82,427.24Z"/><path class="cls-3" d="M1117.63,427.24c0-4.71,2.32-9.42,7.55-9.42s7.56,4.71,7.56,9.42-2.36,9.44-7.56,9.44S1117.63,431.94,1117.63,427.24Zm11.14,0c0-3.37-1-6-3.59-6s-3.61,2.6-3.61,6,1,6,3.61,6S1128.77,430.6,1128.77,427.24Z"/><path class="cls-3" d="M1134.57,427.24c0-4.71,2.33-9.42,7.56-9.42s7.55,4.71,7.55,9.42-2.35,9.44-7.55,9.44S1134.57,431.94,1134.57,427.24Zm11.14,0c0-3.37-1-6-3.58-6s-3.62,2.6-3.62,6,1,6,3.62,6S1145.71,430.6,1145.71,427.24Z"/><path class="cls-2" d="M1018.69,499.81a6,6,0,0,1,6.17-6.21,5.37,5.37,0,0,1,4.55,2.38l-1.26.7a4,4,0,0,0-3.29-1.75,4.88,4.88,0,0,0,0,9.75,4,4,0,0,0,3.29-1.74l1.28.7a5.43,5.43,0,0,1-4.57,2.38A6,6,0,0,1,1018.69,499.81Z"/><path class="cls-2" d="M1037.16,505.8v-5.72c0-1.53-.79-2-2-2a3.42,3.42,0,0,0-2.57,1.35v6.35h-1.35v-12h1.35v4.57a4.32,4.32,0,0,1,3.11-1.48,2.45,2.45,0,0,1,2.77,2.78v6.13Z"/><path class="cls-2" d="M1046.64,505.8v-1a3.77,3.77,0,0,1-2.88,1.21,2.9,2.9,0,0,1-3-2.88,2.84,2.84,0,0,1,3-2.86,3.62,3.62,0,0,1,2.88,1.18V499.9c0-1.17-.94-1.84-2.19-1.84a3.46,3.46,0,0,0-2.67,1.21l-.63-.94a4.57,4.57,0,0,1,3.48-1.44c1.83,0,3.36.83,3.36,2.94v6Zm0-1.83v-1.64a2.91,2.91,0,0,0-2.39-1.08,1.91,1.91,0,1,0,0,3.79A2.93,2.93,0,0,0,1046.64,504Z"/><path class="cls-2" d="M1050.69,505.8v-8.69H1052v1.4a3.69,3.69,0,0,1,2.89-1.58v1.39a2.12,2.12,0,0,0-.54-.06,3.16,3.16,0,0,0-2.35,1.39v6.15Z"/><path class="cls-2" d="M1056.39,495a.92.92,0,0,1,.9-.92.93.93,0,0,1,.92.92.91.91,0,0,1-.92.9A.9.9,0,0,1,1056.39,495Zm.23,10.83v-8.69H1058v8.69Z"/><path class="cls-2" d="M1060.94,504V498.3h-1.44v-1.19h1.44v-2.37h1.35v2.37h1.76v1.19h-1.76v5.4c0,.64.29,1.11.88,1.11a1.3,1.3,0,0,0,.92-.36l.39,1a2.21,2.21,0,0,1-1.62.56A1.78,1.78,0,0,1,1060.94,504Z"/><path class="cls-2" d="M1065.69,508a2.07,2.07,0,0,0,.74.14,1.24,1.24,0,0,0,1.29-.92l.58-1.31-3.64-8.78h1.46l2.9,7.12,2.87-7.12h1.48L1069,507.56a2.61,2.61,0,0,1-2.56,1.77,4.47,4.47,0,0,1-1-.13Z"/><path class="cls-3" d="M1023.9,538.77V525.52l-3,3.1-2.21-2.33,5.74-5.78h3.4v18.26Z"/><path class="cls-3" d="M1037.48,529.66c0-4.71,2.33-9.42,7.55-9.42s7.56,4.71,7.56,9.42-2.35,9.44-7.56,9.44S1037.48,534.36,1037.48,529.66Zm11.14,0c0-3.37-1-6-3.59-6s-3.61,2.6-3.61,6,1,6,3.61,6S1048.62,533,1048.62,529.66Z"/><path class="cls-3" d="M1054.42,529.66c0-4.71,2.33-9.42,7.56-9.42s7.55,4.71,7.55,9.42-2.35,9.44-7.55,9.44S1054.42,534.36,1054.42,529.66Zm11.14,0c0-3.37-1-6-3.58-6s-3.62,2.6-3.62,6,1,6,3.62,6S1065.56,533,1065.56,529.66Z"/><path class="cls-3" d="M1071.37,529.66c0-4.71,2.32-9.42,7.55-9.42s7.56,4.71,7.56,9.42-2.36,9.44-7.56,9.44S1071.37,534.36,1071.37,529.66Zm11.14,0c0-3.37-1-6-3.59-6s-3.61,2.6-3.61,6,1,6,3.61,6S1082.51,533,1082.51,529.66Z"/><path class="cls-3" d="M1095.29,529.66c0-4.71,2.33-9.42,7.56-9.42s7.55,4.71,7.55,9.42-2.35,9.44-7.55,9.44S1095.29,534.36,1095.29,529.66Zm11.14,0c0-3.37-1-6-3.58-6s-3.62,2.6-3.62,6,1,6,3.62,6S1106.43,533,1106.43,529.66Z"/><path class="cls-3" d="M1112.23,529.66c0-4.71,2.33-9.42,7.56-9.42s7.55,4.71,7.55,9.42-2.35,9.44-7.55,9.44S1112.23,534.36,1112.23,529.66Zm11.15,0c0-3.37-1-6-3.59-6s-3.61,2.6-3.61,6,1,6,3.61,6S1123.38,533,1123.38,529.66Z"/><path class="cls-3" d="M1129.18,529.66c0-4.71,2.33-9.42,7.55-9.42s7.56,4.71,7.56,9.42-2.36,9.44-7.56,9.44S1129.18,534.36,1129.18,529.66Zm11.14,0c0-3.37-1-6-3.59-6s-3.61,2.6-3.61,6,1,6,3.61,6S1140.32,533,1140.32,529.66Z"/><path class="cls-2" d="M1019.17,608.22v-12h5.34c2.09,0,3.37,1.26,3.37,3.06a2.72,2.72,0,0,1-2.11,2.75,3,3,0,0,1,2.34,3c0,1.93-1.27,3.24-3.47,3.24Zm7.16-8.72a1.89,1.89,0,0,0-2.07-2h-3.59v3.87h3.59A1.86,1.86,0,0,0,1026.33,599.5Zm.24,5.32a2,2,0,0,0-2.23-2.07h-3.67v4.14h3.67A2,2,0,0,0,1026.57,604.82Z"/><path class="cls-2" d="M1036.3,608.22V607a4.28,4.28,0,0,1-3.1,1.44,2.45,2.45,0,0,1-2.77-2.77v-6.14h1.35v5.72c0,1.53.77,2,1.94,2a3.34,3.34,0,0,0,2.58-1.31v-6.39h1.35v8.69Z"/><path class="cls-2" d="M1040.34,608.22v-8.69h1.35v1.4a3.71,3.71,0,0,1,2.9-1.58v1.39a2.12,2.12,0,0,0-.54-.06,3.2,3.2,0,0,0-2.36,1.39v6.15Z"/><path class="cls-2" d="M1052.14,608.22v-5.68c0-1.53-.77-2-1.94-2a3.35,3.35,0,0,0-2.57,1.35v6.35h-1.35v-8.69h1.35v1.26a4.3,4.3,0,0,1,3.09-1.47,2.46,2.46,0,0,1,2.77,2.8v6.1Z"/><path class="cls-3" d="M1023.9,641.19V627.94l-3,3.1-2.21-2.33,5.74-5.78h3.4v18.26Z"/><path class="cls-3" d="M1037.48,632.08c0-4.71,2.33-9.42,7.55-9.42s7.56,4.71,7.56,9.42-2.35,9.44-7.56,9.44S1037.48,636.79,1037.48,632.08Zm11.14,0c0-3.37-1-6-3.59-6s-3.61,2.6-3.61,6,1,6,3.61,6S1048.62,635.44,1048.62,632.08Z"/><path class="cls-3" d="M1054.42,632.08c0-4.71,2.33-9.42,7.56-9.42s7.55,4.71,7.55,9.42-2.35,9.44-7.55,9.44S1054.42,636.79,1054.42,632.08Zm11.14,0c0-3.37-1-6-3.58-6s-3.62,2.6-3.62,6,1,6,3.62,6S1065.56,635.44,1065.56,632.08Z"/><path class="cls-3" d="M1071.37,632.08c0-4.71,2.32-9.42,7.55-9.42s7.56,4.71,7.56,9.42-2.36,9.44-7.56,9.44S1071.37,636.79,1071.37,632.08Zm11.14,0c0-3.37-1-6-3.59-6s-3.61,2.6-3.61,6,1,6,3.61,6S1082.51,635.44,1082.51,632.08Z"/><path class="cls-3" d="M1095.29,632.08c0-4.71,2.33-9.42,7.56-9.42s7.55,4.71,7.55,9.42-2.35,9.44-7.55,9.44S1095.29,636.79,1095.29,632.08Zm11.14,0c0-3.37-1-6-3.58-6s-3.62,2.6-3.62,6,1,6,3.62,6S1106.43,635.44,1106.43,632.08Z"/><path class="cls-3" d="M1112.23,632.08c0-4.71,2.33-9.42,7.56-9.42s7.55,4.71,7.55,9.42-2.35,9.44-7.55,9.44S1112.23,636.79,1112.23,632.08Zm11.15,0c0-3.37-1-6-3.59-6s-3.61,2.6-3.61,6,1,6,3.61,6S1123.38,635.44,1123.38,632.08Z"/><path class="cls-3" d="M1129.18,632.08c0-4.71,2.33-9.42,7.55-9.42s7.56,4.71,7.56,9.42-2.36,9.44-7.56,9.44S1129.18,636.79,1129.18,632.08Zm11.14,0c0-3.37-1-6-3.59-6s-3.61,2.6-3.61,6,1,6,3.61,6S1140.32,635.44,1140.32,632.08Z"/><path class="cls-4" d="M1159,702l4.49-10.18h-6.31v-2.34h9.41v1.86L1161.92,702Z"/><path class="cls-4" d="M1167.42,692.4a3.18,3.18,0,0,1,6.36,0,3.18,3.18,0,0,1-6.36,0Zm4.66,0a1.49,1.49,0,1,0-1.49,1.62A1.49,1.49,0,0,0,1172.08,692.4Zm-2.71,9.56,8-12.52h1.42l-8,12.52Zm4.94-2.88a3.18,3.18,0,1,1,3.17,3.1A3,3,0,0,1,1174.31,699.08Zm4.67,0a1.5,1.5,0,1,0-3,0,1.5,1.5,0,1,0,3,0Z"/><path class="cls-2" d="M1018.45,709l.88-1.13a5.1,5.1,0,0,0,3.78,1.71c2.14,0,2.83-1.15,2.83-2.07,0-3.1-7.11-1.39-7.11-5.67,0-2,1.76-3.33,4.12-3.33a5.62,5.62,0,0,1,4.26,1.68l-.9,1.09a4.57,4.57,0,0,0-3.47-1.43c-1.44,0-2.46.77-2.46,1.9,0,2.7,7.1,1.15,7.1,5.63,0,1.75-1.18,3.53-4.42,3.53A5.93,5.93,0,0,1,1018.45,709Z"/><path class="cls-2" d="M1029.62,708.83v-5.69h-1.44V702h1.44v-2.37H1031V702h1.77v1.19H1031v5.4c0,.65.29,1.11.88,1.11a1.3,1.3,0,0,0,.92-.36l.4,1a2.18,2.18,0,0,1-1.62.56A1.78,1.78,0,0,1,1029.62,708.83Z"/><path class="cls-2" d="M1040.07,710.64v-1a3.75,3.75,0,0,1-2.87,1.21,2.89,2.89,0,0,1-3-2.88,2.84,2.84,0,0,1,3-2.86,3.62,3.62,0,0,1,2.87,1.19v-1.57c0-1.17-.93-1.83-2.19-1.83a3.43,3.43,0,0,0-2.66,1.2l-.63-.93a4.54,4.54,0,0,1,3.47-1.44c1.83,0,3.36.83,3.36,2.93v6Zm0-1.83v-1.64a2.89,2.89,0,0,0-2.39-1.08,1.91,1.91,0,1,0,0,3.8A2.89,2.89,0,0,0,1040.07,708.81Z"/><path class="cls-2" d="M1050,710.64l-3.13-3.9-1.44,1.42v2.48h-1.35v-12h1.35v7.94L1050,702h1.71l-3.85,3.94,3.87,4.75Z"/><path class="cls-2" d="M1053.13,699.81a.91.91,0,1,1,1.82,0,.91.91,0,0,1-1.82,0Zm.24,10.83V702h1.35v8.69Z"/><path class="cls-2" d="M1063.28,710.64V705c0-1.53-.77-2-1.94-2a3.37,3.37,0,0,0-2.58,1.35v6.35h-1.35V702h1.35v1.26a4.33,4.33,0,0,1,3.1-1.47,2.47,2.47,0,0,1,2.77,2.8v6.1Z"/><path class="cls-2" d="M1067.31,712.87l.68-1a3.32,3.32,0,0,0,2.82,1.18,2.49,2.49,0,0,0,2.79-2.61V709.2a3.61,3.61,0,0,1-2.91,1.55c-2.27,0-3.87-1.69-3.87-4.5s1.58-4.51,3.87-4.51a3.57,3.57,0,0,1,2.91,1.53V702H1075v8.44c0,2.88-2,3.78-4.14,3.78A4.42,4.42,0,0,1,1067.31,712.87Zm6.29-4.73v-3.79a3.18,3.18,0,0,0-2.59-1.41c-1.74,0-2.79,1.39-2.79,3.31s1,3.31,2.79,3.31A3.19,3.19,0,0,0,1073.6,708.14Z"/><path class="cls-2" d="M1089.29,710.64l-3.06-4.76h-2.39v4.76h-1.49v-12h4.82a3.5,3.5,0,0,1,3.76,3.62,3.32,3.32,0,0,1-3.12,3.49l3.24,4.89Zm.09-8.38A2.22,2.22,0,0,0,1087,700h-3.15v4.58H1087A2.24,2.24,0,0,0,1089.38,702.26Z"/><path class="cls-2" d="M1092.18,706.29a4.35,4.35,0,0,1,4.29-4.55c2.62,0,4.17,2,4.17,4.66v.34h-7a3.06,3.06,0,0,0,3.14,3,3.82,3.82,0,0,0,2.68-1.09l.64.88a4.72,4.72,0,0,1-3.45,1.33A4.31,4.31,0,0,1,1092.18,706.29Zm4.27-3.44a2.91,2.91,0,0,0-2.85,2.9h5.71A2.82,2.82,0,0,0,1096.45,702.85Z"/><path class="cls-2" d="M1110.33,710.64l-2.26-7-2.27,7h-1.35l-2.77-8.69h1.4l2.13,6.93,2.28-6.93h1.15l2.29,6.93,2.12-6.93h1.4l-2.77,8.69Z"/><path class="cls-2" d="M1121.45,710.64v-1a3.77,3.77,0,0,1-2.88,1.21,2.9,2.9,0,0,1-3-2.88,2.85,2.85,0,0,1,3-2.86,3.63,3.63,0,0,1,2.88,1.19v-1.57c0-1.17-.94-1.83-2.19-1.83a3.45,3.45,0,0,0-2.67,1.2l-.63-.93a4.57,4.57,0,0,1,3.48-1.44c1.83,0,3.36.83,3.36,2.93v6Zm0-1.83v-1.64a2.91,2.91,0,0,0-2.39-1.08,1.91,1.91,0,1,0,0,3.8A2.91,2.91,0,0,0,1121.45,708.81Z"/><path class="cls-2" d="M1125.5,710.64V702h1.35v1.41a3.68,3.68,0,0,1,2.89-1.59v1.39a2.12,2.12,0,0,0-.54-.06,3.18,3.18,0,0,0-2.35,1.39v6.15Z"/><path class="cls-2" d="M1137.73,710.64v-1.29a3.67,3.67,0,0,1-2.93,1.51c-2.27,0-3.87-1.73-3.87-4.55s1.58-4.57,3.87-4.57a3.61,3.61,0,0,1,2.93,1.53v-4.63h1.35v12Zm0-2.35v-3.94a3.26,3.26,0,0,0-2.61-1.41c-1.74,0-2.79,1.44-2.79,3.37s1.05,3.34,2.79,3.34A3.25,3.25,0,0,0,1137.73,708.29Z"/><path class="cls-2" d="M1141,709.49l.7-1a3.92,3.92,0,0,0,2.86,1.24c1.33,0,2.05-.63,2.05-1.49,0-2.11-5.38-.81-5.38-4,0-1.35,1.17-2.5,3.24-2.5a4.39,4.39,0,0,1,3.22,1.26l-.63.93a3.37,3.37,0,0,0-2.59-1.09c-1.19,0-1.92.59-1.92,1.36,0,1.91,5.38.65,5.38,4,0,1.46-1.17,2.63-3.42,2.63A4.61,4.61,0,0,1,1141,709.49Z"/><path class="cls-3" d="M1027.76,743.61v-3.77H1019v-3.07l7.25-11.41h5.37v11.06H1034v3.42h-2.35v3.77Zm0-14.8-4.93,7.61h4.93Z"/><path class="cls-3" d="M1042.92,743.61v-3c7.48-5.53,9.67-7.42,9.67-9.67,0-1.58-1.45-2.38-3-2.38a6.51,6.51,0,0,0-4.9,2.11l-2.22-2.57a9.29,9.29,0,0,1,7-3c3.89,0,7,2.19,7,5.83,0,3.12-2.57,5.83-7.31,9.28h7.45v3.42Z"/><path class="cls-3" d="M1059,734.5c0-4.71,2.32-9.42,7.55-9.42s7.56,4.71,7.56,9.42-2.36,9.44-7.56,9.44S1059,739.21,1059,734.5Zm11.14,0c0-3.37-1-6-3.59-6s-3.61,2.6-3.61,6,1,6,3.61,6S1070.11,737.87,1070.11,734.5Z"/><path class="cls-3" d="M1075.91,734.5c0-4.71,2.33-9.42,7.56-9.42s7.55,4.71,7.55,9.42-2.35,9.44-7.55,9.44S1075.91,739.21,1075.91,734.5Zm11.14,0c0-3.37-1-6-3.58-6s-3.62,2.6-3.62,6,1,6,3.62,6S1087.05,737.87,1087.05,734.5Z"/><path class="cls-3" d="M1099.83,734.5c0-4.71,2.33-9.42,7.56-9.42s7.55,4.71,7.55,9.42-2.35,9.44-7.55,9.44S1099.83,739.21,1099.83,734.5Zm11.14,0c0-3.37-1-6-3.58-6s-3.61,2.6-3.61,6,1,6,3.61,6S1111,737.87,1111,734.5Z"/><path class="cls-3" d="M1116.78,734.5c0-4.71,2.32-9.42,7.55-9.42s7.56,4.71,7.56,9.42-2.36,9.44-7.56,9.44S1116.78,739.21,1116.78,734.5Zm11.14,0c0-3.37-1-6-3.59-6s-3.61,2.6-3.61,6,1,6,3.61,6S1127.92,737.87,1127.92,734.5Z"/><path class="cls-3" d="M1133.72,734.5c0-4.71,2.33-9.42,7.56-9.42s7.55,4.71,7.55,9.42-2.35,9.44-7.55,9.44S1133.72,739.21,1133.72,734.5Zm11.14,0c0-3.37-1-6-3.58-6s-3.62,2.6-3.62,6,1,6,3.62,6S1144.86,737.87,1144.86,734.5Z"/><line class="cls-20" x1="998.44" y1="219.3" x2="831.36" y2="219.3"/><line class="cls-20" x1="998.44" y1="324.8" x2="911.07" y2="324.8"/><line class="cls-20" x1="998.44" y1="427.12" x2="932.66" y2="427.12"/><polyline class="cls-20" points="998.44 532.67 941.3 532.67 941.3 568.87 913.65 568.87"/><polyline class="cls-20" points="998.44 632.91 943.03 632.91 943.03 611.59 898.48 611.59"/><polyline class="cls-20" points="998.44 731.62 947.89 731.62 947.89 689.25 837.97 689.25"/><polyline class="cls-20" points="216.74 628.79 266.63 628.79 266.63 735.21 523.16 735.21"/><polyline class="cls-20" points="216.74 526.54 265.87 526.54 265.87 593.62 331.68 593.62 331.68 664.73 414.35 664.73"/><polyline class="cls-20" points="215.91 426.83 299.19 426.83 299.19 560.91 361.03 560.91"/><polyline class="cls-20" points="220.07 321.7 322.35 321.7 322.35 509.33 340.41 509.33"/><line class="cls-20" x1="236.14" y1="219.3" x2="425.81" y2="219.3"/></svg>