<svg xmlns="http://www.w3.org/2000/svg" width="75" height="17.854" viewBox="0 0 75 17.854"><g transform="translate(-5402.228 -2087.392)"><path d="M5418.6,2097.036c-.18,5.768-2.542,10.033-7.451,12.794-.9.505-.589.5-1.5,0a14.211,14.211,0,0,1-7.214-14.823.5.5,0,0,1,.313-.346.518.518,0,0,1,.4.254q1.521,2.925,3.006,5.867a.43.43,0,0,0,.447.28q3.91-.014,7.822,0a.394.394,0,0,0,.416-.272c.93-1.956,1.871-3.907,2.807-5.86.088-.183.205-.327.426-.288s.293.191.314.4C5418.453,2095.774,5418.538,2096.5,5418.6,2097.036Zm-8.188,12.035,3.892-7.274h-7.623Zm-.876-.154-6.524-12.718C5402.364,2100.974,5405.364,2106.819,5409.532,2108.916Zm8.3-12.534-6.434,12.456c1.61-.681,3.962-3.19,5.063-5.444A14.041,14.041,0,0,0,5417.834,2096.382Z" transform="translate(0 -4.96)" fill="#000"/><path d="M5540.561,2109.323l2.078,2.47c-.344,0-.611.017-.875-.009a.492.492,0,0,1-.261-.189c-.579-.679-1.156-1.36-1.722-2.05a.569.569,0,0,0-.5-.228c-.809.012-1.618,0-2.475,0v2.452h-.719V2105.2c.108-.006.218-.016.328-.016q2.476,0,4.953,0c.92,0,1.318.407,1.319,1.337,0,.54,0,1.079,0,1.618a1.1,1.1,0,0,1-1.184,1.186C5541.213,2109.325,5540.927,2109.323,5540.561,2109.323Zm-1.2-.745c.7,0,1.39,0,2.085,0,.37,0,.484-.113.488-.481.005-.56,0-1.119,0-1.679,0-.372-.118-.493-.479-.494q-2.085-.005-4.171,0c-.369,0-.486.118-.491.486-.006.56-.005,1.119,0,1.679,0,.383.119.489.514.49C5537.992,2108.58,5538.677,2108.578,5539.361,2108.578Z" transform="translate(-91.711 -12.188)" fill="#000"/><path d="M5508.214,2108.835h-4.225v2.2h5.22c.032.049.051.065.053.083.057.658.057.658-.6.658h-5.4v-6.625h5.573c.451,0,.452,0,.445.454,0,.081-.008.162-.015.275H5504v2.2h4.217Z" transform="translate(-69.218 -12.165)" fill="#000"/><path d="M5475.149,2111.034v.719c-.1.006-.194.017-.293.017q-2.524,0-5.049,0a1.11,1.11,0,0,1-1.243-1.25q0-2.07,0-4.141a1.1,1.1,0,0,1,1.229-1.233q2.54,0,5.08,0c.082,0,.163.009.268.014v.722h-5.251c-.494,0-.584.09-.584.576q0,2.008,0,4.016c0,.462.1.559.57.559h5.273Z" transform="translate(-45.449 -12.163)" fill="#000"/><path d="M5626.76,2111.738a7.726,7.726,0,0,1-.831-.009.533.533,0,0,1-.292-.193c-.721-.845-1.432-1.7-2.152-2.545-.068-.08-.174-.179-.265-.181-.662-.016-1.324-.008-2.024-.008v1.456c0,.394-.012.789,0,1.183.01.229-.058.328-.3.3a3.781,3.781,0,0,0-.427,0v-6.625a3.27,3.27,0,0,0,.388,0c.252-.03.343.056.336.323-.017.747-.006,1.494-.006,2.242v.373c.705,0,1.376.006,2.047-.008.081,0,.175-.1.238-.173.672-.791,1.351-1.577,2-2.387a.8.8,0,0,1,.813-.37,3.492,3.492,0,0,0,.457,0l-2.768,3.312Z" transform="translate(-149.532 -12.132)" fill="#000"/><path d="M5569.671,2105.138h.376q2.88,0,5.761,0c.511,0,.472-.094.473.487,0,.071-.013.141-.022.24h-2.91v5.876h-.733v-5.86h-2.945Z" transform="translate(-114.722 -12.156)" fill="#000"/><path d="M5415.662,2088.092c-.1.028-.213.054-.321.087l-4.756,1.454c-.07.021-.139.043-.208.063a.352.352,0,1,1-.209-.672c.614-.191,1.228-.377,1.842-.565,1.13-.345,2.258-.695,3.391-1.03a.888.888,0,0,1,.479-.008c1.757.525,3.51,1.063,5.265,1.6.079.024.2.038.223.092a.738.738,0,0,1,.124.432c-.046.2-.243.238-.433.182-.517-.151-1.033-.307-1.548-.465l-3.567-1.091C5415.853,2088.144,5415.763,2088.12,5415.662,2088.092Z" transform="translate(-5.255)" fill="#000"/><path d="M5603.472,2105.19h.7v6.586h-.7Z" transform="translate(-137.881 -12.194)" fill="#000"/></g></svg>