<?xml version="1.0" standalone="no"?>
<!DOCTYPE svg PUBLIC "-//W3C//DTD SVG 20010904//EN"
 "http://www.w3.org/TR/2001/REC-SVG-20010904/DTD/svg10.dtd">
<svg version="1.0" xmlns="http://www.w3.org/2000/svg"
 width="440.000000pt" height="440.000000pt" viewBox="0 0 440.000000 440.000000"
 preserveAspectRatio="xMidYMid meet">
<metadata>
Created by potrace 1.16, written by Peter Selinger 2001-2019
</metadata>
<g transform="translate(0.000000,440.000000) scale(0.100000,-0.100000)"
fill="#000000" stroke="none">
<path d="M2195 4278 c-86 -28 -283 -127 -325 -164 -19 -17 -53 -41 -75 -54
-54 -33 -148 -128 -166 -167 -7 -18 -17 -33 -21 -33 -5 0 -8 -9 -8 -19 0 -11
-8 -26 -18 -33 -19 -13 -23 -24 -45 -128 -7 -30 -15 -60 -19 -66 -14 -20 -31
-237 -25 -321 4 -78 3 -86 -14 -90 -10 -3 -19 -13 -20 -22 -2 -47 -10 -75 -26
-93 -21 -23 -30 -134 -15 -188 9 -34 9 -32 16 35 11 107 14 101 15 -31 1 -99
5 -130 21 -165 24 -54 36 -69 76 -96 28 -20 32 -31 47 -115 9 -51 19 -113 23
-138 3 -25 14 -72 25 -104 10 -33 19 -64 19 -70 0 -6 -19 -20 -42 -30 -62 -26
-154 -95 -222 -165 -32 -34 -65 -61 -73 -61 -8 0 -27 -7 -43 -15 -40 -21 -38
-46 5 -119 20 -32 35 -60 33 -61 -11 -9 -69 -35 -78 -35 -7 0 -51 -20 -98 -44
-48 -23 -117 -53 -153 -65 -36 -12 -94 -40 -128 -62 -77 -50 -150 -89 -167
-89 -7 0 -62 -20 -123 -45 -100 -41 -246 -83 -346 -101 -22 -4 -47 -10 -56
-15 -26 -13 -113 -128 -143 -186 l-26 -52 0 -536 0 -535 2200 0 2200 0 0 486
0 486 -32 66 c-38 80 -40 83 -109 117 -30 15 -63 35 -74 44 -49 43 -158 101
-235 126 -84 28 -140 52 -150 64 -9 12 -240 151 -250 151 -6 0 -10 4 -10 8 0
5 -21 19 -46 33 -62 33 -83 45 -90 52 -4 3 8 25 26 47 l33 41 -34 35 c-19 19
-54 42 -79 51 -38 14 -53 28 -93 87 -142 210 -151 221 -204 257 -47 33 -50 42
-29 91 21 49 46 143 60 227 7 44 18 77 25 79 8 3 21 12 31 21 9 9 38 33 64 54
69 57 119 159 131 271 10 101 -18 156 -81 156 -24 0 -26 25 -5 61 38 66 48
224 26 439 -4 36 -10 74 -14 85 -5 11 -16 47 -26 80 -10 33 -21 62 -25 65 -4
3 -19 28 -33 55 -31 61 -100 134 -187 201 -36 27 -72 56 -80 64 -18 17 -30 25
-127 80 -88 49 -187 87 -273 106 -95 20 -242 16 -315 -8z m14 -155 c17 -10 31
-21 31 -25 0 -13 28 -9 33 5 3 9 7 9 17 0 8 -7 31 -10 64 -7 33 4 46 2 38 -4
-19 -13 7 -22 62 -22 23 0 46 -4 52 -10 5 -5 23 -11 38 -12 16 -2 31 -8 33
-15 3 -7 11 -13 18 -13 7 0 16 -7 19 -16 4 -9 13 -14 21 -10 11 4 19 -3 25
-20 13 -33 13 -34 -4 -28 -19 7 -46 -33 -47 -71 0 -16 -3 -24 -6 -17 -2 6 -9
12 -14 12 -4 0 -6 -7 -2 -16 3 -10 0 -22 -8 -28 -8 -6 -19 -20 -25 -31 -6 -11
-31 -30 -55 -41 -24 -12 -59 -36 -78 -53 -18 -17 -36 -31 -40 -31 -4 0 -13
-11 -19 -25 -6 -14 -19 -25 -27 -25 -9 0 -14 -4 -10 -9 13 -22 -32 -31 -74
-14 -53 21 -84 8 -97 -38 l-10 -34 -99 1 c-165 3 -181 6 -199 36 -20 32 -11
58 19 58 12 0 42 7 65 15 23 8 66 15 95 15 38 0 55 -4 59 -15 4 -11 20 -15 56
-15 27 0 50 4 50 9 0 18 -44 62 -76 76 -19 8 -34 19 -34 24 0 6 -8 11 -18 11
-10 0 -26 14 -36 30 -9 17 -22 28 -27 25 -14 -9 -89 69 -89 93 0 29 -8 28 -42
-5 -28 -26 -28 -27 -28 -4 0 12 -4 19 -10 16 -5 -3 -10 -15 -10 -27 0 -15 -5
-19 -19 -15 -14 3 -21 -4 -31 -33 -10 -32 -41 -60 -65 -60 -9 0 -5 100 4 118
6 9 12 28 15 42 11 53 120 160 162 160 11 0 28 6 39 14 11 7 34 16 50 19 17 3
48 10 70 15 66 16 131 13 164 -5z m-529 -383 c16 -16 18 -24 10 -41 -6 -11
-16 -17 -23 -13 -9 5 -8 3 1 -7 16 -18 15 -70 -3 -95 -8 -12 -11 -24 -8 -28 4
-4 -3 -9 -15 -13 -25 -6 -30 -38 -8 -50 25 -14 47 -65 34 -80 -6 -7 -7 -13 -3
-13 4 0 2 -7 -5 -15 -7 -8 -23 -15 -36 -15 -19 0 -24 -5 -24 -26 0 -30 -29
-122 -40 -129 -5 -3 -2 19 6 47 17 65 17 70 0 38 -13 -22 -14 -17 -21 65 -11
124 14 235 62 283 7 8 11 24 8 36 -2 11 -2 15 1 8 10 -21 34 6 34 39 0 34 4
35 30 9z m667 -575 c14 -10 19 -22 16 -35 -3 -11 0 -20 5 -20 6 0 17 -10 23
-22 11 -21 11 -22 -4 -10 -13 11 -15 10 -13 -13 2 -14 -5 -36 -15 -49 -11 -13
-19 -31 -19 -39 0 -9 -5 -17 -12 -19 -7 -3 -8 -9 -3 -18 22 -35 14 -60 -22
-75 -39 -16 -133 -20 -133 -6 0 5 -27 12 -60 16 -33 4 -62 10 -64 14 -3 4 10
18 27 31 51 40 137 135 173 192 29 45 50 64 74 67 3 1 15 -6 27 -14z m25 -748
c47 -2 58 -5 58 -19 0 -33 -157 -42 -257 -14 -28 7 -54 11 -57 8 -3 -3 -15 3
-26 13 -17 16 -25 17 -40 7 -24 -15 -33 -15 -25 -2 3 6 -1 7 -9 4 -9 -4 -16
-1 -16 6 0 9 37 11 158 6 86 -4 183 -8 214 -9z m-659 -322 c6 -15 -31 -47 -70
-59 -20 -7 -21 -8 -6 -59 8 -29 27 -108 43 -177 16 -69 45 -165 65 -215 37
-92 159 -329 220 -427 11 -17 135 -78 225 -109 76 -27 100 -58 100 -126 l0
-55 30 30 c17 17 30 33 30 35 0 3 51 57 114 120 138 140 173 183 221 267 20
36 47 83 61 105 13 22 35 61 49 88 14 26 27 47 29 47 4 0 -9 -47 -29 -105 -6
-19 -6 -19 6 -1 6 11 22 57 35 103 13 46 36 123 53 171 17 48 32 114 35 147 3
33 6 65 7 70 1 6 9 -28 19 -75 l18 -85 -4 95 -4 95 16 -45 c19 -55 22 -139 10
-240 -6 -41 -9 -100 -8 -131 5 -105 -111 -416 -198 -535 -48 -64 -65 -76 -150
-104 -72 -24 -117 -46 -138 -66 -7 -8 -18 -14 -23 -14 -14 0 -39 -26 -39 -40
0 -6 -4 -8 -10 -5 -5 3 -7 0 -5 -7 6 -15 -20 -56 -29 -47 -11 11 24 163 40
172 25 14 54 46 54 58 0 6 -15 0 -34 -14 -18 -15 -36 -24 -38 -21 -9 8 -28
-79 -32 -148 -4 -62 -19 -100 -53 -136 -7 -7 -17 -32 -23 -55 -6 -23 -14 -58
-20 -77 -5 -19 -6 -37 -1 -40 4 -3 11 -58 15 -123 l8 -118 -49 3 -48 3 4 125
c2 69 8 128 13 131 7 4 6 9 -1 13 -6 4 -11 31 -11 59 0 29 -7 66 -16 82 -9 17
-16 50 -17 75 0 27 -2 34 -4 17 -5 -31 -19 -36 -28 -8 -3 10 -14 26 -25 36
-11 10 -20 27 -20 37 0 10 -8 22 -17 25 -61 24 -324 298 -308 322 6 11 -78
189 -122 258 -18 29 -33 55 -33 59 0 4 -15 30 -32 58 l-33 51 1 150 c1 173 17
277 48 309 21 22 85 66 97 66 4 0 9 -7 12 -15z"/>
<path d="M2640 1210 c-8 -16 -8 -18 5 -14 19 8 20 -10 0 -26 -8 -7 -15 -18
-15 -24 0 -6 -10 -27 -22 -46 -12 -19 -22 -39 -22 -45 -2 -23 -33 -53 -62 -59
-25 -6 -32 -14 -42 -52 -7 -25 -16 -43 -20 -40 -4 2 -8 -4 -8 -14 0 -22 22
-16 51 14 11 12 30 22 42 23 12 2 33 14 47 28 18 18 33 24 45 20 13 -4 24 1
33 13 7 10 23 24 35 30 12 7 24 21 28 32 3 11 12 19 18 17 7 -1 13 14 15 38 2
32 -3 47 -25 73 -15 18 -43 37 -61 42 -27 7 -34 6 -42 -10z"/>
<path d="M1845 1187 c-18 -14 -13 -43 6 -32 11 7 28 -35 30 -73 2 -24 2 -24 6
-4 7 36 23 25 23 -16 0 -34 5 -42 45 -72 25 -19 45 -37 45 -42 0 -4 5 -8 10
-8 6 0 10 12 10 27 0 14 3 23 7 20 3 -4 12 -2 18 3 21 17 37 -15 33 -64 -1
-25 0 -42 4 -38 10 10 13 110 4 119 -4 4 -13 8 -19 9 -7 0 -20 2 -29 2 -10 1
-18 8 -18 15 0 7 -18 21 -39 31 -23 10 -43 26 -47 39 -3 12 -13 29 -21 39 -10
11 -11 18 -3 23 8 5 8 11 -1 21 -15 18 -40 18 -64 1z"/>
</g>
</svg>
