<svg style="height: 27px;width: 27px;" class="icon serviceLink-icon" aria-hidden="true" xmlns="http://www.w3.org/2000/svg" width="30" height="30" viewBox="0 0 30 30"><g id="客服" transform="translate(-1760 -17)"><rect id="矩形_387" data-name="矩形 387" width="30" height="30" transform="translate(1760 17)" fill="none"></rect><g id="客服-2" data-name="客服" transform="translate(1713.24 -30.283)"><path id="路径_146" data-name="路径 146" d="M123.557,212.933a3.486,3.486,0,1,0-3.486-3.486A3.486,3.486,0,0,0,123.557,212.933Zm0,1.162a4.648,4.648,0,1,1,4.648-4.648A4.648,4.648,0,0,1,123.557,214.1Zm-.614,1.162a7.246,7.246,0,0,0-6.481,4.005l-.641,1.285a1.162,1.162,0,0,0,1.039,1.681h13.394a1.162,1.162,0,0,0,1.039-1.681l-.641-1.285a7.246,7.246,0,0,0-6.481-4.005Zm0-1.162h1.227a8.407,8.407,0,0,1,7.52,4.647l.643,1.285a2.324,2.324,0,0,1-2.08,3.362H116.861a2.324,2.324,0,0,1-2.079-3.362l.641-1.285a8.407,8.407,0,0,1,7.52-4.648Z" transform="translate(-61.951 -150.07)" fill="#000"></path><path id="路径_147" data-name="路径 147" d="M54.635,61.7v1.814l-1.549-.436a2.9,2.9,0,0,1,0-5.478l.634-.224a8.137,8.137,0,0,1,15.771,0l.634.224a2.9,2.9,0,0,1,0,5.478l-1.549.436V59.378a6.971,6.971,0,1,0-13.943,0Z" transform="translate(0 0)" fill="#000"></path></g></g></svg>