<?xml version="1.0" standalone="no"?>
<!DOCTYPE svg PUBLIC "-//W3C//DTD SVG 20010904//EN"
 "http://www.w3.org/TR/2001/REC-SVG-20010904/DTD/svg10.dtd">
<svg version="1.0" xmlns="http://www.w3.org/2000/svg"
 width="512.000000pt" height="512.000000pt" viewBox="0 0 512.000000 512.000000"
 preserveAspectRatio="xMidYMid meet">
<metadata>
Created by potrace 1.14, written by Peter Selinger 2001-2017
</metadata>
<g transform="translate(0.000000,512.000000) scale(0.100000,-0.100000)"
fill="#000000" stroke="none">
<path d="M1129 3769 c-20 -4 -47 -10 -61 -13 -96 -17 -284 -99 -388 -169 -174
-117 -349 -316 -409 -464 -7 -18 -17 -33 -22 -33 -5 0 -9 -10 -9 -23 0 -13 -4
-27 -8 -33 -21 -23 -64 -175 -80 -279 -9 -56 -8 -342 1 -387 22 -115 69 -266
98 -319 7 -13 12 -27 11 -31 -1 -5 3 -8 9 -8 5 0 7 -4 4 -10 -3 -5 -2 -10 3
-10 4 0 16 -16 26 -36 52 -111 196 -270 334 -372 80 -59 231 -142 258 -142 8
0 14 -5 14 -11 0 -5 5 -7 10 -4 6 4 16 3 23 -2 17 -13 73 -30 137 -42 30 -6
69 -13 85 -17 43 -9 259 -10 327 -2 120 15 275 64 388 122 144 75 284 191 393
326 33 41 65 80 71 85 13 12 38 46 124 173 l64 93 19 -25 c10 -13 19 -28 19
-33 0 -4 11 -21 25 -36 14 -15 23 -27 20 -27 -8 0 143 -186 213 -262 128 -138
246 -231 384 -300 190 -95 335 -127 553 -123 83 1 164 5 180 9 17 4 55 12 85
18 64 14 68 15 75 18 3 1 8 3 13 4 64 15 126 57 146 100 49 103 1 226 -105
270 -41 17 -141 15 -164 -4 -8 -7 -15 -10 -15 -7 0 3 -15 1 -32 -4 -79 -22
-252 -30 -338 -14 -148 26 -307 108 -415 212 -52 51 -138 149 -164 186 -8 12
-18 24 -22 27 -20 15 -142 209 -187 297 -45 90 -50 104 -37 117 8 8 15 17 15
20 0 10 113 191 122 194 4 2 8 8 8 13 0 9 75 115 91 129 3 3 12 15 20 27 23
34 108 131 162 184 50 50 151 121 222 157 53 26 168 61 225 68 89 11 290 5
290 -9 0 -4 4 -6 8 -3 15 9 167 -49 238 -91 71 -42 200 -159 246 -223 37 -52
83 -139 103 -195 9 -27 20 -57 23 -65 25 -70 36 -283 20 -375 -15 -84 -19 -96
-38 -133 -11 -20 -21 -48 -23 -61 -5 -35 12 -110 32 -133 9 -11 23 -28 31 -37
8 -10 25 -21 38 -25 12 -4 22 -11 22 -16 0 -4 9 -6 20 -3 11 3 20 1 20 -5 0
-6 13 -7 35 -2 19 4 35 6 35 4 0 -8 75 35 97 55 32 30 47 63 76 166 41 141 47
187 47 350 0 66 -2 131 -5 145 -2 14 -7 36 -10 50 -2 14 -7 39 -10 55 -13 78
-59 209 -105 300 -35 69 -95 165 -102 165 -4 0 -8 4 -8 9 0 41 -255 272 -355
321 -16 8 -32 18 -35 21 -5 5 -57 30 -130 61 -19 9 -62 23 -95 33 -33 9 -67
19 -75 22 -50 18 -393 27 -465 12 -27 -6 -61 -12 -75 -15 -53 -10 -153 -45
-201 -70 -16 -8 -29 -11 -29 -7 0 5 -4 3 -8 -2 -4 -6 -32 -23 -62 -39 -74 -40
-187 -124 -252 -188 -132 -130 -371 -460 -483 -663 -103 -189 -416 -663 -491
-745 -116 -126 -164 -166 -265 -218 -59 -31 -127 -57 -164 -64 -2 0 -29 -6
-59 -13 -55 -13 -253 -13 -311 -1 -193 42 -370 153 -481 303 -16 21 -33 41
-39 45 -7 5 -7 8 0 8 6 0 5 3 -1 8 -25 16 -97 179 -110 246 -2 12 -7 32 -10
46 -13 48 -7 335 6 335 1 0 3 9 5 20 6 38 15 70 24 90 79 176 137 257 252 354
65 55 209 141 209 125 0 -3 6 -2 13 3 13 11 68 30 108 38 13 3 38 8 54 11 38
8 225 12 225 4 0 -3 17 -6 38 -8 40 -2 58 -6 82 -15 8 -3 33 -11 55 -17 92
-28 214 -105 314 -199 58 -55 95 -73 156 -77 76 -4 145 37 178 107 24 51 26
83 12 151 -8 35 -131 160 -227 231 -138 102 -284 168 -473 213 -43 10 -393 13
-436 3z"/>
<path d="M4485 1751 c-39 -16 -84 -70 -91 -108 -11 -54 -11 -64 5 -103 35 -89
137 -129 221 -85 67 35 93 102 79 203 -1 6 -6 12 -11 12 -4 0 -8 6 -8 13 0 14
-32 44 -70 64 -28 14 -94 16 -125 4z m146 -34 c53 -43 75 -129 47 -180 -17
-28 -57 -66 -83 -76 -31 -13 -87 -7 -120 13 -45 27 -66 61 -70 116 -6 93 65
162 158 153 22 -3 53 -14 68 -26z"/>
<path d="M4440 1648 c0 -5 6 -8 14 -8 17 0 23 -16 21 -57 -1 -18 4 -34 10 -37
7 -2 11 13 10 45 -1 42 2 49 19 49 10 0 16 3 12 7 -9 9 -86 10 -86 1z"/>
<path d="M4549 1643 c-6 -67 -5 -95 3 -99 9 -6 11 8 8 44 -1 12 3 22 9 22 6 0
10 -3 10 -7 -8 -53 20 -71 38 -25 l11 27 1 -34 c1 -25 4 -32 12 -24 5 5 9 34
7 62 -3 47 -5 51 -20 39 -10 -7 -20 -24 -22 -38 -3 -14 -5 -27 -6 -30 -1 -3
-7 13 -13 34 -13 42 -36 60 -38 29z"/>
</g>
</svg>
